<svg width="16" height="16" viewBox="0 0 16 16" fill="none" xmlns="http://www.w3.org/2000/svg">
<g clip-path="url(#clip0_1_29116)">
<path d="M6.44427 4.11133L6.04306 5.19555C5.51698 6.61725 5.25394 7.32811 4.73537 7.84672C4.21681 8.36525 3.50595 8.62828 2.08423 9.15443L1 9.55559L2.08423 9.95676C3.50595 10.4829 4.21681 10.7459 4.73537 11.2645C5.25394 11.7831 5.51698 12.4939 6.04306 13.9156L6.44427 14.9999L6.84543 13.9156C7.37158 12.4939 7.63462 11.7831 8.15314 11.2645C8.67175 10.7459 9.38261 10.4829 10.8043 9.95676L11.8885 9.55559L10.8043 9.15443C9.38261 8.62828 8.67175 8.36525 8.15314 7.84672C7.63462 7.32811 7.37158 6.61725 6.84543 5.19555L6.44427 4.11133Z" stroke="#5B75EE" stroke-width="1.16663" stroke-linejoin="round"/>
<path d="M12.6668 1.00024L12.4948 1.46491C12.2693 2.07422 12.1566 2.37888 11.9343 2.60112C11.7121 2.82336 11.4075 2.93609 10.7982 3.16156L10.3335 3.3335L10.7982 3.50545C11.4075 3.73091 11.7121 3.84364 11.9343 4.06589C12.1566 4.28812 12.2693 4.59278 12.4948 5.20209L12.6668 5.66676L12.8387 5.20209C13.0642 4.59278 13.1769 4.28812 13.3992 4.06588C13.6214 3.84364 13.926 3.73091 14.5353 3.50545L15 3.3335L14.5353 3.16156C13.926 2.93609 13.6214 2.82336 13.3992 2.60112C13.1769 2.37888 13.0642 2.07422 12.8387 1.46491L12.6668 1.00024Z" stroke="#5B75EE" stroke-width="1.16663" stroke-linejoin="round"/>
</g>
<defs>
<clipPath id="clip0_1_29116">
<rect width="16" height="16" fill="white"/>
</clipPath>
</defs>
</svg>
