<svg width="32" height="32" viewBox="0 0 32 32" fill="none" xmlns="http://www.w3.org/2000/svg">
<path d="M9.47998 9.47998H11.11V12.74H9.47998V9.47998ZM9.47998 14.37H11.11V17.63H9.47998V14.37ZM14.37 9.47998H16V12.74H14.37V9.47998ZM14.37 14.37H16V17.63H14.37V14.37ZM9.47998 19.26H11.11V22.52H9.47998V19.26ZM14.37 19.26H16V22.52H14.37V19.26Z" fill="black"/>
<path d="M27.4101 14.3701C27.4101 13.9378 27.2384 13.5232 26.9327 13.2175C26.627 12.9118 26.2124 12.7401 25.7801 12.7401H20.8901V6.22009C20.8901 5.78778 20.7184 5.37319 20.4127 5.0675C20.107 4.76182 19.6924 4.59009 19.2601 4.59009H6.22009C5.78778 4.59009 5.37319 4.76182 5.0675 5.0675C4.76182 5.37319 4.59009 5.78778 4.59009 6.22009V27.4101H27.4101V14.3701ZM6.22009 6.22009H19.2601V25.7801H6.22009V6.22009ZM20.8901 25.7801V14.3701H25.7801V25.7801H20.8901Z" fill="black"/>
</svg>
