<svg width="32" height="32" viewBox="0 0 32 32" fill="none" xmlns="http://www.w3.org/2000/svg">
<path d="M18.7189 26.8749C18.7189 27.1153 18.6234 27.3458 18.4534 27.5158C18.2835 27.6857 18.053 27.7812 17.8126 27.7812H14.1876C13.9473 27.7812 13.7168 27.6857 13.5468 27.5158C13.3768 27.3458 13.2814 27.1153 13.2814 26.8749C13.2814 26.6346 13.3768 26.4041 13.5468 26.2341C13.7168 26.0642 13.9473 25.9687 14.1876 25.9687H17.8126C18.053 25.9687 18.2835 26.0642 18.4534 26.2341C18.6234 26.4041 18.7189 26.6346 18.7189 26.8749ZM16.0001 14.1874C16.269 14.1874 16.5318 14.1077 16.7553 13.9584C16.9789 13.809 17.1531 13.5967 17.256 13.3483C17.3589 13.0999 17.3858 12.8266 17.3334 12.5629C17.2809 12.2992 17.1514 12.057 16.9613 11.8668C16.7712 11.6767 16.529 11.5473 16.2653 11.4948C16.0016 11.4424 15.7283 11.4693 15.4799 11.5722C15.2315 11.6751 15.0192 11.8493 14.8698 12.0728C14.7205 12.2964 14.6407 12.5592 14.6407 12.8281C14.6407 13.1886 14.784 13.5344 15.0389 13.7893C15.2938 14.0442 15.6396 14.1874 16.0001 14.1874ZM26.8321 19.1526L25.4319 25.4544C25.3655 25.7537 25.2242 26.0312 25.0214 26.261C24.8186 26.4908 24.5607 26.6655 24.272 26.7686C23.9834 26.8717 23.6732 26.8998 23.3707 26.8505C23.0682 26.8012 22.7831 26.6759 22.5421 26.4864L19.4563 24.1562H12.5462L9.45812 26.4864C9.21716 26.6759 8.93207 26.8012 8.62953 26.8505C8.32698 26.8998 8.01687 26.8717 7.72818 26.7686C7.43949 26.6655 7.18167 26.4908 6.97883 26.261C6.77598 26.0312 6.63474 25.7537 6.56831 25.4544L5.16816 19.1526C5.10877 18.8821 5.11177 18.6017 5.17693 18.3326C5.2421 18.0635 5.36772 17.8128 5.54425 17.5995L8.77956 13.7185C8.88803 12.2922 9.21547 10.8911 9.75039 9.56444C11.2117 5.90092 13.8285 3.60245 14.89 2.78456C15.2077 2.53838 15.5982 2.40479 16.0001 2.40479C16.402 2.40479 16.7926 2.53838 17.1103 2.78456C18.1683 3.60245 20.7885 5.90092 22.2498 9.56444C22.7848 10.8911 23.1122 12.2922 23.2207 13.7185L26.456 17.5995C26.6325 17.8128 26.7581 18.0635 26.8233 18.3326C26.8885 18.6017 26.8915 18.8821 26.8321 19.1526ZM12.7637 22.3437H19.2366C21.6291 18.0911 22.0765 14.0198 20.5665 10.2362C19.2343 6.89667 16.7353 4.7851 16.0001 4.2187C15.2627 4.7851 12.7637 6.89667 11.4315 10.2362C9.92371 14.0198 10.3712 18.0911 12.7637 22.3437ZM11.0644 23.0064C9.84479 20.7899 9.10468 18.6115 8.84414 16.4712L6.93761 18.7595L8.33777 25.0624L8.35816 25.0477L11.0644 23.0064ZM25.0626 18.7595L23.1561 16.4712C22.8978 18.6069 22.1592 20.7853 20.9403 23.0064L23.6421 25.0455L23.6625 25.0602L25.0626 18.7595Z" fill="black"/>
</svg>
