<svg width="32" height="32" viewBox="0 0 32 32" fill="none" xmlns="http://www.w3.org/2000/svg">
<path d="M17.8126 14.7916C18.9342 14.7916 20.0099 14.346 20.8031 13.5529C21.5962 12.7598 22.0417 11.6841 22.0417 10.5624C22.0417 9.44077 21.5962 8.36507 20.8031 7.57195C20.0099 6.77882 18.9342 6.33325 17.8126 6.33325M17.3812 25.6666H6.16062C4.92087 25.6666 3.91675 24.7398 3.91675 23.5955C3.91675 20.7354 6.42887 18.4166 9.52704 18.4166H14.0148C15.216 18.4123 16.3901 18.7735 17.3812 19.4521M24.4584 18.4166V25.6666M28.0834 22.0416H20.8334M16.0001 10.5624C16.0001 11.6841 15.5545 12.7598 14.7614 13.5529C13.9683 14.346 12.8926 14.7916 11.7709 14.7916C10.6493 14.7916 9.57356 14.346 8.78044 13.5529C7.98732 12.7598 7.54175 11.6841 7.54175 10.5624C7.54175 9.44077 7.98732 8.36507 8.78044 7.57195C9.57356 6.77882 10.6493 6.33325 11.7709 6.33325C12.8926 6.33325 13.9683 6.77882 14.7614 7.57195C15.5545 8.36507 16.0001 9.44077 16.0001 10.5624Z" stroke="#171717" stroke-width="1.8125" stroke-linecap="round" stroke-linejoin="round"/>
</svg>
