<svg width="91" height="12" viewBox="0 0 91 12" fill="none" xmlns="http://www.w3.org/2000/svg">
<path d="M1.53784 8.17334C2.03138 8.04096 2.69804 7.98988 3.21035 7.98473C3.37083 7.98287 3.30836 8.10033 3.41989 8.10377C3.63801 8.11035 3.82679 8.02725 4.04359 8.04204C4.11552 8.04745 4.05604 8.22714 4.13085 8.22902C4.54037 8.23817 4.91092 8.13512 5.31978 8.10539C7.33474 7.95908 9.29603 7.70723 11.3204 7.45977C11.9863 7.37829 12.8194 7.39905 13.4917 7.22388C13.5703 7.20325 13.4994 7.06533 13.5127 7.0509C13.7224 6.82896 13.69 7.13552 13.8523 7.14957C14.4972 7.20442 15.1826 7.10857 15.7716 6.95691C16.0212 6.89211 15.7209 6.64357 16.002 6.76511C16.0214 6.77325 15.9818 6.93808 16.0539 6.94347C16.2174 6.95539 16.5116 6.88012 16.6354 6.87293C16.8742 6.85986 16.9126 6.85215 17.135 6.8185C17.4407 6.77362 17.8153 6.79276 18.1358 6.70584C18.2042 6.68682 18.0868 6.54302 18.1935 6.49839C18.3004 6.45378 18.5962 6.42052 18.701 6.44217C18.8058 6.46382 18.7835 6.59507 18.8055 6.62084C18.9877 6.83893 19.2766 6.45088 19.3189 6.4357C20.096 6.16812 20.8086 6.25011 21.5595 6.13083C22.1271 6.04025 22.7264 5.88132 23.2696 5.80459C23.9148 5.71412 24.4767 5.71383 25.1011 5.60079C25.1669 5.58905 25.0603 5.41481 25.1407 5.4001C25.9904 5.24466 26.8531 5.13069 27.7247 5.12394C27.8128 5.12334 27.7273 5.30427 27.8168 5.31345C28.3657 5.36577 29.2377 5.56147 29.4428 4.79999C29.8039 4.7726 30.2396 4.73477 30.5781 4.82968C30.7964 4.89072 30.6259 5.09957 30.8645 4.98491C30.9184 4.95924 30.8205 4.81443 30.904 4.78764C31.2559 4.67492 31.656 4.66542 31.9974 4.5305C32.0667 4.50268 32.0256 4.36573 32.0421 4.3374C32.1824 4.10698 32.5174 4.40106 32.5852 4.4158C33.0906 4.52564 33.4264 4.40081 33.8674 4.3383C33.9697 4.32388 33.8204 4.1542 33.9178 4.13357C34.4257 4.02878 34.9633 3.96388 35.4741 3.97216C35.5879 3.97443 35.5101 4.15004 35.5657 4.15932C35.8093 4.19853 35.8195 3.88753 36.0552 3.91892C36.105 3.92513 36.0987 4.06633 36.1097 4.08009C36.2815 4.29605 36.3492 3.94326 36.3831 3.93061C36.8113 3.76294 37.1383 4.07164 37.5625 3.95768C37.6128 3.94374 37.4712 3.78743 37.6144 3.75887C38.5639 3.56822 39.5846 3.46599 40.5487 3.46672C40.7 3.46639 40.6134 3.61232 40.625 3.62704C40.8137 3.85607 40.8624 3.50511 40.9087 3.4854C41.2755 3.33861 41.6665 3.57012 41.8652 3.13183C43.491 3.03829 45.0601 2.58526 46.7021 2.72451C46.7229 2.72587 46.7096 2.89688 46.7511 2.89888C47.2501 2.92491 47.1207 2.67992 47.3965 2.32051C47.4647 2.23042 47.7684 2.577 47.7935 2.60204C47.8876 2.69403 47.8383 2.95237 47.8678 2.96865C48.1106 3.09497 47.9636 2.2829 48.2607 2.24228C48.2702 2.24239 48.2516 2.39805 48.2786 2.40962C48.3623 2.44607 48.4307 2.37595 48.5131 2.41752C48.7028 2.51386 48.8123 2.90329 49.0513 2.63594C49.081 2.60143 48.9676 2.14475 49.2377 2.13087C49.346 2.12562 49.8127 2.05543 49.946 2.06842C50.0798 2.08127 50.0104 2.24246 50.0205 2.2477C50.399 2.39875 50.278 2.49804 50.4942 2.76718C50.7105 3.03523 50.5699 2.34666 50.6323 2.25958C50.695 2.17266 50.9751 2.30195 51.0456 2.35046C51.1162 2.39895 51.0497 2.50416 51.11 2.52895C51.5089 2.69043 51.2285 2.16273 51.3365 2.03656C51.5965 1.73735 51.8935 2.22345 52.1655 2.2402C52.2392 2.24471 52.1656 2.1347 52.2282 2.11558C52.3786 2.07069 52.5006 2.1051 52.6325 2.09846C52.7215 2.09375 52.8149 2.07164 52.9235 1.99902C52.9686 1.96895 53.1675 1.62928 53.3478 1.83827C53.3734 1.86845 53.328 2.00455 53.4404 2.01999C53.6085 2.04322 53.9027 2.03605 54.0696 1.97245C54.1928 1.92542 54.0219 1.73088 54.1896 1.77762C54.264 1.79856 54.1474 1.93822 54.2859 1.96725C54.4251 1.99612 54.7766 1.94921 54.907 1.92976C55.0381 1.91008 54.9474 1.75761 54.9567 1.74553C55.0141 1.67593 55.2566 1.56938 55.2786 1.56709C56.389 1.42004 57.4566 1.57993 58.5447 1.38119C58.6291 1.36594 58.5556 1.20162 58.5683 1.19755C58.8521 1.0977 58.6676 1.57203 58.8844 1.70349C58.8233 1.36131 58.9413 1.41274 59.1509 1.35443C59.2506 1.32621 59.1826 1.19794 59.1905 1.18338C59.3216 0.966117 59.4503 1.2184 59.4821 1.2695C59.5993 1.45741 59.6844 1.21442 59.7633 1.34008C59.8419 1.46479 59.7071 1.67288 59.9045 1.65214C59.9486 1.52353 59.7721 1.21424 59.9174 1.14812C60.4527 0.898592 61.5587 1.05954 62.0107 1.05096C62.4765 1.04059 62.6203 1.00709 62.8875 1.03212C63.3649 1.07844 63.1794 0.850887 63.4729 0.719749C63.7684 0.588874 63.6614 1.18952 63.7136 1.31341C63.7647 1.43735 63.802 1.30362 63.8592 1.3698C63.9161 1.436 63.809 1.52992 63.9334 1.54783C64.0582 1.5656 64.375 1.31833 64.409 1.18296C64.4825 0.895982 64.3103 0.610335 64.6497 0.693298C64.6692 0.698276 64.6168 0.857397 64.6908 0.868588C65.2755 0.952593 65.8635 0.927578 66.4415 1.00585C66.52 1.01691 66.4588 1.19314 66.5045 1.20154C66.9766 1.29031 66.7972 1.00659 67.0473 0.67105C67.006 1.1048 67.166 1.36162 67.5242 1.35008C67.7388 1.34349 67.6945 1.15666 67.8276 1.01887C67.8659 0.977389 68.0262 1.10124 68.0518 1.01172C68.135 0.719127 67.9786 0.399519 68.3596 0.516559C68.3763 0.522182 68.3288 0.682306 68.3859 0.690143C68.7566 0.741929 68.7756 0.43814 69.1828 0.39167C69.5003 0.355262 70.0428 0.530633 70.4052 0.557389C70.4035 1.04242 70.7327 0.928446 70.8628 0.593551C71.0934 0.606115 71.3475 0.587103 71.5656 0.634193C71.6409 0.650257 71.5907 0.790506 71.6002 0.80572C71.7441 1.0444 71.8419 0.719766 71.8947 0.707422C72.4407 0.58803 72.8702 0.842613 73.3844 0.616172C73.4037 0.608075 73.4371 0.271816 73.5718 0.522226C73.5801 0.539477 73.4025 0.687148 73.6483 0.706938C73.895 0.726745 74.3314 0.924754 74.6781 0.786303C74.7622 0.752876 74.9715 0.489973 75.1321 0.713606C75.1526 0.743894 75.1226 0.838926 75.1515 0.894512C75.2442 1.07173 75.3215 0.735257 75.4217 1.03169C75.518 1.32793 75.7555 1.56069 76.1001 1.38797C76.1117 1.38309 76.208 1.11993 76.3147 1.13321C76.4882 1.15482 76.7187 1.23232 76.8907 1.24762C76.977 1.25523 76.9385 1.08296 76.9538 1.0814C77.5303 1.04553 77.9213 1.24181 78.5099 1.3928C78.6225 1.42139 78.9699 1.24373 79.1573 1.45976C79.3507 1.69508 78.9805 2.46191 79.5265 2.36582C79.7497 2.3298 80.2407 1.36387 80.5042 1.9842C80.6336 1.99117 80.7766 2.01664 80.8966 2.04612C80.8988 2.04684 80.9059 2.04816 80.9082 2.04866C81.5181 2.13765 82.0732 2.39216 82.7215 2.3412C82.7573 2.3386 82.9118 2.06905 82.9918 2.08649C83.1101 2.11287 83.1512 2.25786 83.2353 2.28107C83.5836 2.38113 83.9278 2.32083 84.2672 2.39647C84.3966 2.42498 84.3271 2.55606 84.4808 2.59001C84.6348 2.62389 84.7693 2.45857 84.9635 2.58237C85.1115 2.67673 85.2056 3.07718 85.4085 3.15667C85.4795 2.78954 85.6228 2.82177 85.8959 2.76858C85.9487 2.75824 85.9176 2.62085 85.9437 2.60935C86.0505 2.55967 86.1195 2.681 86.2226 2.62474C86.2475 2.61126 86.2703 2.48563 86.2919 2.4675C86.4768 2.30865 86.6798 2.63556 86.7135 2.69225C86.847 2.9084 86.9524 2.75836 87.0664 2.85443C87.179 2.9503 86.9742 3.00898 87.1143 3.07985C87.4045 3.22656 87.8013 3.27713 88.1098 3.34048C88.2337 3.36514 88.1802 3.18182 88.1987 3.18146C88.2405 3.18235 88.2809 3.18865 88.32 3.19742C88.5344 3.2324 88.7364 3.33455 88.8791 3.05865C88.9943 3.94693 89.0413 2.9877 89.3974 3.18027C89.4255 3.19563 89.4476 3.61215 89.3296 3.668C89.2109 3.72368 89.0438 3.58465 88.8767 3.66719C88.8387 3.6872 88.5829 4.05544 88.5478 4.07517C88.2837 4.23353 88.3223 3.61126 88.3152 3.57649C88.3062 3.5406 88.2955 3.51146 88.2832 3.4881C88.2797 3.4875 88.2693 3.48617 88.2659 3.48537C88.1666 3.25437 87.8869 3.55511 87.823 3.5701C87.4929 3.64454 87.2479 3.51214 86.975 3.55999C86.7975 3.59076 86.7098 3.98792 86.5808 3.95265C86.15 3.83556 86.0936 3.25068 85.5971 3.66403C85.4908 3.75217 85.5034 4.20481 85.245 3.80639C85.2289 3.78128 85.046 3.42604 84.8766 3.60223C84.8552 3.62443 84.8341 3.75212 84.8096 3.75899C84.6466 3.80265 84.5617 3.68369 84.3898 3.70468C84.2155 3.72528 84.0059 3.76456 83.8249 3.68956C83.7148 3.64439 83.6106 3.38235 83.5652 3.31484C83.4407 3.12145 83.2287 3.3686 83.1683 3.14963C83.1065 2.92938 83.3465 2.65094 83.1164 2.47673C83.0515 2.80679 82.9731 3.14358 82.9022 3.47457C82.3526 3.37036 81.828 3.17231 81.2718 3.09419C81.203 3.08487 81.2432 3.27489 81.1686 3.26947C81.0087 3.25739 80.8675 3.20768 80.7218 3.16057C80.6979 3.15547 80.6263 3.14205 80.603 3.13466C80.4847 3.08 80.348 3.02571 80.1996 3.01622C79.9579 2.9997 79.6722 3.13346 79.4169 3.13224C79.3471 2.72567 78.9578 2.78662 78.6891 2.70837C78.5997 2.68172 78.6219 2.58125 78.5607 2.53775C78.3249 2.37624 78.3928 2.73076 78.315 2.77317C77.9886 2.95672 78.0648 2.18998 77.7047 2.1635C77.6861 2.16174 77.4052 2.54116 77.3695 2.56298C77.1448 2.70503 77.3503 2.41698 77.2287 2.37285C77.0115 2.29319 76.8413 2.17716 76.5674 2.27224C76.4859 2.30034 76.2686 2.53756 76.1302 2.32782C76.1124 2.30037 76.1345 2.16613 76.1191 2.1569C75.8363 2.00134 75.793 2.42589 75.611 2.55733C75.4298 2.68888 75.1948 2.37927 75.1433 2.29132C75.0148 2.06383 75.2576 2.20439 75.2659 2.18349C75.3712 1.93362 75.1771 1.96522 75.0271 1.93489C75.0283 1.51639 74.8187 1.52982 74.8731 1.90535C74.8774 1.94625 74.998 1.91403 75.0271 1.93489C74.864 2.33595 74.6544 2.37686 74.4161 1.98223C74.3073 1.79763 74.4208 1.59259 74.0641 1.65428C73.9018 1.68241 73.953 1.97227 73.8073 2.04531C73.4657 2.21174 73.0649 1.93218 72.7145 1.96776C72.5889 1.98071 72.7065 2.14042 72.6232 2.15479C72.4061 2.19359 72.2128 2.07275 71.9854 2.13111C71.9648 2.13661 72.0135 2.30188 71.943 2.30334C71.4239 2.31804 70.9541 2.21294 70.4126 2.21535C70.1413 2.21649 69.6742 2.3148 69.3972 2.30267C68.9039 2.28225 68.3319 2.05955 67.9115 2.13302C67.6512 2.17977 67.7143 2.34255 67.6059 2.45907C67.3975 2.68482 66.9864 2.31215 66.9289 2.25439C66.9274 2.25241 67.1592 2.20341 67.0309 2.12428C66.9506 1.95129 66.9315 2.25352 66.9289 2.25439C66.8891 2.21691 66.4396 2.2004 66.3481 2.23671C66.2995 2.25635 66.3349 2.41099 66.3094 2.41829C65.691 2.58909 65.1017 2.66259 64.4636 2.63018C64.4526 2.62772 64.4576 2.45233 64.4321 2.44872C64.0733 2.39397 63.8565 2.62293 63.5656 2.77053C63.2689 2.91857 63.0432 2.89269 62.8445 2.6068C62.6254 2.66104 62.2918 2.55395 62.0967 2.48886C61.9001 2.42385 61.9065 2.76463 61.8902 2.77268C61.4099 3.02776 61.098 2.85885 60.5622 2.8759C60.3166 2.88255 59.8277 2.97692 59.5569 3.04007C59.3445 3.09029 59.2004 3.02411 59.0146 3.09342C58.989 3.10275 59.0302 3.25087 59.0228 3.25746C58.8238 3.45896 58.8917 3.08039 58.8404 3.01898C58.6538 2.7958 58.5401 2.67832 58.2684 2.81944C58.2057 2.85181 58.069 3.40151 57.9523 3.44491C57.8005 3.50035 57.8382 3.30437 57.6811 3.36726C57.668 3.37244 57.6832 3.48935 57.585 3.49442C57.1298 3.51947 56.6167 3.50604 56.131 3.57228C56.0668 3.58063 56.17 3.75719 56.0777 3.77232C55.6445 3.84318 55.1579 3.89231 54.7082 3.85741C54.5974 3.84824 54.6498 3.71023 54.6217 3.67441C54.4484 3.45812 54.2952 3.82061 54.2622 3.83115C53.7771 3.99474 53.3361 3.96111 52.8693 3.9802C52.6116 3.99003 52.3454 4.01697 52.0569 4.10782C52.0154 4.12182 51.7145 4.5298 51.5288 4.23709C51.5159 4.21768 51.3268 3.91806 51.2234 4.15311C51.217 4.16782 51.3311 4.31983 51.1671 4.32417C51.0029 4.32857 50.7551 4.47243 50.5051 4.322C50.4243 4.27487 50.2187 3.97858 50.0424 4.2598C50.0312 4.27926 49.783 4.89526 49.6133 4.5157C49.5856 4.4532 49.55 4.03222 49.3248 4.28067C49.2818 4.32876 49.3825 4.41019 49.2623 4.48563C49.075 4.60218 48.811 4.52375 48.5967 4.74251C48.5597 4.78111 48.4214 5.0889 48.2492 4.893C48.2223 4.86232 48.2457 4.71694 48.1681 4.71162C47.7948 4.68622 47.4419 4.82982 47.0649 4.78356C46.9316 4.76743 46.9662 4.53274 46.8234 4.49091C46.6816 4.44897 46.3975 4.42922 46.2749 4.5514C46.1504 4.67389 46.3524 5.01215 46.1482 5.07C45.2543 5.3223 44.3228 5.23938 43.4041 5.33976C43.2693 5.35442 43.3991 5.46696 43.2014 5.49788C42.4677 5.61293 41.2217 5.91726 40.5407 5.73848C40.0014 5.59429 40.6155 5.334 40.2145 5.30201C40.0208 5.28711 39.8787 5.73458 39.8351 5.75443C39.4104 5.95346 39.0714 5.81472 38.6837 5.93026C38.6033 5.95424 38.709 6.11142 38.6403 6.12997C38.4056 6.19483 38.1419 6.15692 37.9137 6.2051C37.8113 6.22711 37.8497 6.35346 37.753 6.35771C37.5218 6.36937 37.3172 6.34447 37.0785 6.25647C37.0568 6.24845 37.168 6.06747 37 6.08654C36.7282 6.11787 36.3731 6.04912 36.0776 6.21979C35.9897 6.27098 36.0319 6.56652 35.8032 6.39253C35.7552 6.35622 35.7548 5.99374 35.5703 6.33486C35.5392 6.39159 35.2134 6.8634 34.9814 6.6262C34.9203 6.56377 34.7474 6.29331 34.6424 6.35586C34.6283 6.36544 34.7132 6.51475 34.6228 6.54428C34.3035 6.64568 33.9655 6.6798 33.6385 6.78047C33.5515 6.80763 33.7093 6.95142 33.5787 6.98667C33.2194 7.08389 32.7545 7.11224 32.3922 7.11525C32.2579 7.11615 32.3279 6.96637 32.316 6.95304C32.1254 6.73613 32.0841 7.07472 32.0359 7.10149C31.7355 7.26361 31.4681 7.14866 31.1806 7.23424C31.1018 7.25735 31.1827 7.40332 31.1688 7.41959C31.0235 7.58 31.1044 7.28302 30.9945 7.26859C30.6863 7.22727 30.3585 7.29062 30.0614 7.35681C29.9522 7.38136 30.1039 7.54162 30.0057 7.56158C29.4214 7.68361 28.8197 7.75939 28.2306 7.74973C28.12 7.74755 28.1662 7.59886 28.1389 7.5708C27.9494 7.37419 27.7703 7.71049 27.7233 7.74719C27.5082 7.91485 27.3975 7.80698 27.1925 7.86233C26.1877 8.13538 24.9168 8.2518 23.9474 8.35323C22.6814 8.48663 21.688 8.50902 20.4973 8.73276C20.4217 8.74679 20.5274 8.91835 20.4626 8.93281C19.6232 9.11132 18.7795 9.17185 17.9393 9.36007C17.8703 9.3752 17.9985 9.53332 17.8885 9.56346C17.6629 9.62657 17.3717 9.66328 17.1317 9.64454C17.0147 9.63574 17.1421 9.4622 17.0248 9.4564C16.7514 9.44256 16.4656 9.47545 16.1978 9.54685C16.0839 9.57762 16.2872 9.72777 16.1368 9.75388C15.1155 9.93512 14.1122 10.1272 13.0416 10.0623C12.9681 10.0578 12.8478 9.70593 12.7079 9.79955C12.7126 9.9018 12.7321 10.0198 12.7444 10.128C11.2617 10.4251 9.76598 10.5368 8.26618 10.7583C8.20304 10.7676 8.3428 10.9418 8.22072 10.9609C7.51436 11.0717 6.8351 11.2356 6.08242 11.1614C6.00771 11.1543 5.99016 10.8111 5.78703 10.8962C5.75126 10.9115 5.44012 11.0078 5.36957 11.0943C5.36017 11.1071 5.44364 11.2552 5.34176 11.2763C4.74882 11.3964 4.11926 11.461 3.5083 11.4609C3.40968 11.4605 3.48495 11.2764 3.41447 11.2747C2.91454 11.264 2.40765 11.4765 1.9193 11.3991C1.59238 11.3467 1.66055 11.0384 1.4496 10.7797C1.41978 10.7432 1.22654 10.7679 1.18983 10.6035C1.097 10.1903 1.1164 9.7183 1.00645 9.27963C0.982921 9.18512 0.742136 9.32984 0.857206 9.07372C0.865355 9.05651 1.0396 8.94956 1.0729 8.8636C1.09614 8.80413 1.01125 8.64465 1.06534 8.5646C1.11943 8.48462 1.214 8.61453 1.30908 8.5154C1.40395 8.41526 1.32541 8.23092 1.53784 8.17334ZM61.2378 2.19867C61.0518 2.05057 61.0775 2.64875 61.2511 2.49033C61.2594 2.48197 61.2473 2.2059 61.2378 2.19867ZM81.9055 2.72779C81.7258 2.43016 81.5095 2.7873 81.6327 3.01453C81.7573 3.24179 81.96 2.818 81.9055 2.72779ZM84.2506 2.92624C84.0241 2.67705 83.8425 3.50668 84.1501 3.38465C84.168 3.37784 84.2639 2.94073 84.2506 2.92624ZM2.2014 10.5751C2.19778 10.5677 2.05839 10.5823 2.05634 10.5906C2.01303 10.79 2.29173 10.7606 2.2014 10.5751ZM86.579 3.11189C86.517 2.98455 86.261 3.07453 86.3374 3.23261C86.3978 3.35958 86.6558 3.27019 86.579 3.11189ZM52.2095 2.52895C52.2057 2.52044 52.1054 2.52512 52.1138 2.57485C52.1411 2.73497 52.2733 2.67198 52.2095 2.52895ZM90.5422 3.51945C89.9517 3.48599 89.6172 2.77714 90.2434 2.86457C90.3577 2.87988 89.995 3.08571 90.14 3.15029C90.4072 3.26792 90.5855 2.8278 90.8592 3.06361C90.9088 3.10678 90.5759 3.52301 90.5411 3.52043C90.5415 3.5201 90.5418 3.51978 90.5422 3.51945ZM61.0776 1.49119C61.0736 1.48359 60.9337 1.48805 60.931 1.49617C60.872 1.69184 61.1534 1.68297 61.0776 1.49119ZM46.3542 2.9379C46.3437 2.92232 46.0209 2.95136 46.0139 2.96803C45.8901 3.29883 46.5406 3.24132 46.3542 2.9379ZM70.4109 0.570272C70.5617 0.377682 70.7425 0.35394 70.8621 0.59331C70.7142 0.581279 70.5635 0.580508 70.4109 0.570272Z" fill="black"/>
</svg>
