<svg width="20" height="24" viewBox="0 0 20 24" fill="none" xmlns="http://www.w3.org/2000/svg">
<g clip-path="url(#clip0_2035_44613)">
<path d="M18.3053 2.33398H1.68953C0.928173 2.33398 0.30957 2.96124 0.30957 3.73125V20.3167C0.30957 21.0867 0.928173 21.714 1.68953 21.714H18.3053C19.0666 21.714 19.6896 21.0867 19.6896 20.3167V3.73125C19.6896 2.96124 19.0666 2.33398 18.3053 2.33398ZM6.16683 18.9454H3.29444V9.69665H6.17115V18.9454H6.16683ZM4.73063 8.43349C3.80922 8.43349 3.06516 7.68511 3.06516 6.76802C3.06516 5.85094 3.80922 5.10256 4.73063 5.10256C5.64772 5.10256 6.3961 5.85094 6.3961 6.76802C6.3961 7.68944 5.65205 8.43349 4.73063 8.43349ZM16.934 18.9454H14.0616V14.4465C14.0616 13.3737 14.04 11.9937 12.5691 11.9937C11.0724 11.9937 10.8431 13.1617 10.8431 14.3686V18.9454H7.97073V9.69665H10.7263V10.9598H10.7653C11.1503 10.2331 12.089 9.46738 13.4862 9.46738C16.3932 9.46738 16.934 11.3838 16.934 13.8755V18.9454Z" fill="black"/>
</g>
<defs>
<clipPath id="clip0_2035_44613">
<rect width="19.38" height="22.1486" fill="white" transform="translate(0.30957 0.949707)"/>
</clipPath>
</defs>
</svg>
