<svg width="20" height="20" viewBox="0 0 20 20" fill="none" xmlns="http://www.w3.org/2000/svg">
<g clip-path="url(#clip0_2588_8408)">
<path d="M17.498 1.25H2.49414C1.80664 1.25 1.24805 1.81641 1.24805 2.51172V17.4883C1.24805 18.1836 1.80664 18.75 2.49414 18.75H17.498C18.1855 18.75 18.748 18.1836 18.748 17.4883V2.51172C18.748 1.81641 18.1855 1.25 17.498 1.25ZM6.53711 16.25H3.94336V7.89844H6.54102V16.25H6.53711ZM5.24023 6.75781C4.4082 6.75781 3.73633 6.08203 3.73633 5.25391C3.73633 4.42578 4.4082 3.75 5.24023 3.75C6.06836 3.75 6.74414 4.42578 6.74414 5.25391C6.74414 6.08594 6.07227 6.75781 5.24023 6.75781ZM16.2598 16.25H13.666V12.1875C13.666 11.2188 13.6465 9.97266 12.3184 9.97266C10.9668 9.97266 10.7598 11.0273 10.7598 12.1172V16.25H8.16602V7.89844H10.6543V9.03906H10.6895C11.0371 8.38281 11.8848 7.69141 13.1465 7.69141C15.7715 7.69141 16.2598 9.42187 16.2598 11.6719V16.25Z" fill="#404040"/>
</g>
<defs>
<clipPath id="clip0_2588_8408">
<rect width="17.5" height="20" fill="white" transform="translate(1.24805)"/>
</clipPath>
</defs>
</svg>
