<svg width="26" height="27" viewBox="0 0 26 27" fill="none" xmlns="http://www.w3.org/2000/svg">
<path d="M13.0003 2.19141C11.5777 2.19141 10.1689 2.47162 8.85459 3.01604C7.54023 3.56047 6.34597 4.35845 5.34 5.36442C3.30836 7.39606 2.16699 10.1516 2.16699 13.0247C2.16699 17.8131 5.27616 21.8756 9.57699 23.3164C10.1187 23.4031 10.292 23.0672 10.292 22.7747V20.9439C7.29116 21.5939 6.65199 19.4922 6.65199 19.4922C6.15366 18.2356 5.44949 17.8997 5.44949 17.8997C4.46366 17.2281 5.52533 17.2497 5.52533 17.2497C6.60866 17.3256 7.18283 18.3656 7.18283 18.3656C8.12533 20.0122 9.71783 19.5247 10.3353 19.2647C10.4328 18.5606 10.7145 18.0839 11.0178 17.8131C8.61283 17.5422 6.08866 16.6106 6.08866 12.4831C6.08866 11.2806 6.50033 10.3164 7.20449 9.54724C7.09616 9.27641 6.71699 8.14974 7.31283 6.68724C7.31283 6.68724 8.22283 6.39474 10.292 7.79224C11.1478 7.55391 12.0795 7.43474 13.0003 7.43474C13.9212 7.43474 14.8528 7.55391 15.7087 7.79224C17.7778 6.39474 18.6878 6.68724 18.6878 6.68724C19.2837 8.14974 18.9045 9.27641 18.7962 9.54724C19.5003 10.3164 19.912 11.2806 19.912 12.4831C19.912 16.6214 17.377 17.5314 14.9612 17.8022C15.3512 18.1381 15.7087 18.7989 15.7087 19.8064V22.7747C15.7087 23.0672 15.882 23.4139 16.4345 23.3164C20.7353 21.8647 23.8337 17.8131 23.8337 13.0247C23.8337 11.6021 23.5534 10.1934 23.009 8.879C22.4646 7.56464 21.6666 6.37038 20.6607 5.36442C19.6547 4.35845 18.4604 3.56047 17.1461 3.01604C15.8317 2.47162 14.423 2.19141 13.0003 2.19141Z" fill="black"/>
</svg>
