<svg width="24" height="24" viewBox="0 0 24 24" fill="none" xmlns="http://www.w3.org/2000/svg">
<path d="M9.16442 14.8322L14.829 9.16758M12.5689 17.1498L10.3945 19.3242C9.7536 19.9651 9.43313 20.2856 9.06359 20.4057C8.73853 20.5113 8.38838 20.5113 8.06333 20.4057C7.69378 20.2856 7.37331 19.9651 6.73238 19.3242L4.67241 17.2643C4.03147 16.6233 3.711 16.3029 3.59093 15.9333C3.48531 15.6082 3.48531 15.2581 3.59093 14.933C3.711 14.5635 4.03147 14.2431 4.67241 13.6021L6.84682 11.4277M17.1467 12.5721L19.3211 10.3977C19.962 9.75677 20.2824 9.4363 20.4025 9.06676C20.5081 8.74171 20.5081 8.39155 20.4025 8.0665C20.2824 7.69696 19.962 7.37649 19.3211 6.73555L17.2611 4.67558C16.6202 4.03465 16.2997 3.71417 15.9301 3.59411C15.6051 3.48849 15.2549 3.48849 14.9298 3.59411C14.5604 3.71417 14.2399 4.03465 13.5989 4.67558L11.4245 6.84999" stroke="#171717" stroke-width="2" stroke-linecap="square"/>
</svg>
