<svg width="17" height="16" viewBox="0 0 17 16" fill="none" xmlns="http://www.w3.org/2000/svg">
<path d="M4.5 5.33325V10.6666" stroke="#0F172A" stroke-width="1.15" stroke-linecap="round" stroke-linejoin="round"/>
<path d="M12.4997 10.6666V7.99993C12.4997 6.1143 12.4997 5.17149 11.9139 4.58571C11.3281 3.99992 10.3853 3.99992 8.49967 3.99992H7.83301M7.83301 3.99992C7.83301 3.5331 9.16254 2.66094 9.49967 2.33325M7.83301 3.99992C7.83301 4.46674 9.16254 5.3389 9.49967 5.66659" stroke="#0F172A" stroke-width="1.15" stroke-linecap="round" stroke-linejoin="round"/>
<path d="M4.50033 13.3334C5.23671 13.3334 5.83366 12.7365 5.83366 12.0001C5.83366 11.2637 5.23671 10.6667 4.50033 10.6667C3.76395 10.6667 3.16699 11.2637 3.16699 12.0001C3.16699 12.7365 3.76395 13.3334 4.50033 13.3334Z" stroke="#0F172A" stroke-width="1.15"/>
<path d="M4.50033 5.33341C5.23671 5.33341 5.83366 4.73646 5.83366 4.00008C5.83366 3.2637 5.23671 2.66675 4.50033 2.66675C3.76395 2.66675 3.16699 3.2637 3.16699 4.00008C3.16699 4.73646 3.76395 5.33341 4.50033 5.33341Z" stroke="#0F172A" stroke-width="1.15"/>
<path d="M12.5003 13.3334C13.2367 13.3334 13.8337 12.7365 13.8337 12.0001C13.8337 11.2637 13.2367 10.6667 12.5003 10.6667C11.7639 10.6667 11.167 11.2637 11.167 12.0001C11.167 12.7365 11.7639 13.3334 12.5003 13.3334Z" stroke="#0F172A" stroke-width="1.15"/>
</svg>
