<svg width="52" height="52" viewBox="0 0 52 52" fill="none" xmlns="http://www.w3.org/2000/svg">
<rect width="52" height="52" rx="26" fill="#545F90"/>
<rect x="6" y="6" width="40" height="40" rx="20" fill="white"/>
<path d="M26 12C18.2781 12 12 18.2781 12 26C12 33.7219 18.2781 40 26 40C33.7219 40 40 33.7219 40 26C40 18.2781 33.7219 12 26 12Z" fill="url(#paint0_radial_533_2471)"/>
<path d="M30.5204 25.9411C28.5984 25.9411 27.0406 27.5212 27.0406 29.4704C27.0406 31.4198 28.5984 33 30.5204 33C32.4421 33 34 31.4198 34 29.4704C34 27.5212 32.4421 25.9411 30.5204 25.9411ZM21.4797 25.9414C19.558 25.9414 18 27.5212 18 29.4706C18 31.4198 19.558 33 21.4797 33C23.4016 33 24.9596 31.4198 24.9596 29.4706C24.9596 27.5212 23.4016 25.9414 21.4797 25.9414ZM29.4796 21.5293C29.4796 23.4785 27.9218 25.059 26.0001 25.059C24.0782 25.059 22.5203 23.4785 22.5203 21.5293C22.5203 19.5802 24.0782 18 26.0001 18C27.9218 18 29.4796 19.5802 29.4796 21.5293Z" fill="white"/>
<defs>
<radialGradient id="paint0_radial_533_2471" cx="0" cy="0" r="1" gradientUnits="userSpaceOnUse" gradientTransform="translate(26 27.3026) scale(18.5537)">
<stop stop-color="#FFB900"/>
<stop offset="0.6" stop-color="#F95D8F"/>
<stop offset="0.9991" stop-color="#F95353"/>
</radialGradient>
</defs>
</svg>
