<svg width="52" height="52" viewBox="0 0 52 52" fill="none" xmlns="http://www.w3.org/2000/svg">
<rect width="52" height="52" rx="26" fill="#545F90"/>
<rect x="6" y="6" width="40" height="40" rx="20" fill="white"/>
<path fill-rule="evenodd" clip-rule="evenodd" d="M21.1186 24.084C20.9735 23.8941 20.7399 23.7939 20.5025 23.8197C20.265 23.8455 20.0584 23.9936 19.9575 24.2102L14.0742 35.9814C13.9653 36.1995 13.9769 36.4585 14.105 36.666C14.2331 36.8734 14.4594 36.9997 14.7031 36.9997H22.8953C23.1633 37.006 23.4099 36.8535 23.5242 36.6107C25.2913 32.9565 24.2203 27.4003 21.1186 24.084Z" fill="url(#paint0_linear_533_2465)"/>
<path fill-rule="evenodd" clip-rule="evenodd" d="M25.4339 13.3776C22.4515 17.9697 22.1073 23.7944 24.528 28.7062L28.4776 36.6108C28.5966 36.8492 28.8401 36.9998 29.1064 36.9998H37.2971C37.5408 36.9998 37.7671 36.8735 37.8952 36.6661C38.0233 36.4586 38.035 36.1996 37.926 35.9815C37.926 35.9815 26.9068 13.9249 26.6299 13.3732C26.5181 13.1441 26.2853 12.9991 26.0305 13C25.7757 13.0009 25.5439 13.1477 25.4339 13.3776Z" fill="#2684FF"/>
<defs>
<linearGradient id="paint0_linear_533_2465" x1="24.3428" y1="25.9006" x2="16.0908" y2="34.7588" gradientUnits="userSpaceOnUse">
<stop stop-color="#0052CC"/>
<stop offset="0.923" stop-color="#2684FF"/>
</linearGradient>
</defs>
</svg>
