<svg width="52" height="52" viewBox="0 0 52 52" fill="none" xmlns="http://www.w3.org/2000/svg">
<rect width="52" height="52" rx="26" fill="#545F90"/>
<rect x="6" y="6" width="40" height="40" rx="20" fill="white"/>
<path d="M26.5 12C18.765 12 12.5 18.265 12.5 26C12.5 32.195 16.5075 37.4275 22.0725 39.2825C22.7725 39.405 23.035 38.985 23.035 38.6175C23.035 38.285 23.0175 37.1825 23.0175 36.01C19.5 36.6575 18.59 35.1525 18.31 34.365C18.1525 33.9625 17.47 32.72 16.875 32.3875C16.385 32.125 15.685 31.4775 16.8575 31.46C17.96 31.4425 18.7475 32.475 19.01 32.895C20.27 35.0125 22.2825 34.4175 23.0875 34.05C23.21 33.14 23.5775 32.5275 23.98 32.1775C20.865 31.8275 17.61 30.62 17.61 25.265C17.61 23.7425 18.1525 22.4825 19.045 21.5025C18.905 21.1525 18.415 19.7175 19.185 17.7925C19.185 17.7925 20.3575 17.425 23.035 19.2275C24.155 18.9125 25.345 18.755 26.535 18.755C27.725 18.755 28.915 18.9125 30.035 19.2275C32.7125 17.4075 33.885 17.7925 33.885 17.7925C34.655 19.7175 34.165 21.1525 34.025 21.5025C34.9175 22.4825 35.46 23.725 35.46 25.265C35.46 30.6375 32.1875 31.8275 29.0725 32.1775C29.58 32.615 30.0175 33.455 30.0175 34.7675C30.0175 36.64 30 38.145 30 38.6175C30 38.985 30.2625 39.4225 30.9625 39.2825C33.7418 38.3443 36.1568 36.5581 37.8677 34.1753C39.5786 31.7926 40.4993 28.9334 40.5 26C40.5 18.265 34.235 12 26.5 12Z" fill="black"/>
</svg>
