<svg width="52" height="52" viewBox="0 0 52 52" fill="none" xmlns="http://www.w3.org/2000/svg">
<rect width="52" height="52" rx="26" fill="#545F90"/>
<rect x="6" y="6" width="40" height="40" rx="20" fill="white"/>
<path d="M12.875 22.2083C12.875 18.9414 12.875 17.3079 13.5108 16.0601C14.0701 14.9624 14.9624 14.0701 16.0601 13.5108C17.3079 12.875 18.9414 12.875 22.2083 12.875H29.7917C33.0586 12.875 34.6921 12.875 35.9399 13.5108C37.0376 14.0701 37.9299 14.9624 38.4892 16.0601C39.125 17.3079 39.125 18.9414 39.125 22.2083V29.7917C39.125 33.0586 39.125 34.6921 38.4892 35.9399C37.9299 37.0376 37.0376 37.9299 35.9399 38.4892C34.6921 39.125 33.0586 39.125 29.7917 39.125H22.2083C18.9414 39.125 17.3079 39.125 16.0601 38.4892C14.9624 37.9299 14.0701 37.0376 13.5108 35.9399C12.875 34.6921 12.875 33.0586 12.875 29.7917V22.2083Z" fill="white"/>
<path d="M31.6725 18.9907L26.0596 23.3711L20.3184 18.9907V18.9919L20.3253 18.9978V25.1316L25.9949 29.6067L31.6725 25.3044V18.9907Z" fill="#EA4335"/>
<path d="M33.1459 17.9247L31.6719 18.9902V25.3039L36.3102 21.7428V19.5976C36.3102 19.5976 35.7472 16.5337 33.1459 17.9247Z" fill="#FBBC05"/>
<path d="M31.6719 25.3038V33.4928H35.2269C35.2269 33.4928 36.2385 33.3886 36.3113 32.2355V21.7427L31.6719 25.3038Z" fill="#34A853"/>
<path d="M20.3256 33.4998V25.1309L20.3184 25.125L20.3256 33.4998Z" fill="#C5221F"/>
<path d="M20.3189 18.992L18.8529 17.9324C16.2517 16.5413 15.6875 19.6041 15.6875 19.6041V21.7493L20.3189 25.1257V18.992Z" fill="#C5221F"/>
<path d="M20.3184 18.9907V25.1245L20.3256 25.1304V18.9966L20.3184 18.9907Z" fill="#C5221F"/>
<path d="M15.6875 21.75V32.2428C15.7592 33.3971 16.7719 33.5001 16.7719 33.5001H20.327L20.3189 25.1253L15.6875 21.75Z" fill="#4285F4"/>
</svg>
