<svg width="52" height="52" viewBox="0 0 52 52" fill="none" xmlns="http://www.w3.org/2000/svg">
<rect width="52" height="52" rx="26" fill="#545F90"/>
<rect x="6" y="6" width="40" height="40" rx="20" fill="white"/>
<path d="M28.25 24.4274C28.25 24.0533 28.5533 23.75 28.9274 23.75H37.3226C37.6967 23.75 38 24.0533 38 24.4274V29.375C38 32.0674 35.8174 34.25 33.125 34.25C30.4326 34.25 28.25 32.0674 28.25 29.375V24.4274Z" fill="url(#paint0_linear_533_2437)"/>
<path d="M20.75 23.1694C20.75 22.6616 21.1616 22.25 21.6694 22.25H31.8306C32.3384 22.25 32.75 22.6616 32.75 23.1694V30.5C32.75 33.8137 30.0637 36.5 26.75 36.5C23.4363 36.5 20.75 33.8137 20.75 30.5V23.1694Z" fill="url(#paint1_linear_533_2437)"/>
<circle cx="34.25" cy="20" r="2.25" fill="url(#paint2_linear_533_2437)"/>
<circle cx="27.5" cy="18.5" r="3" fill="url(#paint3_linear_533_2437)"/>
<rect x="14" y="19.25" width="13.5" height="13.5" rx="1.5" fill="url(#paint4_linear_533_2437)"/>
<path d="M23.75 22.25H17.75V23.6261H19.9962V29.75H21.5038V23.6261H23.75V22.25Z" fill="white"/>
<defs>
<linearGradient id="paint0_linear_533_2437" x1="28.25" y1="24.3026" x2="38.1193" y2="30.7516" gradientUnits="userSpaceOnUse">
<stop stop-color="#717BC3"/>
<stop offset="1" stop-color="#98A2E0"/>
</linearGradient>
<linearGradient id="paint1_linear_533_2437" x1="20.75" y1="28.5529" x2="32.75" y2="28.5529" gradientUnits="userSpaceOnUse">
<stop stop-color="#717BC3"/>
<stop offset="1" stop-color="#7084EA"/>
</linearGradient>
<linearGradient id="paint2_linear_533_2437" x1="32" y1="17.9868" x2="36.3472" y2="21.046" gradientUnits="userSpaceOnUse">
<stop stop-color="#7982C4"/>
<stop offset="1" stop-color="#ABB2DE"/>
</linearGradient>
<linearGradient id="paint3_linear_533_2437" x1="25.3571" y1="16.3571" x2="29.2143" y2="20.8571" gradientUnits="userSpaceOnUse">
<stop stop-color="#717BC3"/>
<stop offset="1" stop-color="#98A2E0"/>
</linearGradient>
<linearGradient id="paint4_linear_533_2437" x1="14" y1="26" x2="27.5" y2="26" gradientUnits="userSpaceOnUse">
<stop stop-color="#2A3887"/>
<stop offset="1" stop-color="#4C56B9"/>
</linearGradient>
</defs>
</svg>
