<svg width="747" height="323" viewBox="0 0 747 323" fill="none" xmlns="http://www.w3.org/2000/svg">
<g opacity="0.3">
<path d="M304.632 173.491H378.394C383.953 173.491 389.109 170.602 391.977 165.876L431.873 100.16C434.742 95.4344 439.897 92.5451 445.456 92.5451H598.977C604.705 92.5451 609.987 89.4809 612.795 84.5281L655.871 8.58362" stroke="white" stroke-opacity="0.5" stroke-width="1.95801" stroke-miterlimit="10"/>
<path d="M298.678 317.375H468.523C474.082 317.375 479.237 314.485 482.106 309.758L522.002 244.044C524.871 239.318 530.024 236.429 535.585 236.429H689.106C694.833 236.429 700.114 233.365 702.924 228.412L746 152.467" stroke="white" stroke-opacity="0.5" stroke-width="1.95801" stroke-miterlimit="10"/>
<path d="M286.209 246.707H423.005C428.564 246.707 433.717 243.818 436.586 239.092L476.484 173.378C479.353 168.653 484.508 165.763 490.067 165.763H517.326" stroke="white" stroke-opacity="0.5" stroke-width="1.95801" stroke-miterlimit="10"/>
<path d="M183.281 282.479H444.695C450.253 282.479 455.409 279.59 458.277 274.864L498.176 209.148C501.044 204.422 506.197 201.533 511.756 201.533H539.016" stroke="white" stroke-opacity="0.5" stroke-width="1.95801" stroke-miterlimit="10"/>
<path d="M451.122 136.711C453.991 131.985 459.144 129.096 464.705 129.096H618.224C623.952 129.096 629.234 126.032 632.042 121.079L675.118 45.1345" stroke="white" stroke-opacity="0.5" stroke-width="1.95801" stroke-miterlimit="10"/>
<path d="M2.33436 210.042H397.642C403.203 210.042 408.356 207.153 411.225 202.427" stroke="white" stroke-opacity="0.5" stroke-width="1.95801" stroke-miterlimit="10"/>
<path d="M409.223 198.192C409.223 201.41 411.852 204.021 415.097 204.021C418.34 204.021 420.971 201.41 420.971 198.192C420.971 194.972 418.342 192.362 415.097 192.362C411.852 192.362 409.223 194.972 409.223 198.192Z" fill="white"/>
<path d="M283.91 246.77C283.91 249.989 286.541 252.598 289.785 252.598C293.029 252.598 295.658 249.989 295.658 246.77C295.658 243.551 293.027 240.94 289.785 240.94C286.541 240.941 283.91 243.551 283.91 246.77Z" fill="white"/>
<path d="M301.533 172.933C301.533 176.151 304.164 178.762 307.407 178.762C310.651 178.762 313.281 176.153 313.281 172.933C313.281 169.714 310.651 167.104 307.407 167.104C304.164 167.104 301.533 169.714 301.533 172.933Z" fill="white"/>
<path d="M448.383 136.015C448.383 139.234 451.012 141.844 454.256 141.844C457.5 141.844 460.131 139.234 460.131 136.015C460.131 132.796 457.5 130.185 454.256 130.185C451.012 130.185 448.383 132.796 448.383 136.015Z" fill="white"/>
<path d="M180.137 281.743C180.137 284.962 182.767 287.573 186.011 287.573C189.254 287.573 191.885 284.964 191.885 281.743C191.885 278.525 189.254 275.914 186.011 275.914C182.767 275.916 180.137 278.525 180.137 281.743Z" fill="white"/>
<path d="M5.87403 215.68C2.62991 215.68 1.52588e-05 213.07 1.52588e-05 209.851C1.52588e-05 206.632 2.62991 204.022 5.87403 204.022C9.11816 204.022 11.748 206.632 11.748 209.851C11.748 213.07 9.11816 215.68 5.87403 215.68Z" fill="white"/>
<path d="M668.783 38.8484C661.734 48.0352 672.196 58.415 681.454 51.422C688.504 42.2352 678.039 31.8495 668.783 38.8484Z" fill="white"/>
<path d="M649.535 2.29563C642.488 11.4824 652.95 21.8622 662.205 14.8692C669.258 5.68239 658.794 -4.70132 649.535 2.29563Z" fill="white"/>
<path d="M514.956 165.16C514.956 168.379 517.586 170.989 520.829 170.989C524.073 170.989 526.704 168.379 526.704 165.16C526.704 161.941 524.075 159.331 520.829 159.331C517.586 159.332 514.956 161.941 514.956 165.16Z" fill="white"/>
<path d="M536.493 200.135C536.493 203.354 539.123 205.965 542.367 205.965C545.61 205.965 548.241 203.354 548.241 200.135C548.241 196.915 545.612 194.306 542.367 194.306C539.123 194.306 536.493 196.915 536.493 200.135Z" fill="white"/>
<path d="M295.66 316.72C295.66 319.939 298.291 322.548 301.534 322.548C304.778 322.548 307.408 319.938 307.408 316.72C307.408 313.499 304.778 310.89 301.534 310.89C298.291 310.89 295.66 313.499 295.66 316.72Z" fill="white"/>
</g>
</svg>
