<svg width="747" height="323" viewBox="0 0 747 323" fill="none" xmlns="http://www.w3.org/2000/svg">
<g opacity="0.3">
<path d="M442.368 173.491H368.606C363.047 173.491 357.891 170.602 355.023 165.876L315.127 100.16C312.258 95.4344 307.103 92.5451 301.544 92.5451H148.023C142.295 92.5451 137.013 89.4809 134.205 84.5281L91.1289 8.58362" stroke="white" stroke-opacity="0.5" stroke-width="1.95801" stroke-miterlimit="10"/>
<path d="M448.322 317.375H278.477C272.918 317.375 267.763 314.485 264.894 309.758L224.998 244.044C222.129 239.318 216.976 236.429 211.415 236.429H57.8938C52.1666 236.429 46.8859 233.365 44.0761 228.412L1 152.467" stroke="white" stroke-opacity="0.5" stroke-width="1.95801" stroke-miterlimit="10"/>
<path d="M460.789 246.707H323.993C318.434 246.707 313.281 243.818 310.412 239.092L270.514 173.378C267.645 168.653 262.49 165.763 256.931 165.763H229.672" stroke="white" stroke-opacity="0.5" stroke-width="1.95801" stroke-miterlimit="10"/>
<path d="M563.719 282.479H302.305C296.747 282.479 291.591 279.59 288.723 274.864L248.824 209.148C245.956 204.422 240.803 201.533 235.244 201.533H207.984" stroke="white" stroke-opacity="0.5" stroke-width="1.95801" stroke-miterlimit="10"/>
<path d="M295.877 136.711C293.008 131.985 287.855 129.096 282.294 129.096H128.775C123.047 129.096 117.765 126.032 114.957 121.079L71.8809 45.1345" stroke="white" stroke-opacity="0.5" stroke-width="1.95801" stroke-miterlimit="10"/>
<path d="M744.666 210.042H349.358C343.797 210.042 338.644 207.153 335.775 202.427" stroke="white" stroke-opacity="0.5" stroke-width="1.95801" stroke-miterlimit="10"/>
<path d="M337.775 198.192C337.775 201.41 335.146 204.021 331.901 204.021C328.658 204.021 326.027 201.41 326.027 198.192C326.027 194.972 328.656 192.362 331.901 192.362C335.146 192.362 337.775 194.972 337.775 198.192Z" fill="white"/>
<path d="M463.09 246.77C463.09 249.989 460.459 252.598 457.215 252.598C453.971 252.598 451.342 249.989 451.342 246.77C451.342 243.551 453.973 240.94 457.215 240.94C460.459 240.941 463.09 243.551 463.09 246.77Z" fill="white"/>
<path d="M445.467 172.933C445.467 176.151 442.836 178.762 439.593 178.762C436.349 178.762 433.719 176.153 433.719 172.933C433.719 169.714 436.349 167.104 439.593 167.104C442.836 167.104 445.467 169.714 445.467 172.933Z" fill="white"/>
<path d="M298.617 136.015C298.617 139.234 295.988 141.844 292.744 141.844C289.5 141.844 286.869 139.234 286.869 136.015C286.869 132.796 289.5 130.185 292.744 130.185C295.988 130.185 298.617 132.796 298.617 136.015Z" fill="white"/>
<path d="M566.863 281.743C566.863 284.962 564.233 287.573 560.989 287.573C557.746 287.573 555.115 284.964 555.115 281.743C555.115 278.525 557.746 275.914 560.989 275.914C564.233 275.916 566.863 278.525 566.863 281.743Z" fill="white"/>
<path d="M741.126 215.68C744.37 215.68 747 213.07 747 209.851C747 206.632 744.37 204.022 741.126 204.022C737.882 204.022 735.252 206.632 735.252 209.851C735.252 213.07 737.882 215.68 741.126 215.68Z" fill="white"/>
<path d="M78.2157 38.8484C85.2645 48.0352 74.8029 58.415 65.5455 51.422C58.4947 42.2352 68.9602 31.8495 78.2157 38.8484Z" fill="white"/>
<path d="M97.467 2.29563C104.514 11.4824 94.0522 21.8622 84.7968 14.8692C77.744 5.68239 88.2076 -4.70132 97.467 2.29563Z" fill="white"/>
<path d="M232.045 165.16C232.045 168.379 229.415 170.989 226.172 170.989C222.928 170.989 220.297 168.379 220.297 165.16C220.297 161.941 222.926 159.331 226.172 159.331C229.415 159.332 232.045 161.941 232.045 165.16Z" fill="white"/>
<path d="M210.506 200.135C210.506 203.354 207.876 205.965 204.632 205.965C201.389 205.965 198.758 203.354 198.758 200.135C198.758 196.915 201.387 194.306 204.632 194.306C207.876 194.306 210.506 196.915 210.506 200.135Z" fill="white"/>
<path d="M451.34 316.72C451.34 319.939 448.709 322.548 445.466 322.548C442.222 322.548 439.592 319.938 439.592 316.72C439.592 313.499 442.222 310.89 445.466 310.89C448.709 310.89 451.34 313.499 451.34 316.72Z" fill="white"/>
</g>
</svg>
