<svg width="52" height="52" viewBox="0 0 52 52" fill="none" xmlns="http://www.w3.org/2000/svg">
<rect width="52" height="52" rx="26" fill="#545F90"/>
<rect x="6" y="6" width="40" height="40" rx="20" fill="white"/>
<path d="M28.5857 28.5917C26.9236 29.2172 25.0609 29.2183 23.3987 28.5921C22.7724 26.9317 22.7723 25.0695 23.3977 23.4088C25.0595 22.7823 26.924 22.7822 28.5858 23.4087C29.2118 25.0689 29.2116 26.9316 28.5857 28.5917ZM38.0797 23.9584H30.9245L35.9837 18.9022C35.1897 17.7875 34.2095 16.8084 33.0942 16.0149L28.0346 21.0712V13.9206C26.6843 13.6936 25.2994 13.694 23.9491 13.9206V21.0712L18.8895 16.0149C17.7745 16.8079 16.7939 17.7883 15.9999 18.9022L21.0598 23.9584H13.9047C13.7281 25.3484 13.6707 26.6546 13.9047 28.0417H21.0599L16 33.098C16.7959 34.2143 17.7725 35.1902 18.8895 35.9856L23.9491 30.929V38.0799C25.2996 38.3061 26.684 38.3062 28.0345 38.0799V30.929L33.0945 35.9856C34.2103 35.1913 35.1888 34.213 35.9837 33.098L30.9237 28.0417H38.0797C38.3068 26.6934 38.3068 25.3067 38.0797 23.9584Z" fill="#FF4A00"/>
</svg>
