<svg width="16" height="16" viewBox="0 0 16 16" fill="none" xmlns="http://www.w3.org/2000/svg">
<path d="M6.66667 4.66675L6.32277 5.59611C5.87183 6.81475 5.64635 7.42408 5.20185 7.86861C4.75735 8.31308 4.14803 8.53855 2.92937 8.98955L2 9.33341L2.92937 9.67728C4.14803 10.1283 4.75735 10.3537 5.20185 10.7982C5.64635 11.2427 5.87183 11.8521 6.32277 13.0707L6.66667 14.0001L7.01053 13.0707C7.46153 11.8521 7.687 11.2427 8.13147 10.7982C8.576 10.3537 9.18533 10.1283 10.4039 9.67728L11.3333 9.33341L10.4039 8.98955C9.18533 8.53855 8.576 8.31308 8.13147 7.86861C7.687 7.42408 7.46153 6.81475 7.01053 5.59611L6.66667 4.66675Z" stroke="#0B0C0E" stroke-width="1.15" stroke-linejoin="round"/>
<path d="M12 2L11.8526 2.3983C11.6593 2.92058 11.5627 3.18173 11.3722 3.37222C11.1817 3.56272 10.9206 3.65935 10.3983 3.85261L10 4L10.3983 4.14739C10.9206 4.34065 11.1817 4.43728 11.3722 4.62778C11.5627 4.81827 11.6593 5.07942 11.8526 5.6017L12 6L12.1474 5.6017C12.3407 5.07942 12.4373 4.81827 12.6278 4.62777C12.8183 4.43728 13.0794 4.34065 13.6017 4.14739L14 4L13.6017 3.85261C13.0794 3.65935 12.8183 3.56272 12.6278 3.37222C12.4373 3.18173 12.3407 2.92058 12.1474 2.3983L12 2Z" stroke="#0B0C0E" stroke-width="0.8" stroke-linejoin="round"/>
</svg>
