<svg width="16" height="16" viewBox="0 0 16 16" fill="none" xmlns="http://www.w3.org/2000/svg">
<path d="M13.9997 12.0001V4.00008C13.9997 3.69009 13.9997 3.53509 13.9656 3.40793C13.8731 3.06283 13.6036 2.79329 13.2585 2.70082C13.1313 2.66675 12.9763 2.66675 12.6663 2.66675C12.3563 2.66675 12.2013 2.66675 12.0742 2.70082C11.7291 2.79329 11.4595 3.06283 11.3671 3.40793C11.333 3.53509 11.333 3.69009 11.333 4.00008V12.0001C11.333 12.3101 11.333 12.4651 11.3671 12.5922C11.4595 12.9373 11.7291 13.2069 12.0742 13.2993C12.2013 13.3334 12.3563 13.3334 12.6663 13.3334C12.9763 13.3334 13.1313 13.3334 13.2585 13.2993C13.6036 13.2069 13.8731 12.9373 13.9656 12.5922C13.9997 12.4651 13.9997 12.3101 13.9997 12.0001Z" stroke="#171717" stroke-width="1.15" stroke-linecap="round" stroke-linejoin="round"/>
<path d="M4.66667 11.9999V10.6666C4.66667 10.3566 4.66667 10.2016 4.6326 10.0744C4.54013 9.72934 4.2706 9.45979 3.92547 9.36733C3.79833 9.33325 3.64333 9.33325 3.33333 9.33325C3.02333 9.33325 2.86833 9.33325 2.7412 9.36733C2.39607 9.45979 2.12653 9.72934 2.03407 10.0744C2 10.2016 2 10.3566 2 10.6666V11.9999C2 12.3099 2 12.4649 2.03407 12.5921C2.12653 12.9372 2.39607 13.2067 2.7412 13.2992C2.86833 13.3333 3.02333 13.3333 3.33333 13.3333C3.64333 13.3333 3.79833 13.3333 3.92547 13.2992C4.2706 13.2067 4.54013 12.9372 4.6326 12.5921C4.66667 12.4649 4.66667 12.3099 4.66667 11.9999Z" stroke="#171717" stroke-width="1.15" stroke-linecap="round" stroke-linejoin="round"/>
<path d="M9.33366 12.0001V8.00008C9.33366 7.69009 9.33366 7.53509 9.29959 7.40793C9.20712 7.06283 8.93757 6.79329 8.59248 6.70082C8.46531 6.66675 8.31032 6.66675 8.00033 6.66675C7.69033 6.66675 7.53534 6.66675 7.40817 6.70082C7.06308 6.79329 6.79353 7.06283 6.70107 7.40793C6.66699 7.53509 6.66699 7.69009 6.66699 8.00008V12.0001C6.66699 12.3101 6.66699 12.4651 6.70107 12.5922C6.79353 12.9373 7.06308 13.2069 7.40817 13.2993C7.53534 13.3334 7.69033 13.3334 8.00033 13.3334C8.31032 13.3334 8.46531 13.3334 8.59248 13.2993C8.93757 13.2069 9.20712 12.9373 9.29959 12.5922C9.33366 12.4651 9.33366 12.3101 9.33366 12.0001Z" stroke="#171717" stroke-width="1.15" stroke-linecap="round" stroke-linejoin="round"/>
</svg>
