<svg width="16" height="16" viewBox="0 0 16 16" fill="none" xmlns="http://www.w3.org/2000/svg">
<path d="M2 2.66675V9.33341C2 11.219 2 12.1618 2.58579 12.7476C3.17157 13.3334 4.11438 13.3334 6 13.3334H14" stroke="#0B0C0E" stroke-width="1.15" stroke-linecap="round" stroke-linejoin="round"/>
<path d="M4 9.33341L6.16667 7.16675C6.59603 6.73735 6.81073 6.52269 7.0618 6.45185C7.2394 6.40177 7.42727 6.40177 7.60487 6.45185C7.85593 6.52269 8.0706 6.73735 8.5 7.16675C8.9294 7.59615 9.14407 7.81081 9.39513 7.88161C9.57273 7.93175 9.7606 7.93175 9.9382 7.88161C10.1893 7.81081 10.4039 7.59615 10.8333 7.16675L13.3333 4.66675" stroke="#0B0C0E" stroke-width="1.15" stroke-linecap="round" stroke-linejoin="round"/>
</svg>
