<svg width="309" height="169" viewBox="0 0 309 169" fill="none" xmlns="http://www.w3.org/2000/svg">
<path d="M213.612 10.1479C209.132 12.9171 206.292 15.6623 204.963 20.2197C203.975 25.9311 205.188 30.3795 209.282 35.0299C216.109 41.611 227.571 45.0028 237.688 45.7613C242.192 45.8714 246.226 45.3667 250.553 44.3301C251.549 44.1959 252.397 44.1411 253.209 44.1673C255.737 44.249 258.016 45.6067 259.924 47.2671C277.438 62.5071 288.765 86.4221 289.778 106.875C290.188 120.551 290.331 135.765 278.917 146.556C270.638 153.319 259.899 155.867 248.618 155.914C240.69 155.797 233.252 154.058 225.637 152.354C211.597 149.287 198.419 147.059 183.802 147.077C182.888 147.078 182.888 147.078 181.957 147.079C147.023 147.203 115.75 159.747 91.1543 180.175C80.7335 189.081 72.7726 199.764 65.3514 210.5C58.5191 220.351 50.6788 228.988 41.0742 237.075C40.919 237.207 40.7639 237.338 40.6085 237.47C39.4433 238.458 38.1658 239.313 36.7902 239.977C28.8845 243.795 23.2373 245.452 18.9536 246.111C15.7106 246.61 12.5077 245.497 9.40959 244.417C-12.5535 236.758 4.73754 282.218 81.1139 262.614C92.9011 259.588 103.191 253.726 113.697 248.366C114.391 248.012 115.222 248.474 115.29 249.251V249.251C116.07 257.634 119.213 266.478 121.471 274.771C126.891 286.079 153.088 284.571 157.605 277.786C158.614 276.071 159.128 274.262 159.714 272.424C160.716 268.796 161.537 265.152 162.291 261.483C162.451 260.726 162.611 259.969 162.776 259.189C162.954 258.347 163.13 257.506 163.306 256.664C163.661 254.962 165.248 253.804 166.977 253.991V253.991C181.128 255.455 194.907 255.238 209.072 254.511C210.112 254.458 211.026 255.196 211.19 256.224V256.224C211.837 260.217 212.511 264.426 213.171 268.283C213.361 269.393 213.423 270.536 213.57 271.651C216.599 294.584 280.948 292.523 282.02 269.309C282.131 266.897 281.886 264.437 282.186 262.041C282.597 258.766 282.984 255.12 283.227 253.171C283.569 250.41 283.906 247.65 284.225 244.887C284.538 242.196 284.876 239.508 285.219 236.819C285.308 235.993 285.398 235.167 285.49 234.315C285.965 230.708 286.073 229.884 287.432 227.877C288.431 226.401 289.785 225.2 291.299 224.259V224.259C292.342 223.552 292.342 223.552 293.405 222.83C294.515 222.115 294.515 222.115 295.646 221.384C306.919 213.731 316.966 205.136 324.722 194.856C325.048 194.431 325.373 194.006 325.709 193.568C335.607 180.466 340.651 165.506 343.015 150.234C343.091 149.747 343.166 149.26 343.244 148.758C348.293 115.316 343.421 81.4114 323.819 51.613C323.505 51.1351 323.19 50.6572 322.867 50.1648C313.789 36.5655 301.404 23.6536 286.782 13.9174C285.891 13.3052 285 12.6929 284.083 12.0621C262.054 -2.82042 236.787 -2.74451 213.612 10.1479ZM284.072 27.4878C284.546 27.8548 285.02 28.2218 285.508 28.5999C312.876 49.8779 329.878 81.068 331.231 112.361C331.342 116.111 331.347 119.86 331.328 123.611C331.327 124.274 331.325 124.936 331.324 125.618C331.286 136.016 330.734 146.175 328.336 156.407C328.2 156.997 328.065 157.587 327.925 158.195C322.042 183.034 304.185 203.542 279.344 217.862C271.106 223.149 270.537 223.514 262.505 225.942C261.592 226.218 260.689 225.478 260.783 224.53V224.53C261.206 220 261.591 215.465 261.771 210.924C261.776 210.808 261.781 210.704 261.786 210.611C261.844 209.373 261.993 208.112 261.371 207.04V207.04C260.678 205.846 259.221 205.149 257.867 204.881C257.567 204.821 257.274 204.783 256.985 204.762C253.971 204.549 250.592 206.21 250.118 209.195C250.073 209.473 250.029 209.781 249.979 210.127C249.877 210.797 249.775 211.467 249.67 212.157C249.515 213.258 249.515 213.258 249.357 214.381C249.243 215.149 249.13 215.917 249.012 216.708C248.644 219.224 248.289 221.741 247.939 224.259C247.763 225.521 247.763 225.521 247.583 226.809C246.739 232.899 245.925 238.992 245.116 245.085C244.645 248.629 244.172 252.173 243.697 255.717C243.592 256.517 243.486 257.317 243.378 258.141C243.278 258.885 243.178 259.629 243.076 260.395C242.99 261.044 242.903 261.693 242.815 262.362C242.694 263.119 242.742 266.173 242.814 269.681C242.966 277.09 237.32 280.935 231.4 276.479V276.479C228.182 274.056 226.341 270.678 226.026 266.662C225.76 263.274 225.52 259.623 225.129 257.619C225.028 257.099 224.926 256.578 224.821 256.042C223.682 250.2 222.579 244.357 221.604 238.495C221.445 237.541 221.287 236.587 221.123 235.605C220.826 233.79 220.533 231.974 220.246 230.158C220.112 229.337 219.978 228.515 219.84 227.669C219.727 226.953 219.613 226.237 219.497 225.5C219.44 225.256 219.379 225.017 219.314 224.781C218.399 221.453 214.623 218.635 211.194 219.026V219.026C209.122 219.262 207.764 220.421 207.208 222.43C206.243 225.914 207.61 230.144 208.192 233.494C208.359 234.369 208.527 235.243 208.7 236.144V236.144C209.279 239.718 206.519 242.788 202.919 243.178C197.393 243.776 191.91 244.005 186.229 244.002C185.4 244.002 184.571 244.003 183.716 244.003C183.21 244.013 182.732 244.023 182.28 244.032C173.469 244.201 167.872 235.466 170.004 226.915V226.915C170.143 226.355 170.282 225.795 170.425 225.219C171 222.9 171.576 220.581 172.166 218.264C174.069 210.764 175.006 207.073 175.317 204.717C175.771 201.279 173.345 197.922 169.881 197.741V197.741C167.889 197.637 165.559 198.253 164.36 199.848C163.401 201.123 163.071 202.579 162.628 204.427C162.411 205.312 162.194 206.197 161.97 207.109C161.744 208.073 161.518 209.036 161.285 210.029C161.04 211.042 160.793 212.054 160.546 213.067C159.893 215.75 159.252 218.435 158.614 221.12C157.61 225.339 156.586 229.555 155.565 233.771C155.314 234.81 155.063 235.85 154.812 236.89C152.836 245.088 151.284 256.016 149.337 265.343C148.459 269.548 144.743 272.424 140.447 272.424V272.424C135.786 272.424 131.662 269.066 130.836 264.479C130.786 264.206 130.746 263.978 130.719 263.812C129.964 259.257 129.194 254.705 128.415 250.153C127.943 247.394 127.477 244.634 127.024 241.873C126.586 239.207 126.134 236.543 125.671 233.88C125.497 232.865 125.329 231.849 125.166 230.833C124.936 229.407 124.686 227.984 124.434 226.561C124.384 226.264 124.334 225.967 124.284 225.669C124.109 224.629 123.887 223.584 123.408 222.644C123.072 221.984 122.689 221.438 122.206 220.933C120.756 219.416 118.54 218.831 116.455 219.071C116.064 219.116 115.683 219.184 115.216 219.286C113.986 219.554 112.807 219.995 112.197 221.097V221.097C111.674 222.04 111.606 223.309 111.763 224.375C111.892 225.252 112.034 226.127 112.205 226.999C112.616 229.249 112.846 230.506 112.774 231.604C112.539 235.198 109.201 237.764 105.945 239.304C104.827 239.832 103.683 240.338 102.501 240.845C101.404 241.389 100.311 241.94 99.223 242.497C79.2468 255.097 55.6308 258.828 31.7834 258.284C25.2153 258.134 22.5391 251.406 29.1087 251.358V251.358C29.6463 251.354 30.6689 251.301 31.195 251.19C55.0437 246.159 66.6486 230.801 81.9537 209.345C98.7967 185.946 124.672 167.586 156.7 160.533C163.524 159.18 170.47 158.21 177.478 157.914C178.368 157.875 179.257 157.835 180.174 157.794C196.622 157.423 212.409 160.684 228.209 164.111C229.12 164.308 229.12 164.308 230.05 164.509C231.712 164.871 233.373 165.238 235.034 165.604C250.033 168.653 265.258 166.923 278.818 160.795C291.051 154.196 297.567 145.479 300.745 133.775C307.49 106.9 301.136 78.3719 283.358 55.2693C274.825 44.5657 265.975 27.1498 249.124 33.1893C241.805 35.5352 234.738 34.5876 227.635 32.1585C225.219 31.2038 223.156 30.3789 221.457 29.2039C218.382 27.0787 217.425 22.3803 220.355 20.0599C220.42 20.0083 220.487 19.9556 220.556 19.9016C243.976 5.29108 264.834 12.2394 284.072 27.4878ZM262.026 237.683C267.01 234.977 271.648 239.817 270.886 245.437C269.799 253.458 268.574 262.516 267.561 269.971C267.142 273.06 266.187 275.452 263.616 277.216V277.216C257.7 281.276 252.066 277.104 253.53 270.08C254.642 264.744 255.748 259.489 255.903 257.833C256.017 256.518 256.111 255.2 256.188 253.883C256.28 246.802 256.29 246.001 258.896 241.012C259.629 239.61 260.636 238.438 262.026 237.683V237.683Z" fill="#E9E9E9" fill-opacity="0.1"/>
<ellipse cx="240.838" cy="23.1837" rx="5.08275" ry="4.63358" fill="#E9E9E9" fill-opacity="0.1"/>
</svg>
