<svg width="16" height="17" viewBox="0 0 16 17" fill="none" xmlns="http://www.w3.org/2000/svg">
<g clip-path="url(#clip0_1_3990)">
<path d="M11.5364 6.11145C11.7805 6.35559 11.7805 6.75134 11.5364 6.99536L7.34351 11.1884C7.09937 11.4324 6.70374 11.4324 6.45959 11.1884L4.46362 9.19226C4.21948 8.94824 4.21948 8.55249 4.46362 8.30847C4.70764 8.06433 5.10339 8.06433 5.34741 8.30847L6.90149 9.86255L10.6525 6.11145C10.8966 5.86743 11.2924 5.86743 11.5364 6.11145ZM16 8.6499C16 13.0719 12.4214 16.6499 8 16.6499C3.578 16.6499 0 13.0713 0 8.6499C0 4.22791 3.57861 0.649902 8 0.649902C12.422 0.649902 16 4.22852 16 8.6499ZM14.75 8.6499C14.75 4.91882 11.7306 1.8999 8 1.8999C4.26892 1.8999 1.25 4.91931 1.25 8.6499C1.25 12.381 4.26941 15.3999 8 15.3999C11.7311 15.3999 14.75 12.3805 14.75 8.6499Z" fill="black"/>
</g>
<defs>
<clipPath id="clip0_1_3990">
<rect width="16" height="16" fill="white" transform="translate(0 0.649902)"/>
</clipPath>
</defs>
</svg>
