<svg width="24" height="25" viewBox="0 0 24 25" fill="none" xmlns="http://www.w3.org/2000/svg">
<g clip-path="url(#clip0_1_34587)">
<path d="M9.03957 20.8172C9.24199 20.7536 9.41082 20.6121 9.50894 20.424C9.60706 20.2358 9.62642 20.0164 9.56277 19.814C9.49912 19.6116 9.35767 19.4428 9.16953 19.3447C8.98139 19.2465 8.76199 19.2272 8.55957 19.2908L9.03957 20.8172ZM3.20277 16.0812L2.42837 15.8764L2.02197 17.4252L2.79637 17.6284L3.20277 16.0812ZM14.3996 24.054V24.854H15.9996V24.054H14.3996ZM14.5004 16.3548L14.414 15.558C14.2636 15.5741 14.1209 15.6325 14.0024 15.7264C13.8839 15.8203 13.7944 15.9459 13.7443 16.0886C13.6942 16.2312 13.6856 16.3852 13.7195 16.5326C13.7533 16.6799 13.8283 16.8147 13.9356 16.9212L14.5004 16.3548ZM19.9996 10.3132H20.7996V10.3116L19.9996 10.3132ZM18.6668 7.10362L17.9212 6.81562C17.8654 6.95988 17.8527 7.11721 17.8845 7.26856C17.9163 7.41992 17.9913 7.55881 18.1004 7.66842L18.6668 7.10362ZM18.5868 3.87642L19.3164 3.55002C19.2686 3.44367 19.1982 3.34904 19.11 3.27276C19.0219 3.19648 18.9181 3.14039 18.806 3.10842L18.5868 3.87642ZM15.11 5.14362L14.9084 5.91802C15.0158 5.94608 15.1279 5.95147 15.2375 5.93384C15.3472 5.91621 15.4519 5.87595 15.5452 5.81562L15.11 5.14362ZM8.88917 5.14362L8.45397 5.81562C8.5472 5.87595 8.65196 5.91621 8.7616 5.93384C8.87123 5.95147 8.98333 5.94608 9.09077 5.91802L8.88917 5.14362ZM5.41237 3.87802L5.19317 3.11002C5.08077 3.14179 4.97668 3.19778 4.88823 3.27407C4.79977 3.35036 4.7291 3.4451 4.68117 3.55162L5.41237 3.87802ZM5.33237 7.10522L5.89877 7.67002C6.00819 7.56027 6.08337 7.42109 6.11519 7.26942C6.147 7.11774 6.13407 6.96009 6.07797 6.81562L5.33237 7.10522ZM3.99957 10.342H4.79957V10.3388L3.99957 10.342ZM9.50037 16.3548L10.0636 16.9228C10.1701 16.8168 10.2447 16.683 10.2787 16.5366C10.3128 16.3902 10.3048 16.2372 10.2559 16.0951C10.207 15.953 10.119 15.8275 10.0021 15.7331C9.88516 15.6387 9.744 15.5791 9.59477 15.5612L9.50037 16.3548ZM8.79957 18.454H9.59957L9.59797 18.3948L8.79957 18.454ZM7.99957 24.054V24.854H9.59957V24.054H7.99957ZM8.55957 19.2908C7.59477 19.5948 6.98197 19.5612 6.57557 19.4268C6.17397 19.294 5.86517 19.0268 5.56917 18.6428C5.41487 18.4355 5.2707 18.2209 5.13717 17.9996C5.00117 17.7772 4.84597 17.5164 4.68917 17.2844C4.38357 16.8348 3.93237 16.2716 3.20277 16.0796L2.79637 17.6284C2.92437 17.6604 3.09077 17.7804 3.36437 18.182C3.49557 18.3772 3.62037 18.5852 3.77717 18.8412C3.92757 19.0844 4.10037 19.3532 4.30037 19.6156C4.70517 20.1436 5.25717 20.6764 6.07637 20.9468C6.89237 21.2156 7.86197 21.1868 9.03957 20.8172L8.55957 19.2908ZM15.9996 18.3548C15.9996 17.846 15.9772 17.382 15.8332 16.95C15.6796 16.4892 15.414 16.134 15.0636 15.7868L13.9356 16.9228C14.1836 17.1676 14.2684 17.3148 14.3148 17.4556C14.3708 17.6236 14.3996 17.862 14.3996 18.3548H15.9996ZM14.5852 17.15C16.03 16.9948 17.606 16.63 18.8204 15.5788C20.0684 14.4988 20.7996 12.8108 20.7996 10.3132L19.1996 10.3148C19.1996 12.4892 18.5756 13.6748 17.7724 14.3692C16.934 15.0956 15.7596 15.414 14.414 15.558L14.5852 17.15ZM20.7996 10.3116C20.7955 8.89633 20.2318 7.53849 19.2316 6.53722L18.1004 7.66842C18.8012 8.37242 19.1964 9.32122 19.1996 10.3148L20.7996 10.3116ZM19.4124 7.39162C19.6524 6.77722 19.7644 6.12122 19.7484 5.46042L18.1484 5.50042C18.1609 5.94853 18.0837 6.39462 17.9212 6.81242L19.4124 7.39162ZM19.7484 5.46042C19.733 4.80069 19.5861 4.15227 19.3164 3.55002L17.8556 4.20122C18.0396 4.61082 18.1372 5.05242 18.1484 5.50042L19.7484 5.46042ZM18.5868 3.87642C18.806 3.10682 18.806 3.10522 18.8044 3.10522H18.7996L18.7932 3.10202L18.7452 3.09082L18.6588 3.07482C18.5752 3.06121 18.4907 3.05425 18.406 3.05402C18.1316 3.05038 17.8577 3.07884 17.59 3.13882C16.91 3.28442 15.9516 3.64602 14.678 4.47002L15.5452 5.81402C16.6956 5.07162 17.4748 4.79962 17.926 4.70362C18.0691 4.66988 18.2157 4.6527 18.3628 4.65242L18.4156 4.65562L18.4028 4.65402L18.3868 4.65082L18.3772 4.64762H18.3724L18.3692 4.64602C18.3676 4.64602 18.366 4.64602 18.5868 3.87482M15.3116 4.36602C13.1399 3.79946 10.8592 3.79946 8.68757 4.36602L9.09077 5.91482C10.998 5.41711 13.0011 5.41711 14.9084 5.91482L15.3116 4.36602ZM9.32277 4.46842C8.04757 3.64762 7.08757 3.28602 6.40757 3.14202C6.13981 3.08204 5.86595 3.05358 5.59157 3.05722C5.46182 3.06115 5.33273 3.07722 5.20597 3.10522L5.19957 3.10842H5.19477L5.41237 3.87802L5.63157 4.64762L5.62677 4.64922L5.62197 4.65082L5.59637 4.65722L5.63637 4.65562C5.78345 4.6559 5.93001 4.67308 6.07317 4.70682C6.52437 4.80282 7.30357 5.07322 8.45397 5.81562L9.32277 4.46842ZM4.68277 3.54682C4.41302 4.14907 4.26615 4.79909 4.25077 5.45882L5.85077 5.49882C5.86071 5.05056 5.96026 4.60881 6.14357 4.19962L4.68277 3.54682ZM4.25077 5.45882C4.23477 6.11962 4.34677 6.77562 4.58677 7.39002L6.07797 6.81082C5.91493 6.39313 5.83713 5.94704 5.84917 5.49882L4.25077 5.45882ZM4.76597 6.53562C4.26924 7.03666 3.87471 7.62953 3.60437 8.28122L5.08277 8.88922C5.27157 8.43322 5.54997 8.01722 5.89877 7.66522L4.76597 6.53562ZM3.60437 8.28122C3.33686 8.93534 3.19937 9.63531 3.19957 10.342L4.79957 10.3388C4.79957 9.84282 4.89557 9.35162 5.08277 8.89402L3.60437 8.28122ZM3.19957 10.342C3.19957 12.8268 3.93237 14.4972 5.18197 15.5708C6.39317 16.6108 7.96597 16.9788 9.40597 17.15L9.59477 15.5612C8.23957 15.398 7.06517 15.078 6.22357 14.3548C5.42037 13.6652 4.79957 12.4956 4.79957 10.3388L3.19957 10.342ZM8.93557 15.7884C8.13557 16.5852 7.92917 17.5324 8.00117 18.5148L9.59797 18.3948C9.54997 17.742 9.68277 17.302 10.0652 16.9212L8.93557 15.7884ZM7.99957 18.454V24.054H9.59957V18.454H7.99957ZM15.9996 24.054V21.654H14.3996V24.054H15.9996ZM15.9996 21.654V18.3548H14.3996V21.654H15.9996Z" fill="#171717"/>
</g>
<defs>
<clipPath id="clip0_1_34587">
<rect width="24" height="24" fill="white" transform="translate(0 0.853516)"/>
</clipPath>
</defs>
</svg>