<svg width="16" height="16" viewBox="0 0 16 16" fill="none" xmlns="http://www.w3.org/2000/svg">
<path d="M4 5.33325V10.6666" stroke="#0B0C0E" stroke-width="1.15" stroke-linecap="round" stroke-linejoin="round"/>
<path d="M11.9997 10.6666V7.99992C11.9997 6.1143 11.9997 5.17149 11.4139 4.58571C10.8281 3.99992 9.88527 3.99992 7.99967 3.99992H7.33301M7.33301 3.99992C7.33301 3.5331 8.66254 2.66094 8.99967 2.33325M7.33301 3.99992C7.33301 4.46674 8.66254 5.3389 8.99967 5.66659" stroke="#0B0C0E" stroke-width="1.15" stroke-linecap="round" stroke-linejoin="round"/>
<path d="M4.00033 13.3334C4.73671 13.3334 5.33366 12.7365 5.33366 12.0001C5.33366 11.2637 4.73671 10.6667 4.00033 10.6667C3.26395 10.6667 2.66699 11.2637 2.66699 12.0001C2.66699 12.7365 3.26395 13.3334 4.00033 13.3334Z" stroke="#0B0C0E" stroke-width="1.15"/>
<path d="M4.00033 5.33341C4.73671 5.33341 5.33366 4.73646 5.33366 4.00008C5.33366 3.2637 4.73671 2.66675 4.00033 2.66675C3.26395 2.66675 2.66699 3.2637 2.66699 4.00008C2.66699 4.73646 3.26395 5.33341 4.00033 5.33341Z" stroke="#0B0C0E" stroke-width="1.15"/>
<path d="M12.0003 13.3334C12.7367 13.3334 13.3337 12.7365 13.3337 12.0001C13.3337 11.2637 12.7367 10.6667 12.0003 10.6667C11.2639 10.6667 10.667 11.2637 10.667 12.0001C10.667 12.7365 11.2639 13.3334 12.0003 13.3334Z" stroke="#0B0C0E" stroke-width="1.15"/>
</svg>
