<svg width="24" height="25" viewBox="0 0 24 25" fill="none" xmlns="http://www.w3.org/2000/svg">
<path d="M7.49996 9.85349H3.49996C3.36735 9.85349 3.24018 9.90617 3.14641 9.99994C3.05264 10.0937 2.99996 10.2209 2.99996 10.3535V22.3535C2.99996 22.4861 3.05264 22.6133 3.14641 22.707C3.24018 22.8008 3.36735 22.8535 3.49996 22.8535H7.49996C7.63257 22.8535 7.75975 22.8008 7.85352 22.707C7.94728 22.6133 7.99996 22.4861 7.99996 22.3535V10.3535C7.99996 10.2209 7.94728 10.0937 7.85352 9.99994C7.75975 9.90617 7.63257 9.85349 7.49996 9.85349ZM6.99996 21.8535H3.99996V10.8535H6.99996V21.8535ZM18 9.85349C16.915 9.85349 15.86 10.2115 15 10.8725V10.3535C15 10.2209 14.9473 10.0937 14.8535 9.99994C14.7597 9.90617 14.6326 9.85349 14.5 9.85349H10.5C10.3674 9.85349 10.2402 9.90617 10.1464 9.99994C10.0526 10.0937 9.99996 10.2209 9.99996 10.3535V22.3535C9.99996 22.4861 10.0526 22.6133 10.1464 22.707C10.2402 22.8008 10.3674 22.8535 10.5 22.8535H14.5C14.6326 22.8535 14.7597 22.8008 14.8535 22.707C14.9473 22.6133 15 22.4861 15 22.3535V16.8535C15 16.4557 15.158 16.0741 15.4393 15.7928C15.7206 15.5115 16.1021 15.3535 16.5 15.3535C16.8978 15.3535 17.2793 15.5115 17.5606 15.7928C17.8419 16.0741 18 16.4557 18 16.8535V22.3535C18 22.4861 18.0526 22.6133 18.1464 22.707C18.2402 22.8008 18.3674 22.8535 18.5 22.8535H22.5C22.6326 22.8535 22.7597 22.8008 22.8535 22.707C22.9473 22.6133 23 22.4861 23 22.3535V14.8535C22.9984 13.5279 22.4711 12.257 21.5337 11.3197C20.5964 10.3824 19.3256 9.85508 18 9.85349ZM22 21.8535H19V16.8535C19 16.1904 18.7366 15.5546 18.2677 15.0857C17.7989 14.6169 17.163 14.3535 16.5 14.3535C15.8369 14.3535 15.201 14.6169 14.7322 15.0857C14.2634 15.5546 14 16.1904 14 16.8535V21.8535H11V10.8535H14V12.0565C13.9999 12.16 14.0321 12.2611 14.0919 12.3456C14.1518 12.4301 14.2364 12.4939 14.3341 12.5283C14.4318 12.5626 14.5377 12.5658 14.6373 12.5374C14.7369 12.5089 14.8252 12.4503 14.89 12.3695C15.4035 11.7186 16.1073 11.2441 16.9034 11.0123C17.6994 10.7805 18.548 10.8029 19.3307 11.0763C20.1134 11.3498 20.7912 11.8607 21.2697 12.5378C21.7482 13.2149 22.0035 14.0244 22 14.8535V21.8535ZM5.86796 2.85549C5.75044 2.84789 5.63257 2.84723 5.51496 2.85349C5.14073 2.82803 4.76526 2.87967 4.4118 3.00523C4.05834 3.13078 3.73442 3.32758 3.46011 3.58342C3.18581 3.83926 2.96695 4.14869 2.8171 4.49256C2.66725 4.83642 2.5896 5.20739 2.58896 5.58249C2.58586 5.95367 2.65904 6.32153 2.80396 6.66325C2.94889 7.00498 3.16248 7.3133 3.43147 7.56907C3.70047 7.82485 4.01915 8.02264 4.36774 8.15018C4.71633 8.27772 5.08741 8.33228 5.45796 8.31049H5.48596C5.84414 8.33557 6.20376 8.28986 6.54427 8.17596C6.88478 8.06207 7.19953 7.88222 7.47054 7.64668C7.74155 7.41114 7.96351 7.12454 8.12375 6.80322C8.28399 6.4819 8.37938 6.13217 8.40446 5.77399C8.42954 5.41581 8.38383 5.0562 8.26994 4.71568C8.15604 4.37517 7.97619 4.06042 7.74065 3.78941C7.50512 3.5184 7.21851 3.29644 6.89719 3.1362C6.57588 2.97596 6.22614 2.88057 5.86796 2.85549ZM5.83296 7.31349C5.71763 7.32416 5.60196 7.32316 5.48596 7.31049H5.45796C5.21729 7.32858 4.97549 7.29629 4.748 7.21568C4.52051 7.13507 4.31233 7.00791 4.13675 6.84231C3.96116 6.67672 3.82204 6.47634 3.72825 6.25395C3.63447 6.03157 3.58809 5.79207 3.59206 5.55075C3.59604 5.30944 3.6503 5.0716 3.75136 4.85243C3.85243 4.63326 3.99808 4.43757 4.17903 4.27785C4.35998 4.11814 4.57224 3.99791 4.80226 3.92484C5.03228 3.85177 5.27502 3.82747 5.51496 3.85349C5.97379 3.81132 6.43057 3.95314 6.78483 4.24776C7.13908 4.54238 7.36179 4.96566 7.40396 5.42449C7.44613 5.88331 7.30431 6.3401 7.00969 6.69435C6.71507 7.04861 6.29179 7.27132 5.83296 7.31349Z" fill="#171717" stroke="black" stroke-width="0.3"/>
</svg>