<svg width="116" height="28" viewBox="0 0 116 28" fill="none" xmlns="http://www.w3.org/2000/svg">
<path d="M19.182 1.19022C18.7919 1.45474 18.5446 1.71696 18.4289 2.15229C18.3428 2.69785 18.4485 3.12277 18.805 3.56698C19.3995 4.19561 20.3976 4.5196 21.2785 4.59206C21.6708 4.60257 22.0221 4.55436 22.3989 4.45534C22.7687 4.40068 23.1092 4.62356 23.3714 4.8901C24.8072 6.3495 25.7293 8.5437 25.8145 10.4297C25.8503 11.7361 25.8627 13.1893 24.8687 14.2201C24.1479 14.8661 23.2127 15.1095 22.2303 15.1139C21.54 15.1028 20.8923 14.9367 20.2292 14.7739C19.0066 14.481 17.859 14.2682 16.5861 14.2698C16.5066 14.2699 16.5066 14.2699 16.4255 14.27C13.3835 14.2819 10.6602 15.4801 8.51842 17.4314C7.61099 18.2821 6.91775 19.3026 6.27151 20.3281C5.67656 21.2691 4.99382 22.0941 4.15746 22.8666C4.02908 22.986 3.88686 23.0905 3.73144 23.1717C3.59208 23.2444 3.46093 23.3086 3.33733 23.3651C2.38302 23.8015 0.381971 22.9941 0.656433 24.007C0.904585 24.9227 3.04325 26.6015 7.64411 25.3061C8.66704 25.0181 9.56049 24.4609 10.472 23.9503C10.5356 23.9148 10.6143 23.9571 10.6201 24.0296C10.6881 24.8304 10.9618 25.6751 11.1584 26.4673C11.6304 27.5475 13.9116 27.4035 14.3049 26.7554C14.3928 26.5915 14.4376 26.4187 14.4885 26.2432C14.5758 25.8966 14.6473 25.5485 14.713 25.198C14.7269 25.1257 14.7409 25.0534 14.7552 24.9789C14.7722 24.8905 14.7892 24.8021 14.806 24.7136C14.834 24.5658 14.9716 24.4647 15.121 24.4824C16.3483 24.6217 17.5434 24.6017 18.7717 24.533C18.8703 24.5274 18.9569 24.598 18.9711 24.6957C19.0048 24.9236 19.0392 25.1588 19.0738 25.3898C19.1353 25.8007 19.1208 26.2409 19.3156 26.6079C20.0943 28.0748 23.7466 28.052 24.834 26.7233C25.3372 26.1084 25.1542 25.1936 25.2441 24.4041C25.2739 24.1404 25.3032 23.8767 25.331 23.6128C25.3582 23.3557 25.3877 23.0989 25.4175 22.8421C25.4253 22.7632 25.4331 22.6843 25.4412 22.603C25.483 22.2539 25.4921 22.1777 25.6149 21.9804C25.6992 21.8449 25.8151 21.7322 25.947 21.6423C26.0378 21.5748 26.0378 21.5748 26.1304 21.5059C26.227 21.4375 26.227 21.4375 26.3255 21.3678C27.3071 20.6367 28.182 19.8157 28.8575 18.8338C28.8858 18.7931 28.9142 18.7525 28.9434 18.7107C29.8053 17.4592 30.2445 16.0302 30.4504 14.5714C30.457 14.5249 30.4636 14.4783 30.4703 14.4304C30.91 11.236 30.4857 7.99739 28.7788 5.15102C28.7514 5.10537 28.7241 5.05972 28.6959 5.01268C27.9054 3.71366 26.827 2.4803 25.5536 1.55029C25.4761 1.49181 25.3985 1.43332 25.3186 1.37307C23.4004 -0.0485268 21.2001 -0.041276 19.182 1.19022ZM25.3177 2.84655C25.3589 2.88161 25.4002 2.91666 25.4427 2.95278C27.8259 4.98528 29.3064 7.9646 29.4242 10.9537C29.4339 11.312 29.4343 11.6701 29.4327 12.0284C29.4326 12.0916 29.4325 12.1549 29.4323 12.22C29.429 13.2133 29.381 14.1837 29.1721 15.161C29.1603 15.2174 29.1485 15.2738 29.1364 15.3319C28.6241 17.7045 27.0691 19.6635 24.9059 21.0313C24.1937 21.5328 24.1397 21.5707 23.4543 21.7983C23.3686 21.8267 23.2815 21.7581 23.2896 21.6682C23.3265 21.2355 23.36 20.8024 23.3757 20.3686C23.3765 20.3502 23.3771 20.3352 23.3777 20.3222C23.3823 20.2149 23.3909 20.1021 23.3447 20.0052C23.2861 19.8824 23.148 19.8109 23.0141 19.7871C23.0002 19.7846 22.9865 19.7827 22.9729 19.7813C22.7016 19.7534 22.4033 19.9218 22.3627 20.1915C22.3582 20.2212 22.3539 20.2544 22.3488 20.2924C22.3399 20.3564 22.3311 20.4204 22.3219 20.4864C22.3084 20.5915 22.3084 20.5915 22.2947 20.6988C22.2848 20.7722 22.2749 20.8455 22.2647 20.9211C22.2326 21.1614 22.2017 21.4018 22.1712 21.6423C22.1558 21.7629 22.1558 21.7629 22.1402 21.8859C22.0667 22.4677 21.9958 23.0497 21.9253 23.6317C21.8844 23.9703 21.8432 24.3088 21.8018 24.6472C21.7926 24.7237 21.7835 24.8001 21.774 24.8789C21.7653 24.9499 21.7566 25.0209 21.7477 25.0941C21.7402 25.1561 21.7327 25.2182 21.725 25.282C21.7139 25.3581 21.7191 25.6776 21.7259 26.0349C21.7387 26.7079 21.2293 27.044 20.7113 26.6141C20.4448 26.3929 20.2927 26.0986 20.2674 25.7532C20.2425 25.4134 20.2211 25.0324 20.1849 24.829C20.1761 24.7792 20.1672 24.7295 20.1581 24.6783C20.0589 24.1203 19.9628 23.5621 19.878 23.0022C19.8641 22.9111 19.8503 22.82 19.8361 22.7261C19.8102 22.5528 19.7847 22.3793 19.7597 22.2059C19.7481 22.1274 19.7364 22.0489 19.7243 21.9681C19.7145 21.8997 19.7046 21.8313 19.6945 21.7609C19.6867 21.7243 19.678 21.6887 19.6685 21.6537C19.5897 21.3647 19.27 21.1059 18.9726 21.1424C18.7909 21.1647 18.6778 21.2736 18.629 21.45C18.536 21.786 18.6585 22.1988 18.71 22.5245C18.7246 22.6081 18.7392 22.6916 18.7543 22.7777C18.8049 23.1205 18.5443 23.4163 18.2 23.4554C17.736 23.5082 17.2747 23.5285 16.7975 23.5282C16.7253 23.5283 16.6531 23.5283 16.5787 23.5283C15.732 23.547 15.1969 22.7219 15.3847 21.8961C15.3968 21.8426 15.4088 21.7891 15.4213 21.734C15.4714 21.5125 15.5215 21.291 15.5729 21.0697C15.7535 20.2892 15.8341 19.9405 15.8533 19.7182C15.8785 19.4253 15.682 19.1325 15.3889 19.1103C15.2036 19.0963 14.9921 19.1623 14.8889 19.3168C14.8087 19.4371 14.7803 19.5744 14.7424 19.748C14.7234 19.8326 14.7045 19.9171 14.685 20.0042C14.6653 20.0962 14.6457 20.1882 14.6254 20.2831C14.604 20.3798 14.5826 20.4766 14.561 20.5733C14.5042 20.8296 14.4484 21.086 14.3928 21.3425C14.3053 21.7455 14.2162 22.1482 14.1273 22.551C14.1054 22.6503 14.0836 22.7495 14.0617 22.8489C13.8862 23.648 13.749 24.7186 13.5746 25.6211C13.5036 25.9884 13.1819 26.2432 12.8078 26.2432C12.4051 26.2432 12.0521 25.9494 11.9852 25.5523C11.9756 25.4952 11.968 25.4487 11.9637 25.4205C11.8979 24.9854 11.8309 24.5506 11.7631 24.1158C11.722 23.8522 11.6814 23.5886 11.6419 23.3249C11.6038 23.0702 11.5644 22.8158 11.5241 22.5614C11.509 22.4644 11.4943 22.3674 11.4801 22.2703C11.4601 22.1341 11.4383 21.9982 11.4164 21.8622C11.411 21.8266 11.4055 21.7909 11.4 21.755C11.387 21.6702 11.3699 21.5856 11.3356 21.5071C11.3036 21.4336 11.2668 21.3749 11.219 21.3208C11.0961 21.1818 10.9004 21.123 10.7164 21.1475C10.6903 21.151 10.6645 21.1558 10.6351 21.1624C10.5137 21.1896 10.4004 21.2355 10.3471 21.3479C10.307 21.4324 10.2988 21.5464 10.3111 21.6391C10.3228 21.7276 10.3358 21.8161 10.3515 21.9041C10.36 21.9548 10.3675 22.0002 10.3741 22.0414C10.4588 22.574 9.99449 22.997 9.5065 23.2266C9.41094 23.2786 9.31579 23.3312 9.22104 23.3845C7.48689 24.5843 5.43775 24.9423 3.36767 24.8929C2.76788 24.8787 2.49892 24.2368 3.09885 24.231C3.15425 24.2305 3.25556 24.2246 3.3095 24.212C5.37792 23.7285 6.38711 22.2632 7.71724 20.2178C9.18392 17.9826 11.4371 16.2289 14.2261 15.5551C14.8204 15.4259 15.4252 15.3333 16.0355 15.3051C16.113 15.3012 16.1904 15.2974 16.2702 15.2935C17.7025 15.2581 19.0773 15.5696 20.4531 15.8969C20.5325 15.9158 20.5325 15.9158 20.6134 15.935C20.7582 15.9696 20.9028 16.0046 21.0474 16.0396C22.3535 16.3308 23.6793 16.1655 24.8601 15.5802C25.9254 14.9498 26.4928 14.1172 26.7696 12.9993C27.3569 10.4321 26.8036 7.70706 25.2555 5.50027C24.5124 4.47785 23.7418 2.81426 22.2744 3.39116C21.637 3.61525 21.0217 3.52474 20.4031 3.2927C20.2043 3.20649 20.0329 3.13137 19.8897 3.02861C19.5931 2.81573 19.5098 2.35985 19.7867 2.12191C21.8261 0.726293 23.6424 1.39001 25.3177 2.84655ZM23.3979 22.9247C23.8291 22.6678 24.2405 23.09 24.179 23.5881C24.08 24.3888 23.9665 25.3092 23.8744 26.0534C23.8413 26.3207 23.7633 26.5292 23.5486 26.6917C23.0318 27.0828 22.5247 26.7216 22.6456 26.0849C22.7464 25.5533 22.8506 25.0144 22.8647 24.8494C22.8746 24.7237 22.8828 24.5979 22.8895 24.4721C22.8976 23.79 22.8984 23.7179 23.1312 23.2304C23.1913 23.1045 23.278 22.996 23.3979 22.9247Z" fill="black" stroke="black" stroke-width="0.170682"/>
<circle cx="21.553" cy="2.43528" r="0.442605" fill="black"/>
<path d="M42.8853 21.3583V9.4369H38.6318V7.50527H49.246V9.4369H44.9925V21.3583H42.8853Z" fill="black"/>
<path d="M53.6611 21.5925C52.6465 21.5925 51.7685 21.3713 51.027 20.9291C50.2986 20.4868 49.7328 19.856 49.3295 19.0365C48.9393 18.217 48.7442 17.2609 48.7442 16.1683C48.7442 15.0757 48.9393 14.1261 49.3295 13.3197C49.7328 12.5002 50.2986 11.8693 51.027 11.4271C51.7555 10.9718 52.614 10.7442 53.6025 10.7442C54.5391 10.7442 55.3651 10.9653 56.0805 11.4075C56.7959 11.8368 57.3487 12.4612 57.7389 13.2806C58.1422 14.1001 58.3438 15.0887 58.3438 16.2464V16.7732H50.8904C50.9425 17.7878 51.2091 18.5487 51.6904 19.056C52.1847 19.5633 52.8481 19.8169 53.6806 19.8169C54.2919 19.8169 54.7992 19.6739 55.2025 19.3877C55.6057 19.1015 55.8854 18.7178 56.0414 18.2365L58.1877 18.3731C57.9145 19.3357 57.3747 20.1161 56.5683 20.7145C55.7748 21.2998 54.8057 21.5925 53.6611 21.5925ZM50.8904 15.2123H56.1585C56.0935 14.2887 55.8268 13.6058 55.3585 13.1636C54.9033 12.7213 54.3179 12.5002 53.6025 12.5002C52.8611 12.5002 52.2497 12.7343 51.7685 13.2026C51.3002 13.6579 51.0075 14.3277 50.8904 15.2123Z" fill="black"/>
<path d="M64.4393 21.5925C63.4637 21.5925 62.6377 21.4429 61.9613 21.1437C61.2979 20.8445 60.7841 20.4348 60.4199 19.9145C60.0557 19.3812 59.8476 18.7698 59.7956 18.0804L61.9223 17.9829C62.0264 18.5552 62.2735 19.0105 62.6637 19.3487C63.0539 19.6869 63.6458 19.856 64.4393 19.856C65.0896 19.856 65.6034 19.7519 65.9806 19.5438C66.3579 19.3357 66.5465 19.004 66.5465 18.5487C66.5465 18.3016 66.4814 18.0934 66.3514 17.9243C66.2343 17.7422 66.0002 17.5926 65.649 17.4756C65.2978 17.3455 64.7774 17.2219 64.088 17.1049C63.0604 16.9097 62.254 16.6821 61.6686 16.422C61.0833 16.1618 60.6671 15.8301 60.4199 15.4269C60.1728 15.0236 60.0492 14.5359 60.0492 13.9635C60.0492 13.014 60.4004 12.24 61.1028 11.6417C61.8182 11.0433 62.8458 10.7442 64.1856 10.7442C65.0831 10.7442 65.8376 10.9002 66.4489 11.2124C67.0603 11.5116 67.5351 11.9213 67.8732 12.4416C68.2245 12.9489 68.4456 13.5213 68.5366 14.1586L66.4099 14.2757C66.3449 13.9115 66.2148 13.5993 66.0197 13.3392C65.8376 13.066 65.5904 12.8579 65.2782 12.7148C64.9661 12.5587 64.5953 12.4807 64.1661 12.4807C63.5027 12.4807 63.0084 12.6107 62.6832 12.8709C62.358 13.131 62.1954 13.4692 62.1954 13.8855C62.1954 14.1977 62.267 14.4513 62.4101 14.6464C62.5662 14.8415 62.8133 15.0041 63.1515 15.1342C63.4897 15.2513 63.9385 15.3553 64.4978 15.4464C65.5774 15.6285 66.4229 15.8561 67.0343 16.1293C67.6456 16.3894 68.0749 16.7146 68.322 17.1049C68.5692 17.4951 68.6927 17.9699 68.6927 18.5292C68.6927 19.1796 68.5106 19.7324 68.1464 20.1876C67.7822 20.6429 67.2814 20.9941 66.644 21.2413C66.0067 21.4754 65.2717 21.5925 64.4393 21.5925Z" fill="black"/>
<path d="M74.385 21.3583C73.3964 21.3583 72.668 21.1307 72.1997 20.6754C71.7315 20.2202 71.4973 19.5113 71.4973 18.5487V8.53937H73.5655V18.3926C73.5655 18.8739 73.6696 19.2056 73.8777 19.3877C74.0858 19.5698 74.4045 19.6608 74.8338 19.6608H76.3166V21.3583H74.385ZM69.9169 12.6758V10.9783H76.3166V12.6758H69.9169Z" fill="black"/>
<path d="M81.8092 21.5925C80.9247 21.5925 80.1508 21.3713 79.4874 20.9291C78.837 20.4868 78.3362 19.8625 77.985 19.056C77.6468 18.2365 77.4777 17.274 77.4777 16.1683C77.4777 15.0627 77.6533 14.1066 78.0045 13.3001C78.3557 12.4807 78.8565 11.8498 79.5069 11.4075C80.1573 10.9653 80.9247 10.7442 81.8092 10.7442C82.5246 10.7442 83.162 10.8937 83.7213 11.1929C84.2807 11.4921 84.7034 11.9083 84.9896 12.4416V7.50527H87.0578V21.3583H85.1262L85.0676 19.7974C84.7815 20.3567 84.3457 20.799 83.7604 21.1242C83.188 21.4364 82.5377 21.5925 81.8092 21.5925ZM82.3555 19.7974C82.9149 19.7974 83.3896 19.6543 83.7799 19.3682C84.1701 19.082 84.4693 18.6658 84.6774 18.1194C84.8855 17.5731 84.9896 16.9228 84.9896 16.1683C84.9896 15.3879 84.8855 14.731 84.6774 14.1977C84.4693 13.6513 84.1701 13.2416 83.7799 12.9685C83.3896 12.6823 82.9149 12.5392 82.3555 12.5392C81.5231 12.5392 80.8597 12.8644 80.3654 13.5148C79.8711 14.1521 79.624 15.0367 79.624 16.1683C79.624 17.287 79.8711 18.1715 80.3654 18.8219C80.8597 19.4722 81.5231 19.7974 82.3555 19.7974Z" fill="black"/>
<path d="M89.6493 21.3583V10.9783H91.7175V21.3583H89.6493ZM89.6103 9.47592V7.40771H91.7565V9.47592H89.6103Z" fill="black"/>
<path d="M94.8129 21.3583V10.9783H96.7055L96.7836 13.7489L96.5299 13.6123C96.647 12.9359 96.8681 12.3896 97.1933 11.9734C97.5185 11.5571 97.9152 11.2515 98.3835 11.0563C98.8518 10.8482 99.3591 10.7442 99.9054 10.7442C100.686 10.7442 101.33 10.9198 101.837 11.271C102.357 11.6092 102.748 12.0774 103.008 12.6758C103.281 13.2611 103.417 13.931 103.417 14.6854V21.3583H101.349V15.3098C101.349 14.6985 101.284 14.1847 101.154 13.7684C101.024 13.3522 100.809 13.0335 100.51 12.8124C100.211 12.5912 99.8208 12.4807 99.3396 12.4807C98.6111 12.4807 98.0193 12.7213 97.564 13.2026C97.1088 13.6839 96.8811 14.3863 96.8811 15.3098V21.3583H94.8129Z" fill="black"/>
<path d="M110.385 21.5925C109.396 21.5925 108.531 21.3713 107.79 20.9291C107.049 20.4868 106.476 19.856 106.073 19.0365C105.67 18.217 105.468 17.2609 105.468 16.1683C105.468 15.0627 105.67 14.1066 106.073 13.3001C106.476 12.4937 107.049 11.8693 107.79 11.4271C108.531 10.9718 109.396 10.7442 110.385 10.7442C111.374 10.7442 112.239 10.9718 112.98 11.4271C113.721 11.8693 114.294 12.4937 114.697 13.3001C115.1 14.1066 115.302 15.0627 115.302 16.1683C115.302 17.2609 115.1 18.217 114.697 19.0365C114.294 19.856 113.721 20.4868 112.98 20.9291C112.239 21.3713 111.374 21.5925 110.385 21.5925ZM110.385 19.7974C111.269 19.7974 111.952 19.4787 112.434 18.8414C112.915 18.191 113.156 17.3 113.156 16.1683C113.156 15.0367 112.915 14.1521 112.434 13.5148C111.952 12.8644 111.269 12.5392 110.385 12.5392C109.513 12.5392 108.831 12.8644 108.336 13.5148C107.855 14.1521 107.614 15.0367 107.614 16.1683C107.614 17.3 107.855 18.191 108.336 18.8414C108.831 19.4787 109.513 19.7974 110.385 19.7974Z" fill="black"/>
</svg>
