<svg width="133" height="32" viewBox="0 0 133 32" fill="none" xmlns="http://www.w3.org/2000/svg">
<path d="M21.7892 2.01376C21.352 2.31021 21.0749 2.60408 20.9452 3.09195C20.8487 3.70337 20.9672 4.17957 21.3667 4.6774C22.033 5.38191 23.1515 5.74501 24.1388 5.82621C24.5784 5.83799 24.9721 5.78396 25.3944 5.67299V5.67299C25.8089 5.61173 26.1904 5.86151 26.4843 6.16023C28.0934 7.79577 29.1269 10.2548 29.2223 12.3685C29.2624 13.8325 29.2763 15.4612 28.1624 16.6163C27.3545 17.3404 26.3064 17.6131 25.2055 17.6181C24.4318 17.6056 23.706 17.4194 22.9628 17.2371C21.5927 16.9087 20.3066 16.6702 18.88 16.6721C18.7909 16.6722 18.7909 16.6722 18.7 16.6723C15.2908 16.6856 12.2389 18.0284 9.83856 20.2153C8.8216 21.1687 8.04469 22.3123 7.32044 23.4616C6.65368 24.5162 5.88854 25.4407 4.95122 26.3065V26.3065C4.80735 26.4403 4.64796 26.5575 4.47379 26.6484C4.3176 26.7299 4.17062 26.8018 4.0321 26.8652C2.9626 27.3543 0.72003 26.4494 1.02762 27.5845C1.30572 28.6108 3.70253 30.4922 8.85872 29.0404C10.0051 28.7176 11.0064 28.0933 12.028 27.5211C12.0992 27.4812 12.1875 27.5286 12.194 27.6099V27.6099C12.2701 28.5074 12.5768 29.454 12.7972 30.3418C13.3262 31.5524 15.8827 31.391 16.3235 30.6646C16.422 30.481 16.4722 30.2874 16.5293 30.0906C16.6271 29.7022 16.7072 29.3122 16.7808 28.9194C16.7964 28.8383 16.8121 28.7573 16.8282 28.6738C16.8472 28.5747 16.8662 28.4756 16.885 28.3764C16.9165 28.2108 17.0707 28.0975 17.2381 28.1173V28.1173C18.6135 28.2735 19.9529 28.251 21.3294 28.174C21.4399 28.1678 21.537 28.2469 21.5529 28.3564V28.3564C21.5906 28.6118 21.6293 28.8754 21.668 29.1343C21.737 29.5948 21.7206 30.0881 21.939 30.4994C22.8117 32.1433 26.9048 32.1178 28.1234 30.6287C28.6874 29.9396 28.4823 28.9143 28.583 28.0295V28.0295C28.6164 27.734 28.6493 27.4385 28.6804 27.1428C28.711 26.8547 28.744 26.5669 28.7774 26.2791C28.7861 26.1906 28.7949 26.1022 28.8039 26.011C28.8508 25.6198 28.861 25.5345 28.9986 25.3134C29.093 25.1615 29.223 25.0352 29.3707 24.9345V24.9345C29.4725 24.8588 29.4725 24.8588 29.5763 24.7816C29.6846 24.7049 29.6846 24.7049 29.795 24.6268C30.8951 23.8075 31.8756 22.8874 32.6326 21.7869C32.6643 21.7414 32.6961 21.6959 32.7288 21.649C33.6948 20.2464 34.187 18.6449 34.4177 17.0101C34.4251 16.9579 34.4325 16.9058 34.4401 16.8521C34.9329 13.2721 34.4574 9.64257 32.5444 6.45263C32.5137 6.40147 32.4831 6.35031 32.4515 6.2976C31.5655 4.84178 30.357 3.45955 28.93 2.41729C28.843 2.35175 28.7561 2.28621 28.6665 2.21868C26.5168 0.625494 24.0509 0.63362 21.7892 2.01376ZM28.6655 3.87001C28.7117 3.9093 28.758 3.94859 28.8056 3.98906C31.4765 6.26688 33.1357 9.60582 33.2677 12.9557C33.2785 13.3572 33.2791 13.7585 33.2772 14.1601C33.2771 14.231 33.2769 14.3019 33.2768 14.3749C33.2731 15.4881 33.2193 16.5756 32.9852 17.6709C32.972 17.7341 32.9588 17.7972 32.9452 17.8623C32.371 20.5213 30.6283 22.7168 28.204 24.2497C27.4058 24.8117 27.3454 24.8542 26.5772 25.1093C26.4812 25.1411 26.3836 25.0642 26.3927 24.9635V24.9635C26.434 24.4785 26.4716 23.9931 26.4891 23.507C26.49 23.4864 26.4907 23.4695 26.4913 23.455C26.4965 23.3347 26.5062 23.2084 26.4543 23.0997V23.0997C26.3887 22.9621 26.2339 22.882 26.0839 22.8553C26.0683 22.8525 26.053 22.8504 26.0377 22.8488C25.7337 22.8175 25.3993 23.0063 25.3538 23.3085C25.3488 23.3418 25.344 23.379 25.3383 23.4216C25.3283 23.4934 25.3184 23.5651 25.3082 23.639C25.293 23.7568 25.293 23.7568 25.2776 23.8771C25.2665 23.9593 25.2554 24.0415 25.244 24.1262C25.208 24.3955 25.1734 24.6649 25.1392 24.9345C25.122 25.0696 25.122 25.0696 25.1045 25.2075C25.0222 25.8594 24.9427 26.5117 24.8637 27.164C24.8178 27.5434 24.7716 27.9227 24.7253 28.3021C24.715 28.3877 24.7047 28.4734 24.6941 28.5617C24.6844 28.6413 24.6747 28.7209 24.6646 28.8029C24.6562 28.8724 24.6478 28.9419 24.6392 29.0135C24.6267 29.0988 24.6326 29.4568 24.6402 29.8572C24.6545 30.6115 24.0836 30.9881 23.5031 30.5063V30.5063C23.2044 30.2584 23.034 29.9286 23.0056 29.5415C22.9777 29.1607 22.9538 28.7337 22.9132 28.5057C22.9033 28.45 22.8934 28.3943 22.8832 28.3369C22.772 27.7115 22.6643 27.086 22.5692 26.4584C22.5537 26.3564 22.5382 26.2543 22.5223 26.1491C22.4932 25.9548 22.4647 25.7604 22.4367 25.566C22.4236 25.4781 22.4105 25.3901 22.397 25.2995C22.386 25.2229 22.3749 25.1463 22.3636 25.0673C22.3549 25.0263 22.3451 24.9864 22.3345 24.9472C22.2461 24.6233 21.8878 24.3333 21.5546 24.3742V24.3742C21.351 24.3991 21.2242 24.5212 21.1695 24.7189C21.0653 25.0955 21.2026 25.5581 21.2603 25.9231C21.2767 26.0168 21.293 26.1104 21.3099 26.2069V26.2069C21.3666 26.5911 21.0746 26.9225 20.6887 26.9664C20.1687 27.0255 19.6518 27.0483 19.117 27.048C19.036 27.048 18.9551 27.0481 18.8717 27.0481V27.0481C17.9228 27.0691 17.3231 26.1444 17.5336 25.2188V25.2188C17.5471 25.1589 17.5607 25.099 17.5746 25.0372C17.6307 24.789 17.687 24.5407 17.7445 24.2928C17.9469 23.418 18.0373 23.0272 18.0587 22.7781C18.087 22.4498 17.8668 22.1217 17.5383 22.0969V22.0969C17.3306 22.0812 17.0936 22.155 16.978 22.3282C16.888 22.4631 16.8562 22.617 16.8138 22.8115C16.7925 22.9062 16.7713 23.001 16.7495 23.0986C16.7274 23.2017 16.7054 23.3049 16.6827 23.4111C16.6587 23.5196 16.6347 23.628 16.6105 23.7364C16.5468 24.0236 16.4843 24.311 16.422 24.5985C16.324 25.0501 16.2241 25.5014 16.1244 25.9528C16.0999 26.0641 16.0754 26.1753 16.051 26.2866C15.8542 27.1822 15.7005 28.382 15.505 29.3935C15.4254 29.8051 15.0649 30.0906 14.6457 30.0906V30.0906C14.1944 30.0906 13.7987 29.7615 13.7238 29.3164C13.713 29.2524 13.7045 29.2003 13.6997 29.1687C13.626 28.6811 13.5509 28.1938 13.4749 27.7065C13.4288 27.4111 13.3833 27.1157 13.3391 26.8201C13.2964 26.5347 13.2522 26.2496 13.2071 25.9645C13.1901 25.8558 13.1737 25.747 13.1577 25.6382C13.1353 25.4856 13.1109 25.3333 13.0864 25.1809C13.0802 25.1409 13.0741 25.1009 13.0679 25.0607C13.0534 24.9658 13.0342 24.8709 12.9958 24.7829C12.9599 24.7006 12.9187 24.6348 12.8651 24.5742C12.7273 24.4184 12.508 24.3524 12.3019 24.3799C12.2726 24.3838 12.2436 24.3892 12.2107 24.3966C12.0747 24.4271 11.9476 24.4785 11.8879 24.6045V24.6045C11.8431 24.6992 11.8338 24.827 11.8476 24.9309C11.8608 25.0301 11.8753 25.1292 11.8929 25.2278C11.9024 25.2846 11.9109 25.3355 11.9182 25.3817C12.0132 25.9786 11.4928 26.4526 10.9459 26.71V26.71C10.8388 26.7683 10.7322 26.8272 10.626 26.8869C8.68252 28.2316 6.38604 28.6327 4.0661 28.5774C3.39392 28.5614 3.0925 27.8421 3.76484 27.8356V27.8356C3.82692 27.835 3.94047 27.8284 4.00092 27.8143C6.319 27.2724 7.44999 25.6303 8.94067 23.338C10.5844 20.833 13.1095 18.8676 16.2352 18.1125C16.9012 17.9677 17.579 17.864 18.2629 17.8323C18.3498 17.828 18.4366 17.8237 18.526 17.8194C20.1312 17.7797 21.6719 18.1287 23.2138 18.4956C23.3027 18.5167 23.3027 18.5167 23.3934 18.5383C23.5557 18.577 23.7178 18.6162 23.8798 18.6555C25.3436 18.9819 26.8294 18.7966 28.1527 18.1406C29.3466 17.4342 29.9825 16.501 30.2926 15.2482C30.9509 12.3711 30.3308 9.31719 28.5958 6.84404C27.763 5.69821 26.8994 3.83382 25.2549 4.48036C24.5406 4.73149 23.851 4.63005 23.1577 4.37002C22.9349 4.2734 22.7428 4.18921 22.5824 4.07405C22.25 3.83547 22.1566 3.32457 22.4669 3.0579V3.0579C24.7525 1.49384 26.788 2.23766 28.6655 3.87001ZM26.514 26.3716C26.9972 26.0837 27.4584 26.5568 27.3894 27.1151C27.2785 28.0124 27.1513 29.044 27.048 29.878C27.0109 30.1775 26.9236 30.4111 26.6829 30.5933V30.5933C26.1038 31.0317 25.5355 30.6269 25.6709 29.9133C25.7839 29.3174 25.9006 28.7135 25.9165 28.5287C25.9276 28.3878 25.9367 28.2468 25.9443 28.1058C25.9533 27.3414 25.9543 27.2606 26.2151 26.7142C26.2825 26.5732 26.3797 26.4516 26.514 26.3716V26.3716Z" fill="black" stroke="black" stroke-width="0.191283"/>
<circle cx="24.4442" cy="3.40906" r="0.454643" fill="black" stroke="black" stroke-width="0.0826713"/>
<path d="M47.459 25.7393V12.6057H42.3978V10.5242H54.7284V12.6057H49.6673V25.7393H47.459ZM59.7882 26.0562C58.6541 26.0562 57.6573 25.8097 56.798 25.3166C55.9457 24.8165 55.28 24.1227 54.801 23.2351C54.3291 22.3405 54.0931 21.3051 54.0931 20.1287C54.0931 18.8819 54.3255 17.8007 54.7904 16.8849C55.2624 15.9692 55.9175 15.2613 56.7557 14.7612C57.594 14.2611 58.5695 14.011 59.6825 14.011C60.8448 14.011 61.8344 14.2822 62.6515 14.8246C63.4686 15.3599 64.078 16.1242 64.4795 17.1174C64.888 18.1106 65.05 19.2905 64.9655 20.657H62.7572V19.854C62.7431 18.5297 62.4895 17.5506 61.9965 16.9166C61.5104 16.2827 60.7673 15.9657 59.767 15.9657C58.6611 15.9657 57.8299 16.3144 57.2734 17.0117C56.717 17.7091 56.4387 18.7164 56.4387 20.0336C56.4387 21.2875 56.717 22.2595 57.2734 22.9498C57.8299 23.6331 58.6329 23.9747 59.6825 23.9747C60.3728 23.9747 60.968 23.8198 61.4682 23.5098C61.9753 23.1929 62.3698 22.742 62.6515 22.1574L64.8176 22.8442C64.3738 23.8656 63.7011 24.658 62.7995 25.2215C61.8978 25.778 60.8941 26.0562 59.7882 26.0562ZM55.7202 20.657V18.9348H63.8666V20.657H55.7202ZM71.6998 26.0457C70.3122 26.0457 69.1816 25.7393 68.3082 25.1264C67.4347 24.5136 66.8994 23.6507 66.7021 22.5378L68.9632 22.1891C69.1041 22.7808 69.4281 23.2492 69.9353 23.5944C70.4495 23.9325 71.087 24.1015 71.8478 24.1015C72.5381 24.1015 73.0769 23.9606 73.4644 23.6789C73.8588 23.3971 74.0561 23.0097 74.0561 22.5166C74.0561 22.2278 73.9856 21.9954 73.8447 21.8193C73.7109 21.6361 73.4256 21.4636 72.9889 21.3015C72.5522 21.1395 71.8865 20.9388 70.9919 20.6993C70.0128 20.4457 69.2344 20.1745 68.6568 19.8857C68.0863 19.5898 67.6777 19.2482 67.4312 18.8608C67.1917 18.4663 67.0719 17.9909 67.0719 17.4344C67.0719 16.7441 67.2551 16.1418 67.6214 15.6276C67.9876 15.1134 68.5019 14.7154 69.164 14.4336C69.8332 14.1519 70.6151 14.011 71.5096 14.011C72.3831 14.011 73.1615 14.1484 73.8447 14.4231C74.528 14.6978 75.081 15.0887 75.5036 15.5959C75.9262 16.096 76.1798 16.6842 76.2643 17.3604L74.0032 17.7725C73.9257 17.2231 73.6686 16.7899 73.2319 16.4729C72.7952 16.1559 72.2281 15.9833 71.5308 15.9551C70.8616 15.927 70.3192 16.0397 69.9036 16.2933C69.488 16.5398 69.2802 16.8814 69.2802 17.3182C69.2802 17.5717 69.3577 17.7866 69.5127 17.9627C69.6747 18.1388 69.9846 18.3078 70.4425 18.4699C70.9003 18.6319 71.5766 18.8256 72.4712 19.051C73.4291 19.2975 74.1899 19.5722 74.7534 19.8751C75.3169 20.171 75.7184 20.5267 75.9579 20.9423C76.2045 21.3508 76.3277 21.8474 76.3277 22.4321C76.3277 23.5591 75.9157 24.4432 75.0915 25.0842C74.2744 25.7252 73.1439 26.0457 71.6998 26.0457ZM85.1954 25.7393C84.4769 25.8801 83.7725 25.94 83.0822 25.9189C82.3919 25.8977 81.7756 25.7639 81.2332 25.5174C80.6908 25.2708 80.2822 24.8834 80.0075 24.3551C79.761 23.8832 79.6271 23.4042 79.606 22.9181C79.5919 22.4251 79.5849 21.8686 79.5849 21.2487V11.1582H81.8037V21.143C81.8037 21.6009 81.8073 21.9989 81.8143 22.337C81.8284 22.6751 81.9024 22.9604 82.0362 23.1929C82.2898 23.6296 82.6913 23.8796 83.2407 23.943C83.7972 23.9994 84.4488 23.9747 85.1954 23.8691V25.7393ZM77.3977 16.1031V14.328H85.1954V16.1031H77.3977ZM87.6013 25.7393V10.5242H92.3666C92.5075 10.5242 92.7681 10.5277 93.1485 10.5348C93.5359 10.5418 93.9057 10.57 94.2579 10.6193C95.4483 10.7672 96.4486 11.1934 97.2587 11.8978C98.0758 12.6022 98.6921 13.4968 99.1077 14.5816C99.5233 15.6593 99.7311 16.8427 99.7311 18.1317C99.7311 19.4278 99.5233 20.6183 99.1077 21.703C98.6921 22.7808 98.0758 23.6718 97.2587 24.3762C96.4486 25.0736 95.4483 25.4962 94.2579 25.6442C93.9057 25.6935 93.5359 25.7216 93.1485 25.7287C92.7681 25.7357 92.5075 25.7393 92.3666 25.7393H87.6013ZM89.8625 23.6366H92.3666C92.6061 23.6366 92.8914 23.6296 93.2224 23.6155C93.5535 23.6014 93.8458 23.5732 94.0994 23.531C94.8743 23.383 95.5012 23.0484 95.9802 22.5272C96.4662 21.9989 96.8219 21.3508 97.0473 20.583C97.2727 19.8153 97.3854 18.9982 97.3854 18.1317C97.3854 17.2372 97.2692 16.4095 97.0368 15.6487C96.8043 14.8809 96.4451 14.2399 95.959 13.7257C95.48 13.2045 94.8602 12.8734 94.0994 12.7325C93.8458 12.6832 93.55 12.655 93.2119 12.648C92.8808 12.6339 92.5991 12.6269 92.3666 12.6269H89.8625V23.6366ZM102.403 12.4578V10.3129H104.611V12.4578H102.403ZM102.403 25.7393V14.328H104.611V25.7393H102.403ZM115.793 25.7393V20.1287C115.793 19.6849 115.754 19.2306 115.677 18.7657C115.606 18.2937 115.466 17.857 115.254 17.4555C115.05 17.054 114.758 16.73 114.377 16.4834C114.004 16.2369 113.514 16.1136 112.909 16.1136C112.514 16.1136 112.141 16.1806 111.789 16.3144C111.436 16.4412 111.126 16.649 110.859 16.9378C110.598 17.2266 110.39 17.607 110.235 18.0789C110.087 18.5509 110.013 19.1249 110.013 19.8012L108.64 19.2834C108.64 18.248 108.834 17.3358 109.221 16.5468C109.608 15.7509 110.165 15.131 110.89 14.6872C111.616 14.2435 112.493 14.0216 113.521 14.0216C114.31 14.0216 114.972 14.1484 115.508 14.4019C116.043 14.6555 116.476 14.9901 116.807 15.4057C117.146 15.8143 117.403 16.2616 117.579 16.7476C117.755 17.2336 117.875 17.7091 117.938 18.174C118.001 18.6389 118.033 19.0475 118.033 19.3997V25.7393H115.793ZM107.773 25.7393V14.328H109.749V17.6246H110.013V25.7393H107.773ZM125.596 26.0562C124.455 26.0562 123.465 25.7991 122.627 25.2849C121.789 24.7707 121.141 24.0628 120.683 23.1612C120.232 22.2525 120.007 21.2064 120.007 20.0231C120.007 18.8326 120.239 17.7866 120.704 16.8849C121.169 15.9763 121.821 15.2719 122.659 14.7717C123.497 14.2646 124.476 14.011 125.596 14.011C126.737 14.011 127.727 14.2681 128.565 14.7823C129.403 15.2965 130.051 16.0045 130.509 16.9061C130.967 17.8077 131.196 18.8467 131.196 20.0231C131.196 21.2135 130.964 22.263 130.499 23.1717C130.041 24.0734 129.393 24.7813 128.555 25.2955C127.716 25.8027 126.73 26.0562 125.596 26.0562ZM125.596 23.9747C126.688 23.9747 127.502 23.6084 128.037 22.8759C128.579 22.1363 128.85 21.1853 128.85 20.0231C128.85 18.8326 128.576 17.8817 128.026 17.1702C127.484 16.4517 126.674 16.0925 125.596 16.0925C124.857 16.0925 124.247 16.2616 123.768 16.5997C123.289 16.9307 122.934 17.3921 122.701 17.9838C122.469 18.5685 122.352 19.2482 122.352 20.0231C122.352 21.2205 122.627 22.1785 123.177 22.897C123.726 23.6155 124.533 23.9747 125.596 23.9747Z" fill="black"/>
</svg>
