<svg width="37" height="34" viewBox="0 0 37 34" fill="none" xmlns="http://www.w3.org/2000/svg">
<path d="M23.0165 1.79674C22.5534 2.11069 22.26 2.4219 22.1226 2.93857C22.0205 3.58608 22.1459 4.09039 22.569 4.6176C23.2746 5.36369 24.4592 5.74822 25.5047 5.83421C25.9703 5.84669 26.3872 5.78947 26.8344 5.67195C27.2734 5.60708 27.6774 5.8716 27.9887 6.18795C29.6928 7.92003 30.7872 10.5242 30.8883 12.7627C30.9307 14.3131 30.9454 16.0379 29.7658 17.2612C28.9102 18.028 27.8003 18.3169 26.6344 18.3221C25.815 18.3089 25.0463 18.1117 24.2593 17.9186C22.8083 17.5709 21.4463 17.3183 19.9356 17.3203C19.8412 17.3204 19.8412 17.3204 19.7449 17.3205C16.1345 17.3346 12.9024 18.7567 10.3604 21.0726C9.28341 22.0823 8.46065 23.2934 7.69366 24.5105C6.98754 25.6273 6.17723 26.6065 5.18459 27.5233C5.03223 27.665 4.86343 27.7891 4.67898 27.8854C4.51357 27.9717 4.35792 28.0479 4.21122 28.115C3.0786 28.633 0.703655 27.6747 1.0294 28.8768C1.32393 29.9637 3.8622 31.9561 9.32273 30.4186C10.5368 30.0768 11.5972 29.4156 12.6791 28.8096C12.7544 28.7674 12.848 28.8176 12.8548 28.9037C12.9354 29.8541 13.2603 30.8567 13.4937 31.7968C14.0539 33.0789 16.7613 32.908 17.2281 32.1387C17.3325 31.9443 17.3856 31.7392 17.4461 31.5308C17.5496 31.1195 17.6345 30.7064 17.7124 30.2904C17.729 30.2046 17.7455 30.1188 17.7626 30.0303C17.7828 29.9254 17.8028 29.8204 17.8228 29.7155C17.8561 29.54 18.0194 29.42 18.1967 29.4411C19.6533 29.6064 21.0717 29.5826 22.5295 29.5011C22.6465 29.4945 22.7493 29.5782 22.7662 29.6942C22.8061 29.9647 22.847 30.2438 22.8881 30.518C22.9611 31.0057 22.9438 31.5281 23.175 31.9637C24.0992 33.7047 28.434 33.6776 29.7245 32.1007C30.3218 31.3709 30.1046 30.2851 30.2112 29.3481C30.2466 29.0351 30.2814 28.7221 30.3144 28.409C30.3467 28.1039 30.3817 27.7991 30.4171 27.4943C30.4264 27.4006 30.4356 27.3069 30.4452 27.2104C30.4948 26.7961 30.5057 26.7057 30.6513 26.4716C30.7514 26.3108 30.889 26.177 31.0455 26.0703C31.1532 25.9902 31.1532 25.9902 31.2632 25.9084C31.3778 25.8273 31.3778 25.8273 31.4948 25.7445C32.6598 24.8768 33.6981 23.9024 34.4998 22.737C34.5334 22.6888 34.5671 22.6406 34.6017 22.5909C35.6248 21.1056 36.146 19.4096 36.3904 17.6782C36.3982 17.623 36.406 17.5678 36.414 17.5109C36.9359 13.7196 36.4323 9.87583 34.4064 6.49761C34.374 6.44343 34.3415 6.38925 34.308 6.33343C33.3698 4.79169 32.0899 3.32787 30.5787 2.22409C30.4866 2.15468 30.3945 2.08527 30.2997 2.01375C28.023 0.326533 25.4116 0.335139 23.0165 1.79674ZM30.2986 3.76256C30.3476 3.80416 30.3965 3.84577 30.447 3.88864C33.2755 6.3009 35.0326 9.83691 35.1725 13.3846C35.1839 13.8097 35.1845 14.2348 35.1825 14.66C35.1824 14.7351 35.1822 14.8101 35.1821 14.8875C35.1782 16.0664 35.1211 17.2181 34.8732 18.378C34.8593 18.4449 34.8453 18.5118 34.8309 18.5808C34.2228 21.3967 32.3773 23.7217 29.8099 25.3452C28.9646 25.9403 28.9006 25.9853 28.087 26.2554C27.9854 26.2892 27.882 26.2077 27.8916 26.101C27.9353 25.5875 27.9752 25.0734 27.9937 24.5586C27.9947 24.5368 27.9954 24.5189 27.9961 24.5035C28.0016 24.3761 28.0118 24.2423 27.9569 24.1273C27.8874 23.9816 27.7235 23.8967 27.5646 23.8684C27.5481 23.8655 27.5319 23.8632 27.5157 23.8615C27.1938 23.8284 26.8396 24.0283 26.7915 24.3484C26.7861 24.3836 26.781 24.423 26.775 24.4682C26.7645 24.5442 26.7539 24.6201 26.7431 24.6984C26.7271 24.8232 26.7271 24.8232 26.7108 24.9505C26.699 25.0376 26.6873 25.1246 26.6751 25.2143C26.637 25.4995 26.6004 25.7849 26.5642 26.0703C26.546 26.2134 26.546 26.2134 26.5274 26.3595C26.4402 27.0499 26.356 27.7406 26.2724 28.4314C26.2238 28.8332 26.1749 29.235 26.1258 29.6367C26.1149 29.7274 26.104 29.8181 26.0928 29.9116C26.0825 29.9959 26.0722 30.0802 26.0616 30.1671C26.0527 30.2407 26.0438 30.3143 26.0346 30.3901C26.0215 30.4804 26.0276 30.8596 26.0357 31.2836C26.0509 32.0824 25.4463 32.4813 24.8315 31.9711C24.5152 31.7085 24.3347 31.3592 24.3047 30.9493C24.2751 30.546 24.2497 30.0938 24.2068 29.8524C24.1963 29.7934 24.1858 29.7343 24.1749 29.6735C24.0573 29.0113 23.9432 28.3489 23.8425 27.6842C23.8261 27.5761 23.8097 27.468 23.7928 27.3566C23.762 27.1509 23.7318 26.945 23.7022 26.7391C23.6883 26.646 23.6744 26.5529 23.6601 26.4569C23.6484 26.3758 23.6367 26.2946 23.6247 26.211C23.6155 26.1676 23.6052 26.1253 23.5939 26.0838C23.5003 25.7408 23.1209 25.4336 22.768 25.4769C22.5523 25.5034 22.418 25.6327 22.3601 25.842C22.2498 26.2409 22.3952 26.7308 22.4563 27.1173C22.4736 27.2165 22.491 27.3157 22.5088 27.4178C22.5689 27.8247 22.2597 28.1757 21.851 28.2222C21.3002 28.2848 20.7528 28.3089 20.1865 28.3086C20.1008 28.3086 20.0151 28.3087 19.9268 28.3087C18.9218 28.3309 18.2868 27.3516 18.5096 26.3715C18.524 26.308 18.5383 26.2446 18.5531 26.1792C18.6125 25.9163 18.6721 25.6534 18.733 25.3907C18.9473 24.4643 19.0431 24.0505 19.0658 23.7866C19.0957 23.439 18.8625 23.0916 18.5146 23.0652C18.2947 23.0486 18.0436 23.1268 17.9213 23.3103C17.826 23.4531 17.7923 23.616 17.7473 23.8221C17.7248 23.9224 17.7024 24.0227 17.6792 24.1261C17.6559 24.2353 17.6325 24.3445 17.6085 24.4571C17.5831 24.5719 17.5576 24.6867 17.5321 24.8016C17.4646 25.1057 17.3984 25.4101 17.3324 25.7145C17.2286 26.1928 17.1228 26.6707 17.0173 27.1487C16.9913 27.2666 16.9654 27.3844 16.9395 27.5023C16.7311 28.4507 16.5684 29.7214 16.3613 30.7926C16.277 31.2284 15.8952 31.5308 15.4513 31.5308C14.9734 31.5308 14.5543 31.1822 14.475 30.7109C14.4636 30.6431 14.4545 30.588 14.4494 30.5544C14.3714 30.0381 14.2918 29.522 14.2113 29.006C14.1626 28.6932 14.1144 28.3803 14.0676 28.0672C14.0223 27.765 13.9756 27.463 13.9277 27.1611C13.9098 27.046 13.8923 26.9309 13.8755 26.8156C13.8518 26.654 13.8259 26.4927 13.7999 26.3313C13.7934 26.289 13.7869 26.2466 13.7804 26.204C13.765 26.1035 13.7447 26.003 13.704 25.9098C13.6659 25.8226 13.6224 25.7529 13.5656 25.6888C13.4197 25.5238 13.1874 25.4539 12.9691 25.483C12.9381 25.4872 12.9074 25.4928 12.8726 25.5007C12.7285 25.533 12.594 25.5875 12.5307 25.7209C12.4832 25.8212 12.4734 25.9565 12.488 26.0665C12.502 26.1716 12.5173 26.2765 12.536 26.381C12.5461 26.4411 12.555 26.495 12.5628 26.5439C12.6634 27.1761 12.1123 27.6781 11.5331 27.9507C11.4197 28.0124 11.3068 28.0748 11.1943 28.138C9.13614 29.562 6.7041 29.9869 4.24723 29.9283C3.53537 29.9114 3.21616 29.1496 3.92819 29.1427C3.99393 29.1421 4.11418 29.135 4.1782 29.1201C6.6331 28.5462 7.83086 26.8073 9.40952 24.3796C11.1502 21.7268 13.8245 19.6454 17.1346 18.8457C17.8399 18.6924 18.5577 18.5825 19.282 18.5489C19.374 18.5444 19.4659 18.5399 19.5607 18.5352C21.2606 18.4932 22.8922 18.8629 24.5251 19.2514C24.6193 19.2738 24.6193 19.2738 24.7154 19.2966C24.8872 19.3376 25.0588 19.3792 25.2305 19.4207C26.7806 19.7664 28.3541 19.5702 29.7556 18.8755C31.0199 18.1274 31.6933 17.1391 32.0218 15.8123C32.7188 12.7655 32.0622 9.53125 30.2248 6.91213C29.3429 5.69867 28.4282 3.72423 26.6867 4.40893C25.9302 4.67489 25.1999 4.56746 24.4657 4.29207C24.2298 4.18975 24.0264 4.1006 23.8564 3.97863C23.5044 3.72597 23.4055 3.18492 23.7342 2.90251C26.1546 1.24613 28.3103 2.03386 30.2986 3.76256ZM28.0201 27.5923C28.5319 27.2874 29.0202 27.7884 28.9471 28.3796C28.8297 29.33 28.695 30.4224 28.5856 31.3056C28.5464 31.6228 28.4538 31.8702 28.199 32.0632C27.5857 32.5274 26.9838 32.0987 27.1272 31.343C27.2469 30.712 27.3705 30.0724 27.3873 29.8767C27.3991 29.7275 27.4088 29.5782 27.4168 29.4288C27.4263 28.6193 27.4273 28.5338 27.7036 27.9552C27.7749 27.8057 27.8779 27.677 28.0201 27.5923Z" fill="black" stroke="black" stroke-width="0.202574"/>
</svg>
