<svg width="16" height="16" viewBox="0 0 16 16" fill="none" xmlns="http://www.w3.org/2000/svg">
<path d="M7 5.83333V4.5C7 3.40417 7 2.85626 6.69733 2.48747C6.64194 2.41997 6.58003 2.35806 6.51253 2.30265C6.14374 2 5.59583 2 4.5 2C3.40417 2 2.85626 2 2.48747 2.30265C2.41997 2.35806 2.35806 2.41997 2.30265 2.48747C2 2.85626 2 3.40417 2 4.5V5.83333C2 6.92913 2 7.47707 2.30265 7.84587C2.35806 7.9134 2.41997 7.97527 2.48747 8.03067C2.85626 8.33333 3.40417 8.33333 4.5 8.33333C5.59583 8.33333 6.14374 8.33333 6.51253 8.03067C6.58003 7.97527 6.64194 7.9134 6.69733 7.84587C7 7.47707 7 6.92913 7 5.83333Z" stroke="#0F172A" stroke-linejoin="round"/>
<path d="M5.16667 10.3333H3.83333C3.36815 10.3333 3.13555 10.3333 2.94629 10.3907C2.52015 10.5199 2.18668 10.8534 2.05741 11.2795C2 11.4688 2 11.7014 2 12.1666C2 12.6318 2 12.8644 2.05741 13.0537C2.18668 13.4798 2.52015 13.8133 2.94629 13.9425C3.13555 13.9999 3.36815 13.9999 3.83333 13.9999H5.16667C5.63185 13.9999 5.86445 13.9999 6.05371 13.9425C6.47985 13.8133 6.81333 13.4798 6.9426 13.0537C7 12.8644 7 12.6318 7 12.1666C7 11.7014 7 11.4688 6.9426 11.2795C6.81333 10.8534 6.47985 10.5199 6.05371 10.3907C5.86445 10.3333 5.63185 10.3333 5.16667 10.3333Z" stroke="#0F172A" stroke-linejoin="round"/>
<path d="M14 11.5001V10.1667C14 9.07095 14 8.52301 13.6973 8.15421C13.6419 8.08668 13.5801 8.02482 13.5125 7.96942C13.1437 7.66675 12.5958 7.66675 11.5 7.66675C10.4042 7.66675 9.85627 7.66675 9.48747 7.96942C9.41993 8.02482 9.35807 8.08668 9.30267 8.15421C9 8.52301 9 9.07095 9 10.1667V11.5001C9 12.5959 9 13.1438 9.30267 13.5126C9.35807 13.5801 9.41993 13.642 9.48747 13.6974C9.85627 14.0001 10.4042 14.0001 11.5 14.0001C12.5958 14.0001 13.1437 14.0001 13.5125 13.6974C13.5801 13.642 13.6419 13.5801 13.6973 13.5126C14 13.1438 14 12.5959 14 11.5001Z" stroke="#0F172A" stroke-linejoin="round"/>
<path d="M12.1667 2H10.8333C10.3681 2 10.1355 2 9.94627 2.05741C9.52013 2.18668 9.18667 2.52015 9.0574 2.94629C9 3.13555 9 3.36815 9 3.83333C9 4.29852 9 4.53111 9.0574 4.72038C9.18667 5.14651 9.52013 5.47999 9.94627 5.60925C10.1355 5.66667 10.3681 5.66667 10.8333 5.66667H12.1667C12.6319 5.66667 12.8645 5.66667 13.0537 5.60925C13.4799 5.47999 13.8133 5.14651 13.9426 4.72038C14 4.53111 14 4.29852 14 3.83333C14 3.36815 14 3.13555 13.9426 2.94629C13.8133 2.52015 13.4799 2.18668 13.0537 2.05741C12.8645 2 12.6319 2 12.1667 2Z" stroke="#0F172A" stroke-linejoin="round"/>
</svg>
