<svg width="68" height="48" viewBox="0 0 68 48" fill="none" xmlns="http://www.w3.org/2000/svg">
<path d="M27.3327 33.9993L44.6327 23.9993L27.3327 13.9993V33.9993ZM65.866 7.89935C66.2993 9.46602 66.5993 11.566 66.7994 14.2327C67.0327 16.8993 67.1327 19.1993 67.1327 21.1993L67.3327 23.9993C67.3327 31.2993 66.7993 36.666 65.866 40.0993C65.0327 43.0993 63.0993 45.0327 60.0993 45.866C58.5327 46.2993 55.666 46.5993 51.266 46.7993C46.9327 47.0327 42.966 47.1327 39.2994 47.1327L33.9994 47.3327C20.0327 47.3327 11.3327 46.7993 7.89935 45.866C4.89935 45.0327 2.96602 43.0993 2.13268 40.0993C1.69935 38.5327 1.39935 36.4327 1.19935 33.766C0.966016 31.0993 0.866015 28.7993 0.866015 26.7993L0.666016 23.9993C0.666016 16.6993 1.19935 11.3327 2.13268 7.89935C2.96602 4.89935 4.89935 2.96602 7.89935 2.13268C9.46602 1.69935 12.3327 1.39935 16.7327 1.19935C21.066 0.966015 25.0327 0.866015 28.6994 0.866015L33.9994 0.666016C47.966 0.666016 56.666 1.19935 60.0993 2.13268C63.0993 2.96602 65.0327 4.89935 65.866 7.89935Z" fill="#FF0000"/>
</svg>
