<svg width="16" height="17" viewBox="0 0 16 17" fill="none" xmlns="http://www.w3.org/2000/svg">
<path d="M4.66699 7.10966C4.66699 6.63811 4.85432 6.18587 5.18776 5.85243C5.5212 5.51899 5.97344 5.33167 6.44499 5.33167H12.2223C12.4558 5.33167 12.687 5.37765 12.9027 5.46701C13.1185 5.55636 13.3145 5.68733 13.4796 5.85243C13.6447 6.01753 13.7756 6.21354 13.865 6.42925C13.9543 6.64497 14.0003 6.87617 14.0003 7.10966V12.887C14.0003 13.1205 13.9543 13.3517 13.865 13.5674C13.7756 13.7831 13.6447 13.9791 13.4796 14.1442C13.3145 14.3093 13.1185 14.4403 12.9027 14.5297C12.687 14.619 12.4558 14.665 12.2223 14.665H6.44499C6.2115 14.665 5.9803 14.619 5.76458 14.5297C5.54886 14.4403 5.35286 14.3093 5.18776 14.1442C5.02265 13.9791 4.89169 13.7831 4.80233 13.5674C4.71298 13.3517 4.66699 13.1205 4.66699 12.887V7.10966Z" stroke="#737373" stroke-width="1.33333" stroke-linecap="round" stroke-linejoin="round"/>
<path d="M2.67467 11.823C2.47 11.7068 2.29977 11.5384 2.18127 11.335C2.06277 11.1316 2.00023 10.9004 2 10.665V3.99837C2 3.26504 2.6 2.66504 3.33333 2.66504H10C10.5 2.66504 10.772 2.92171 11 3.33171" stroke="#737373" stroke-width="1.33333" stroke-linecap="round" stroke-linejoin="round"/>
</svg>
