<svg width="133" height="32" viewBox="0 0 133 32" fill="none" xmlns="http://www.w3.org/2000/svg">
<path d="M21.7892 1.64413C21.352 1.94058 21.0749 2.23445 20.9452 2.72232C20.8487 3.33374 20.9672 3.80994 21.3667 4.30777C22.033 5.01228 23.1515 5.37538 24.1388 5.45658C24.5784 5.46836 24.9721 5.41433 25.3944 5.30336C25.8089 5.2421 26.1904 5.49188 26.4843 5.7906C28.0934 7.42614 29.1269 9.88519 29.2223 11.9989C29.2624 13.4629 29.2763 15.0916 28.1624 16.2467C27.3545 16.9707 26.3064 17.2435 25.2055 17.2485C24.4318 17.236 23.706 17.0498 22.9628 16.8674C21.5927 16.5391 20.3066 16.3006 18.88 16.3025C18.7909 16.3026 18.7909 16.3026 18.7 16.3027C15.2908 16.316 12.2389 17.6588 9.83856 19.8456C8.82159 20.7991 8.04469 21.9427 7.32044 23.0919C6.65368 24.1465 5.88854 25.0711 4.95122 25.9369C4.80735 26.0707 4.64796 26.1878 4.47379 26.2788C4.3176 26.3603 4.17063 26.4322 4.0321 26.4955C2.9626 26.9847 0.720032 26.0798 1.02762 27.2149C1.30572 28.2412 3.70253 30.1225 8.85872 28.6708C10.0051 28.348 11.0064 27.7237 12.028 27.1514C12.0992 27.1116 12.1875 27.159 12.194 27.2403C12.2701 28.1377 12.5768 29.0844 12.7972 29.9722C13.3262 31.1828 15.8827 31.0214 16.3235 30.295C16.422 30.1114 16.4722 29.9178 16.5293 29.721C16.6271 29.3326 16.7072 28.9425 16.7808 28.5497C16.7964 28.4687 16.8121 28.3876 16.8282 28.3041C16.8472 28.2051 16.8662 28.1059 16.885 28.0068C16.9165 27.8411 17.0707 27.7278 17.2381 27.7477C18.6135 27.9038 19.9529 27.8814 21.3294 27.8044C21.4399 27.7982 21.537 27.8772 21.5529 27.9867C21.5906 28.2421 21.6293 28.5057 21.668 28.7646C21.737 29.2252 21.7206 29.7184 21.939 30.1297C22.8117 31.7737 26.9048 31.7481 28.1234 30.2591C28.6874 29.57 28.4823 28.5447 28.583 27.6599C28.6164 27.3644 28.6493 27.0689 28.6804 26.7731C28.711 26.485 28.744 26.1973 28.7774 25.9094C28.7861 25.821 28.7949 25.7325 28.8039 25.6414C28.8508 25.2502 28.861 25.1648 28.9986 24.9438C29.093 24.7919 29.223 24.6656 29.3707 24.5648C29.4725 24.4892 29.4725 24.4892 29.5763 24.4119C29.6846 24.3353 29.6846 24.3353 29.795 24.2571C30.8951 23.4378 31.8756 22.5178 32.6326 21.4173C32.6643 21.3718 32.6961 21.3262 32.7288 21.2794C33.6948 19.8768 34.187 18.2753 34.4177 16.6404C34.4251 16.5883 34.4325 16.5362 34.4401 16.4824C34.9329 12.9025 34.4574 9.27294 32.5444 6.083C32.5137 6.03184 32.4831 5.98068 32.4515 5.92797C31.5655 4.47215 30.357 3.08992 28.93 2.04766C28.843 1.98212 28.7561 1.91658 28.6665 1.84905C26.5168 0.255865 24.0509 0.263991 21.7892 1.64413ZM28.6655 3.50038C28.7117 3.53967 28.758 3.57896 28.8056 3.61943C31.4765 5.89725 33.1357 9.23619 33.2677 12.5861C33.2785 12.9876 33.2791 13.3889 33.2772 13.7905C33.2771 13.8614 33.2769 13.9322 33.2768 14.0053C33.2731 15.1185 33.2193 16.2059 32.9852 17.3012C32.972 17.3644 32.9588 17.4276 32.9452 17.4927C32.371 20.1517 30.6283 22.3471 28.204 23.8801C27.4058 24.4421 27.3454 24.4846 26.5772 24.7396C26.4812 24.7715 26.3836 24.6945 26.3927 24.5938C26.434 24.1089 26.4716 23.6235 26.4891 23.1373C26.49 23.1168 26.4907 23.0999 26.4913 23.0854C26.4965 22.9651 26.5062 22.8387 26.4543 22.7301C26.3887 22.5925 26.2339 22.5124 26.0839 22.4856C26.0683 22.4829 26.053 22.4807 26.0377 22.4792C25.7337 22.4479 25.3993 22.6367 25.3538 22.9388C25.3488 22.9721 25.344 23.0094 25.3383 23.052C25.3283 23.1237 25.3184 23.1955 25.3082 23.2693C25.293 23.3872 25.293 23.3872 25.2776 23.5075C25.2665 23.5897 25.2554 23.6718 25.244 23.7565C25.208 24.0259 25.1734 24.2953 25.1392 24.5648C25.122 24.7 25.122 24.7 25.1045 24.8379C25.0222 25.4898 24.9427 26.1421 24.8637 26.7944C24.8178 27.1737 24.7716 27.5531 24.7253 27.9325C24.715 28.0181 24.7047 28.1038 24.6941 28.192C24.6844 28.2716 24.6747 28.3513 24.6646 28.4333C24.6562 28.5028 24.6478 28.5723 24.6392 28.6439C24.6267 28.7291 24.6326 29.0872 24.6402 29.4876C24.6545 30.2419 24.0836 30.6185 23.5031 30.1367C23.2044 29.8888 23.034 29.559 23.0056 29.1719C22.9777 28.7911 22.9538 28.364 22.9132 28.1361C22.9033 28.0804 22.8934 28.0247 22.8832 27.9672C22.772 27.3419 22.6643 26.7164 22.5692 26.0888C22.5537 25.9867 22.5382 25.8846 22.5223 25.7795C22.4932 25.5852 22.4647 25.3908 22.4367 25.1964C22.4236 25.1084 22.4105 25.0205 22.397 24.9299C22.386 24.8533 22.3749 24.7766 22.3636 24.6977C22.3549 24.6567 22.3451 24.6168 22.3345 24.5776C22.2461 24.2537 21.8878 23.9636 21.5546 24.0045C21.351 24.0295 21.2242 24.1516 21.1695 24.3493C21.0653 24.7259 21.2026 25.1885 21.2603 25.5535C21.2767 25.6471 21.293 25.7408 21.3099 25.8372C21.3666 26.2214 21.0746 26.5529 20.6887 26.5968C20.1687 26.6559 19.6518 26.6787 19.117 26.6783C19.036 26.6784 18.9551 26.6785 18.8717 26.6785C17.9228 26.6994 17.3231 25.7747 17.5336 24.8492C17.5471 24.7893 17.5607 24.7294 17.5746 24.6676C17.6307 24.4194 17.687 24.1711 17.7445 23.9231C17.9469 23.0484 18.0373 22.6576 18.0587 22.4084C18.087 22.0802 17.8668 21.7521 17.5383 21.7272C17.3307 21.7115 17.0936 21.7854 16.978 21.9586C16.888 22.0935 16.8562 22.2473 16.8138 22.4419C16.7925 22.5366 16.7713 22.6314 16.7495 22.729C16.7274 22.8321 16.7054 22.9352 16.6827 23.0415C16.6587 23.1499 16.6347 23.2584 16.6105 23.3668C16.5468 23.654 16.4843 23.9414 16.422 24.2288C16.324 24.6805 16.2241 25.1318 16.1244 25.5831C16.0999 25.6944 16.0754 25.8057 16.051 25.917C15.8542 26.8125 15.7005 28.0124 15.505 29.0239C15.4254 29.4355 15.0649 29.721 14.6457 29.721C14.1944 29.721 13.7987 29.3918 13.7238 28.9468C13.713 28.8828 13.7045 28.8307 13.6997 28.799C13.626 28.3115 13.5509 27.8241 13.4749 27.3369C13.4288 27.0415 13.3833 26.7461 13.3391 26.4505C13.2964 26.1651 13.2522 25.8799 13.2071 25.5949C13.1901 25.4862 13.1737 25.3774 13.1577 25.2686C13.1353 25.116 13.1109 24.9636 13.0864 24.8113C13.0802 24.7713 13.0741 24.7313 13.0679 24.6911C13.0534 24.5961 13.0342 24.5013 12.9958 24.4132C12.9599 24.3309 12.9187 24.2651 12.8651 24.2045C12.7273 24.0488 12.508 23.9828 12.3019 24.0103C12.2726 24.0142 12.2436 24.0195 12.2107 24.0269C12.0747 24.0575 11.9476 24.1089 11.8879 24.2349C11.8431 24.3296 11.8338 24.4574 11.8476 24.5612C11.8608 24.6605 11.8753 24.7595 11.8929 24.8582C11.9024 24.915 11.9109 24.9659 11.9182 25.0121C12.0132 25.609 11.4928 26.083 10.9459 26.3404C10.8388 26.3986 10.7322 26.4576 10.626 26.5172C8.68252 27.8619 6.38604 28.2631 4.0661 28.2078C3.39392 28.1918 3.0925 27.4725 3.76484 27.466C3.82692 27.4654 3.94047 27.4588 4.00092 27.4446C6.319 26.9028 7.45 25.2607 8.94067 22.9684C10.5844 20.4634 13.1095 18.498 16.2352 17.7429C16.9012 17.5981 17.579 17.4943 18.2629 17.4626C18.3498 17.4584 18.4366 17.4541 18.526 17.4497C20.1312 17.4101 21.6719 17.7591 23.2138 18.126C23.3027 18.1471 23.3027 18.1471 23.3934 18.1687C23.5557 18.2074 23.7178 18.2466 23.8798 18.2858C25.3436 18.6123 26.8294 18.427 28.1527 17.771C29.3466 17.0646 29.9825 16.1314 30.2926 14.8785C30.9509 12.0015 30.3308 8.94757 28.5958 6.47441C27.763 5.32858 26.8994 3.4642 25.2549 4.11073C24.5406 4.36186 23.851 4.26043 23.1577 4.00039C22.9349 3.90377 22.7428 3.81958 22.5824 3.70442C22.25 3.46584 22.1566 2.95494 22.4669 2.68827C24.7525 1.12421 26.788 1.86803 28.6655 3.50038ZM26.514 26.0019C26.9972 25.7141 27.4584 26.1872 27.3894 26.7454C27.2785 27.6428 27.1513 28.6744 27.048 29.5083C27.0109 29.8079 26.9236 30.0415 26.6829 30.2237C26.1038 30.662 25.5355 30.2572 25.6709 29.5436C25.7839 28.9478 25.9006 28.3439 25.9165 28.159C25.9276 28.0182 25.9367 27.8772 25.9443 27.7361C25.9533 26.9717 25.9543 26.891 26.2151 26.3446C26.2825 26.2035 26.3797 26.082 26.514 26.0019Z" fill="white" stroke="white" stroke-width="0.191283"/>
<circle cx="24.4442" cy="3.03944" r="0.454643" fill="white" stroke="white" stroke-width="0.0826713"/>
<path d="M47.459 25.3696V12.2361H42.3978V10.1546H54.7284V12.2361H49.6673V25.3696H47.459ZM59.7882 25.6866C58.6541 25.6866 57.6573 25.4401 56.798 24.947C55.9457 24.4469 55.28 23.753 54.801 22.8655C54.3291 21.9709 54.0931 20.9354 54.0931 19.7591C54.0931 18.5123 54.3255 17.431 54.7904 16.5153C55.2624 15.5996 55.9175 14.8917 56.7557 14.3916C57.594 13.8914 58.5695 13.6414 59.6825 13.6414C60.8448 13.6414 61.8344 13.9126 62.6515 14.455C63.4686 14.9903 64.078 15.7546 64.4795 16.7478C64.888 17.741 65.05 18.9208 64.9655 20.2874H62.7572V19.4844C62.7431 18.1601 62.4895 17.181 61.9965 16.547C61.5104 15.9131 60.7673 15.5961 59.767 15.5961C58.6611 15.5961 57.8299 15.9448 57.2734 16.6421C56.717 17.3395 56.4387 18.3468 56.4387 19.664C56.4387 20.9178 56.717 21.8899 57.2734 22.5802C57.8299 23.2635 58.6329 23.6051 59.6825 23.6051C60.3728 23.6051 60.968 23.4501 61.4682 23.1402C61.9753 22.8232 62.3698 22.3724 62.6515 21.7878L64.8176 22.4745C64.3738 23.4959 63.7011 24.2884 62.7995 24.8519C61.8978 25.4084 60.8941 25.6866 59.7882 25.6866ZM55.7202 20.2874V18.5651H63.8666V20.2874H55.7202ZM71.6998 25.676C70.3122 25.676 69.1816 25.3696 68.3082 24.7568C67.4347 24.144 66.8994 23.2811 66.7021 22.1681L68.9632 21.8195C69.1041 22.4111 69.4281 22.8796 69.9353 23.2247C70.4495 23.5628 71.087 23.7319 71.8478 23.7319C72.5381 23.7319 73.0769 23.591 73.4644 23.3093C73.8588 23.0275 74.0561 22.6401 74.0561 22.147C74.0561 21.8582 73.9856 21.6257 73.8447 21.4496C73.7109 21.2665 73.4256 21.0939 72.9889 20.9319C72.5522 20.7699 71.8865 20.5691 70.9919 20.3296C70.0128 20.0761 69.2344 19.8049 68.6568 19.5161C68.0863 19.2202 67.6777 18.8786 67.4312 18.4912C67.1917 18.0967 67.0719 17.6212 67.0719 17.0648C67.0719 16.3744 67.2551 15.7722 67.6214 15.258C67.9876 14.7438 68.5019 14.3458 69.164 14.064C69.8332 13.7822 70.6151 13.6414 71.5096 13.6414C72.3831 13.6414 73.1615 13.7787 73.8447 14.0534C74.528 14.3282 75.081 14.7191 75.5036 15.2263C75.9262 15.7264 76.1798 16.3146 76.2643 16.9908L74.0032 17.4029C73.9257 16.8534 73.6686 16.4202 73.2319 16.1032C72.7952 15.7863 72.2281 15.6137 71.5308 15.5855C70.8616 15.5573 70.3192 15.67 69.9036 15.9236C69.488 16.1702 69.2802 16.5118 69.2802 16.9485C69.2802 17.2021 69.3577 17.417 69.5127 17.5931C69.6747 17.7692 69.9846 17.9382 70.4425 18.1002C70.9003 18.2622 71.5766 18.4559 72.4712 18.6814C73.4291 18.9279 74.1899 19.2026 74.7534 19.5055C75.3169 19.8013 75.7184 20.1571 75.9579 20.5727C76.2045 20.9812 76.3277 21.4778 76.3277 22.0625C76.3277 23.1895 75.9157 24.0735 75.0915 24.7145C74.2744 25.3555 73.1439 25.676 71.6998 25.676ZM85.1954 25.3696C84.4769 25.5105 83.7725 25.5704 83.0822 25.5493C82.3919 25.5281 81.7756 25.3943 81.2332 25.1477C80.6908 24.9012 80.2822 24.5138 80.0075 23.9855C79.761 23.5135 79.6271 23.0345 79.606 22.5485C79.5919 22.0554 79.5849 21.499 79.5849 20.8791V10.7885H81.8037V20.7734C81.8037 21.2313 81.8073 21.6293 81.8143 21.9674C81.8284 22.3055 81.9024 22.5908 82.0362 22.8232C82.2898 23.26 82.6913 23.51 83.2407 23.5734C83.7972 23.6298 84.4488 23.6051 85.1954 23.4994V25.3696ZM77.3977 15.7334V13.9583H85.1954V15.7334H77.3977ZM87.6013 25.3696V10.1546H92.3666C92.5075 10.1546 92.7681 10.1581 93.1485 10.1652C93.5359 10.1722 93.9057 10.2004 94.2579 10.2497C95.4483 10.3976 96.4486 10.8238 97.2587 11.5282C98.0758 12.2326 98.6921 13.1272 99.1077 14.2119C99.5233 15.2897 99.7311 16.4731 99.7311 17.7621C99.7311 19.0582 99.5233 20.2486 99.1077 21.3334C98.6921 22.4111 98.0758 23.3022 97.2587 24.0066C96.4486 24.704 95.4483 25.1266 94.2579 25.2745C93.9057 25.3238 93.5359 25.352 93.1485 25.3591C92.7681 25.3661 92.5075 25.3696 92.3666 25.3696H87.6013ZM89.8625 23.267H92.3666C92.6061 23.267 92.8914 23.26 93.2224 23.2459C93.5535 23.2318 93.8458 23.2036 94.0994 23.1613C94.8743 23.0134 95.5012 22.6788 95.9802 22.1576C96.4662 21.6293 96.8219 20.9812 97.0473 20.2134C97.2727 19.4456 97.3854 18.6285 97.3854 17.7621C97.3854 16.8675 97.2692 16.0399 97.0368 15.2791C96.8043 14.5113 96.4451 13.8703 95.959 13.3561C95.48 12.8348 94.8602 12.5038 94.0994 12.3629C93.8458 12.3136 93.55 12.2854 93.2119 12.2784C92.8808 12.2643 92.5991 12.2572 92.3666 12.2572H89.8625V23.267ZM102.403 12.0882V9.94327H104.611V12.0882H102.403ZM102.403 25.3696V13.9583H104.611V25.3696H102.403ZM115.793 25.3696V19.7591C115.793 19.3153 115.754 18.861 115.677 18.3961C115.606 17.9241 115.466 17.4874 115.254 17.0859C115.05 16.6844 114.758 16.3604 114.377 16.1138C114.004 15.8673 113.514 15.744 112.909 15.744C112.514 15.744 112.141 15.8109 111.789 15.9448C111.436 16.0715 111.126 16.2793 110.859 16.5682C110.598 16.857 110.39 17.2373 110.235 17.7093C110.087 18.1812 110.013 18.7553 110.013 19.4315L108.64 18.9138C108.64 17.8783 108.834 16.9661 109.221 16.1772C109.608 15.3812 110.165 14.7614 110.89 14.3176C111.616 13.8738 112.493 13.6519 113.521 13.6519C114.31 13.6519 114.972 13.7787 115.508 14.0323C116.043 14.2859 116.476 14.6205 116.807 15.0361C117.146 15.4446 117.403 15.8919 117.579 16.378C117.755 16.864 117.875 17.3395 117.938 17.8044C118.001 18.2693 118.033 18.6778 118.033 19.03V25.3696H115.793ZM107.773 25.3696V13.9583H109.749V17.2549H110.013V25.3696H107.773ZM125.596 25.6866C124.455 25.6866 123.465 25.4295 122.627 24.9153C121.789 24.4011 121.141 23.6932 120.683 22.7915C120.232 21.8828 120.007 20.8368 120.007 19.6534C120.007 18.463 120.239 17.417 120.704 16.5153C121.169 15.6066 121.821 14.9022 122.659 14.4021C123.497 13.895 124.476 13.6414 125.596 13.6414C126.737 13.6414 127.727 13.8985 128.565 14.4127C129.403 14.9269 130.051 15.6348 130.509 16.5365C130.967 17.4381 131.196 18.4771 131.196 19.6534C131.196 20.8439 130.964 21.8934 130.499 22.8021C130.041 23.7037 129.393 24.4116 128.555 24.9259C127.716 25.433 126.73 25.6866 125.596 25.6866ZM125.596 23.6051C126.688 23.6051 127.502 23.2388 128.037 22.5062C128.579 21.7666 128.85 20.8157 128.85 19.6534C128.85 18.463 128.576 17.512 128.026 16.8006C127.484 16.0821 126.674 15.7229 125.596 15.7229C124.857 15.7229 124.247 15.8919 123.768 16.23C123.289 16.5611 122.934 17.0225 122.701 17.6142C122.469 18.1988 122.352 18.8786 122.352 19.6534C122.352 20.8509 122.627 21.8089 123.177 22.5274C123.726 23.2459 124.533 23.6051 125.596 23.6051Z" fill="white"/>
</svg>
