<svg width="24" height="25" viewBox="0 0 24 25" fill="none" xmlns="http://www.w3.org/2000/svg">
<path d="M20.133 20.7019L14.264 11.4789L20.055 5.10888C20.1213 5.036 20.1726 4.95077 20.206 4.85805C20.2394 4.76534 20.2542 4.66696 20.2495 4.56853C20.2449 4.4701 20.2209 4.37354 20.1789 4.28438C20.137 4.19522 20.0779 4.1152 20.005 4.04888C19.9321 3.98256 19.8469 3.93125 19.7542 3.89787C19.6614 3.8645 19.5631 3.84971 19.4646 3.85435C19.3662 3.85899 19.2696 3.88298 19.1805 3.92493C19.0913 3.96689 19.0113 4.026 18.945 4.09888L13.43 10.1679L9.63298 4.20188C9.5653 4.09528 9.4718 4.00749 9.36114 3.94665C9.25048 3.88582 9.12626 3.85391 8.99998 3.85388H4.49998C4.36551 3.8538 4.23349 3.88987 4.11775 3.95832C4.002 4.02676 3.90679 4.12507 3.84207 4.24295C3.77736 4.36082 3.74553 4.49393 3.74991 4.62833C3.75429 4.76272 3.79473 4.89347 3.86698 5.00688L9.73698 14.2289L3.94498 20.6039C3.81105 20.7511 3.74107 20.9454 3.75045 21.1442C3.75983 21.343 3.84779 21.5299 3.99498 21.6639C4.14218 21.7978 4.33655 21.8678 4.53534 21.8584C4.73413 21.849 4.92105 21.7611 5.05498 21.6139L10.571 15.5459L14.367 21.5109C14.4353 21.6166 14.529 21.7034 14.6396 21.7633C14.7503 21.8232 14.8742 21.8544 15 21.8539H19.5C19.6343 21.8539 19.7661 21.8178 19.8817 21.7494C19.9973 21.681 20.0924 21.5828 20.1571 21.4651C20.2218 21.3473 20.2537 21.2144 20.2494 21.0802C20.2452 20.9459 20.205 20.8153 20.133 20.7019ZM15.412 20.3539L5.86598 5.35388H8.58498L18.135 20.3539H15.412Z" fill="#0B0C0E"/>
</svg>