<svg width="345" height="288" viewBox="0 0 345 288" fill="none" xmlns="http://www.w3.org/2000/svg">
<path d="M213.025 9.46989C208.545 12.2391 205.705 14.9843 204.376 19.5417C203.388 25.2531 204.601 29.7015 208.695 34.3519C215.522 40.933 226.984 44.3248 237.101 45.0834C241.606 45.1934 245.639 44.6887 249.966 43.6521C250.962 43.518 251.81 43.4631 252.622 43.4894C255.15 43.571 257.429 44.9287 259.337 46.5891C276.851 61.8291 288.178 85.7442 289.191 106.197C289.602 119.873 289.744 135.087 278.33 145.878C270.051 152.641 259.312 155.189 248.031 155.236C240.103 155.119 232.666 153.38 225.05 151.676C211.01 148.609 197.832 146.381 183.215 146.399C182.301 146.4 182.301 146.4 181.37 146.401C146.436 146.525 115.163 159.069 90.5674 179.497C80.1466 188.403 72.1857 199.086 64.7645 209.822C57.9322 219.673 50.0919 228.31 40.4872 236.397C40.3321 236.529 40.1769 236.66 40.0216 236.792C38.8564 237.78 37.5789 238.635 36.2032 239.299C28.2976 243.117 22.6504 244.774 18.3667 245.433C15.1237 245.932 11.9208 244.819 8.82267 243.739C-13.1404 236.08 4.15063 281.54 80.527 261.936C92.3142 258.91 102.604 253.048 113.11 247.688C113.804 247.334 114.635 247.796 114.703 248.573V248.573C115.483 256.956 118.626 265.8 120.884 274.093C126.304 285.401 152.501 283.894 157.018 277.108C158.028 275.393 158.541 273.584 159.127 271.746C160.129 268.118 160.95 264.474 161.704 260.805C161.864 260.048 162.024 259.291 162.189 258.511C162.367 257.669 162.543 256.828 162.719 255.986C163.074 254.284 164.661 253.126 166.39 253.313V253.313C180.541 254.777 194.32 254.56 208.485 253.833C209.525 253.78 210.439 254.518 210.603 255.546V255.546C211.25 259.539 211.924 263.748 212.585 267.605C212.774 268.715 212.836 269.858 212.983 270.973C216.012 293.906 280.361 291.845 281.433 268.631C281.544 266.219 281.299 263.759 281.599 261.363C282.01 258.088 282.397 254.442 282.64 252.493C282.983 249.732 283.319 246.972 283.638 244.209C283.951 241.518 284.289 238.83 284.632 236.141C284.722 235.315 284.811 234.489 284.903 233.637C285.378 230.03 285.486 229.206 286.845 227.199C287.844 225.723 289.198 224.522 290.712 223.581V223.581C291.755 222.874 291.755 222.874 292.818 222.152C293.928 221.437 293.928 221.437 295.059 220.706C306.332 213.053 316.379 204.458 324.135 194.178C324.461 193.753 324.786 193.328 325.122 192.89C335.02 179.788 340.064 164.828 342.428 149.556C342.504 149.069 342.579 148.582 342.657 148.08C347.706 114.638 342.834 80.7334 323.232 50.935C322.918 50.4571 322.604 49.9792 322.28 49.4868C313.202 35.8875 300.817 22.9756 286.195 13.2394C285.304 12.6272 284.414 12.0149 283.496 11.3841C261.467 -3.4984 236.2 -3.42249 213.025 9.46989ZM283.485 26.8098C283.959 27.1768 284.433 27.5438 284.921 27.9219C312.289 49.1999 329.291 80.3901 330.644 111.683C330.755 115.433 330.76 119.182 330.741 122.933C330.74 123.596 330.738 124.258 330.737 124.94C330.699 135.339 330.147 145.497 327.749 155.729C327.613 156.319 327.478 156.909 327.339 157.517C321.455 182.356 303.598 202.864 278.757 217.184C270.52 222.471 269.95 222.836 261.918 225.264C261.005 225.54 260.102 224.8 260.196 223.852V223.852C260.619 219.322 261.004 214.787 261.184 210.246C261.189 210.13 261.194 210.026 261.199 209.933C261.257 208.695 261.406 207.434 260.784 206.362V206.362C260.091 205.168 258.634 204.471 257.28 204.203C256.98 204.143 256.688 204.105 256.398 204.084C253.384 203.871 250.005 205.532 249.531 208.517C249.486 208.795 249.442 209.103 249.392 209.449C249.29 210.119 249.188 210.789 249.083 211.479C248.928 212.58 248.928 212.58 248.77 213.703C248.656 214.471 248.543 215.239 248.425 216.03C248.057 218.546 247.702 221.063 247.352 223.581C247.176 224.843 247.176 224.843 246.996 226.131C246.153 232.221 245.338 238.314 244.529 244.407C244.058 247.951 243.585 251.495 243.11 255.039C243.005 255.839 242.899 256.639 242.791 257.463C242.691 258.207 242.591 258.951 242.489 259.717C242.403 260.366 242.316 261.016 242.228 261.684C242.107 262.441 242.155 265.495 242.227 269.003C242.379 276.412 236.733 280.257 230.814 275.801V275.801C227.595 273.378 225.754 270 225.439 265.984C225.173 262.596 224.933 258.945 224.542 256.941C224.441 256.421 224.339 255.9 224.234 255.364C223.095 249.522 221.992 243.679 221.017 237.817C220.859 236.863 220.7 235.909 220.536 234.927C220.239 233.112 219.946 231.296 219.66 229.48C219.525 228.659 219.391 227.837 219.253 226.991C219.14 226.275 219.027 225.559 218.91 224.822C218.853 224.578 218.792 224.339 218.727 224.103C217.812 220.775 214.036 217.957 210.607 218.348V218.348C208.535 218.584 207.177 219.743 206.621 221.752C205.656 225.236 207.024 229.466 207.605 232.816C207.772 233.691 207.94 234.565 208.113 235.466V235.466C208.692 239.04 205.932 242.11 202.333 242.5C196.806 243.098 191.323 243.327 185.642 243.324C184.813 243.324 183.984 243.325 183.13 243.325C182.623 243.335 182.145 243.345 181.694 243.354C172.882 243.523 167.285 234.788 169.418 226.237V226.237C169.556 225.677 169.695 225.117 169.838 224.541C170.413 222.222 170.989 219.903 171.579 217.586C173.482 210.086 174.419 206.395 174.73 204.039C175.184 200.601 172.758 197.244 169.295 197.063V197.063C167.302 196.959 164.973 197.575 163.773 199.17C162.814 200.445 162.484 201.901 162.042 203.749C161.824 204.634 161.607 205.519 161.383 206.431C161.157 207.395 160.931 208.358 160.698 209.351C160.453 210.364 160.206 211.376 159.959 212.389C159.306 215.072 158.665 217.757 158.027 220.442C157.023 224.661 155.999 228.877 154.978 233.093C154.727 234.132 154.476 235.172 154.225 236.212C152.249 244.41 150.697 255.338 148.75 264.665C147.873 268.87 144.156 271.746 139.86 271.746V271.746C135.2 271.746 131.076 268.388 130.249 263.801C130.199 263.528 130.16 263.3 130.132 263.134C129.377 258.579 128.607 254.027 127.828 249.475C127.356 246.716 126.89 243.956 126.437 241.195C125.999 238.529 125.547 235.865 125.084 233.202C124.91 232.187 124.742 231.171 124.579 230.155C124.349 228.729 124.099 227.306 123.848 225.883C123.798 225.586 123.748 225.289 123.697 224.991C123.522 223.951 123.3 222.906 122.821 221.966C122.485 221.306 122.102 220.76 121.619 220.255C120.169 218.738 117.953 218.153 115.868 218.393C115.477 218.438 115.096 218.506 114.629 218.608C113.399 218.876 112.22 219.317 111.61 220.419V220.419C111.087 221.362 111.019 222.631 111.176 223.697C111.305 224.574 111.447 225.449 111.618 226.321C112.03 228.571 112.259 229.828 112.188 230.926C111.952 234.52 108.614 237.086 105.358 238.626C104.24 239.155 103.096 239.66 101.914 240.167C100.817 240.711 99.7242 241.262 98.6361 241.819C78.6599 254.419 55.0438 258.15 31.1965 257.606C24.6284 257.456 21.9522 250.728 28.5217 250.68V250.68C29.0594 250.676 30.082 250.623 30.6081 250.512C54.4568 245.481 66.0617 230.123 81.3668 208.667C98.2097 185.268 124.085 166.908 156.113 159.855C162.937 158.502 169.883 157.532 176.891 157.236C177.781 157.197 178.671 157.157 179.587 157.116C196.035 156.745 211.822 160.006 227.622 163.433C228.534 163.63 228.534 163.63 229.463 163.831C231.125 164.193 232.786 164.56 234.447 164.926C249.446 167.975 264.671 166.245 278.231 160.117C290.464 153.518 296.98 144.801 300.159 133.097C306.903 106.222 300.549 77.694 282.771 54.5914C274.238 43.8877 265.388 26.4718 248.537 32.5113C241.218 34.8572 234.151 33.9097 227.048 31.4806C224.633 30.5258 222.57 29.7009 220.87 28.526C217.795 26.4007 216.838 21.7024 219.768 19.3819C219.833 19.3303 219.9 19.2776 219.969 19.2236C243.389 4.6131 264.247 11.5615 283.485 26.8098ZM261.439 237.005C266.423 234.299 271.061 239.139 270.299 244.759C269.212 252.78 267.987 261.838 266.974 269.293C266.555 272.382 265.6 274.774 263.03 276.538V276.538C257.114 280.598 251.479 276.426 252.943 269.402C254.055 264.066 255.161 258.811 255.316 257.155C255.43 255.84 255.524 254.522 255.601 253.205C255.693 246.124 255.703 245.323 258.31 240.334C259.042 238.932 260.049 237.76 261.439 237.005V237.005Z" fill="#E9E9E9" fill-opacity="0.1"/>
<ellipse cx="240.25" cy="22.5066" rx="5.08275" ry="4.63358" fill="#E9E9E9" fill-opacity="0.1"/>
</svg>
