<svg width="38" height="38" viewBox="0 0 38 38" fill="none" xmlns="http://www.w3.org/2000/svg">
<rect x="0.5" y="0.5" width="37" height="37" rx="3.5" stroke="#E5E5E5"/>
<path d="M16.5002 27.7499V21.4999H21.5002V27.7499C21.5002 28.4374 22.0627 28.9999 22.7502 28.9999H26.5002C27.1877 28.9999 27.7502 28.4374 27.7502 27.7499V18.9999H29.8752C30.4502 18.9999 30.7252 18.2874 30.2877 17.9124L19.8377 8.4999C19.3627 8.0749 18.6377 8.0749 18.1627 8.4999L7.71274 17.9124C7.28774 18.2874 7.55024 18.9999 8.12524 18.9999H10.2502V27.7499C10.2502 28.4374 10.8127 28.9999 11.5002 28.9999H15.2502C15.9377 28.9999 16.5002 28.4374 16.5002 27.7499Z" fill="black"/>
</svg>
