<svg width="320" height="340" viewBox="0 0 320 340" fill="none" xmlns="http://www.w3.org/2000/svg">
<path d="M197.83 11.191C193.669 14.4636 191.032 17.7077 189.798 23.0933C188.88 29.8429 190.007 35.0998 193.809 40.5953C200.149 48.3725 210.793 52.3808 220.188 53.2772C224.372 53.4073 228.118 52.8108 232.136 51.5858C236.079 50.91 239.617 53.5906 242.221 56.6275C257.697 74.6805 267.649 102.02 268.563 125.499C268.944 141.66 269.076 159.639 258.476 172.391C250.789 180.384 240.815 183.395 230.339 183.45C222.977 183.312 216.069 181.256 208.998 179.243C195.959 175.619 183.721 172.986 170.146 173.007C169.298 173.008 169.298 173.008 168.433 173.009C135.991 173.156 106.949 187.979 84.1073 212.12C74.4299 222.645 67.0368 235.27 60.1449 247.957C53.8 259.599 46.5189 269.805 37.5994 279.362C36.2307 280.839 34.6849 282.153 32.9615 283.194C30.1751 284.877 27.6978 286.185 25.4816 287.198C17.4489 290.87 4.25314 281.074 0.463623 289.052C-3.53543 297.471 18.1054 328.055 74.7831 309.542C85.6304 305.999 95.1124 299.165 104.777 292.877C105.501 292.406 106.462 292.889 106.521 293.751C107.246 303.658 110.165 314.108 112.262 323.909C117.295 337.273 141.623 335.491 145.818 327.472C146.755 325.446 147.233 323.308 147.776 321.136C148.707 316.848 149.469 312.542 150.17 308.206C150.318 307.311 150.467 306.417 150.62 305.495C150.825 304.258 151.029 303.021 151.231 301.784C151.488 300.215 152.947 299.136 154.521 299.352C167.512 301.063 180.166 300.832 193.163 299.997C194.37 299.919 195.431 300.792 195.581 301.991C196.269 307.4 196.991 313.143 197.689 318.212C197.689 346.706 257.293 345.623 261.173 319.481C261.791 315.315 261.315 311.019 261.709 306.825C262.015 303.561 262.292 300.287 262.479 298.383C262.797 295.121 263.11 291.858 263.406 288.594C263.697 285.414 264.011 282.237 264.329 279.059C264.412 278.083 264.495 277.107 264.581 276.101C265.036 271.702 265.128 270.806 266.507 268.263C267.362 266.687 268.569 265.328 269.975 264.216C270.944 263.381 270.944 263.381 271.932 262.528C272.962 261.682 272.962 261.682 274.012 260.819C284.481 251.775 293.811 241.618 301.015 229.47C301.317 228.967 301.619 228.465 301.931 227.947C311.123 212.464 315.807 194.785 318.002 176.738C318.073 176.162 318.143 175.586 318.215 174.993C322.904 135.474 318.379 95.4066 300.176 60.1924C299.884 59.6276 299.592 59.0629 299.291 58.481C290.861 42.41 279.36 27.1514 265.781 15.6457C264.953 14.9222 264.126 14.1986 263.274 13.4532C242.817 -4.13423 219.352 -4.04453 197.83 11.191ZM263.264 31.6825C263.704 32.1162 264.144 32.5499 264.598 32.9967C290.013 58.1419 305.802 95.0009 307.059 131.981C307.162 136.413 307.167 140.843 307.149 145.277C307.148 146.059 307.147 146.841 307.145 147.647C307.11 159.936 306.598 171.941 304.37 184.032C304.245 184.73 304.119 185.427 303.989 186.146C298.525 215.498 281.942 239.735 258.873 256.657C251.371 262.784 250.717 263.318 243.66 266.042C242.637 266.437 241.551 265.629 241.636 264.536C242.029 259.183 242.387 253.825 242.554 248.458C242.567 248.088 242.577 247.825 242.585 247.607C242.627 246.462 242.657 245.172 242.273 244.093C241.693 242.465 239.96 241.39 238.244 241.19C235.303 240.848 232.254 242.915 231.81 245.842C231.738 246.312 231.679 246.855 231.602 247.516C231.508 248.308 231.413 249.099 231.316 249.915C231.172 251.216 231.172 251.216 231.025 252.544C230.92 253.451 230.814 254.358 230.705 255.293C230.363 258.266 230.033 261.241 229.708 264.216C229.544 265.708 229.544 265.708 229.378 267.23C228.594 274.427 227.838 281.627 227.086 288.828C226.649 293.016 226.21 297.204 225.769 301.392C225.671 302.337 225.573 303.283 225.472 304.257C225.38 305.136 225.287 306.015 225.192 306.92C225.112 307.688 225.032 308.455 224.95 309.245C224.823 310.25 224.895 314.689 224.974 319.464C225.103 327.21 219.354 330.785 213.794 325.391C211.193 322.868 209.714 319.73 209.473 316.115C209.176 311.673 208.944 306.366 208.526 303.64C208.431 303.025 208.337 302.41 208.239 301.776C207.182 294.872 206.157 287.967 205.252 281.039C205.105 279.913 204.957 278.786 204.806 277.625C204.529 275.48 204.257 273.334 203.991 271.188C203.867 270.217 203.742 269.246 203.614 268.246C203.508 267.4 203.403 266.554 203.295 265.683C203.168 264.99 203.019 264.325 202.848 263.675C202.04 260.59 198.772 257.59 195.613 258.029C193.655 258.3 192.535 259.6 192.016 261.507C190.871 265.721 192.232 270.994 192.796 275.13C192.952 276.164 193.108 277.197 193.268 278.262C193.812 282.534 190.653 286.252 186.378 286.771C181.759 287.332 177.154 287.551 172.4 287.547C171.63 287.548 170.86 287.549 170.067 287.549C160.864 287.785 155.158 278.771 156.875 269.727C157.026 268.936 157.178 268.146 157.333 267.355C157.462 266.694 157.591 266.032 157.723 265.351C158.257 262.61 158.793 259.87 159.34 257.132C161.516 246.223 162.332 242.133 162.378 239.411C162.428 236.42 160.612 233.296 157.644 232.92C155.454 232.643 153.061 233.616 151.99 235.546C151.176 237.01 150.878 238.681 150.483 240.78C150.281 241.826 150.079 242.872 149.871 243.95C149.662 245.088 149.452 246.227 149.236 247.4C149.008 248.597 148.779 249.794 148.549 250.991C147.943 254.161 147.348 257.334 146.755 260.507C145.822 265.493 144.872 270.475 143.924 275.457C143.69 276.686 143.457 277.914 143.224 279.143C141.297 289.321 139.804 303.058 137.863 314.423C137.192 318.353 133.794 321.136 129.807 321.136C125.56 321.136 121.873 317.989 121.255 313.788C121.071 312.544 120.919 311.49 120.85 310.958C120.148 305.576 119.434 300.196 118.71 294.817C118.272 291.556 117.839 288.295 117.418 285.032C117.012 281.881 116.592 278.734 116.162 275.587C116 274.387 115.844 273.186 115.693 271.985C115.479 270.3 115.247 268.618 115.014 266.937C114.887 265.979 114.76 265.022 114.63 264.035C114.154 262.319 113.642 261.176 112.844 260.156C111.59 258.553 109.452 257.771 107.445 258.111C107.329 258.131 107.212 258.153 107.093 258.179C105.516 258.522 104.117 259.21 103.552 260.721C103.203 261.652 103.086 262.942 103.197 263.93C103.33 265.108 103.476 266.284 103.657 267.454C103.806 268.497 103.93 269.36 104.022 270.102C104.752 276.041 99.8971 280.949 94.6448 283.817C93.6256 284.46 92.6109 285.111 91.6005 285.769C73.2135 300.528 51.506 304.99 29.5598 304.441C22.6711 304.269 19.0954 296.352 25.9855 296.246C26.7572 296.235 28.0685 296.142 28.8124 295.936C50.6987 289.884 61.4327 271.8 75.563 246.592C91.2045 218.94 115.234 197.243 144.978 188.908C151.315 187.309 157.765 186.164 164.274 185.814C165.1 185.767 165.926 185.72 166.777 185.671C182.052 185.233 196.713 189.087 211.386 193.136C212.232 193.37 212.232 193.37 213.095 193.608C214.639 194.035 216.182 194.468 217.724 194.901C231.653 198.505 245.792 196.46 258.385 189.218C269.745 181.42 275.796 171.118 278.748 157.288C285.012 125.528 279.111 91.8147 262.601 64.5133C254.676 51.8643 246.458 31.283 230.809 38.4202C224.012 41.1925 217.449 40.0727 210.852 37.2021C208.78 36.1594 206.986 35.2479 205.48 34.0198C202.081 31.2476 201.172 25.8141 204.279 22.7175C226.028 5.45152 245.398 13.6627 263.264 31.6825ZM242.764 280.099C247.308 276.951 251.846 281.48 251.26 286.977C250.143 297.458 248.828 309.833 247.788 319.575C247.488 322.389 246.741 324.608 244.624 326.486C239.094 331.388 233.395 327.588 234.585 320.295C235.714 313.372 236.945 306.049 237.104 303.893C237.21 302.338 237.297 300.782 237.369 299.224C237.456 290.666 237.464 289.871 240.053 283.603C240.628 282.214 241.528 280.956 242.764 280.099Z" fill="#868586"/>
<ellipse cx="223.113" cy="26.5958" rx="4.72019" ry="5.47573" fill="#868586"/>
</svg>
