<svg width="21" height="20" viewBox="0 0 21 20" fill="none" xmlns="http://www.w3.org/2000/svg">
<g clip-path="url(#clip0_132_3930)">
<path d="M7.26736 5.00228C6.89198 5.00222 6.53194 5.15128 6.26645 5.41666L2.67718 9.00592C2.41172 9.27138 2.26259 9.63142 2.26259 10.0068C2.26259 10.3823 2.41172 10.7423 2.67718 11.0077L6.26645 14.597C6.53194 14.8624 6.89198 15.0114 7.26736 15.0114L15.9793 15.0114C16.4328 15.01 16.8673 14.8292 17.188 14.5085C17.5086 14.1878 17.6894 13.7533 17.6909 13.2998V6.71384C17.6894 6.26035 17.5086 5.82584 17.188 5.50517C16.8673 5.1845 16.4328 5.00372 15.9793 5.00228L7.26736 5.00228Z" stroke="black" stroke-width="1.5" stroke-linecap="round" stroke-linejoin="round"/>
<path d="M7.84677 10.2927C8.00949 10.13 8.00949 9.86614 7.84677 9.70342C7.68406 9.5407 7.42024 9.5407 7.25752 9.70342C7.0948 9.86614 7.0948 10.13 7.25752 10.2927C7.42024 10.4554 7.68406 10.4554 7.84677 10.2927Z" fill="black" stroke="black" stroke-width="1.5" stroke-linecap="round" stroke-linejoin="round"/>
</g>
<defs>
<clipPath id="clip0_132_3930">
<rect width="20" height="20" fill="white" transform="translate(0.5)"/>
</clipPath>
</defs>
</svg>
