<svg width="90" height="91" viewBox="0 0 90 91" fill="none" xmlns="http://www.w3.org/2000/svg">
<rect x="1.04651" y="1.34583" width="87.907" height="87.907" rx="43.9535" stroke="black" stroke-width="2.09302"/>
<g clip-path="url(#clip0_1_29925)">
<path d="M47.6455 24.3335C49.4367 24.3794 51.1998 24.4711 52.9287 24.6069L52.8477 25.6499C54.6194 25.7891 56.3547 25.9749 58.0459 26.2036L58.1846 25.1665C59.9749 25.4085 61.7176 25.699 63.4053 26.0337L63.2031 27.0601C64.96 27.4085 66.6549 27.8051 68.2783 28.2466L68.5518 27.2378C70.3163 27.7176 72.0006 28.2481 73.5928 28.8276V28.8286L73.2354 29.812C74.941 30.4329 76.5342 31.1077 78.002 31.8286L78.4629 30.8901C80.1476 31.7175 81.6775 32.6072 83.0322 33.5513L82.4346 34.4097C83.945 35.4624 85.2101 36.5709 86.2109 37.7173L86.9971 37.0298C88.2564 38.4721 89.1464 39.9946 89.6152 41.5767L88.6133 41.8735C88.8385 42.6336 88.9531 43.4039 88.9531 44.1831C88.9531 44.9623 88.8385 45.7326 88.6133 46.4927L89.6152 46.7886C89.1466 48.3703 88.2569 49.8923 86.998 51.3345L86.2109 50.6489C85.2101 51.7953 83.945 52.9039 82.4346 53.9565L83.0322 54.814C81.6775 55.7581 80.1476 56.6477 78.4629 57.4751L78.002 56.5376C76.5342 57.2585 74.941 57.9333 73.2354 58.5542L73.5918 59.5366C71.9998 60.1161 70.3161 60.6477 68.5518 61.1274L68.2783 60.1196C66.6549 60.5611 64.96 60.9578 63.2031 61.3062L63.4053 62.3315C61.7176 62.6662 59.9748 62.9557 58.1846 63.1978L58.0459 62.1626C56.3547 62.3913 54.6194 62.5762 52.8477 62.7153L52.9287 63.7583C51.1998 63.8941 49.4367 63.9849 47.6455 64.0308L47.6191 62.9868C46.7526 63.009 45.8793 63.02 45 63.02C44.1207 63.02 43.2474 63.009 42.3809 62.9868L42.3535 64.0308C40.5623 63.9849 38.7992 63.8941 37.0703 63.7583L37.1523 62.7153C35.3806 62.5762 33.6453 62.3913 31.9541 62.1626L31.8145 63.1978C30.0242 62.9557 28.2814 62.6662 26.5938 62.3315L26.7969 61.3062C25.04 60.9578 23.3451 60.5611 21.7217 60.1196L21.4473 61.1274C19.683 60.6476 17.9992 60.1161 16.4072 59.5366L16.7646 58.5542C15.059 57.9333 13.4658 57.2585 11.998 56.5376L11.5361 57.4751C9.85143 56.6476 8.32145 55.7581 6.9668 54.814L7.56543 53.9565C6.05504 52.9039 4.78989 51.7953 3.78906 50.6489L3.00098 51.3345C1.74228 49.8924 0.852341 48.3703 0.383789 46.7886L1.38672 46.4927C1.18965 45.8277 1.07684 45.1548 1.05176 44.4751L1.04688 44.1831C1.04688 43.4039 1.16147 42.6336 1.38672 41.8735L0.383789 41.5767C0.852566 39.9947 1.74276 38.4721 3.00195 37.0298L3.78906 37.7173C4.7899 36.5709 6.05501 35.4624 7.56543 34.4097L6.9668 33.5513C8.32144 32.6071 9.85147 31.7176 11.5361 30.8901L11.998 31.8286C13.4658 31.1077 15.059 30.4329 16.7646 29.812L16.4072 28.8286L16.4062 28.8276C17.9984 28.2481 19.6828 27.7176 21.4473 27.2378L21.7217 28.2466C23.3451 27.8051 25.04 27.4085 26.7969 27.0601L26.5938 26.0337C28.2814 25.699 30.0242 25.4086 31.8145 25.1665L31.9541 26.2036C33.6453 25.9749 35.3806 25.7891 37.1523 25.6499L37.0703 24.6069C38.7992 24.4711 40.5623 24.3794 42.3535 24.3335L42.3809 25.3794C43.2474 25.3572 44.1207 25.3462 45 25.3462C45.8793 25.3462 46.7526 25.3572 47.6191 25.3794L47.6455 24.3335Z" stroke="black" stroke-opacity="0.7" stroke-width="2.09302" stroke-dasharray="5.23 5.23"/>
</g>
<g clip-path="url(#clip1_1_29925)">
<path d="M45 63.0199C57.3156 63.0199 68.415 60.8122 76.3965 57.2855C80.3886 55.5216 83.5548 53.448 85.708 51.1986C87.8559 48.9546 88.9531 46.5856 88.9531 44.183C88.9531 41.7804 87.8559 39.4113 85.708 37.1674C83.5548 34.918 80.3886 32.8444 76.3965 31.0804C68.415 27.5538 57.3156 25.3461 45 25.3461C32.6844 25.3461 21.585 27.5538 13.6035 31.0804C9.61137 32.8444 6.44516 34.918 4.29199 37.1674C2.14408 39.4113 1.0469 41.7804 1.04688 44.183C1.04688 46.5856 2.14411 48.9546 4.29199 51.1986C6.44516 53.448 9.61137 55.5216 13.6035 57.2855C21.585 60.8122 32.6844 63.0199 45 63.0199Z" stroke="black" stroke-width="2.09302"/>
</g>
<defs>
<clipPath id="clip0_1_29925">
<rect width="90" height="19.8837" fill="white" transform="translate(0 24.2993)"/>
</clipPath>
<clipPath id="clip1_1_29925">
<rect width="90" height="19.8837" fill="white" transform="matrix(1 0 0 -1 0 64.0668)"/>
</clipPath>
</defs>
</svg>
