<svg width="562" height="269" viewBox="0 0 562 269" fill="none" xmlns="http://www.w3.org/2000/svg">
<rect x="0.5" y="0.5" width="559" height="259" rx="9.75954" fill="white"/>
<rect x="0.5" y="0.5" width="559" height="259" rx="9.75954" stroke="#E2E8F0"/>
<rect x="20.5195" y="23.084" width="13.6794" height="13.6794" rx="6.83969" fill="#D92D20"/>
<path d="M24.9658 27.5298L29.7536 32.3176M29.7536 27.5298L24.9658 32.3176" stroke="white" stroke-width="0.98211" stroke-linecap="round" stroke-linejoin="round"/>
<path d="M45.1791 35.519L41.3391 24.869H43.0641L46.1991 33.719L49.3341 24.869H51.0591L47.2041 35.519H45.1791ZM55.117 35.699C54.337 35.699 53.662 35.529 53.092 35.189C52.532 34.849 52.097 34.364 51.787 33.734C51.487 33.104 51.337 32.369 51.337 31.529C51.337 30.689 51.487 29.959 51.787 29.339C52.097 28.709 52.532 28.224 53.092 27.884C53.652 27.534 54.312 27.359 55.072 27.359C55.792 27.359 56.427 27.529 56.977 27.869C57.527 28.199 57.952 28.679 58.252 29.309C58.562 29.939 58.717 30.699 58.717 31.589V31.994H52.987C53.027 32.774 53.232 33.359 53.602 33.749C53.982 34.139 54.492 34.334 55.132 34.334C55.602 34.334 55.992 34.224 56.302 34.004C56.612 33.784 56.827 33.489 56.947 33.119L58.597 33.224C58.387 33.964 57.972 34.564 57.352 35.024C56.742 35.474 55.997 35.699 55.117 35.699ZM52.987 30.794H57.037C56.987 30.084 56.782 29.559 56.422 29.219C56.072 28.879 55.622 28.709 55.072 28.709C54.502 28.709 54.032 28.889 53.662 29.249C53.302 29.599 53.077 30.114 52.987 30.794ZM60.3281 35.519V27.539H61.7831L61.8431 29.654L61.7081 29.609C61.8181 28.889 62.0381 28.364 62.3681 28.034C62.7081 27.704 63.1631 27.539 63.7331 27.539H64.4981V28.964H63.7331C63.3331 28.964 62.9981 29.029 62.7281 29.159C62.4581 29.289 62.2531 29.489 62.1131 29.759C61.9831 30.029 61.9181 30.379 61.9181 30.809V35.519H60.3281ZM65.8066 35.519V27.539H67.3966V35.519H65.8066ZM65.7766 26.384V24.794H67.4266V26.384H65.7766ZM69.9711 35.519V27.029C69.9711 26.369 70.1561 25.844 70.5261 25.454C70.8961 25.064 71.4761 24.869 72.2661 24.869H73.6761V26.174H72.4761C72.1661 26.174 71.9361 26.259 71.7861 26.429C71.6361 26.589 71.5611 26.819 71.5611 27.119V35.519H69.9711ZM68.8611 28.934V27.644H73.5561V28.934H68.8611ZM75.7928 37.769V36.464H76.7678C77.0378 36.464 77.2378 36.424 77.3678 36.344C77.4978 36.264 77.5978 36.129 77.6678 35.939L77.9228 35.279H77.4278L74.5478 27.539H76.2278L78.4178 33.809L80.5028 27.539H82.1978L79.0178 36.449C78.8578 36.909 78.6178 37.244 78.2978 37.454C77.9878 37.664 77.5528 37.769 76.9928 37.769H75.7928ZM89.9062 35.699C89.1063 35.699 88.4663 35.434 87.9863 34.904C87.5163 34.364 87.2813 33.619 87.2813 32.669V27.539H88.8713V32.264C88.8713 32.984 88.9963 33.514 89.2463 33.854C89.4963 34.194 89.8763 34.364 90.3863 34.364C90.9663 34.364 91.4163 34.179 91.7363 33.809C92.0663 33.429 92.2313 32.899 92.2313 32.219V27.539H93.8213V35.519H92.3363L92.3063 33.434L92.5313 33.524C92.3913 34.224 92.0963 34.764 91.6463 35.144C91.1963 35.514 90.6163 35.699 89.9062 35.699ZM98.9988 35.699C98.2488 35.699 97.6138 35.584 97.0938 35.354C96.5838 35.124 96.1888 34.809 95.9088 34.409C95.6288 33.999 95.4688 33.529 95.4288 32.999L97.0638 32.924C97.1438 33.364 97.3338 33.714 97.6338 33.974C97.9338 34.234 98.3888 34.364 98.9988 34.364C99.4988 34.364 99.8938 34.284 100.184 34.124C100.474 33.964 100.619 33.709 100.619 33.359C100.619 33.169 100.569 33.009 100.469 32.879C100.379 32.739 100.199 32.624 99.9288 32.534C99.6588 32.434 99.2588 32.339 98.7288 32.249C97.9388 32.099 97.3188 31.924 96.8688 31.724C96.4188 31.524 96.0988 31.269 95.9088 30.959C95.7188 30.649 95.6238 30.274 95.6238 29.834C95.6238 29.104 95.8938 28.509 96.4338 28.049C96.9838 27.589 97.7738 27.359 98.8038 27.359C99.4938 27.359 100.074 27.479 100.544 27.719C101.014 27.949 101.379 28.264 101.639 28.664C101.909 29.054 102.079 29.494 102.149 29.984L100.514 30.074C100.464 29.794 100.364 29.554 100.214 29.354C100.074 29.144 99.8838 28.984 99.6438 28.874C99.4038 28.754 99.1188 28.694 98.7888 28.694C98.2788 28.694 97.8988 28.794 97.6488 28.994C97.3988 29.194 97.2738 29.454 97.2738 29.774C97.2738 30.014 97.3288 30.209 97.4388 30.359C97.5588 30.509 97.7488 30.634 98.0088 30.734C98.2688 30.824 98.6138 30.904 99.0438 30.974C99.8738 31.114 100.524 31.289 100.994 31.499C101.464 31.699 101.794 31.949 101.984 32.249C102.174 32.549 102.269 32.914 102.269 33.344C102.269 33.844 102.129 34.269 101.849 34.619C101.569 34.969 101.184 35.239 100.694 35.429C100.204 35.609 99.6388 35.699 98.9988 35.699ZM107.163 35.699C106.383 35.699 105.708 35.529 105.138 35.189C104.578 34.849 104.143 34.364 103.833 33.734C103.533 33.104 103.383 32.369 103.383 31.529C103.383 30.689 103.533 29.959 103.833 29.339C104.143 28.709 104.578 28.224 105.138 27.884C105.698 27.534 106.358 27.359 107.118 27.359C107.838 27.359 108.473 27.529 109.023 27.869C109.573 28.199 109.998 28.679 110.298 29.309C110.608 29.939 110.763 30.699 110.763 31.589V31.994H105.033C105.073 32.774 105.278 33.359 105.648 33.749C106.028 34.139 106.538 34.334 107.178 34.334C107.648 34.334 108.038 34.224 108.348 34.004C108.658 33.784 108.873 33.489 108.993 33.119L110.643 33.224C110.433 33.964 110.018 34.564 109.398 35.024C108.788 35.474 108.043 35.699 107.163 35.699ZM105.033 30.794H109.083C109.033 30.084 108.828 29.559 108.468 29.219C108.118 28.879 107.668 28.709 107.118 28.709C106.548 28.709 106.078 28.889 105.708 29.249C105.348 29.599 105.123 30.114 105.033 30.794ZM112.374 35.519V27.539H113.829L113.889 29.654L113.754 29.609C113.864 28.889 114.084 28.364 114.414 28.034C114.754 27.704 115.209 27.539 115.779 27.539H116.544V28.964H115.779C115.379 28.964 115.044 29.029 114.774 29.159C114.504 29.289 114.299 29.489 114.159 29.759C114.029 30.029 113.964 30.379 113.964 30.809V35.519H112.374ZM125.21 35.699C124.45 35.699 123.785 35.529 123.215 35.189C122.645 34.849 122.205 34.364 121.895 33.734C121.585 33.104 121.43 32.369 121.43 31.529C121.43 30.689 121.585 29.959 121.895 29.339C122.205 28.709 122.645 28.224 123.215 27.884C123.785 27.534 124.45 27.359 125.21 27.359C125.86 27.359 126.435 27.474 126.935 27.704C127.445 27.924 127.855 28.249 128.165 28.679C128.485 29.109 128.69 29.634 128.78 30.254L127.115 30.344C127.035 29.824 126.825 29.429 126.485 29.159C126.145 28.879 125.72 28.739 125.21 28.739C124.54 28.739 124.015 28.989 123.635 29.489C123.265 29.979 123.08 30.659 123.08 31.529C123.08 32.399 123.265 33.084 123.635 33.584C124.015 34.074 124.54 34.319 125.21 34.319C125.72 34.319 126.145 34.179 126.485 33.899C126.825 33.609 127.035 33.174 127.115 32.594L128.78 32.684C128.69 33.294 128.485 33.824 128.165 34.274C127.855 34.724 127.445 35.074 126.935 35.324C126.435 35.574 125.86 35.699 125.21 35.699ZM132.627 35.699C131.797 35.699 131.132 35.509 130.632 35.129C130.142 34.749 129.897 34.214 129.897 33.524C129.897 32.834 130.102 32.299 130.512 31.919C130.932 31.529 131.577 31.249 132.447 31.079L135.192 30.554C135.192 29.934 135.047 29.474 134.757 29.174C134.467 28.864 134.037 28.709 133.467 28.709C132.957 28.709 132.557 28.824 132.267 29.054C131.977 29.274 131.777 29.604 131.667 30.044L130.032 29.939C130.182 29.139 130.552 28.509 131.142 28.049C131.742 27.589 132.517 27.359 133.467 27.359C134.547 27.359 135.367 27.649 135.927 28.229C136.497 28.799 136.782 29.604 136.782 30.644V33.749C136.782 33.939 136.812 34.074 136.872 34.154C136.942 34.224 137.052 34.259 137.202 34.259H137.487V35.519C137.437 35.529 137.357 35.539 137.247 35.549C137.137 35.559 137.022 35.564 136.902 35.564C136.562 35.564 136.267 35.509 136.017 35.399C135.777 35.289 135.597 35.109 135.477 34.859C135.357 34.599 135.297 34.254 135.297 33.824L135.462 33.899C135.382 34.249 135.207 34.559 134.937 34.829C134.677 35.099 134.342 35.314 133.932 35.474C133.532 35.624 133.097 35.699 132.627 35.699ZM132.882 34.439C133.362 34.439 133.772 34.349 134.112 34.169C134.452 33.979 134.717 33.719 134.907 33.389C135.097 33.059 135.192 32.684 135.192 32.264V31.754L132.852 32.204C132.372 32.294 132.032 32.439 131.832 32.639C131.642 32.829 131.547 33.074 131.547 33.374C131.547 33.714 131.662 33.979 131.892 34.169C132.132 34.349 132.462 34.439 132.882 34.439ZM138.829 35.519V27.539H140.284L140.344 29.669L140.149 29.564C140.239 29.044 140.409 28.624 140.659 28.304C140.909 27.984 141.214 27.749 141.574 27.599C141.934 27.439 142.324 27.359 142.744 27.359C143.344 27.359 143.839 27.494 144.229 27.764C144.629 28.024 144.929 28.384 145.129 28.844C145.339 29.294 145.444 29.809 145.444 30.389V35.519H143.854V30.869C143.854 30.399 143.804 30.004 143.704 29.684C143.604 29.364 143.439 29.119 143.209 28.949C142.979 28.779 142.679 28.694 142.309 28.694C141.749 28.694 141.294 28.879 140.944 29.249C140.594 29.619 140.419 30.159 140.419 30.869V35.519H138.829ZM154.414 35.699C153.664 35.699 153.029 35.584 152.509 35.354C151.999 35.124 151.604 34.809 151.324 34.409C151.044 33.999 150.884 33.529 150.844 32.999L152.479 32.924C152.559 33.364 152.749 33.714 153.049 33.974C153.349 34.234 153.804 34.364 154.414 34.364C154.914 34.364 155.309 34.284 155.599 34.124C155.889 33.964 156.034 33.709 156.034 33.359C156.034 33.169 155.984 33.009 155.884 32.879C155.794 32.739 155.614 32.624 155.344 32.534C155.074 32.434 154.674 32.339 154.144 32.249C153.354 32.099 152.734 31.924 152.284 31.724C151.834 31.524 151.514 31.269 151.324 30.959C151.134 30.649 151.039 30.274 151.039 29.834C151.039 29.104 151.309 28.509 151.849 28.049C152.399 27.589 153.189 27.359 154.219 27.359C154.909 27.359 155.489 27.479 155.959 27.719C156.429 27.949 156.794 28.264 157.054 28.664C157.324 29.054 157.494 29.494 157.564 29.984L155.929 30.074C155.879 29.794 155.779 29.554 155.629 29.354C155.489 29.144 155.299 28.984 155.059 28.874C154.819 28.754 154.534 28.694 154.204 28.694C153.694 28.694 153.314 28.794 153.064 28.994C152.814 29.194 152.689 29.454 152.689 29.774C152.689 30.014 152.744 30.209 152.854 30.359C152.974 30.509 153.164 30.634 153.424 30.734C153.684 30.824 154.029 30.904 154.459 30.974C155.289 31.114 155.939 31.289 156.409 31.499C156.879 31.699 157.209 31.949 157.399 32.249C157.589 32.549 157.684 32.914 157.684 33.344C157.684 33.844 157.544 34.269 157.264 34.619C156.984 34.969 156.599 35.239 156.109 35.429C155.619 35.609 155.054 35.699 154.414 35.699ZM159.293 35.519V27.539H160.883V35.519H159.293ZM159.263 26.384V24.794H160.913V26.384H159.263ZM166.194 37.949C165.564 37.949 165.009 37.854 164.529 37.664C164.049 37.474 163.654 37.204 163.344 36.854C163.034 36.514 162.824 36.114 162.714 35.654L164.364 35.549C164.474 35.879 164.664 36.139 164.934 36.329C165.214 36.529 165.634 36.629 166.194 36.629C166.854 36.629 167.359 36.489 167.709 36.209C168.069 35.929 168.249 35.504 168.249 34.934V33.779C168.059 34.189 167.754 34.514 167.334 34.754C166.914 34.994 166.444 35.114 165.924 35.114C165.254 35.114 164.659 34.949 164.139 34.619C163.619 34.289 163.214 33.834 162.924 33.254C162.634 32.674 162.489 32.004 162.489 31.244C162.489 30.474 162.629 29.799 162.909 29.219C163.199 28.639 163.599 28.184 164.109 27.854C164.629 27.524 165.214 27.359 165.864 27.359C166.434 27.359 166.934 27.489 167.364 27.749C167.804 28.009 168.119 28.359 168.309 28.799V27.539H169.839V34.889C169.839 35.549 169.689 36.104 169.389 36.554C169.099 37.014 168.679 37.359 168.129 37.589C167.589 37.829 166.944 37.949 166.194 37.949ZM166.179 33.764C166.799 33.764 167.294 33.539 167.664 33.089C168.044 32.639 168.239 32.019 168.249 31.229C168.259 30.709 168.179 30.264 168.009 29.894C167.839 29.514 167.594 29.224 167.274 29.024C166.964 28.814 166.599 28.709 166.179 28.709C165.529 28.709 165.024 28.939 164.664 29.399C164.314 29.849 164.139 30.459 164.139 31.229C164.139 32.009 164.319 32.629 164.679 33.089C165.049 33.539 165.549 33.764 166.179 33.764ZM172.096 35.519V27.539H173.551L173.611 29.669L173.416 29.564C173.506 29.044 173.676 28.624 173.926 28.304C174.176 27.984 174.481 27.749 174.841 27.599C175.201 27.439 175.591 27.359 176.011 27.359C176.611 27.359 177.106 27.494 177.496 27.764C177.896 28.024 178.196 28.384 178.396 28.844C178.606 29.294 178.711 29.809 178.711 30.389V35.519H177.121V30.869C177.121 30.399 177.071 30.004 176.971 29.684C176.871 29.364 176.706 29.119 176.476 28.949C176.246 28.779 175.946 28.694 175.576 28.694C175.016 28.694 174.561 28.879 174.211 29.249C173.861 29.619 173.686 30.159 173.686 30.869V35.519H172.096ZM187.23 35.699C186.43 35.699 185.79 35.434 185.31 34.904C184.84 34.364 184.605 33.619 184.605 32.669V27.539H186.195V32.264C186.195 32.984 186.32 33.514 186.57 33.854C186.82 34.194 187.2 34.364 187.71 34.364C188.29 34.364 188.74 34.179 189.06 33.809C189.39 33.429 189.555 32.899 189.555 32.219V27.539H191.145V35.519H189.66L189.63 33.434L189.855 33.524C189.715 34.224 189.42 34.764 188.97 35.144C188.52 35.514 187.94 35.699 187.23 35.699ZM193.395 37.769V27.539H194.895L194.94 29.249L194.76 29.159C194.96 28.569 195.29 28.124 195.75 27.824C196.21 27.514 196.74 27.359 197.34 27.359C198.12 27.359 198.76 27.554 199.26 27.944C199.77 28.324 200.145 28.829 200.385 29.459C200.635 30.089 200.76 30.779 200.76 31.529C200.76 32.279 200.635 32.969 200.385 33.599C200.145 34.229 199.77 34.739 199.26 35.129C198.76 35.509 198.12 35.699 197.34 35.699C196.94 35.699 196.565 35.629 196.215 35.489C195.865 35.349 195.565 35.154 195.315 34.904C195.075 34.644 194.905 34.339 194.805 33.989L194.985 33.809V37.769H193.395ZM197.055 34.319C197.695 34.319 198.195 34.074 198.555 33.584C198.925 33.094 199.11 32.409 199.11 31.529C199.11 30.649 198.925 29.964 198.555 29.474C198.195 28.984 197.695 28.739 197.055 28.739C196.635 28.739 196.27 28.844 195.96 29.054C195.65 29.254 195.41 29.564 195.24 29.984C195.07 30.404 194.985 30.919 194.985 31.529C194.985 32.139 195.065 32.654 195.225 33.074C195.395 33.494 195.635 33.809 195.945 34.019C196.265 34.219 196.635 34.319 197.055 34.319ZM206.978 35.519V27.029C206.978 26.369 207.163 25.844 207.533 25.454C207.903 25.064 208.483 24.869 209.273 24.869H210.683V26.174H209.483C209.173 26.174 208.943 26.259 208.793 26.429C208.643 26.589 208.568 26.819 208.568 27.119V35.519H206.978ZM205.868 28.934V27.644H210.563V28.934H205.868ZM215.005 35.699C214.245 35.699 213.58 35.529 213.01 35.189C212.44 34.849 212 34.364 211.69 33.734C211.38 33.104 211.225 32.369 211.225 31.529C211.225 30.679 211.38 29.944 211.69 29.324C212 28.704 212.44 28.224 213.01 27.884C213.58 27.534 214.245 27.359 215.005 27.359C215.765 27.359 216.43 27.534 217 27.884C217.57 28.224 218.01 28.704 218.32 29.324C218.63 29.944 218.785 30.679 218.785 31.529C218.785 32.369 218.63 33.104 218.32 33.734C218.01 34.364 217.57 34.849 217 35.189C216.43 35.529 215.765 35.699 215.005 35.699ZM215.005 34.319C215.685 34.319 216.21 34.074 216.58 33.584C216.95 33.084 217.135 32.399 217.135 31.529C217.135 30.659 216.95 29.979 216.58 29.489C216.21 28.989 215.685 28.739 215.005 28.739C214.335 28.739 213.81 28.989 213.43 29.489C213.06 29.979 212.875 30.659 212.875 31.529C212.875 32.399 213.06 33.084 213.43 33.584C213.81 34.074 214.335 34.319 215.005 34.319ZM220.392 35.519V27.539H221.847L221.907 29.654L221.772 29.609C221.882 28.889 222.102 28.364 222.432 28.034C222.772 27.704 223.227 27.539 223.797 27.539H224.562V28.964H223.797C223.397 28.964 223.062 29.029 222.792 29.159C222.522 29.289 222.317 29.489 222.177 29.759C222.047 30.029 221.982 30.379 221.982 30.809V35.519H220.392ZM233.002 35.519C232.242 35.519 231.682 35.344 231.322 34.994C230.962 34.644 230.782 34.099 230.782 33.359V25.664H232.372V33.239C232.372 33.609 232.452 33.864 232.612 34.004C232.772 34.144 233.017 34.214 233.347 34.214H234.487V35.519H233.002ZM229.567 28.844V27.539H234.487V28.844H229.567ZM239.16 35.699C238.38 35.699 237.705 35.529 237.135 35.189C236.575 34.849 236.14 34.364 235.83 33.734C235.53 33.104 235.38 32.369 235.38 31.529C235.38 30.689 235.53 29.959 235.83 29.339C236.14 28.709 236.575 28.224 237.135 27.884C237.695 27.534 238.355 27.359 239.115 27.359C239.835 27.359 240.47 27.529 241.02 27.869C241.57 28.199 241.995 28.679 242.295 29.309C242.605 29.939 242.76 30.699 242.76 31.589V31.994H237.03C237.07 32.774 237.275 33.359 237.645 33.749C238.025 34.139 238.535 34.334 239.175 34.334C239.645 34.334 240.035 34.224 240.345 34.004C240.655 33.784 240.87 33.489 240.99 33.119L242.64 33.224C242.43 33.964 242.015 34.564 241.395 35.024C240.785 35.474 240.04 35.699 239.16 35.699ZM237.03 30.794H241.08C241.03 30.084 240.825 29.559 240.465 29.219C240.115 28.879 239.665 28.709 239.115 28.709C238.545 28.709 238.075 28.889 237.705 29.249C237.345 29.599 237.12 30.114 237.03 30.794ZM247.446 35.699C246.696 35.699 246.061 35.584 245.541 35.354C245.031 35.124 244.636 34.809 244.356 34.409C244.076 33.999 243.916 33.529 243.876 32.999L245.511 32.924C245.591 33.364 245.781 33.714 246.081 33.974C246.381 34.234 246.836 34.364 247.446 34.364C247.946 34.364 248.341 34.284 248.631 34.124C248.921 33.964 249.066 33.709 249.066 33.359C249.066 33.169 249.016 33.009 248.916 32.879C248.826 32.739 248.646 32.624 248.376 32.534C248.106 32.434 247.706 32.339 247.176 32.249C246.386 32.099 245.766 31.924 245.316 31.724C244.866 31.524 244.546 31.269 244.356 30.959C244.166 30.649 244.071 30.274 244.071 29.834C244.071 29.104 244.341 28.509 244.881 28.049C245.431 27.589 246.221 27.359 247.251 27.359C247.941 27.359 248.521 27.479 248.991 27.719C249.461 27.949 249.826 28.264 250.086 28.664C250.356 29.054 250.526 29.494 250.596 29.984L248.961 30.074C248.911 29.794 248.811 29.554 248.661 29.354C248.521 29.144 248.331 28.984 248.091 28.874C247.851 28.754 247.566 28.694 247.236 28.694C246.726 28.694 246.346 28.794 246.096 28.994C245.846 29.194 245.721 29.454 245.721 29.774C245.721 30.014 245.776 30.209 245.886 30.359C246.006 30.509 246.196 30.634 246.456 30.734C246.716 30.824 247.061 30.904 247.491 30.974C248.321 31.114 248.971 31.289 249.441 31.499C249.911 31.699 250.241 31.949 250.431 32.249C250.621 32.549 250.716 32.914 250.716 33.344C250.716 33.844 250.576 34.269 250.296 34.619C250.016 34.969 249.631 35.239 249.141 35.429C248.651 35.609 248.086 35.699 247.446 35.699ZM255.092 35.519C254.332 35.519 253.772 35.344 253.412 34.994C253.052 34.644 252.872 34.099 252.872 33.359V25.664H254.462V33.239C254.462 33.609 254.542 33.864 254.702 34.004C254.862 34.144 255.107 34.214 255.437 34.214H256.577V35.519H255.092ZM251.657 28.844V27.539H256.577V28.844H251.657ZM260.8 35.699C260.12 35.699 259.525 35.529 259.015 35.189C258.515 34.849 258.13 34.369 257.86 33.749C257.6 33.119 257.47 32.379 257.47 31.529C257.47 30.679 257.605 29.944 257.875 29.324C258.145 28.694 258.53 28.209 259.03 27.869C259.53 27.529 260.12 27.359 260.8 27.359C261.35 27.359 261.84 27.474 262.27 27.704C262.7 27.934 263.025 28.254 263.245 28.664V24.869H264.835V35.519H263.35L263.305 34.319C263.085 34.749 262.75 35.089 262.3 35.339C261.86 35.579 261.36 35.699 260.8 35.699ZM261.22 34.319C261.65 34.319 262.015 34.209 262.315 33.989C262.615 33.769 262.845 33.449 263.005 33.029C263.165 32.609 263.245 32.109 263.245 31.529C263.245 30.929 263.165 30.424 263.005 30.014C262.845 29.594 262.615 29.279 262.315 29.069C262.015 28.849 261.65 28.739 261.22 28.739C260.58 28.739 260.07 28.989 259.69 29.489C259.31 29.979 259.12 30.659 259.12 31.529C259.12 32.389 259.31 33.069 259.69 33.569C260.07 34.069 260.58 34.319 261.22 34.319ZM266.827 35.519V27.539H268.417V35.519H266.827ZM266.797 26.384V24.794H268.447V26.384H266.797ZM270.797 35.519V27.539H272.252L272.312 29.669L272.117 29.564C272.207 29.044 272.377 28.624 272.627 28.304C272.877 27.984 273.182 27.749 273.542 27.599C273.902 27.439 274.292 27.359 274.712 27.359C275.312 27.359 275.807 27.494 276.197 27.764C276.597 28.024 276.897 28.384 277.097 28.844C277.307 29.294 277.412 29.809 277.412 30.389V35.519H275.822V30.869C275.822 30.399 275.772 30.004 275.672 29.684C275.572 29.364 275.407 29.119 275.177 28.949C274.947 28.779 274.647 28.694 274.277 28.694C273.717 28.694 273.262 28.879 272.912 29.249C272.562 29.619 272.387 30.159 272.387 30.869V35.519H270.797ZM282.768 35.699C282.008 35.699 281.343 35.529 280.773 35.189C280.203 34.849 279.763 34.364 279.453 33.734C279.143 33.104 278.988 32.369 278.988 31.529C278.988 30.679 279.143 29.944 279.453 29.324C279.763 28.704 280.203 28.224 280.773 27.884C281.343 27.534 282.008 27.359 282.768 27.359C283.528 27.359 284.193 27.534 284.763 27.884C285.333 28.224 285.773 28.704 286.083 29.324C286.393 29.944 286.548 30.679 286.548 31.529C286.548 32.369 286.393 33.104 286.083 33.734C285.773 34.364 285.333 34.849 284.763 35.189C284.193 35.529 283.528 35.699 282.768 35.699ZM282.768 34.319C283.448 34.319 283.973 34.074 284.343 33.584C284.713 33.084 284.898 32.399 284.898 31.529C284.898 30.659 284.713 29.979 284.343 29.489C283.973 28.989 283.448 28.739 282.768 28.739C282.098 28.739 281.573 28.989 281.193 29.489C280.823 29.979 280.638 30.659 280.638 31.529C280.638 32.399 280.823 33.084 281.193 33.584C281.573 34.074 282.098 34.319 282.768 34.319ZM294.184 35.699C293.354 35.699 292.689 35.509 292.189 35.129C291.699 34.749 291.454 34.214 291.454 33.524C291.454 32.834 291.659 32.299 292.069 31.919C292.489 31.529 293.134 31.249 294.004 31.079L296.749 30.554C296.749 29.934 296.604 29.474 296.314 29.174C296.024 28.864 295.594 28.709 295.024 28.709C294.514 28.709 294.114 28.824 293.824 29.054C293.534 29.274 293.334 29.604 293.224 30.044L291.589 29.939C291.739 29.139 292.109 28.509 292.699 28.049C293.299 27.589 294.074 27.359 295.024 27.359C296.104 27.359 296.924 27.649 297.484 28.229C298.054 28.799 298.339 29.604 298.339 30.644V33.749C298.339 33.939 298.369 34.074 298.429 34.154C298.499 34.224 298.609 34.259 298.759 34.259H299.044V35.519C298.994 35.529 298.914 35.539 298.804 35.549C298.694 35.559 298.579 35.564 298.459 35.564C298.119 35.564 297.824 35.509 297.574 35.399C297.334 35.289 297.154 35.109 297.034 34.859C296.914 34.599 296.854 34.254 296.854 33.824L297.019 33.899C296.939 34.249 296.764 34.559 296.494 34.829C296.234 35.099 295.899 35.314 295.489 35.474C295.089 35.624 294.654 35.699 294.184 35.699ZM294.439 34.439C294.919 34.439 295.329 34.349 295.669 34.169C296.009 33.979 296.274 33.719 296.464 33.389C296.654 33.059 296.749 32.684 296.749 32.264V31.754L294.409 32.204C293.929 32.294 293.589 32.439 293.389 32.639C293.199 32.829 293.104 33.074 293.104 33.374C293.104 33.714 293.219 33.979 293.449 34.169C293.689 34.349 294.019 34.439 294.439 34.439ZM300.387 35.519V27.539H301.842L301.902 29.669L301.707 29.564C301.797 29.044 301.967 28.624 302.217 28.304C302.467 27.984 302.772 27.749 303.132 27.599C303.492 27.439 303.882 27.359 304.302 27.359C304.902 27.359 305.397 27.494 305.787 27.764C306.187 28.024 306.487 28.384 306.687 28.844C306.897 29.294 307.002 29.809 307.002 30.389V35.519H305.412V30.869C305.412 30.399 305.362 30.004 305.262 29.684C305.162 29.364 304.997 29.119 304.767 28.949C304.537 28.779 304.237 28.694 303.867 28.694C303.307 28.694 302.852 28.879 302.502 29.249C302.152 29.619 301.977 30.159 301.977 30.869V35.519H300.387ZM311.908 35.699C311.228 35.699 310.633 35.529 310.123 35.189C309.623 34.849 309.238 34.369 308.968 33.749C308.708 33.119 308.578 32.379 308.578 31.529C308.578 30.679 308.713 29.944 308.983 29.324C309.253 28.694 309.638 28.209 310.138 27.869C310.638 27.529 311.228 27.359 311.908 27.359C312.458 27.359 312.948 27.474 313.378 27.704C313.808 27.934 314.133 28.254 314.353 28.664V24.869H315.943V35.519H314.458L314.413 34.319C314.193 34.749 313.858 35.089 313.408 35.339C312.968 35.579 312.468 35.699 311.908 35.699ZM312.328 34.319C312.758 34.319 313.123 34.209 313.423 33.989C313.723 33.769 313.953 33.449 314.113 33.029C314.273 32.609 314.353 32.109 314.353 31.529C314.353 30.929 314.273 30.424 314.113 30.014C313.953 29.594 313.723 29.279 313.423 29.069C313.123 28.849 312.758 28.739 312.328 28.739C311.688 28.739 311.178 28.989 310.798 29.489C310.418 29.979 310.228 30.659 310.228 31.529C310.228 32.389 310.418 33.069 310.798 33.569C311.178 34.069 311.688 34.319 312.328 34.319ZM321.847 35.519V27.539H323.302L323.362 29.654L323.227 29.609C323.337 28.889 323.557 28.364 323.887 28.034C324.227 27.704 324.682 27.539 325.252 27.539H326.017V28.964H325.252C324.852 28.964 324.517 29.029 324.247 29.159C323.977 29.289 323.772 29.489 323.632 29.759C323.502 30.029 323.437 30.379 323.437 30.809V35.519H321.847ZM330.434 35.699C329.654 35.699 328.979 35.529 328.409 35.189C327.849 34.849 327.414 34.364 327.104 33.734C326.804 33.104 326.654 32.369 326.654 31.529C326.654 30.689 326.804 29.959 327.104 29.339C327.414 28.709 327.849 28.224 328.409 27.884C328.969 27.534 329.629 27.359 330.389 27.359C331.109 27.359 331.744 27.529 332.294 27.869C332.844 28.199 333.269 28.679 333.569 29.309C333.879 29.939 334.034 30.699 334.034 31.589V31.994H328.304C328.344 32.774 328.549 33.359 328.919 33.749C329.299 34.139 329.809 34.334 330.449 34.334C330.919 34.334 331.309 34.224 331.619 34.004C331.929 33.784 332.144 33.489 332.264 33.119L333.914 33.224C333.704 33.964 333.289 34.564 332.669 35.024C332.059 35.474 331.314 35.699 330.434 35.699ZM328.304 30.794H332.354C332.304 30.084 332.099 29.559 331.739 29.219C331.389 28.879 330.939 28.709 330.389 28.709C329.819 28.709 329.349 28.889 328.979 29.249C328.619 29.599 328.394 30.114 328.304 30.794ZM338.931 35.699C338.171 35.699 337.506 35.529 336.936 35.189C336.366 34.849 335.926 34.364 335.616 33.734C335.306 33.104 335.151 32.369 335.151 31.529C335.151 30.689 335.306 29.959 335.616 29.339C335.926 28.709 336.366 28.224 336.936 27.884C337.506 27.534 338.171 27.359 338.931 27.359C339.581 27.359 340.156 27.474 340.656 27.704C341.166 27.924 341.576 28.249 341.886 28.679C342.206 29.109 342.411 29.634 342.501 30.254L340.836 30.344C340.756 29.824 340.546 29.429 340.206 29.159C339.866 28.879 339.441 28.739 338.931 28.739C338.261 28.739 337.736 28.989 337.356 29.489C336.986 29.979 336.801 30.659 336.801 31.529C336.801 32.399 336.986 33.084 337.356 33.584C337.736 34.074 338.261 34.319 338.931 34.319C339.441 34.319 339.866 34.179 340.206 33.899C340.546 33.609 340.756 33.174 340.836 32.594L342.501 32.684C342.411 33.294 342.206 33.824 341.886 34.274C341.576 34.724 341.166 35.074 340.656 35.324C340.156 35.574 339.581 35.699 338.931 35.699ZM347.236 35.699C346.456 35.699 345.781 35.529 345.211 35.189C344.651 34.849 344.216 34.364 343.906 33.734C343.606 33.104 343.456 32.369 343.456 31.529C343.456 30.689 343.606 29.959 343.906 29.339C344.216 28.709 344.651 28.224 345.211 27.884C345.771 27.534 346.431 27.359 347.191 27.359C347.911 27.359 348.546 27.529 349.096 27.869C349.646 28.199 350.071 28.679 350.371 29.309C350.681 29.939 350.836 30.699 350.836 31.589V31.994H345.106C345.146 32.774 345.351 33.359 345.721 33.749C346.101 34.139 346.611 34.334 347.251 34.334C347.721 34.334 348.111 34.224 348.421 34.004C348.731 33.784 348.946 33.489 349.066 33.119L350.716 33.224C350.506 33.964 350.091 34.564 349.471 35.024C348.861 35.474 348.116 35.699 347.236 35.699ZM345.106 30.794H349.156C349.106 30.084 348.901 29.559 348.541 29.219C348.191 28.879 347.741 28.709 347.191 28.709C346.621 28.709 346.151 28.889 345.781 29.249C345.421 29.599 345.196 30.114 345.106 30.794ZM352.447 35.519V27.539H354.037V35.519H352.447ZM352.417 26.384V24.794H354.067V26.384H352.417ZM358.254 35.519L355.344 27.539H357.039L359.214 33.899L361.389 27.539H363.099L360.174 35.519H358.254ZM367.407 35.699C366.627 35.699 365.952 35.529 365.382 35.189C364.822 34.849 364.387 34.364 364.077 33.734C363.777 33.104 363.627 32.369 363.627 31.529C363.627 30.689 363.777 29.959 364.077 29.339C364.387 28.709 364.822 28.224 365.382 27.884C365.942 27.534 366.602 27.359 367.362 27.359C368.082 27.359 368.717 27.529 369.267 27.869C369.817 28.199 370.242 28.679 370.542 29.309C370.852 29.939 371.007 30.699 371.007 31.589V31.994H365.277C365.317 32.774 365.522 33.359 365.892 33.749C366.272 34.139 366.782 34.334 367.422 34.334C367.892 34.334 368.282 34.224 368.592 34.004C368.902 33.784 369.117 33.489 369.237 33.119L370.887 33.224C370.677 33.964 370.262 34.564 369.642 35.024C369.032 35.474 368.287 35.699 367.407 35.699ZM365.277 30.794H369.327C369.277 30.084 369.072 29.559 368.712 29.219C368.362 28.879 367.912 28.709 367.362 28.709C366.792 28.709 366.322 28.889 365.952 29.249C365.592 29.599 365.367 30.114 365.277 30.794ZM379.697 35.699C378.937 35.699 378.272 35.529 377.702 35.189C377.132 34.849 376.692 34.364 376.382 33.734C376.072 33.104 375.917 32.369 375.917 31.529C375.917 30.689 376.072 29.959 376.382 29.339C376.692 28.709 377.132 28.224 377.702 27.884C378.272 27.534 378.937 27.359 379.697 27.359C380.347 27.359 380.922 27.474 381.422 27.704C381.932 27.924 382.342 28.249 382.652 28.679C382.972 29.109 383.177 29.634 383.267 30.254L381.602 30.344C381.522 29.824 381.312 29.429 380.972 29.159C380.632 28.879 380.207 28.739 379.697 28.739C379.027 28.739 378.502 28.989 378.122 29.489C377.752 29.979 377.567 30.659 377.567 31.529C377.567 32.399 377.752 33.084 378.122 33.584C378.502 34.074 379.027 34.319 379.697 34.319C380.207 34.319 380.632 34.179 380.972 33.899C381.312 33.609 381.522 33.174 381.602 32.594L383.267 32.684C383.177 33.294 382.972 33.824 382.652 34.274C382.342 34.724 381.932 35.074 381.422 35.324C380.922 35.574 380.347 35.699 379.697 35.699ZM388.003 35.699C387.243 35.699 386.578 35.529 386.008 35.189C385.438 34.849 384.998 34.364 384.688 33.734C384.378 33.104 384.223 32.369 384.223 31.529C384.223 30.679 384.378 29.944 384.688 29.324C384.998 28.704 385.438 28.224 386.008 27.884C386.578 27.534 387.243 27.359 388.003 27.359C388.763 27.359 389.428 27.534 389.998 27.884C390.568 28.224 391.008 28.704 391.318 29.324C391.628 29.944 391.783 30.679 391.783 31.529C391.783 32.369 391.628 33.104 391.318 33.734C391.008 34.364 390.568 34.849 389.998 35.189C389.428 35.529 388.763 35.699 388.003 35.699ZM388.003 34.319C388.683 34.319 389.208 34.074 389.578 33.584C389.948 33.084 390.133 32.399 390.133 31.529C390.133 30.659 389.948 29.979 389.578 29.489C389.208 28.989 388.683 28.739 388.003 28.739C387.333 28.739 386.808 28.989 386.428 29.489C386.058 29.979 385.873 30.659 385.873 31.529C385.873 32.399 386.058 33.084 386.428 33.584C386.808 34.074 387.333 34.319 388.003 34.319ZM393.39 35.519V27.539H394.845L394.905 29.669L394.71 29.564C394.8 29.044 394.97 28.624 395.22 28.304C395.47 27.984 395.775 27.749 396.135 27.599C396.495 27.439 396.885 27.359 397.305 27.359C397.905 27.359 398.4 27.494 398.79 27.764C399.19 28.024 399.49 28.384 399.69 28.844C399.9 29.294 400.005 29.809 400.005 30.389V35.519H398.415V30.869C398.415 30.399 398.365 30.004 398.265 29.684C398.165 29.364 398 29.119 397.77 28.949C397.54 28.779 397.24 28.694 396.87 28.694C396.31 28.694 395.855 28.879 395.505 29.249C395.155 29.619 394.98 30.159 394.98 30.869V35.519H393.39ZM402.593 35.519V27.029C402.593 26.369 402.778 25.844 403.148 25.454C403.518 25.064 404.098 24.869 404.888 24.869H406.298V26.174H405.098C404.788 26.174 404.558 26.259 404.408 26.429C404.258 26.589 404.183 26.819 404.183 27.119V35.519H402.593ZM401.483 28.934V27.644H406.178V28.934H401.483ZM407.738 35.519V27.539H409.328V35.519H407.738ZM407.723 26.384V24.794H409.373V26.384H407.723ZM411.729 35.519V27.539H413.184L413.244 29.654L413.109 29.609C413.219 28.889 413.439 28.364 413.769 28.034C414.109 27.704 414.564 27.539 415.134 27.539H415.899V28.964H415.134C414.734 28.964 414.399 29.029 414.129 29.159C413.859 29.289 413.654 29.489 413.514 29.759C413.384 30.029 413.319 30.379 413.319 30.809V35.519H411.729ZM417.091 35.519V27.539H418.546L418.591 29.519L418.411 29.459C418.501 29.019 418.656 28.644 418.876 28.334C419.106 28.024 419.386 27.784 419.716 27.614C420.046 27.444 420.406 27.359 420.796 27.359C421.476 27.359 422.031 27.554 422.461 27.944C422.891 28.324 423.161 28.849 423.271 29.519H423.016C423.106 29.049 423.256 28.659 423.466 28.349C423.686 28.029 423.966 27.784 424.306 27.614C424.646 27.444 425.031 27.359 425.461 27.359C426.021 27.359 426.496 27.479 426.886 27.719C427.286 27.949 427.586 28.289 427.786 28.739C427.996 29.189 428.101 29.739 428.101 30.389V35.519H426.511V30.779C426.511 30.089 426.386 29.569 426.136 29.219C425.886 28.869 425.506 28.694 424.996 28.694C424.666 28.694 424.376 28.779 424.126 28.949C423.876 29.119 423.681 29.364 423.541 29.684C423.411 30.004 423.346 30.389 423.346 30.839V35.519H421.831V30.839C421.831 30.159 421.716 29.634 421.486 29.264C421.266 28.884 420.886 28.694 420.346 28.694C420.006 28.694 419.711 28.779 419.461 28.949C419.221 29.119 419.031 29.369 418.891 29.699C418.751 30.019 418.681 30.399 418.681 30.839V35.519H417.091ZM432.436 35.699C431.606 35.699 430.941 35.509 430.441 35.129C429.951 34.749 429.706 34.214 429.706 33.524C429.706 32.834 429.911 32.299 430.321 31.919C430.741 31.529 431.386 31.249 432.256 31.079L435.001 30.554C435.001 29.934 434.856 29.474 434.566 29.174C434.276 28.864 433.846 28.709 433.276 28.709C432.766 28.709 432.366 28.824 432.076 29.054C431.786 29.274 431.586 29.604 431.476 30.044L429.841 29.939C429.991 29.139 430.361 28.509 430.951 28.049C431.551 27.589 432.326 27.359 433.276 27.359C434.356 27.359 435.176 27.649 435.736 28.229C436.306 28.799 436.591 29.604 436.591 30.644V33.749C436.591 33.939 436.621 34.074 436.681 34.154C436.751 34.224 436.861 34.259 437.011 34.259H437.296V35.519C437.246 35.529 437.166 35.539 437.056 35.549C436.946 35.559 436.831 35.564 436.711 35.564C436.371 35.564 436.076 35.509 435.826 35.399C435.586 35.289 435.406 35.109 435.286 34.859C435.166 34.599 435.106 34.254 435.106 33.824L435.271 33.899C435.191 34.249 435.016 34.559 434.746 34.829C434.486 35.099 434.151 35.314 433.741 35.474C433.341 35.624 432.906 35.699 432.436 35.699ZM432.691 34.439C433.171 34.439 433.581 34.349 433.921 34.169C434.261 33.979 434.526 33.719 434.716 33.389C434.906 33.059 435.001 32.684 435.001 32.264V31.754L432.661 32.204C432.181 32.294 431.841 32.439 431.641 32.639C431.451 32.829 431.356 33.074 431.356 33.374C431.356 33.714 431.471 33.979 431.701 34.169C431.941 34.349 432.271 34.439 432.691 34.439ZM441.289 35.519C440.529 35.519 439.969 35.344 439.609 34.994C439.249 34.644 439.069 34.099 439.069 33.359V25.664H440.659V33.239C440.659 33.609 440.739 33.864 440.899 34.004C441.059 34.144 441.304 34.214 441.634 34.214H442.774V35.519H441.289ZM437.854 28.844V27.539H442.774V28.844H437.854ZM444.293 35.519V27.539H445.883V35.519H444.293ZM444.263 26.384V24.794H445.913V26.384H444.263ZM451.269 35.699C450.509 35.699 449.844 35.529 449.274 35.189C448.704 34.849 448.264 34.364 447.954 33.734C447.644 33.104 447.489 32.369 447.489 31.529C447.489 30.679 447.644 29.944 447.954 29.324C448.264 28.704 448.704 28.224 449.274 27.884C449.844 27.534 450.509 27.359 451.269 27.359C452.029 27.359 452.694 27.534 453.264 27.884C453.834 28.224 454.274 28.704 454.584 29.324C454.894 29.944 455.049 30.679 455.049 31.529C455.049 32.369 454.894 33.104 454.584 33.734C454.274 34.364 453.834 34.849 453.264 35.189C452.694 35.529 452.029 35.699 451.269 35.699ZM451.269 34.319C451.949 34.319 452.474 34.074 452.844 33.584C453.214 33.084 453.399 32.399 453.399 31.529C453.399 30.659 453.214 29.979 452.844 29.489C452.474 28.989 451.949 28.739 451.269 28.739C450.599 28.739 450.074 28.989 449.694 29.489C449.324 29.979 449.139 30.659 449.139 31.529C449.139 32.399 449.324 33.084 449.694 33.584C450.074 34.074 450.599 34.319 451.269 34.319ZM456.656 35.519V27.539H458.111L458.171 29.669L457.976 29.564C458.066 29.044 458.236 28.624 458.486 28.304C458.736 27.984 459.041 27.749 459.401 27.599C459.761 27.439 460.151 27.359 460.571 27.359C461.171 27.359 461.666 27.494 462.056 27.764C462.456 28.024 462.756 28.384 462.956 28.844C463.166 29.294 463.271 29.809 463.271 30.389V35.519H461.681V30.869C461.681 30.399 461.631 30.004 461.531 29.684C461.431 29.364 461.266 29.119 461.036 28.949C460.806 28.779 460.506 28.694 460.136 28.694C459.576 28.694 459.121 28.879 458.771 29.249C458.421 29.619 458.246 30.159 458.246 30.869V35.519H456.656Z" fill="#0F172A"/>
<rect x="20.5195" y="52.7791" width="58.9924" height="15.3893" rx="3.41985" fill="#E2E8F0" fill-opacity="0.5"/>
<rect x="89.7715" y="52.7791" width="58.9924" height="15.3893" rx="3.41985" fill="#E2E8F0" fill-opacity="0.5"/>
<rect x="159.023" y="52.7791" width="47.0229" height="15.3893" rx="3.41985" fill="#E2E8F0" fill-opacity="0.5"/>
<rect x="216.306" y="52.7791" width="113.71" height="15.3893" rx="3.41985" fill="#E2E8F0" fill-opacity="0.5"/>
<rect x="340.275" y="52.7791" width="112" height="15.3893" rx="3.41985" fill="#E2E8F0" fill-opacity="0.5"/>
<rect x="20.5195" y="79.5115" width="287.42" height="32.9401" rx="5.49001" fill="#F1F5F9"/>
<path d="M24.1797 85.0016C24.1797 83.4856 25.4087 82.2566 26.9247 82.2566H118.525C120.041 82.2566 121.27 83.4856 121.27 85.0016V106.962C121.27 108.478 120.041 109.707 118.525 109.707H26.9247C25.4087 109.707 24.1797 108.478 24.1797 106.962V85.0016Z" fill="white"/>
<g opacity="0.6">
<path d="M40.7649 94.247V93.1795C40.7649 92.3022 40.7649 91.8635 40.5225 91.5683C40.4782 91.5142 40.4286 91.4647 40.3746 91.4203C40.0793 91.178 39.6406 91.178 38.7633 91.178C37.8859 91.178 37.4473 91.178 37.152 91.4203C37.098 91.4647 37.0484 91.5142 37.004 91.5683C36.7617 91.8635 36.7617 92.3022 36.7617 93.1795V94.247C36.7617 95.1244 36.7617 95.5631 37.004 95.8583C37.0484 95.9124 37.098 95.9619 37.152 96.0063C37.4473 96.2486 37.8859 96.2486 38.7633 96.2486C39.6406 96.2486 40.0793 96.2486 40.3746 96.0063C40.4286 95.9619 40.4782 95.9124 40.5225 95.8583C40.7649 95.5631 40.7649 95.1244 40.7649 94.247Z" stroke="#475569" stroke-width="0.610001" stroke-linejoin="round"/>
<path d="M39.297 97.8499H38.2295C37.8571 97.8499 37.6709 97.8499 37.5193 97.8958C37.1782 97.9993 36.9112 98.2663 36.8077 98.6075C36.7617 98.759 36.7617 98.9452 36.7617 99.3177C36.7617 99.6901 36.7617 99.8763 36.8077 100.028C36.9112 100.369 37.1782 100.636 37.5193 100.74C37.6709 100.785 37.8571 100.785 38.2295 100.785H39.297C39.6695 100.785 39.8557 100.785 40.0072 100.74C40.3484 100.636 40.6154 100.369 40.7189 100.028C40.7649 99.8763 40.7649 99.6901 40.7649 99.3177C40.7649 98.9452 40.7649 98.759 40.7189 98.6075C40.6154 98.2663 40.3484 97.9993 40.0072 97.8958C39.8557 97.8499 39.6695 97.8499 39.297 97.8499Z" stroke="#475569" stroke-width="0.610001" stroke-linejoin="round"/>
<path d="M46.3693 98.7839V97.7164C46.3693 96.8391 46.3693 96.4004 46.127 96.1051C46.0827 96.0511 46.0331 96.0015 45.9791 95.9572C45.6838 95.7148 45.2451 95.7148 44.3678 95.7148C43.4905 95.7148 43.0518 95.7148 42.7565 95.9572C42.7024 96.0015 42.6529 96.0511 42.6085 96.1051C42.3662 96.4004 42.3662 96.8391 42.3662 97.7164V98.7839C42.3662 99.6612 42.3662 100.1 42.6085 100.395C42.6529 100.449 42.7024 100.499 42.7565 100.543C43.0518 100.785 43.4905 100.785 44.3678 100.785C45.2451 100.785 45.6838 100.785 45.9791 100.543C46.0331 100.499 46.0827 100.449 46.127 100.395C46.3693 100.1 46.3693 99.6612 46.3693 98.7839Z" stroke="#475569" stroke-width="0.610001" stroke-linejoin="round"/>
<path d="M44.9015 91.178H43.834C43.4616 91.178 43.2753 91.178 43.1238 91.2239C42.7826 91.3274 42.5157 91.5944 42.4122 91.9356C42.3662 92.0871 42.3662 92.2734 42.3662 92.6458C42.3662 93.0182 42.3662 93.2045 42.4122 93.356C42.5157 93.6972 42.7826 93.9641 43.1238 94.0676C43.2753 94.1136 43.4616 94.1136 43.834 94.1136H44.9015C45.274 94.1136 45.4602 94.1136 45.6117 94.0676C45.9529 93.9641 46.2199 93.6972 46.3234 93.356C46.3693 93.2045 46.3693 93.0182 46.3693 92.6458C46.3693 92.2734 46.3693 92.0871 46.3234 91.9356C46.2199 91.5944 45.9529 91.3274 45.6117 91.2239C45.4602 91.178 45.274 91.178 44.9015 91.178Z" stroke="#475569" stroke-width="0.610001" stroke-linejoin="round"/>
</g>
<path opacity="0.6" d="M60.0169 100.687C59.1544 100.687 58.4114 100.499 57.788 100.123C57.1731 99.7387 56.6991 99.1921 56.3661 98.4833C56.033 97.7745 55.8665 96.929 55.8665 95.9469C55.8665 94.9648 56.033 94.1194 56.3661 93.4106C56.6991 92.6932 57.1731 92.1424 57.788 91.7581C58.4114 91.3738 59.1544 91.1816 60.0169 91.1816C60.888 91.1816 61.631 91.3738 62.2459 91.7581C62.8693 92.1424 63.3475 92.6932 63.6806 93.4106C64.0137 94.1194 64.1802 94.9648 64.1802 95.9469C64.1802 96.929 64.0137 97.7745 63.6806 98.4833C63.3475 99.1921 62.8693 99.7387 62.2459 100.123C61.631 100.499 60.888 100.687 60.0169 100.687ZM60.0169 99.6106C60.6489 99.6106 61.1869 99.4654 61.631 99.1751C62.0836 98.8847 62.4295 98.4662 62.6686 97.9197C62.9077 97.3731 63.0273 96.7155 63.0273 95.9469C63.0273 95.1783 62.9077 94.5208 62.6686 93.9742C62.4295 93.4191 62.0836 92.9964 61.631 92.706C61.1869 92.4071 60.6489 92.2577 60.0169 92.2577C59.3935 92.2577 58.8555 92.4071 58.4029 92.706C57.9588 92.9964 57.6172 93.4191 57.3781 93.9742C57.139 94.5208 57.0194 95.1783 57.0194 95.9469C57.0194 96.7155 57.139 97.3731 57.3781 97.9197C57.6172 98.4662 57.9588 98.8847 58.4029 99.1751C58.8555 99.4654 59.3935 99.6106 60.0169 99.6106ZM67.3265 100.482L64.8541 93.6924H66.0326L68.0054 99.38L69.9781 93.6924H71.1567L68.6843 100.482H67.3265ZM74.7789 100.635C74.1384 100.635 73.5833 100.49 73.1136 100.2C72.6524 99.9095 72.2937 99.4996 72.0375 98.9701C71.7899 98.4321 71.6661 97.8044 71.6661 97.087C71.6661 96.3697 71.7899 95.7462 72.0375 95.2168C72.2937 94.6873 72.6482 94.2774 73.1008 93.987C73.5619 93.6881 74.1042 93.5387 74.7277 93.5387C75.3169 93.5387 75.8379 93.6796 76.2905 93.9614C76.7431 94.2347 77.0932 94.636 77.3409 95.1655C77.5971 95.695 77.7252 96.3398 77.7252 97.0998V97.4201H72.7933C72.836 98.146 73.0282 98.6926 73.3698 99.0598C73.7199 99.427 74.1896 99.6106 74.7789 99.6106C75.223 99.6106 75.5859 99.5081 75.8677 99.3032C76.1581 99.0897 76.3588 98.8121 76.4698 98.4705L77.6227 98.5602C77.4434 99.1665 77.1018 99.6661 76.5979 100.059C76.1026 100.443 75.4963 100.635 74.7789 100.635ZM72.7933 96.4722H76.5467C76.4954 95.8146 76.3033 95.3321 75.9702 95.0246C75.6457 94.7172 75.2315 94.5635 74.7277 94.5635C74.2067 94.5635 73.7754 94.7257 73.4338 95.0502C73.1008 95.3662 72.8873 95.8402 72.7933 96.4722ZM79.1827 100.482V93.6924H80.1307L80.1819 95.4089L80.0794 95.3705C80.1648 94.7898 80.3485 94.367 80.6303 94.1023C80.9206 93.829 81.3049 93.6924 81.7832 93.6924H82.4493V94.7172H81.796C81.4544 94.7172 81.1683 94.7812 80.9377 94.9093C80.7157 95.0289 80.5449 95.2125 80.4253 95.4602C80.3143 95.6993 80.2588 96.0067 80.2588 96.3825V100.482H79.1827ZM85.4406 100.482L82.9683 93.6924H84.1468L86.1196 99.38L88.0923 93.6924H89.2708L86.7985 100.482H85.4406ZM90.4541 100.482V93.6924H91.5301V100.482H90.4541ZM90.4284 92.6291V91.3738H91.5557V92.6291H90.4284ZM96.1081 100.635C95.4676 100.635 94.9125 100.49 94.4428 100.2C93.9816 99.9095 93.6229 99.4996 93.3667 98.9701C93.1191 98.4321 92.9953 97.8044 92.9953 97.087C92.9953 96.3697 93.1191 95.7462 93.3667 95.2168C93.6229 94.6873 93.9774 94.2774 94.43 93.987C94.8911 93.6881 95.4334 93.5387 96.0568 93.5387C96.6461 93.5387 97.1671 93.6796 97.6197 93.9614C98.0723 94.2347 98.4224 94.636 98.6701 95.1655C98.9263 95.695 99.0544 96.3398 99.0544 97.0998V97.4201H94.1225C94.1652 98.146 94.3574 98.6926 94.699 99.0598C95.0491 99.427 95.5188 99.6106 96.1081 99.6106C96.5522 99.6106 96.9151 99.5081 97.1969 99.3032C97.4873 99.0897 97.688 98.8121 97.799 98.4705L98.9519 98.5602C98.7726 99.1665 98.431 99.6661 97.9271 100.059C97.4318 100.443 96.8254 100.635 96.1081 100.635ZM94.1225 96.4722H97.8759C97.8246 95.8146 97.6325 95.3321 97.2994 95.0246C96.9749 94.7172 96.5607 94.5635 96.0568 94.5635C95.5359 94.5635 95.1046 94.7257 94.763 95.0502C94.43 95.3662 94.2165 95.8402 94.1225 96.4722ZM101.67 100.482L99.5688 93.6924H100.747L102.336 99.3544L103.95 93.6924H105.103L106.717 99.3544L108.318 93.6924H109.497L107.396 100.482H106.038L104.526 95.3192L103.015 100.482H101.67Z" fill="#475569"/>
<g opacity="0.6">
<path d="M138.654 101.319C141.602 101.319 143.992 98.9291 143.992 95.9813C143.992 93.0335 141.602 90.6438 138.654 90.6438C135.707 90.6438 133.317 93.0335 133.317 95.9813C133.317 98.9291 135.707 101.319 138.654 101.319Z" stroke="#0F172A" stroke-width="0.610001"/>
<path d="M138.654 93.8464V95.9814L139.722 97.0489" stroke="black" stroke-width="0.610001" stroke-linecap="round" stroke-linejoin="round"/>
</g>
<path opacity="0.6" d="M153.558 100.481V91.3863H154.66V95.8058L154.096 95.3702H159.796L159.233 95.8058V91.3863H160.334V100.481H159.233V96.0107L159.796 96.4463H154.096L154.66 96.0107V100.481H153.558ZM162.286 100.481V93.6921H163.362V100.481H162.286ZM162.261 92.6289V91.3735H163.388V92.6289H162.261ZM167.761 100.635C167.154 100.635 166.638 100.537 166.211 100.341C165.792 100.144 165.464 99.8751 165.224 99.5335C164.994 99.1834 164.861 98.7863 164.827 98.3422L165.955 98.2653C166.023 98.6752 166.198 99.004 166.48 99.2517C166.762 99.4908 167.189 99.6104 167.761 99.6104C168.222 99.6104 168.589 99.5378 168.862 99.3926C169.144 99.2389 169.285 98.9955 169.285 98.6624C169.285 98.4831 169.243 98.3336 169.157 98.2141C169.072 98.0945 168.905 97.992 168.658 97.9066C168.41 97.8127 168.043 97.723 167.556 97.6376C166.907 97.5181 166.394 97.3729 166.019 97.2021C165.651 97.0227 165.387 96.805 165.224 96.5488C165.071 96.284 164.994 95.9723 164.994 95.6136C164.994 95.0073 165.216 94.512 165.66 94.1277C166.104 93.7348 166.736 93.5384 167.556 93.5384C168.111 93.5384 168.576 93.6409 168.952 93.8459C169.336 94.0423 169.635 94.307 169.849 94.6401C170.071 94.9646 170.216 95.3233 170.284 95.7161L169.157 95.793C169.106 95.5539 169.012 95.3446 168.875 95.1653C168.739 94.9774 168.559 94.8322 168.337 94.7297C168.115 94.6187 167.851 94.5632 167.543 94.5632C167.056 94.5632 166.698 94.6572 166.467 94.845C166.236 95.0329 166.121 95.272 166.121 95.5624C166.121 95.7844 166.172 95.968 166.275 96.1132C166.386 96.2499 166.561 96.3652 166.8 96.4591C167.039 96.5445 167.359 96.6214 167.761 96.6897C168.453 96.8092 168.991 96.9544 169.375 97.1252C169.759 97.296 170.028 97.5052 170.182 97.7529C170.336 98.0006 170.413 98.3037 170.413 98.6624C170.413 99.0809 170.293 99.4396 170.054 99.7385C169.823 100.029 169.507 100.251 169.106 100.405C168.713 100.558 168.265 100.635 167.761 100.635ZM174.104 100.481C173.489 100.481 173.032 100.341 172.733 100.059C172.443 99.7769 172.297 99.3371 172.297 98.7393V92.1037H173.373V98.7137C173.373 99.0211 173.442 99.2346 173.578 99.3542C173.715 99.4737 173.924 99.5335 174.206 99.5335H175.18V100.481H174.104ZM171.298 94.6401V93.6921H175.18V94.6401H171.298ZM179.086 100.635C178.463 100.635 177.916 100.49 177.447 100.2C176.977 99.9093 176.614 99.4993 176.358 98.9699C176.102 98.4318 175.974 97.8041 175.974 97.0868C175.974 96.3609 176.102 95.7332 176.358 95.2037C176.614 94.6742 176.977 94.2643 177.447 93.974C177.916 93.6836 178.463 93.5384 179.086 93.5384C179.71 93.5384 180.252 93.6836 180.713 93.974C181.183 94.2643 181.546 94.6742 181.802 95.2037C182.058 95.7332 182.186 96.3609 182.186 97.0868C182.186 97.8041 182.058 98.4318 181.802 98.9699C181.546 99.4993 181.183 99.9093 180.713 100.2C180.252 100.49 179.71 100.635 179.086 100.635ZM179.086 99.6104C179.71 99.6104 180.192 99.3883 180.534 98.9442C180.884 98.4916 181.059 97.8725 181.059 97.0868C181.059 96.3011 180.884 95.6862 180.534 95.2421C180.192 94.7895 179.71 94.5632 179.086 94.5632C178.463 94.5632 177.976 94.7895 177.626 95.2421C177.276 95.6862 177.101 96.3011 177.101 97.0868C177.101 97.8725 177.276 98.4916 177.626 98.9442C177.976 99.3883 178.463 99.6104 179.086 99.6104ZM183.653 100.481V93.6921H184.601L184.652 95.4087L184.55 95.3702C184.635 94.7895 184.819 94.3668 185.1 94.1021C185.391 93.8288 185.775 93.6921 186.253 93.6921H186.919V94.7169H186.266C185.925 94.7169 185.638 94.781 185.408 94.9091C185.186 95.0286 185.015 95.2123 184.895 95.4599C184.784 95.699 184.729 96.0065 184.729 96.3822V100.481H183.653ZM188.476 102.403V101.455H189.257C189.497 101.455 189.672 101.417 189.783 101.34C189.902 101.271 189.992 101.156 190.052 100.994L190.295 100.353H189.924L187.438 93.6921H188.617L190.641 99.3542L192.575 93.6921H193.754L191 101.34C190.872 101.707 190.679 101.976 190.423 102.147C190.167 102.318 189.813 102.403 189.36 102.403H188.476Z" fill="#475569"/>
<g opacity="0.6">
<path d="M222.44 92.9314L222.125 93.7818C221.713 94.8968 221.506 95.4544 221.1 95.8611C220.693 96.2678 220.135 96.4741 219.02 96.8868L218.17 97.2014L219.02 97.516C220.135 97.9287 220.693 98.135 221.1 98.5417C221.506 98.9485 221.713 99.506 222.125 100.621L222.44 101.471L222.755 100.621C223.167 99.506 223.374 98.9485 223.78 98.5417C224.187 98.135 224.745 97.9287 225.86 97.516L226.71 97.2014L225.86 96.8868C224.745 96.4741 224.187 96.2678 223.78 95.8611C223.374 95.4544 223.167 94.8968 222.755 93.7818L222.44 92.9314Z" stroke="#235EE7" stroke-width="1.05225" stroke-linejoin="round"/>
<path d="M227.32 90.4915L227.185 90.8559C227.008 91.3338 226.92 91.5727 226.745 91.747C226.571 91.9213 226.332 92.0098 225.854 92.1866L225.49 92.3215L225.854 92.4563C226.332 92.6332 226.571 92.7216 226.745 92.8959C226.92 93.0702 227.008 93.3091 227.185 93.787L227.32 94.1515L227.455 93.787C227.631 93.3091 227.72 93.0702 227.894 92.8959C228.068 92.7216 228.307 92.6332 228.785 92.4563L229.15 92.3215L228.785 92.1866C228.307 92.0098 228.068 91.9213 227.894 91.747C227.72 91.5727 227.631 91.3338 227.455 90.8559L227.32 90.4915Z" stroke="#235EE7" stroke-width="0.732002" stroke-linejoin="round"/>
</g>
<path opacity="0.6" d="M238.556 100.481L241.835 91.3863H243.321L246.601 100.481H245.397L244.487 97.8938H240.67L239.76 100.481H238.556ZM241.041 96.8178H244.116L242.578 92.3471L241.041 96.8178ZM247.785 100.481V91.3863H248.886V100.481H247.785ZM254.286 100.481V93.6921H255.362V100.481H254.286ZM254.261 92.6289V91.3735H255.388V92.6289H254.261ZM257.539 100.481V93.6921H258.525L258.564 95.4215L258.436 95.3062C258.521 94.9048 258.67 94.576 258.884 94.3198C259.097 94.0551 259.354 93.8587 259.653 93.7306C259.96 93.6025 260.289 93.5384 260.639 93.5384C261.16 93.5384 261.587 93.6537 261.92 93.8843C262.261 94.1149 262.513 94.4266 262.676 94.8194C262.846 95.2037 262.932 95.635 262.932 96.1132V100.481H261.856V96.4207C261.856 96.0022 261.805 95.6521 261.702 95.3702C261.608 95.0799 261.454 94.8621 261.241 94.7169C261.027 94.5632 260.75 94.4864 260.408 94.4864C259.887 94.4864 259.456 94.6529 259.114 94.9859C258.781 95.3105 258.615 95.7887 258.615 96.4207V100.481H257.539ZM267.304 100.635C266.698 100.635 266.181 100.537 265.754 100.341C265.336 100.144 265.007 99.8751 264.768 99.5335C264.537 99.1834 264.405 98.7863 264.371 98.3422L265.498 98.2653C265.567 98.6752 265.742 99.004 266.023 99.2517C266.305 99.4908 266.732 99.6104 267.304 99.6104C267.766 99.6104 268.133 99.5378 268.406 99.3926C268.688 99.2389 268.829 98.9955 268.829 98.6624C268.829 98.4831 268.786 98.3336 268.701 98.2141C268.615 98.0945 268.449 97.992 268.201 97.9066C267.953 97.8127 267.586 97.723 267.099 97.6376C266.45 97.5181 265.938 97.3729 265.562 97.2021C265.195 97.0227 264.93 96.805 264.768 96.5488C264.614 96.284 264.537 95.9723 264.537 95.6136C264.537 95.0073 264.759 94.512 265.204 94.1277C265.648 93.7348 266.28 93.5384 267.099 93.5384C267.655 93.5384 268.12 93.6409 268.496 93.8459C268.88 94.0423 269.179 94.307 269.392 94.6401C269.614 94.9646 269.76 95.3233 269.828 95.7161L268.701 95.793C268.649 95.5539 268.556 95.3446 268.419 95.1653C268.282 94.9774 268.103 94.8322 267.881 94.7297C267.659 94.6187 267.394 94.5632 267.087 94.5632C266.6 94.5632 266.241 94.6572 266.011 94.845C265.78 95.0329 265.665 95.272 265.665 95.5624C265.665 95.7844 265.716 95.968 265.818 96.1132C265.929 96.2499 266.105 96.3652 266.344 96.4591C266.583 96.5445 266.903 96.6214 267.304 96.6897C267.996 96.8092 268.534 96.9544 268.918 97.1252C269.303 97.296 269.572 97.5052 269.726 97.7529C269.879 98.0006 269.956 98.3037 269.956 98.6624C269.956 99.0809 269.837 99.4396 269.597 99.7385C269.367 100.029 269.051 100.251 268.649 100.405C268.257 100.558 267.808 100.635 267.304 100.635ZM271.425 100.481V93.6921H272.501V100.481H271.425ZM271.399 92.6289V91.3735H272.526V92.6289H271.399ZM277.002 102.557C276.515 102.557 276.075 102.476 275.682 102.313C275.29 102.151 274.961 101.92 274.696 101.622C274.431 101.323 274.252 100.977 274.158 100.584L275.285 100.507C275.388 100.823 275.567 101.071 275.823 101.25C276.088 101.438 276.481 101.532 277.002 101.532C277.617 101.532 278.086 101.408 278.411 101.16C278.744 100.913 278.911 100.541 278.911 100.046V98.9442C278.748 99.3029 278.488 99.589 278.129 99.8025C277.77 100.016 277.369 100.123 276.925 100.123C276.353 100.123 275.84 99.9819 275.388 99.7C274.944 99.4182 274.594 99.0296 274.337 98.5343C274.09 98.039 273.966 97.4711 273.966 96.8306C273.966 96.1815 274.09 95.6136 274.337 95.1269C274.585 94.6315 274.927 94.243 275.362 93.9611C275.806 93.6793 276.31 93.5384 276.874 93.5384C277.352 93.5384 277.779 93.6494 278.155 93.8715C278.539 94.0935 278.808 94.3924 278.962 94.7682V93.6921H279.987V100.02C279.987 100.55 279.867 101.002 279.628 101.378C279.389 101.762 279.047 102.053 278.603 102.249C278.159 102.454 277.625 102.557 277.002 102.557ZM276.976 99.098C277.557 99.098 278.022 98.8973 278.373 98.4959C278.723 98.086 278.902 97.5309 278.911 96.8306C278.919 96.3609 278.842 95.9595 278.68 95.6264C278.526 95.2848 278.3 95.0244 278.001 94.845C277.711 94.6572 277.369 94.5632 276.976 94.5632C276.378 94.5632 275.913 94.7682 275.58 95.1781C275.255 95.5795 275.093 96.1303 275.093 96.8306C275.093 97.5309 275.26 98.086 275.593 98.4959C275.934 98.8973 276.396 99.098 276.976 99.098ZM281.845 100.481V91.3863H282.921V95.1909L282.793 95.1653C282.879 94.7895 283.024 94.4821 283.229 94.243C283.434 94.0038 283.686 93.8288 283.985 93.7178C284.284 93.5982 284.612 93.5384 284.971 93.5384C285.458 93.5384 285.868 93.6494 286.201 93.8715C286.542 94.085 286.799 94.3881 286.969 94.781C287.149 95.1653 287.238 95.6094 287.238 96.1132V100.481H286.162V96.4207C286.162 95.7631 286.043 95.2763 285.804 94.9603C285.573 94.6443 285.219 94.4864 284.74 94.4864C284.194 94.4864 283.754 94.6529 283.421 94.9859C283.088 95.319 282.921 95.8015 282.921 96.4335V100.481H281.845ZM291.261 100.481C290.646 100.481 290.189 100.341 289.89 100.059C289.6 99.7769 289.455 99.3371 289.455 98.7393V92.1037H290.531V98.7137C290.531 99.0211 290.599 99.2346 290.736 99.3542C290.872 99.4737 291.082 99.5335 291.363 99.5335H292.337V100.481H291.261ZM288.456 94.6401V93.6921H292.337V94.6401H288.456Z" fill="url(#paint0_linear_603_14913)"/>
<rect x="273" y="222.969" width="125" height="26" rx="3.70483" fill="#E2E8F0" fill-opacity="0.5"/>
<rect x="410" y="222.969" width="125" height="26" rx="3.70483" fill="#E2E8F0" fill-opacity="0.5"/>
<rect x="21.4452" y="128.445" width="241.11" height="81.1096" rx="4.89737" fill="white"/>
<rect x="21.4452" y="128.445" width="241.11" height="81.1096" rx="4.89737" stroke="#E2E8F0" stroke-width="0.89043"/>
<path d="M46.6335 149.481C45.9271 149.481 45.3121 149.352 44.7885 149.095C44.2733 148.837 43.866 148.48 43.5669 148.022C43.2677 147.565 43.0931 147.033 43.0433 146.427L44.427 146.34C44.4852 146.755 44.6057 147.108 44.7885 147.399C44.9714 147.682 45.2165 147.898 45.524 148.047C45.8398 148.189 46.218 148.259 46.6584 148.259C47.0407 148.259 47.3648 148.214 47.6308 148.122C47.905 148.022 48.1128 147.877 48.2541 147.686C48.3954 147.495 48.466 147.262 48.466 146.988C48.466 146.738 48.4037 146.518 48.279 146.327C48.1627 146.128 47.9341 145.949 47.5934 145.791C47.261 145.625 46.7706 145.463 46.1224 145.305C45.416 145.13 44.8509 144.939 44.427 144.731C44.0032 144.524 43.6957 144.266 43.5045 143.959C43.3217 143.643 43.2303 143.256 43.2303 142.799C43.2303 142.292 43.3508 141.848 43.5918 141.465C43.8411 141.075 44.1943 140.771 44.6514 140.555C45.1085 140.339 45.657 140.231 46.2969 140.231C46.9701 140.231 47.5435 140.356 48.0172 140.605C48.4992 140.854 48.8774 141.195 49.1516 141.627C49.4342 142.06 49.6087 142.554 49.6752 143.111L48.2915 143.186C48.2499 142.845 48.146 142.546 47.9798 142.288C47.8136 142.022 47.5892 141.819 47.3067 141.677C47.0241 141.528 46.6792 141.453 46.272 141.453C45.7567 141.453 45.3495 141.573 45.0503 141.814C44.7594 142.047 44.614 142.359 44.614 142.749C44.614 142.999 44.6722 143.211 44.7885 143.385C44.9132 143.551 45.1293 143.697 45.4368 143.821C45.7526 143.946 46.1972 144.079 46.7706 144.22C47.5352 144.395 48.1419 144.611 48.5907 144.869C49.0477 145.118 49.3719 145.413 49.563 145.754C49.7542 146.094 49.8497 146.481 49.8497 146.913C49.8497 147.437 49.7126 147.894 49.4384 148.284C49.1724 148.667 48.7984 148.962 48.3164 149.169C47.8344 149.377 47.2734 149.481 46.6335 149.481ZM53.7124 149.281C53.0808 149.281 52.6154 149.136 52.3162 148.845C52.0171 148.554 51.8675 148.101 51.8675 147.486V141.091H53.1889V147.387C53.1889 147.694 53.2554 147.906 53.3883 148.022C53.5213 148.139 53.7249 148.197 53.9992 148.197H54.9466V149.281H53.7124ZM50.8577 143.734V142.65H54.9466V143.734H50.8577ZM58.0303 149.431C57.3405 149.431 56.7878 149.273 56.3723 148.957C55.9651 148.642 55.7614 148.197 55.7614 147.624C55.7614 147.05 55.9318 146.605 56.2726 146.29C56.6216 145.966 57.1576 145.733 57.8807 145.592L60.162 145.155C60.162 144.64 60.0414 144.258 59.8004 144.008C59.5594 143.751 59.2021 143.622 58.7284 143.622C58.3045 143.622 57.9721 143.717 57.7311 143.909C57.4901 144.091 57.3239 144.366 57.2324 144.731L55.8736 144.644C55.9983 143.979 56.3058 143.456 56.7961 143.073C57.2948 142.691 57.9388 142.5 58.7284 142.5C59.6259 142.5 60.3074 142.741 60.7728 143.223C61.2465 143.697 61.4834 144.366 61.4834 145.23V147.811C61.4834 147.968 61.5083 148.081 61.5581 148.147C61.6163 148.205 61.7077 148.234 61.8324 148.234H62.0693V149.281C62.0277 149.29 61.9612 149.298 61.8698 149.306C61.7784 149.315 61.6828 149.319 61.5831 149.319C61.3005 149.319 61.0554 149.273 60.8476 149.182C60.6481 149.09 60.4985 148.941 60.3988 148.733C60.2991 148.517 60.2492 148.23 60.2492 147.873L60.3863 147.935C60.3199 148.226 60.1744 148.484 59.95 148.708C59.734 148.932 59.4555 149.111 59.1148 149.244C58.7824 149.369 58.4209 149.431 58.0303 149.431ZM58.2422 148.384C58.6411 148.384 58.9818 148.309 59.2644 148.16C59.547 148.002 59.7672 147.786 59.9251 147.511C60.083 147.237 60.162 146.925 60.162 146.576V146.153L58.2173 146.527C57.8183 146.601 57.5358 146.722 57.3696 146.888C57.2117 147.046 57.1327 147.25 57.1327 147.499C57.1327 147.781 57.2283 148.002 57.4194 148.16C57.6189 148.309 57.8931 148.384 58.2422 148.384ZM65.3872 149.281C64.7555 149.281 64.2902 149.136 63.991 148.845C63.6918 148.554 63.5422 148.101 63.5422 147.486V141.091H64.8636V147.387C64.8636 147.694 64.9301 147.906 65.063 148.022C65.196 148.139 65.3996 148.197 65.6739 148.197H66.6213V149.281H65.3872ZM62.5324 143.734V142.65H66.6213V143.734H62.5324ZM70.09 149.431C69.4251 149.431 68.8932 149.211 68.4943 148.77C68.1037 148.322 67.9084 147.702 67.9084 146.913V142.65H69.2298V146.576C69.2298 147.175 69.3337 147.615 69.5415 147.898C69.7492 148.18 70.065 148.322 70.4889 148.322C70.9709 148.322 71.3449 148.168 71.6108 147.86C71.8851 147.545 72.0222 147.104 72.0222 146.539V142.65H73.3436V149.281H72.1095L72.0845 147.549L72.2715 147.624C72.1552 148.205 71.91 148.654 71.536 148.97C71.162 149.277 70.68 149.431 70.09 149.431ZM77.6465 149.431C77.0232 149.431 76.4955 149.336 76.0633 149.144C75.6395 148.953 75.3112 148.691 75.0785 148.359C74.8458 148.018 74.7128 147.628 74.6796 147.187L76.0384 147.125C76.1049 147.491 76.2628 147.781 76.5121 147.997C76.7614 148.214 77.1396 148.322 77.6465 148.322C78.0621 148.322 78.3903 148.255 78.6313 148.122C78.8723 147.989 78.9928 147.777 78.9928 147.486C78.9928 147.328 78.9513 147.196 78.8682 147.087C78.7934 146.971 78.6438 146.876 78.4194 146.801C78.195 146.718 77.8626 146.639 77.4221 146.564C76.7656 146.439 76.2503 146.294 75.8763 146.128C75.5024 145.961 75.2364 145.749 75.0785 145.492C74.9206 145.234 74.8417 144.923 74.8417 144.557C74.8417 143.95 75.0661 143.456 75.5148 143.073C75.9719 142.691 76.6285 142.5 77.4845 142.5C78.0579 142.5 78.5399 142.6 78.9305 142.799C79.3211 142.99 79.6245 143.252 79.8405 143.585C80.0649 143.909 80.2062 144.274 80.2644 144.682L78.9056 144.756C78.864 144.524 78.7809 144.324 78.6563 144.158C78.5399 143.983 78.382 143.85 78.1826 143.759C77.9831 143.659 77.7462 143.609 77.472 143.609C77.0481 143.609 76.7323 143.693 76.5246 143.859C76.3168 144.025 76.2129 144.241 76.2129 144.507C76.2129 144.706 76.2586 144.869 76.3501 144.993C76.4498 145.118 76.6077 145.222 76.8238 145.305C77.0398 145.38 77.3266 145.446 77.6839 145.504C78.3737 145.621 78.9139 145.766 79.3045 145.941C79.6951 146.107 79.9694 146.315 80.1273 146.564C80.2852 146.813 80.3641 147.117 80.3641 147.474C80.3641 147.889 80.2478 148.243 80.0151 148.534C79.7824 148.824 79.4624 149.049 79.0552 149.207C78.648 149.356 78.1784 149.431 77.6465 149.431Z" fill="#1E293B"/>
<rect x="221.914" y="135.424" width="19.716" height="19.716" rx="5.34258" fill="#FEE4E2"/>
<path d="M234.92 148.43L228.623 142.133M234.92 142.133L228.623 148.43" stroke="#E46C63" stroke-width="1.33565" stroke-linecap="round" stroke-linejoin="round"/>
<path d="M43.7948 179.796V167.152H52.2539V169.164H44.8455L46.1099 167.864V173.669L44.8455 172.619H51.9333V174.613H44.8455L46.1099 173.563V179.796H43.7948ZM56.6379 180.009C55.6406 180.009 54.8392 179.784 54.2337 179.333C53.6282 178.87 53.3255 178.228 53.3255 177.409C53.3255 176.59 53.5807 175.949 54.0912 175.486C54.6018 175.023 55.3794 174.691 56.4242 174.489L59.5763 173.865C59.5763 173.189 59.4219 172.684 59.1133 172.352C58.8046 172.007 58.3475 171.835 57.742 171.835C57.1959 171.835 56.7625 171.966 56.442 172.227C56.1333 172.476 55.9196 172.838 55.8009 173.313L53.4857 173.206C53.6757 172.197 54.1387 171.426 54.8748 170.891C55.6109 170.345 56.5666 170.072 57.742 170.072C59.0955 170.072 60.1165 170.416 60.8051 171.105C61.5056 171.782 61.8558 172.755 61.8558 174.026V177.481C61.8558 177.73 61.8973 177.902 61.9804 177.997C62.0754 178.092 62.212 178.139 62.39 178.139H62.6928V179.796C62.6216 179.819 62.5028 179.837 62.3366 179.849C62.1823 179.861 62.022 179.867 61.8558 179.867C61.464 179.867 61.1138 179.808 60.8051 179.689C60.4964 179.558 60.259 179.339 60.0927 179.03C59.9265 178.709 59.8434 178.276 59.8434 177.73L60.0393 177.872C59.9443 178.288 59.7366 178.662 59.416 178.994C59.1073 179.315 58.7155 179.564 58.2406 179.742C57.7657 179.92 57.2315 180.009 56.6379 180.009ZM57.1009 178.353C57.6114 178.353 58.0507 178.252 58.4187 178.05C58.7868 177.849 59.0717 177.57 59.2735 177.213C59.4754 176.857 59.5763 176.436 59.5763 175.949V175.415L57.1187 175.913C56.6082 176.02 56.2401 176.181 56.0146 176.394C55.8009 176.596 55.694 176.863 55.694 177.196C55.694 177.564 55.8127 177.849 56.0502 178.05C56.2995 178.252 56.6497 178.353 57.1009 178.353ZM64.0688 179.796V170.286H66.3483V179.796H64.0688ZM64.0332 169.021V166.991H66.4017V169.021H64.0332ZM71.0091 179.796C70.3205 179.796 69.7685 179.618 69.3529 179.261C68.9374 178.905 68.7296 178.335 68.7296 177.552V167.152H71.0091V177.32C71.0091 177.558 71.0685 177.736 71.1872 177.855C71.3178 177.973 71.4959 178.033 71.7215 178.033H72.416V179.796H71.0091ZM77.9912 180.009C77.0414 180.009 76.2163 179.808 75.5158 179.404C74.8153 178.988 74.2752 178.407 73.8952 177.659C73.5153 176.911 73.3254 176.038 73.3254 175.041C73.3254 174.043 73.5153 173.177 73.8952 172.441C74.2752 171.693 74.8094 171.111 75.498 170.695C76.1985 170.28 77.0117 170.072 77.9378 170.072C78.8401 170.072 79.6296 170.274 80.3063 170.678C80.9949 171.081 81.5233 171.663 81.8913 172.423C82.2593 173.183 82.4434 174.097 82.4434 175.165V175.682H75.6939C75.7414 176.513 75.967 177.142 76.3706 177.57C76.7862 177.985 77.3323 178.193 78.009 178.193C78.5195 178.193 78.941 178.08 79.2734 177.855C79.6177 177.617 79.8552 177.291 79.9858 176.875L82.3187 177.018C82.0575 177.944 81.5411 178.674 80.7694 179.208C80.0095 179.742 79.0835 180.009 77.9912 180.009ZM75.6939 174.15H80.0926C80.0451 173.379 79.8255 172.809 79.4337 172.441C79.0419 172.061 78.5433 171.871 77.9378 171.871C77.3323 171.871 76.8277 172.067 76.4241 172.459C76.0323 172.85 75.7889 173.414 75.6939 174.15ZM87.6088 180.009C86.8015 180.009 86.101 179.808 85.5074 179.404C84.9257 179 84.4745 178.424 84.154 177.676C83.8334 176.928 83.6731 176.05 83.6731 175.041C83.6731 174.032 83.8334 173.153 84.154 172.405C84.4745 171.657 84.9316 171.081 85.5252 170.678C86.1188 170.274 86.8134 170.072 87.6088 170.072C88.2737 170.072 88.8554 170.209 89.3541 170.482C89.8646 170.755 90.2504 171.141 90.5116 171.639V167.152H92.7911V179.796H90.6185L90.5651 178.389C90.3039 178.899 89.9121 179.297 89.3897 179.582C88.8673 179.867 88.2737 180.009 87.6088 180.009ZM88.3034 178.157C88.7783 178.157 89.176 178.039 89.4965 177.801C89.829 177.564 90.0783 177.213 90.2445 176.75C90.4226 176.275 90.5116 175.706 90.5116 175.041C90.5116 174.364 90.4226 173.794 90.2445 173.331C90.0783 172.868 89.829 172.518 89.4965 172.28C89.176 172.043 88.7783 171.924 88.3034 171.924C87.6148 171.924 87.0627 172.203 86.6472 172.761C86.2435 173.307 86.0417 174.067 86.0417 175.041C86.0417 175.991 86.2435 176.75 86.6472 177.32C87.0627 177.878 87.6148 178.157 88.3034 178.157Z" fill="#EE301B" fill-opacity="0.8"/>
<path d="M42.6194 198.576L45.8107 189.726H47.2568L50.4481 198.576H49.2763L48.3912 196.058H44.6763L43.7912 198.576H42.6194ZM45.0378 195.011H48.0297L46.5338 190.66L45.0378 195.011ZM53.8811 198.726C53.2911 198.726 52.7883 198.63 52.3727 198.439C51.9655 198.248 51.6456 197.986 51.4129 197.654C51.1885 197.313 51.0596 196.927 51.0264 196.495L52.1234 196.42C52.1899 196.819 52.3603 197.139 52.6345 197.38C52.9088 197.612 53.3243 197.729 53.8811 197.729C54.3299 197.729 54.6873 197.658 54.9532 197.517C55.2275 197.367 55.3646 197.13 55.3646 196.806C55.3646 196.632 55.323 196.486 55.2399 196.37C55.1568 196.254 54.9948 196.154 54.7537 196.071C54.5127 195.979 54.1554 195.892 53.6817 195.809C53.0501 195.693 52.5514 195.551 52.1857 195.385C51.8284 195.211 51.5708 194.999 51.4129 194.749C51.2633 194.492 51.1885 194.188 51.1885 193.839C51.1885 193.249 51.4045 192.767 51.8367 192.393C52.2689 192.011 52.8838 191.82 53.6817 191.82C54.2219 191.82 54.6748 191.92 55.0405 192.119C55.4144 192.31 55.7053 192.568 55.9131 192.892C56.1292 193.208 56.2704 193.557 56.3369 193.939L55.2399 194.014C55.1901 193.781 55.0986 193.578 54.9657 193.403C54.8327 193.22 54.6582 193.079 54.4421 192.979C54.226 192.871 53.9684 192.817 53.6692 192.817C53.1955 192.817 52.8464 192.909 52.6221 193.091C52.3977 193.274 52.2855 193.507 52.2855 193.789C52.2855 194.006 52.3353 194.184 52.4351 194.326C52.5431 194.458 52.7135 194.571 52.9462 194.662C53.1789 194.745 53.4905 194.82 53.8811 194.886C54.5543 195.003 55.0779 195.144 55.4518 195.31C55.8258 195.477 56.0876 195.68 56.2372 195.921C56.3868 196.162 56.4616 196.457 56.4616 196.806C56.4616 197.213 56.3452 197.563 56.1125 197.853C55.8882 198.136 55.5807 198.352 55.1901 198.502C54.8078 198.651 54.3715 198.726 53.8811 198.726ZM60.2967 198.726C59.7067 198.726 59.2039 198.63 58.7884 198.439C58.3811 198.248 58.0612 197.986 57.8285 197.654C57.6041 197.313 57.4753 196.927 57.442 196.495L58.539 196.42C58.6055 196.819 58.7759 197.139 59.0501 197.38C59.3244 197.612 59.7399 197.729 60.2967 197.729C60.7455 197.729 61.1029 197.658 61.3688 197.517C61.6431 197.367 61.7802 197.13 61.7802 196.806C61.7802 196.632 61.7386 196.486 61.6555 196.37C61.5724 196.254 61.4104 196.154 61.1694 196.071C60.9284 195.979 60.571 195.892 60.0973 195.809C59.4657 195.693 58.967 195.551 58.6014 195.385C58.244 195.211 57.9864 194.999 57.8285 194.749C57.6789 194.492 57.6041 194.188 57.6041 193.839C57.6041 193.249 57.8202 192.767 58.2523 192.393C58.6845 192.011 59.2995 191.82 60.0973 191.82C60.6375 191.82 61.0904 191.92 61.4561 192.119C61.8301 192.31 62.1209 192.568 62.3287 192.892C62.5448 193.208 62.6861 193.557 62.7525 193.939L61.6555 194.014C61.6057 193.781 61.5143 193.578 61.3813 193.403C61.2483 193.22 61.0738 193.079 60.8577 192.979C60.6416 192.871 60.384 192.817 60.0848 192.817C59.6111 192.817 59.2621 192.909 59.0377 193.091C58.8133 193.274 58.7011 193.507 58.7011 193.789C58.7011 194.006 58.751 194.184 58.8507 194.326C58.9587 194.458 59.1291 194.571 59.3618 194.662C59.5945 194.745 59.9061 194.82 60.2967 194.886C60.9699 195.003 61.4935 195.144 61.8675 195.31C62.2414 195.477 62.5032 195.68 62.6528 195.921C62.8024 196.162 62.8772 196.457 62.8772 196.806C62.8772 197.213 62.7609 197.563 62.5282 197.853C62.3038 198.136 61.9963 198.352 61.6057 198.502C61.2234 198.651 60.7871 198.726 60.2967 198.726ZM66.8869 198.726C66.2636 198.726 65.7234 198.585 65.2663 198.302C64.8175 198.02 64.4685 197.621 64.2192 197.105C63.9781 196.582 63.8576 195.971 63.8576 195.273C63.8576 194.575 63.9781 193.968 64.2192 193.453C64.4685 192.938 64.8134 192.539 65.2538 192.256C65.7026 191.965 66.2303 191.82 66.837 191.82C67.4105 191.82 67.9174 191.957 68.3579 192.231C68.7983 192.497 69.1391 192.888 69.3801 193.403C69.6294 193.918 69.7541 194.546 69.7541 195.285V195.597H64.9547C64.9962 196.303 65.1832 196.835 65.5156 197.193C65.8564 197.55 66.3134 197.729 66.8869 197.729C67.319 197.729 67.6722 197.629 67.9465 197.43C68.2291 197.222 68.4244 196.952 68.5324 196.619L69.6543 196.707C69.4798 197.297 69.1474 197.783 68.6571 198.165C68.175 198.539 67.585 198.726 66.8869 198.726ZM64.9547 194.675H68.6072C68.5573 194.035 68.3703 193.565 68.0462 193.266C67.7304 192.967 67.3273 192.817 66.837 192.817C66.3301 192.817 65.9104 192.975 65.578 193.291C65.2538 193.598 65.0461 194.06 64.9547 194.675ZM71.1725 198.576V191.969H72.095L72.1448 193.64L72.0451 193.602C72.1282 193.037 72.3069 192.626 72.5811 192.368C72.8637 192.102 73.2377 191.969 73.7031 191.969H74.3513V192.967H73.7155C73.3831 192.967 73.1047 193.029 72.8803 193.154C72.6642 193.27 72.498 193.449 72.3817 193.69C72.2736 193.922 72.2196 194.222 72.2196 194.587V198.576H71.1725ZM77.6935 198.576C77.0951 198.576 76.6505 198.439 76.3596 198.165C76.077 197.891 75.9358 197.463 75.9358 196.881V190.424H76.9829V196.856C76.9829 197.155 77.0494 197.363 77.1824 197.479C77.3153 197.596 77.5189 197.654 77.7932 197.654H78.7406V198.576H77.6935ZM74.9634 192.892V191.969H78.7406V192.892H74.9634ZM80.0837 198.576V191.969H81.1309V198.576H80.0837ZM80.0588 190.935V189.713H81.1558V190.935H80.0588ZM85.5859 198.726C84.9792 198.726 84.4473 198.585 83.9903 198.302C83.5332 198.02 83.18 197.621 82.9306 197.105C82.6813 196.582 82.5567 195.971 82.5567 195.273C82.5567 194.567 82.6813 193.956 82.9306 193.44C83.18 192.925 83.5332 192.526 83.9903 192.244C84.4473 191.961 84.9792 191.82 85.5859 191.82C86.1926 191.82 86.7203 191.961 87.1691 192.244C87.6262 192.526 87.9794 192.925 88.2287 193.44C88.478 193.956 88.6027 194.567 88.6027 195.273C88.6027 195.971 88.478 196.582 88.2287 197.105C87.9794 197.621 87.6262 198.02 87.1691 198.302C86.7203 198.585 86.1926 198.726 85.5859 198.726ZM85.5859 197.729C86.1926 197.729 86.6621 197.513 86.9946 197.08C87.3353 196.64 87.5057 196.038 87.5057 195.273C87.5057 194.508 87.3353 193.91 86.9946 193.478C86.6621 193.037 86.1926 192.817 85.5859 192.817C84.9792 192.817 84.5055 193.037 84.1648 193.478C83.824 193.91 83.6537 194.508 83.6537 195.273C83.6537 196.038 83.824 196.64 84.1648 197.08C84.5055 197.513 84.9792 197.729 85.5859 197.729ZM90.0298 198.576V191.969H90.9896L91.027 193.652L90.9024 193.54C90.9855 193.15 91.1309 192.83 91.3387 192.58C91.5465 192.323 91.7958 192.131 92.0866 192.007C92.3858 191.882 92.7058 191.82 93.0465 191.82C93.5535 191.82 93.969 191.932 94.2931 192.156C94.6256 192.381 94.8707 192.684 95.0286 193.066C95.1948 193.44 95.278 193.86 95.278 194.326V198.576H94.2308V194.625C94.2308 194.217 94.1809 193.877 94.0812 193.602C93.9898 193.32 93.8402 193.108 93.6324 192.967C93.4247 192.817 93.1546 192.742 92.8221 192.742C92.3152 192.742 91.8955 192.904 91.5631 193.228C91.239 193.544 91.0769 194.01 91.0769 194.625V198.576H90.0298ZM102.97 198.726C102.347 198.726 101.807 198.585 101.35 198.302C100.901 198.02 100.552 197.621 100.302 197.105C100.061 196.582 99.9409 195.971 99.9409 195.273C99.9409 194.575 100.061 193.968 100.302 193.453C100.552 192.938 100.897 192.539 101.337 192.256C101.786 191.965 102.314 191.82 102.92 191.82C103.494 191.82 104.001 191.957 104.441 192.231C104.882 192.497 105.222 192.888 105.463 193.403C105.713 193.918 105.837 194.546 105.837 195.285V195.597H101.038C101.079 196.303 101.266 196.835 101.599 197.193C101.94 197.55 102.397 197.729 102.97 197.729C103.402 197.729 103.756 197.629 104.03 197.43C104.312 197.222 104.508 196.952 104.616 196.619L105.738 196.707C105.563 197.297 105.231 197.783 104.74 198.165C104.258 198.539 103.668 198.726 102.97 198.726ZM101.038 194.675H104.69C104.641 194.035 104.454 193.565 104.13 193.266C103.814 192.967 103.411 192.817 102.92 192.817C102.413 192.817 101.994 192.975 101.661 193.291C101.337 193.598 101.129 194.06 101.038 194.675ZM107.256 198.576V191.969H108.178L108.228 193.64L108.128 193.602C108.211 193.037 108.39 192.626 108.664 192.368C108.947 192.102 109.321 191.969 109.786 191.969H110.435V192.967H109.799C109.466 192.967 109.188 193.029 108.964 193.154C108.748 193.27 108.581 193.449 108.465 193.69C108.357 193.922 108.303 194.222 108.303 194.587V198.576H107.256ZM111.48 198.576V191.969H112.403L112.452 193.64L112.353 193.602C112.436 193.037 112.614 192.626 112.889 192.368C113.171 192.102 113.545 191.969 114.011 191.969H114.659V192.967H114.023C113.691 192.967 113.412 193.029 113.188 193.154C112.972 193.27 112.806 193.449 112.689 193.69C112.581 193.922 112.527 194.222 112.527 194.587V198.576H111.48ZM118.285 198.726C117.678 198.726 117.146 198.585 116.689 198.302C116.232 198.02 115.879 197.621 115.63 197.105C115.38 196.582 115.256 195.971 115.256 195.273C115.256 194.567 115.38 193.956 115.63 193.44C115.879 192.925 116.232 192.526 116.689 192.244C117.146 191.961 117.678 191.82 118.285 191.82C118.892 191.82 119.419 191.961 119.868 192.244C120.325 192.526 120.678 192.925 120.928 193.44C121.177 193.956 121.302 194.567 121.302 195.273C121.302 195.971 121.177 196.582 120.928 197.105C120.678 197.621 120.325 198.02 119.868 198.302C119.419 198.585 118.892 198.726 118.285 198.726ZM118.285 197.729C118.892 197.729 119.361 197.513 119.694 197.08C120.034 196.64 120.205 196.038 120.205 195.273C120.205 194.508 120.034 193.91 119.694 193.478C119.361 193.037 118.892 192.817 118.285 192.817C117.678 192.817 117.204 193.037 116.864 193.478C116.523 193.91 116.353 194.508 116.353 195.273C116.353 196.038 116.523 196.64 116.864 197.08C117.204 197.513 117.678 197.729 118.285 197.729ZM122.729 198.576V191.969H123.651L123.701 193.64L123.601 193.602C123.684 193.037 123.863 192.626 124.137 192.368C124.42 192.102 124.794 191.969 125.259 191.969H125.908V192.967H125.272C124.939 192.967 124.661 193.029 124.437 193.154C124.22 193.27 124.054 193.449 123.938 193.69C123.83 193.922 123.776 194.222 123.776 194.587V198.576H122.729Z" fill="#EE301B" fill-opacity="0.6"/>
<g filter="url(#filter0_d_603_14913)">
<rect x="21.3916" y="223.103" width="236.751" height="26.5268" rx="3.43809" fill="#F1F4F8" shape-rendering="crispEdges"/>
<rect x="21.7645" y="223.475" width="236.005" height="25.7811" rx="3.06524" stroke="#DFE6EE" stroke-width="0.745716" shape-rendering="crispEdges"/>
<path d="M26.0596 229.49C26.0596 228.54 26.8292 227.771 27.7786 227.771H69.6534C70.6028 227.771 71.3724 228.54 71.3724 229.49V243.242C71.3724 244.192 70.6028 244.961 69.6534 244.961H27.7786C26.8292 244.961 26.0596 244.192 26.0596 243.242V229.49Z" fill="white"/>
<path d="M76.041 229.49C76.041 228.54 76.8107 227.771 77.7601 227.771H136.635C137.584 227.771 138.354 228.54 138.354 229.49V243.242C138.354 244.192 137.584 244.961 136.635 244.961H77.7601C76.8107 244.961 76.041 244.192 76.041 243.242V229.49Z" fill="white"/>
<path d="M143.022 229.49C143.022 228.54 143.792 227.771 144.741 227.771H205.616C206.565 227.771 207.335 228.54 207.335 229.49V243.242C207.335 244.192 206.565 244.961 205.616 244.961H144.741C143.792 244.961 143.022 244.192 143.022 243.242V229.49Z" fill="white"/>
</g>
<g filter="url(#filter1_d_603_14913)">
<path d="M277 134.283C277 130.813 279.813 128 283.283 128H536.717C540.187 128 543 130.813 543 134.283V203.901C543 207.371 540.187 210.184 536.717 210.184H283.283C279.813 210.184 277 207.371 277 203.901V134.283Z" fill="white" shape-rendering="crispEdges"/>
<path d="M283.283 128.523H536.717C539.898 128.524 542.476 131.102 542.477 134.283V203.9C542.477 207.081 539.898 209.66 536.717 209.66H283.283C280.102 209.66 277.523 207.081 277.523 203.9V134.283C277.524 131.102 280.102 128.524 283.283 128.523Z" stroke="#DFE6EE" stroke-width="1.04723" shape-rendering="crispEdges"/>
<path d="M297.115 158.178L294.924 149.903H296.265L297.873 156.441L299.481 149.903H300.763L302.371 156.441L303.968 149.903H305.332L303.129 158.178H301.661L300.122 152.141L298.584 158.178H297.115ZM306.35 158.178V149.903H307.585V153.376L307.434 153.353C307.504 153.003 307.632 152.72 307.818 152.502C308.005 152.277 308.234 152.11 308.506 152.001C308.778 151.892 309.077 151.838 309.403 151.838C309.854 151.838 310.235 151.939 310.545 152.141C310.856 152.335 311.089 152.611 311.245 152.968C311.408 153.326 311.489 153.734 311.489 154.192V158.178H310.254V154.518C310.254 153.959 310.157 153.547 309.963 153.283C309.776 153.011 309.481 152.875 309.077 152.875C308.626 152.875 308.265 153.019 307.993 153.306C307.721 153.586 307.585 153.998 307.585 154.542V158.178H306.35ZM313.198 159.926V158.912H313.956C314.165 158.912 314.321 158.881 314.422 158.819C314.523 158.757 314.601 158.652 314.655 158.504L314.853 157.991H314.468L312.231 151.978H313.536L315.238 156.849L316.858 151.978H318.175L315.704 158.9C315.579 159.258 315.393 159.518 315.144 159.681C314.904 159.844 314.566 159.926 314.13 159.926H313.198ZM322.252 158.178V149.903H327.625V151.057H322.847L323.511 150.369V154.169L322.847 153.574H327.415V154.693H322.847L323.511 154.099V158.178H322.252ZM330.541 158.318C329.897 158.318 329.38 158.17 328.991 157.875C328.611 157.579 328.42 157.164 328.42 156.628C328.42 156.092 328.58 155.676 328.898 155.381C329.224 155.078 329.726 154.86 330.402 154.728L332.534 154.32C332.534 153.838 332.422 153.481 332.196 153.248C331.971 153.007 331.637 152.887 331.194 152.887C330.798 152.887 330.487 152.976 330.262 153.155C330.036 153.326 329.881 153.582 329.796 153.924L328.525 153.842C328.642 153.221 328.929 152.731 329.388 152.374C329.854 152.016 330.456 151.838 331.194 151.838C332.033 151.838 332.67 152.063 333.105 152.514C333.548 152.957 333.77 153.582 333.77 154.39V156.803C333.77 156.95 333.793 157.055 333.84 157.117C333.894 157.172 333.979 157.199 334.096 157.199H334.317V158.178C334.279 158.186 334.216 158.193 334.131 158.201C334.046 158.209 333.956 158.213 333.863 158.213C333.599 158.213 333.37 158.17 333.175 158.084C332.989 157.999 332.849 157.859 332.756 157.665C332.663 157.463 332.616 157.195 332.616 156.861L332.744 156.919C332.682 157.191 332.546 157.432 332.336 157.642C332.134 157.851 331.874 158.018 331.555 158.143C331.245 158.259 330.907 158.318 330.541 158.318ZM330.74 157.339C331.112 157.339 331.431 157.269 331.695 157.129C331.959 156.981 332.165 156.779 332.313 156.523C332.461 156.266 332.534 155.975 332.534 155.649V155.252L330.716 155.602C330.343 155.672 330.079 155.785 329.924 155.94C329.776 156.088 329.702 156.278 329.702 156.511C329.702 156.775 329.792 156.981 329.97 157.129C330.157 157.269 330.413 157.339 330.74 157.339ZM335.304 158.178V151.978H336.539V158.178H335.304ZM335.28 151.08V149.845H336.562V151.08H335.28ZM339.546 158.178C339.142 158.178 338.816 158.073 338.567 157.863C338.319 157.653 338.194 157.319 338.194 156.861V149.903H339.43V156.744C339.43 156.884 339.465 156.989 339.535 157.059C339.612 157.129 339.721 157.164 339.861 157.164H340.351V158.178H339.546ZM341.393 158.178V151.978H342.628V158.178H341.393ZM341.369 151.08V149.845H342.651V151.08H341.369ZM344.477 158.178V151.978H345.607L345.654 153.633L345.502 153.551C345.572 153.147 345.704 152.821 345.899 152.572C346.093 152.323 346.33 152.141 346.61 152.024C346.889 151.9 347.192 151.838 347.519 151.838C347.985 151.838 348.369 151.943 348.672 152.152C348.983 152.354 349.216 152.634 349.372 152.992C349.535 153.341 349.616 153.741 349.616 154.192V158.178H348.381V154.565C348.381 154.2 348.342 153.893 348.265 153.644C348.187 153.396 348.059 153.205 347.88 153.073C347.701 152.941 347.468 152.875 347.181 152.875C346.746 152.875 346.392 153.019 346.12 153.306C345.848 153.594 345.712 154.013 345.712 154.565V158.178H344.477ZM353.72 160.066C353.23 160.066 352.799 159.992 352.426 159.844C352.053 159.697 351.747 159.487 351.506 159.215C351.265 158.951 351.102 158.64 351.016 158.283L352.298 158.201C352.384 158.457 352.531 158.659 352.741 158.807C352.959 158.962 353.285 159.04 353.72 159.04C354.233 159.04 354.625 158.931 354.897 158.714C355.177 158.496 355.317 158.166 355.317 157.723V156.826C355.169 157.144 354.932 157.397 354.606 157.583C354.279 157.77 353.914 157.863 353.51 157.863C352.99 157.863 352.527 157.735 352.123 157.478C351.719 157.222 351.405 156.869 351.179 156.418C350.954 155.967 350.841 155.447 350.841 154.856C350.841 154.258 350.95 153.734 351.168 153.283C351.393 152.832 351.704 152.479 352.1 152.222C352.504 151.966 352.959 151.838 353.464 151.838C353.906 151.838 354.295 151.939 354.629 152.141C354.971 152.343 355.216 152.615 355.363 152.957V151.978H356.552V157.688C356.552 158.201 356.435 158.632 356.202 158.982C355.977 159.339 355.651 159.607 355.223 159.786C354.804 159.973 354.303 160.066 353.72 160.066ZM353.708 156.814C354.19 156.814 354.575 156.639 354.862 156.29C355.157 155.94 355.309 155.458 355.317 154.845C355.324 154.441 355.262 154.095 355.13 153.807C354.998 153.512 354.808 153.287 354.559 153.131C354.318 152.968 354.035 152.887 353.708 152.887C353.203 152.887 352.811 153.065 352.531 153.423C352.259 153.772 352.123 154.246 352.123 154.845C352.123 155.451 352.263 155.932 352.543 156.29C352.83 156.639 353.219 156.814 353.708 156.814Z" fill="#1E293B"/>
<rect x="500.385" y="141.111" width="25.1335" height="25.1335" rx="6.28337" fill="#93C5FD" fill-opacity="0.2"/>
<g clip-path="url(#clip0_603_14913)">
<path d="M514.133 155.646V154.859H514.526V152.103H514.133V151.315H515.707V152.103H515.314V154.859H515.707V155.646H514.133ZM512.755 155.646H513.542L512.164 151.315H510.983L509.606 155.646H510.394L510.63 154.859H512.511L512.755 155.646ZM510.867 154.071L511.508 151.941L511.609 151.94L512.268 154.071H510.867Z" fill="#0078FF"/>
<path d="M519.251 159.978H506.653V147.38H519.251V159.978ZM507.441 159.19H518.464V148.167H507.441V159.19Z" fill="#0078FF"/>
</g>
<path d="M300.583 192.352C299.58 192.352 298.7 192.16 297.943 191.776C297.197 191.391 296.62 190.849 296.212 190.15C295.816 189.439 295.618 188.6 295.618 187.632V179.643H297.89V187.632C297.89 188.507 298.123 189.182 298.59 189.66C299.056 190.138 299.72 190.377 300.583 190.377C301.445 190.377 302.109 190.138 302.575 189.66C303.053 189.182 303.292 188.507 303.292 187.632V179.643H305.565V187.632C305.565 188.6 305.361 189.439 304.953 190.15C304.545 190.849 303.968 191.391 303.222 191.776C302.488 192.16 301.608 192.352 300.583 192.352ZM308.359 192.073V179.661H310.632V192.073H308.359ZM322.666 192.352C321.535 192.352 320.539 192.096 319.676 191.583C318.814 191.059 318.138 190.319 317.649 189.363C317.159 188.396 316.914 187.236 316.914 185.884C316.914 184.556 317.153 183.408 317.631 182.44C318.109 181.461 318.779 180.71 319.642 180.185C320.504 179.649 321.518 179.381 322.683 179.381C324.268 179.381 325.498 179.777 326.372 180.57C327.246 181.351 327.817 182.446 328.085 183.856L325.708 183.979C325.556 183.163 325.23 182.522 324.729 182.056C324.227 181.59 323.546 181.357 322.683 181.357C321.984 181.357 321.378 181.543 320.865 181.916C320.352 182.289 319.956 182.813 319.676 183.489C319.397 184.165 319.257 184.964 319.257 185.884C319.257 186.817 319.397 187.621 319.676 188.297C319.968 188.961 320.37 189.474 320.883 189.835C321.395 190.196 321.99 190.377 322.666 190.377C323.587 190.377 324.297 190.126 324.799 189.625C325.311 189.113 325.638 188.413 325.778 187.528L328.155 187.65C327.992 188.617 327.677 189.456 327.211 190.167C326.745 190.867 326.127 191.408 325.358 191.793C324.6 192.166 323.703 192.352 322.666 192.352ZM329.917 192.073V179.661H332.155V184.87H331.875C331.968 184.334 332.155 183.897 332.434 183.559C332.714 183.21 333.058 182.953 333.466 182.79C333.874 182.615 334.322 182.528 334.812 182.528C335.5 182.528 336.076 182.679 336.543 182.982C337.02 183.274 337.376 183.687 337.609 184.224C337.854 184.76 337.976 185.377 337.976 186.077V192.073H335.738V186.619C335.738 185.861 335.61 185.296 335.354 184.923C335.097 184.538 334.695 184.346 334.148 184.346C333.542 184.346 333.058 184.544 332.697 184.94C332.335 185.337 332.155 185.913 332.155 186.671V192.073H329.917ZM342.921 192.283C341.942 192.283 341.155 192.061 340.561 191.618C339.967 191.164 339.669 190.534 339.669 189.73C339.669 188.926 339.92 188.297 340.421 187.842C340.922 187.388 341.686 187.061 342.711 186.863L345.806 186.251C345.806 185.587 345.654 185.092 345.351 184.765C345.048 184.427 344.599 184.258 344.005 184.258C343.469 184.258 343.043 184.387 342.729 184.643C342.426 184.888 342.216 185.243 342.099 185.709L339.827 185.605C340.013 184.614 340.468 183.856 341.19 183.332C341.913 182.796 342.851 182.528 344.005 182.528C345.334 182.528 346.336 182.866 347.012 183.542C347.699 184.206 348.043 185.162 348.043 186.409V189.8C348.043 190.045 348.084 190.214 348.166 190.307C348.259 190.4 348.393 190.447 348.568 190.447H348.865V192.073C348.795 192.096 348.678 192.114 348.515 192.125C348.364 192.137 348.206 192.143 348.043 192.143C347.659 192.143 347.315 192.084 347.012 191.968C346.709 191.84 346.476 191.624 346.312 191.321C346.149 191.006 346.068 190.581 346.068 190.045L346.26 190.185C346.167 190.593 345.963 190.96 345.648 191.286C345.345 191.601 344.961 191.845 344.494 192.02C344.028 192.195 343.504 192.283 342.921 192.283ZM343.376 190.657C343.877 190.657 344.308 190.558 344.669 190.36C345.031 190.161 345.31 189.888 345.508 189.538C345.706 189.188 345.806 188.775 345.806 188.297V187.772L343.393 188.262C342.892 188.367 342.531 188.524 342.309 188.734C342.099 188.932 341.995 189.194 341.995 189.52C341.995 189.882 342.111 190.161 342.344 190.36C342.589 190.558 342.933 190.657 343.376 190.657ZM350.318 192.073V182.738H352.346L352.433 185.36L352.171 185.255C352.264 184.602 352.457 184.078 352.748 183.682C353.039 183.285 353.395 182.994 353.814 182.808C354.234 182.621 354.694 182.528 355.195 182.528C355.883 182.528 356.46 182.679 356.926 182.982C357.404 183.285 357.765 183.705 358.01 184.241C358.255 184.765 358.377 185.377 358.377 186.077V192.073H356.139V186.793C356.139 186.269 356.087 185.826 355.982 185.465C355.877 185.103 355.702 184.83 355.458 184.643C355.224 184.445 354.91 184.346 354.514 184.346C353.919 184.346 353.441 184.556 353.08 184.975C352.73 185.395 352.556 186.001 352.556 186.793V192.073H350.318ZM364.581 194.905C363.765 194.905 363.066 194.794 362.483 194.573C361.9 194.351 361.428 194.037 361.067 193.629C360.718 193.232 360.473 192.772 360.333 192.248L362.641 192.09C362.757 192.44 362.955 192.714 363.235 192.912C363.526 193.11 363.975 193.209 364.581 193.209C365.269 193.209 365.799 193.052 366.172 192.737C366.545 192.434 366.731 191.956 366.731 191.304V190.115C366.51 190.569 366.154 190.936 365.665 191.216C365.175 191.484 364.628 191.618 364.022 191.618C363.252 191.618 362.565 191.432 361.959 191.059C361.364 190.674 360.898 190.144 360.56 189.468C360.222 188.78 360.053 187.988 360.053 187.091C360.053 186.193 360.216 185.406 360.543 184.73C360.881 184.043 361.347 183.507 361.941 183.122C362.536 182.726 363.217 182.528 363.987 182.528C364.663 182.528 365.245 182.679 365.735 182.982C366.224 183.285 366.58 183.687 366.801 184.189V182.738H368.986V191.251C368.986 192.044 368.8 192.714 368.427 193.261C368.066 193.809 367.553 194.217 366.889 194.485C366.236 194.765 365.467 194.905 364.581 194.905ZM364.546 189.87C365.21 189.87 365.741 189.625 366.137 189.136C366.533 188.635 366.737 187.947 366.749 187.073C366.76 186.49 366.673 185.995 366.486 185.587C366.312 185.168 366.055 184.847 365.717 184.626C365.391 184.393 365.001 184.276 364.546 184.276C363.858 184.276 363.322 184.532 362.938 185.045C362.565 185.546 362.378 186.222 362.378 187.073C362.378 187.924 362.571 188.606 362.955 189.118C363.351 189.62 363.882 189.87 364.546 189.87ZM375.303 192.283C374.371 192.283 373.561 192.084 372.873 191.688C372.186 191.28 371.656 190.709 371.283 189.975C370.91 189.241 370.723 188.384 370.723 187.405C370.723 186.426 370.91 185.575 371.283 184.853C371.656 184.119 372.18 183.548 372.856 183.14C373.544 182.732 374.342 182.528 375.251 182.528C376.137 182.528 376.912 182.726 377.576 183.122C378.252 183.518 378.771 184.09 379.132 184.835C379.493 185.581 379.674 186.479 379.674 187.528V188.035H373.048C373.095 188.85 373.316 189.468 373.713 189.888C374.12 190.295 374.657 190.499 375.321 190.499C375.822 190.499 376.236 190.389 376.562 190.167C376.9 189.934 377.133 189.614 377.261 189.206L379.551 189.346C379.295 190.255 378.788 190.971 378.03 191.496C377.285 192.02 376.376 192.283 375.303 192.283ZM373.048 186.531H377.366C377.32 185.774 377.104 185.214 376.719 184.853C376.335 184.48 375.845 184.293 375.251 184.293C374.657 184.293 374.161 184.486 373.765 184.87C373.38 185.255 373.141 185.809 373.048 186.531Z" fill="#212529"/>
</g>
<defs>
<filter id="filter0_d_603_14913" x="2.74871" y="204.46" width="274.036" height="63.8126" filterUnits="userSpaceOnUse" color-interpolation-filters="sRGB">
<feFlood flood-opacity="0" result="BackgroundImageFix"/>
<feColorMatrix in="SourceAlpha" type="matrix" values="0 0 0 0 0 0 0 0 0 0 0 0 0 0 0 0 0 0 127 0" result="hardAlpha"/>
<feOffset/>
<feGaussianBlur stdDeviation="9.32145"/>
<feComposite in2="hardAlpha" operator="out"/>
<feColorMatrix type="matrix" values="0 0 0 0 0 0 0 0 0 0 0 0 0 0 0 0 0 0 0.06 0"/>
<feBlend mode="normal" in2="BackgroundImageFix" result="effect1_dropShadow_603_14913"/>
<feBlend mode="normal" in="SourceGraphic" in2="effect1_dropShadow_603_14913" result="shape"/>
</filter>
<filter id="filter1_d_603_14913" x="258.338" y="109.338" width="303.324" height="119.507" filterUnits="userSpaceOnUse" color-interpolation-filters="sRGB">
<feFlood flood-opacity="0" result="BackgroundImageFix"/>
<feColorMatrix in="SourceAlpha" type="matrix" values="0 0 0 0 0 0 0 0 0 0 0 0 0 0 0 0 0 0 127 0" result="hardAlpha"/>
<feOffset/>
<feGaussianBlur stdDeviation="9.33088"/>
<feComposite in2="hardAlpha" operator="out"/>
<feColorMatrix type="matrix" values="0 0 0 0 0 0 0 0 0 0 0 0 0 0 0 0 0 0 0.06 0"/>
<feBlend mode="normal" in2="BackgroundImageFix" result="effect1_dropShadow_603_14913"/>
<feBlend mode="normal" in="SourceGraphic" in2="effect1_dropShadow_603_14913" result="shape"/>
</filter>
<linearGradient id="paint0_linear_603_14913" x1="238.3" y1="95.9814" x2="293.3" y2="95.9814" gradientUnits="userSpaceOnUse">
<stop stop-color="#235EE7"/>
<stop offset="1" stop-color="#8B2BB3"/>
</linearGradient>
<clipPath id="clip0_603_14913">
<rect width="12.5982" height="12.5982" fill="white" transform="translate(506.652 147.379)"/>
</clipPath>
</defs>
</svg>
