<svg width="562" height="269" viewBox="0 0 562 269" fill="none" xmlns="http://www.w3.org/2000/svg">
<rect x="0.5" y="0.5" width="559" height="259" rx="9.75954" fill="white"/>
<rect x="0.5" y="0.5" width="559" height="259" rx="9.75954" stroke="#E2E8F0"/>
<rect x="20.519" y="23.084" width="13.6794" height="13.6794" rx="6.83969" fill="#D92D20"/>
<path d="M24.9648 27.5298L29.7526 32.3176M29.7526 27.5298L24.9648 32.3176" stroke="white" stroke-width="0.98211" stroke-linecap="round" stroke-linejoin="round"/>
<path d="M45.1781 35.519L41.3381 24.869H43.0631L46.1981 33.719L49.3331 24.869H51.0581L47.2031 35.519H45.1781ZM55.1161 35.699C54.3361 35.699 53.6611 35.529 53.0911 35.189C52.5311 34.849 52.0961 34.364 51.7861 33.734C51.4861 33.104 51.3361 32.369 51.3361 31.529C51.3361 30.689 51.4861 29.959 51.7861 29.339C52.0961 28.709 52.5311 28.224 53.0911 27.884C53.6511 27.534 54.3111 27.359 55.0711 27.359C55.7911 27.359 56.4261 27.529 56.9761 27.869C57.5261 28.199 57.9511 28.679 58.2511 29.309C58.5611 29.939 58.7161 30.699 58.7161 31.589V31.994H52.9861C53.0261 32.774 53.2311 33.359 53.6011 33.749C53.9811 34.139 54.4911 34.334 55.1311 34.334C55.6011 34.334 55.9911 34.224 56.3011 34.004C56.6111 33.784 56.8261 33.489 56.9461 33.119L58.5961 33.224C58.3861 33.964 57.9711 34.564 57.3511 35.024C56.7411 35.474 55.9961 35.699 55.1161 35.699ZM52.9861 30.794H57.0361C56.9861 30.084 56.7811 29.559 56.4211 29.219C56.0711 28.879 55.6211 28.709 55.0711 28.709C54.5011 28.709 54.0311 28.889 53.6611 29.249C53.3011 29.599 53.0761 30.114 52.9861 30.794ZM60.3271 35.519V27.539H61.7821L61.8421 29.654L61.7071 29.609C61.8171 28.889 62.0371 28.364 62.3671 28.034C62.7071 27.704 63.1621 27.539 63.7321 27.539H64.4971V28.964H63.7321C63.3321 28.964 62.9971 29.029 62.7271 29.159C62.4571 29.289 62.2521 29.489 62.1121 29.759C61.9821 30.029 61.9171 30.379 61.9171 30.809V35.519H60.3271ZM65.8057 35.519V27.539H67.3957V35.519H65.8057ZM65.7757 26.384V24.794H67.4257V26.384H65.7757ZM69.9702 35.519V27.029C69.9702 26.369 70.1552 25.844 70.5252 25.454C70.8952 25.064 71.4752 24.869 72.2652 24.869H73.6752V26.174H72.4752C72.1652 26.174 71.9352 26.259 71.7852 26.429C71.6352 26.589 71.5602 26.819 71.5602 27.119V35.519H69.9702ZM68.8602 28.934V27.644H73.5552V28.934H68.8602ZM75.7918 37.769V36.464H76.7668C77.0368 36.464 77.2368 36.424 77.3668 36.344C77.4968 36.264 77.5968 36.129 77.6668 35.939L77.9218 35.279H77.4268L74.5468 27.539H76.2268L78.4168 33.809L80.5018 27.539H82.1968L79.0168 36.449C78.8568 36.909 78.6168 37.244 78.2968 37.454C77.9868 37.664 77.5518 37.769 76.9918 37.769H75.7918ZM89.9053 35.699C89.1053 35.699 88.4653 35.434 87.9853 34.904C87.5153 34.364 87.2803 33.619 87.2803 32.669V27.539H88.8703V32.264C88.8703 32.984 88.9953 33.514 89.2453 33.854C89.4953 34.194 89.8753 34.364 90.3853 34.364C90.9653 34.364 91.4153 34.179 91.7353 33.809C92.0653 33.429 92.2303 32.899 92.2303 32.219V27.539H93.8203V35.519H92.3353L92.3053 33.434L92.5303 33.524C92.3903 34.224 92.0953 34.764 91.6453 35.144C91.1953 35.514 90.6153 35.699 89.9053 35.699ZM98.9979 35.699C98.2479 35.699 97.6129 35.584 97.0929 35.354C96.5829 35.124 96.1879 34.809 95.9079 34.409C95.6279 33.999 95.4679 33.529 95.4279 32.999L97.0629 32.924C97.1429 33.364 97.3329 33.714 97.6329 33.974C97.9329 34.234 98.3879 34.364 98.9979 34.364C99.4979 34.364 99.8929 34.284 100.183 34.124C100.473 33.964 100.618 33.709 100.618 33.359C100.618 33.169 100.568 33.009 100.468 32.879C100.378 32.739 100.198 32.624 99.9279 32.534C99.6579 32.434 99.2579 32.339 98.7279 32.249C97.9379 32.099 97.3179 31.924 96.8679 31.724C96.4179 31.524 96.0979 31.269 95.9079 30.959C95.7179 30.649 95.6229 30.274 95.6229 29.834C95.6229 29.104 95.8929 28.509 96.4329 28.049C96.9829 27.589 97.7729 27.359 98.8029 27.359C99.4929 27.359 100.073 27.479 100.543 27.719C101.013 27.949 101.378 28.264 101.638 28.664C101.908 29.054 102.078 29.494 102.148 29.984L100.513 30.074C100.463 29.794 100.363 29.554 100.213 29.354C100.073 29.144 99.8829 28.984 99.6429 28.874C99.4029 28.754 99.1179 28.694 98.7879 28.694C98.2779 28.694 97.8979 28.794 97.6479 28.994C97.3979 29.194 97.2729 29.454 97.2729 29.774C97.2729 30.014 97.3279 30.209 97.4379 30.359C97.5579 30.509 97.7479 30.634 98.0079 30.734C98.2679 30.824 98.6129 30.904 99.0429 30.974C99.8729 31.114 100.523 31.289 100.993 31.499C101.463 31.699 101.793 31.949 101.983 32.249C102.173 32.549 102.268 32.914 102.268 33.344C102.268 33.844 102.128 34.269 101.848 34.619C101.568 34.969 101.183 35.239 100.693 35.429C100.203 35.609 99.6379 35.699 98.9979 35.699ZM107.162 35.699C106.382 35.699 105.707 35.529 105.137 35.189C104.577 34.849 104.142 34.364 103.832 33.734C103.532 33.104 103.382 32.369 103.382 31.529C103.382 30.689 103.532 29.959 103.832 29.339C104.142 28.709 104.577 28.224 105.137 27.884C105.697 27.534 106.357 27.359 107.117 27.359C107.837 27.359 108.472 27.529 109.022 27.869C109.572 28.199 109.997 28.679 110.297 29.309C110.607 29.939 110.762 30.699 110.762 31.589V31.994H105.032C105.072 32.774 105.277 33.359 105.647 33.749C106.027 34.139 106.537 34.334 107.177 34.334C107.647 34.334 108.037 34.224 108.347 34.004C108.657 33.784 108.872 33.489 108.992 33.119L110.642 33.224C110.432 33.964 110.017 34.564 109.397 35.024C108.787 35.474 108.042 35.699 107.162 35.699ZM105.032 30.794H109.082C109.032 30.084 108.827 29.559 108.467 29.219C108.117 28.879 107.667 28.709 107.117 28.709C106.547 28.709 106.077 28.889 105.707 29.249C105.347 29.599 105.122 30.114 105.032 30.794ZM112.373 35.519V27.539H113.828L113.888 29.654L113.753 29.609C113.863 28.889 114.083 28.364 114.413 28.034C114.753 27.704 115.208 27.539 115.778 27.539H116.543V28.964H115.778C115.378 28.964 115.043 29.029 114.773 29.159C114.503 29.289 114.298 29.489 114.158 29.759C114.028 30.029 113.963 30.379 113.963 30.809V35.519H112.373ZM125.209 35.699C124.449 35.699 123.784 35.529 123.214 35.189C122.644 34.849 122.204 34.364 121.894 33.734C121.584 33.104 121.429 32.369 121.429 31.529C121.429 30.689 121.584 29.959 121.894 29.339C122.204 28.709 122.644 28.224 123.214 27.884C123.784 27.534 124.449 27.359 125.209 27.359C125.859 27.359 126.434 27.474 126.934 27.704C127.444 27.924 127.854 28.249 128.164 28.679C128.484 29.109 128.689 29.634 128.779 30.254L127.114 30.344C127.034 29.824 126.824 29.429 126.484 29.159C126.144 28.879 125.719 28.739 125.209 28.739C124.539 28.739 124.014 28.989 123.634 29.489C123.264 29.979 123.079 30.659 123.079 31.529C123.079 32.399 123.264 33.084 123.634 33.584C124.014 34.074 124.539 34.319 125.209 34.319C125.719 34.319 126.144 34.179 126.484 33.899C126.824 33.609 127.034 33.174 127.114 32.594L128.779 32.684C128.689 33.294 128.484 33.824 128.164 34.274C127.854 34.724 127.444 35.074 126.934 35.324C126.434 35.574 125.859 35.699 125.209 35.699ZM132.626 35.699C131.796 35.699 131.131 35.509 130.631 35.129C130.141 34.749 129.896 34.214 129.896 33.524C129.896 32.834 130.101 32.299 130.511 31.919C130.931 31.529 131.576 31.249 132.446 31.079L135.191 30.554C135.191 29.934 135.046 29.474 134.756 29.174C134.466 28.864 134.036 28.709 133.466 28.709C132.956 28.709 132.556 28.824 132.266 29.054C131.976 29.274 131.776 29.604 131.666 30.044L130.031 29.939C130.181 29.139 130.551 28.509 131.141 28.049C131.741 27.589 132.516 27.359 133.466 27.359C134.546 27.359 135.366 27.649 135.926 28.229C136.496 28.799 136.781 29.604 136.781 30.644V33.749C136.781 33.939 136.811 34.074 136.871 34.154C136.941 34.224 137.051 34.259 137.201 34.259H137.486V35.519C137.436 35.529 137.356 35.539 137.246 35.549C137.136 35.559 137.021 35.564 136.901 35.564C136.561 35.564 136.266 35.509 136.016 35.399C135.776 35.289 135.596 35.109 135.476 34.859C135.356 34.599 135.296 34.254 135.296 33.824L135.461 33.899C135.381 34.249 135.206 34.559 134.936 34.829C134.676 35.099 134.341 35.314 133.931 35.474C133.531 35.624 133.096 35.699 132.626 35.699ZM132.881 34.439C133.361 34.439 133.771 34.349 134.111 34.169C134.451 33.979 134.716 33.719 134.906 33.389C135.096 33.059 135.191 32.684 135.191 32.264V31.754L132.851 32.204C132.371 32.294 132.031 32.439 131.831 32.639C131.641 32.829 131.546 33.074 131.546 33.374C131.546 33.714 131.661 33.979 131.891 34.169C132.131 34.349 132.461 34.439 132.881 34.439ZM138.828 35.519V27.539H140.283L140.343 29.669L140.148 29.564C140.238 29.044 140.408 28.624 140.658 28.304C140.908 27.984 141.213 27.749 141.573 27.599C141.933 27.439 142.323 27.359 142.743 27.359C143.343 27.359 143.838 27.494 144.228 27.764C144.628 28.024 144.928 28.384 145.128 28.844C145.338 29.294 145.443 29.809 145.443 30.389V35.519H143.853V30.869C143.853 30.399 143.803 30.004 143.703 29.684C143.603 29.364 143.438 29.119 143.208 28.949C142.978 28.779 142.678 28.694 142.308 28.694C141.748 28.694 141.293 28.879 140.943 29.249C140.593 29.619 140.418 30.159 140.418 30.869V35.519H138.828ZM154.413 35.699C153.663 35.699 153.028 35.584 152.508 35.354C151.998 35.124 151.603 34.809 151.323 34.409C151.043 33.999 150.883 33.529 150.843 32.999L152.478 32.924C152.558 33.364 152.748 33.714 153.048 33.974C153.348 34.234 153.803 34.364 154.413 34.364C154.913 34.364 155.308 34.284 155.598 34.124C155.888 33.964 156.033 33.709 156.033 33.359C156.033 33.169 155.983 33.009 155.883 32.879C155.793 32.739 155.613 32.624 155.343 32.534C155.073 32.434 154.673 32.339 154.143 32.249C153.353 32.099 152.733 31.924 152.283 31.724C151.833 31.524 151.513 31.269 151.323 30.959C151.133 30.649 151.038 30.274 151.038 29.834C151.038 29.104 151.308 28.509 151.848 28.049C152.398 27.589 153.188 27.359 154.218 27.359C154.908 27.359 155.488 27.479 155.958 27.719C156.428 27.949 156.793 28.264 157.053 28.664C157.323 29.054 157.493 29.494 157.563 29.984L155.928 30.074C155.878 29.794 155.778 29.554 155.628 29.354C155.488 29.144 155.298 28.984 155.058 28.874C154.818 28.754 154.533 28.694 154.203 28.694C153.693 28.694 153.313 28.794 153.063 28.994C152.813 29.194 152.688 29.454 152.688 29.774C152.688 30.014 152.743 30.209 152.853 30.359C152.973 30.509 153.163 30.634 153.423 30.734C153.683 30.824 154.028 30.904 154.458 30.974C155.288 31.114 155.938 31.289 156.408 31.499C156.878 31.699 157.208 31.949 157.398 32.249C157.588 32.549 157.683 32.914 157.683 33.344C157.683 33.844 157.543 34.269 157.263 34.619C156.983 34.969 156.598 35.239 156.108 35.429C155.618 35.609 155.053 35.699 154.413 35.699ZM159.292 35.519V27.539H160.882V35.519H159.292ZM159.262 26.384V24.794H160.912V26.384H159.262ZM166.193 37.949C165.563 37.949 165.008 37.854 164.528 37.664C164.048 37.474 163.653 37.204 163.343 36.854C163.033 36.514 162.823 36.114 162.713 35.654L164.363 35.549C164.473 35.879 164.663 36.139 164.933 36.329C165.213 36.529 165.633 36.629 166.193 36.629C166.853 36.629 167.358 36.489 167.708 36.209C168.068 35.929 168.248 35.504 168.248 34.934V33.779C168.058 34.189 167.753 34.514 167.333 34.754C166.913 34.994 166.443 35.114 165.923 35.114C165.253 35.114 164.658 34.949 164.138 34.619C163.618 34.289 163.213 33.834 162.923 33.254C162.633 32.674 162.488 32.004 162.488 31.244C162.488 30.474 162.628 29.799 162.908 29.219C163.198 28.639 163.598 28.184 164.108 27.854C164.628 27.524 165.213 27.359 165.863 27.359C166.433 27.359 166.933 27.489 167.363 27.749C167.803 28.009 168.118 28.359 168.308 28.799V27.539H169.838V34.889C169.838 35.549 169.688 36.104 169.388 36.554C169.098 37.014 168.678 37.359 168.128 37.589C167.588 37.829 166.943 37.949 166.193 37.949ZM166.178 33.764C166.798 33.764 167.293 33.539 167.663 33.089C168.043 32.639 168.238 32.019 168.248 31.229C168.258 30.709 168.178 30.264 168.008 29.894C167.838 29.514 167.593 29.224 167.273 29.024C166.963 28.814 166.598 28.709 166.178 28.709C165.528 28.709 165.023 28.939 164.663 29.399C164.313 29.849 164.138 30.459 164.138 31.229C164.138 32.009 164.318 32.629 164.678 33.089C165.048 33.539 165.548 33.764 166.178 33.764ZM172.095 35.519V27.539H173.55L173.61 29.669L173.415 29.564C173.505 29.044 173.675 28.624 173.925 28.304C174.175 27.984 174.48 27.749 174.84 27.599C175.2 27.439 175.59 27.359 176.01 27.359C176.61 27.359 177.105 27.494 177.495 27.764C177.895 28.024 178.195 28.384 178.395 28.844C178.605 29.294 178.71 29.809 178.71 30.389V35.519H177.12V30.869C177.12 30.399 177.07 30.004 176.97 29.684C176.87 29.364 176.705 29.119 176.475 28.949C176.245 28.779 175.945 28.694 175.575 28.694C175.015 28.694 174.56 28.879 174.21 29.249C173.86 29.619 173.685 30.159 173.685 30.869V35.519H172.095ZM187.229 35.699C186.429 35.699 185.789 35.434 185.309 34.904C184.839 34.364 184.604 33.619 184.604 32.669V27.539H186.194V32.264C186.194 32.984 186.319 33.514 186.569 33.854C186.819 34.194 187.199 34.364 187.709 34.364C188.289 34.364 188.739 34.179 189.059 33.809C189.389 33.429 189.554 32.899 189.554 32.219V27.539H191.144V35.519H189.659L189.629 33.434L189.854 33.524C189.714 34.224 189.419 34.764 188.969 35.144C188.519 35.514 187.939 35.699 187.229 35.699ZM193.394 37.769V27.539H194.894L194.939 29.249L194.759 29.159C194.959 28.569 195.289 28.124 195.749 27.824C196.209 27.514 196.739 27.359 197.339 27.359C198.119 27.359 198.759 27.554 199.259 27.944C199.769 28.324 200.144 28.829 200.384 29.459C200.634 30.089 200.759 30.779 200.759 31.529C200.759 32.279 200.634 32.969 200.384 33.599C200.144 34.229 199.769 34.739 199.259 35.129C198.759 35.509 198.119 35.699 197.339 35.699C196.939 35.699 196.564 35.629 196.214 35.489C195.864 35.349 195.564 35.154 195.314 34.904C195.074 34.644 194.904 34.339 194.804 33.989L194.984 33.809V37.769H193.394ZM197.054 34.319C197.694 34.319 198.194 34.074 198.554 33.584C198.924 33.094 199.109 32.409 199.109 31.529C199.109 30.649 198.924 29.964 198.554 29.474C198.194 28.984 197.694 28.739 197.054 28.739C196.634 28.739 196.269 28.844 195.959 29.054C195.649 29.254 195.409 29.564 195.239 29.984C195.069 30.404 194.984 30.919 194.984 31.529C194.984 32.139 195.064 32.654 195.224 33.074C195.394 33.494 195.634 33.809 195.944 34.019C196.264 34.219 196.634 34.319 197.054 34.319ZM206.977 35.519V27.029C206.977 26.369 207.162 25.844 207.532 25.454C207.902 25.064 208.482 24.869 209.272 24.869H210.682V26.174H209.482C209.172 26.174 208.942 26.259 208.792 26.429C208.642 26.589 208.567 26.819 208.567 27.119V35.519H206.977ZM205.867 28.934V27.644H210.562V28.934H205.867ZM215.004 35.699C214.244 35.699 213.579 35.529 213.009 35.189C212.439 34.849 211.999 34.364 211.689 33.734C211.379 33.104 211.224 32.369 211.224 31.529C211.224 30.679 211.379 29.944 211.689 29.324C211.999 28.704 212.439 28.224 213.009 27.884C213.579 27.534 214.244 27.359 215.004 27.359C215.764 27.359 216.429 27.534 216.999 27.884C217.569 28.224 218.009 28.704 218.319 29.324C218.629 29.944 218.784 30.679 218.784 31.529C218.784 32.369 218.629 33.104 218.319 33.734C218.009 34.364 217.569 34.849 216.999 35.189C216.429 35.529 215.764 35.699 215.004 35.699ZM215.004 34.319C215.684 34.319 216.209 34.074 216.579 33.584C216.949 33.084 217.134 32.399 217.134 31.529C217.134 30.659 216.949 29.979 216.579 29.489C216.209 28.989 215.684 28.739 215.004 28.739C214.334 28.739 213.809 28.989 213.429 29.489C213.059 29.979 212.874 30.659 212.874 31.529C212.874 32.399 213.059 33.084 213.429 33.584C213.809 34.074 214.334 34.319 215.004 34.319ZM220.391 35.519V27.539H221.846L221.906 29.654L221.771 29.609C221.881 28.889 222.101 28.364 222.431 28.034C222.771 27.704 223.226 27.539 223.796 27.539H224.561V28.964H223.796C223.396 28.964 223.061 29.029 222.791 29.159C222.521 29.289 222.316 29.489 222.176 29.759C222.046 30.029 221.981 30.379 221.981 30.809V35.519H220.391ZM233.001 35.519C232.241 35.519 231.681 35.344 231.321 34.994C230.961 34.644 230.781 34.099 230.781 33.359V25.664H232.371V33.239C232.371 33.609 232.451 33.864 232.611 34.004C232.771 34.144 233.016 34.214 233.346 34.214H234.486V35.519H233.001ZM229.566 28.844V27.539H234.486V28.844H229.566ZM239.159 35.699C238.379 35.699 237.704 35.529 237.134 35.189C236.574 34.849 236.139 34.364 235.829 33.734C235.529 33.104 235.379 32.369 235.379 31.529C235.379 30.689 235.529 29.959 235.829 29.339C236.139 28.709 236.574 28.224 237.134 27.884C237.694 27.534 238.354 27.359 239.114 27.359C239.834 27.359 240.469 27.529 241.019 27.869C241.569 28.199 241.994 28.679 242.294 29.309C242.604 29.939 242.759 30.699 242.759 31.589V31.994H237.029C237.069 32.774 237.274 33.359 237.644 33.749C238.024 34.139 238.534 34.334 239.174 34.334C239.644 34.334 240.034 34.224 240.344 34.004C240.654 33.784 240.869 33.489 240.989 33.119L242.639 33.224C242.429 33.964 242.014 34.564 241.394 35.024C240.784 35.474 240.039 35.699 239.159 35.699ZM237.029 30.794H241.079C241.029 30.084 240.824 29.559 240.464 29.219C240.114 28.879 239.664 28.709 239.114 28.709C238.544 28.709 238.074 28.889 237.704 29.249C237.344 29.599 237.119 30.114 237.029 30.794ZM247.445 35.699C246.695 35.699 246.06 35.584 245.54 35.354C245.03 35.124 244.635 34.809 244.355 34.409C244.075 33.999 243.915 33.529 243.875 32.999L245.51 32.924C245.59 33.364 245.78 33.714 246.08 33.974C246.38 34.234 246.835 34.364 247.445 34.364C247.945 34.364 248.34 34.284 248.63 34.124C248.92 33.964 249.065 33.709 249.065 33.359C249.065 33.169 249.015 33.009 248.915 32.879C248.825 32.739 248.645 32.624 248.375 32.534C248.105 32.434 247.705 32.339 247.175 32.249C246.385 32.099 245.765 31.924 245.315 31.724C244.865 31.524 244.545 31.269 244.355 30.959C244.165 30.649 244.07 30.274 244.07 29.834C244.07 29.104 244.34 28.509 244.88 28.049C245.43 27.589 246.22 27.359 247.25 27.359C247.94 27.359 248.52 27.479 248.99 27.719C249.46 27.949 249.825 28.264 250.085 28.664C250.355 29.054 250.525 29.494 250.595 29.984L248.96 30.074C248.91 29.794 248.81 29.554 248.66 29.354C248.52 29.144 248.33 28.984 248.09 28.874C247.85 28.754 247.565 28.694 247.235 28.694C246.725 28.694 246.345 28.794 246.095 28.994C245.845 29.194 245.72 29.454 245.72 29.774C245.72 30.014 245.775 30.209 245.885 30.359C246.005 30.509 246.195 30.634 246.455 30.734C246.715 30.824 247.06 30.904 247.49 30.974C248.32 31.114 248.97 31.289 249.44 31.499C249.91 31.699 250.24 31.949 250.43 32.249C250.62 32.549 250.715 32.914 250.715 33.344C250.715 33.844 250.575 34.269 250.295 34.619C250.015 34.969 249.63 35.239 249.14 35.429C248.65 35.609 248.085 35.699 247.445 35.699ZM255.091 35.519C254.331 35.519 253.771 35.344 253.411 34.994C253.051 34.644 252.871 34.099 252.871 33.359V25.664H254.461V33.239C254.461 33.609 254.541 33.864 254.701 34.004C254.861 34.144 255.106 34.214 255.436 34.214H256.576V35.519H255.091ZM251.656 28.844V27.539H256.576V28.844H251.656ZM258.261 35.519V24.869H261.681C263.351 24.869 264.636 25.334 265.536 26.264C266.436 27.184 266.886 28.499 266.886 30.209C266.886 31.909 266.441 33.219 265.551 34.139C264.671 35.059 263.411 35.519 261.771 35.519H258.261ZM259.881 34.034H261.681C262.861 34.034 263.741 33.719 264.321 33.089C264.911 32.449 265.206 31.489 265.206 30.209C265.206 28.909 264.911 27.944 264.321 27.314C263.741 26.674 262.861 26.354 261.681 26.354H259.881V34.034ZM268.452 35.519V27.539H270.042V35.519H268.452ZM268.422 26.384V24.794H270.072V26.384H268.422ZM272.422 35.519V27.539H273.877L273.937 29.669L273.742 29.564C273.832 29.044 274.002 28.624 274.252 28.304C274.502 27.984 274.807 27.749 275.167 27.599C275.527 27.439 275.917 27.359 276.337 27.359C276.937 27.359 277.432 27.494 277.822 27.764C278.222 28.024 278.522 28.384 278.722 28.844C278.932 29.294 279.037 29.809 279.037 30.389V35.519H277.447V30.869C277.447 30.399 277.397 30.004 277.297 29.684C277.197 29.364 277.032 29.119 276.802 28.949C276.572 28.779 276.272 28.694 275.902 28.694C275.342 28.694 274.887 28.879 274.537 29.249C274.187 29.619 274.012 30.159 274.012 30.869V35.519H272.422ZM284.393 35.699C283.633 35.699 282.968 35.529 282.398 35.189C281.828 34.849 281.388 34.364 281.078 33.734C280.768 33.104 280.613 32.369 280.613 31.529C280.613 30.679 280.768 29.944 281.078 29.324C281.388 28.704 281.828 28.224 282.398 27.884C282.968 27.534 283.633 27.359 284.393 27.359C285.153 27.359 285.818 27.534 286.388 27.884C286.958 28.224 287.398 28.704 287.708 29.324C288.018 29.944 288.173 30.679 288.173 31.529C288.173 32.369 288.018 33.104 287.708 33.734C287.398 34.364 286.958 34.849 286.388 35.189C285.818 35.529 285.153 35.699 284.393 35.699ZM284.393 34.319C285.073 34.319 285.598 34.074 285.968 33.584C286.338 33.084 286.523 32.399 286.523 31.529C286.523 30.659 286.338 29.979 285.968 29.489C285.598 28.989 285.073 28.739 284.393 28.739C283.723 28.739 283.198 28.989 282.818 29.489C282.448 29.979 282.263 30.659 282.263 31.529C282.263 32.399 282.448 33.084 282.818 33.584C283.198 34.074 283.723 34.319 284.393 34.319ZM295.809 35.699C294.979 35.699 294.314 35.509 293.814 35.129C293.324 34.749 293.079 34.214 293.079 33.524C293.079 32.834 293.284 32.299 293.694 31.919C294.114 31.529 294.759 31.249 295.629 31.079L298.374 30.554C298.374 29.934 298.229 29.474 297.939 29.174C297.649 28.864 297.219 28.709 296.649 28.709C296.139 28.709 295.739 28.824 295.449 29.054C295.159 29.274 294.959 29.604 294.849 30.044L293.214 29.939C293.364 29.139 293.734 28.509 294.324 28.049C294.924 27.589 295.699 27.359 296.649 27.359C297.729 27.359 298.549 27.649 299.109 28.229C299.679 28.799 299.964 29.604 299.964 30.644V33.749C299.964 33.939 299.994 34.074 300.054 34.154C300.124 34.224 300.234 34.259 300.384 34.259H300.669V35.519C300.619 35.529 300.539 35.539 300.429 35.549C300.319 35.559 300.204 35.564 300.084 35.564C299.744 35.564 299.449 35.509 299.199 35.399C298.959 35.289 298.779 35.109 298.659 34.859C298.539 34.599 298.479 34.254 298.479 33.824L298.644 33.899C298.564 34.249 298.389 34.559 298.119 34.829C297.859 35.099 297.524 35.314 297.114 35.474C296.714 35.624 296.279 35.699 295.809 35.699ZM296.064 34.439C296.544 34.439 296.954 34.349 297.294 34.169C297.634 33.979 297.899 33.719 298.089 33.389C298.279 33.059 298.374 32.684 298.374 32.264V31.754L296.034 32.204C295.554 32.294 295.214 32.439 295.014 32.639C294.824 32.829 294.729 33.074 294.729 33.374C294.729 33.714 294.844 33.979 295.074 34.169C295.314 34.349 295.644 34.439 296.064 34.439ZM302.012 35.519V27.539H303.467L303.527 29.669L303.332 29.564C303.422 29.044 303.592 28.624 303.842 28.304C304.092 27.984 304.397 27.749 304.757 27.599C305.117 27.439 305.507 27.359 305.927 27.359C306.527 27.359 307.022 27.494 307.412 27.764C307.812 28.024 308.112 28.384 308.312 28.844C308.522 29.294 308.627 29.809 308.627 30.389V35.519H307.037V30.869C307.037 30.399 306.987 30.004 306.887 29.684C306.787 29.364 306.622 29.119 306.392 28.949C306.162 28.779 305.862 28.694 305.492 28.694C304.932 28.694 304.477 28.879 304.127 29.249C303.777 29.619 303.602 30.159 303.602 30.869V35.519H302.012ZM313.533 35.699C312.853 35.699 312.258 35.529 311.748 35.189C311.248 34.849 310.863 34.369 310.593 33.749C310.333 33.119 310.203 32.379 310.203 31.529C310.203 30.679 310.338 29.944 310.608 29.324C310.878 28.694 311.263 28.209 311.763 27.869C312.263 27.529 312.853 27.359 313.533 27.359C314.083 27.359 314.573 27.474 315.003 27.704C315.433 27.934 315.758 28.254 315.978 28.664V24.869H317.568V35.519H316.083L316.038 34.319C315.818 34.749 315.483 35.089 315.033 35.339C314.593 35.579 314.093 35.699 313.533 35.699ZM313.953 34.319C314.383 34.319 314.748 34.209 315.048 33.989C315.348 33.769 315.578 33.449 315.738 33.029C315.898 32.609 315.978 32.109 315.978 31.529C315.978 30.929 315.898 30.424 315.738 30.014C315.578 29.594 315.348 29.279 315.048 29.069C314.748 28.849 314.383 28.739 313.953 28.739C313.313 28.739 312.803 28.989 312.423 29.489C312.043 29.979 311.853 30.659 311.853 31.529C311.853 32.389 312.043 33.069 312.423 33.569C312.803 34.069 313.313 34.319 313.953 34.319ZM323.472 35.519V27.539H324.927L324.987 29.654L324.852 29.609C324.962 28.889 325.182 28.364 325.512 28.034C325.852 27.704 326.307 27.539 326.877 27.539H327.642V28.964H326.877C326.477 28.964 326.142 29.029 325.872 29.159C325.602 29.289 325.397 29.489 325.257 29.759C325.127 30.029 325.062 30.379 325.062 30.809V35.519H323.472ZM332.059 35.699C331.279 35.699 330.604 35.529 330.034 35.189C329.474 34.849 329.039 34.364 328.729 33.734C328.429 33.104 328.279 32.369 328.279 31.529C328.279 30.689 328.429 29.959 328.729 29.339C329.039 28.709 329.474 28.224 330.034 27.884C330.594 27.534 331.254 27.359 332.014 27.359C332.734 27.359 333.369 27.529 333.919 27.869C334.469 28.199 334.894 28.679 335.194 29.309C335.504 29.939 335.659 30.699 335.659 31.589V31.994H329.929C329.969 32.774 330.174 33.359 330.544 33.749C330.924 34.139 331.434 34.334 332.074 34.334C332.544 34.334 332.934 34.224 333.244 34.004C333.554 33.784 333.769 33.489 333.889 33.119L335.539 33.224C335.329 33.964 334.914 34.564 334.294 35.024C333.684 35.474 332.939 35.699 332.059 35.699ZM329.929 30.794H333.979C333.929 30.084 333.724 29.559 333.364 29.219C333.014 28.879 332.564 28.709 332.014 28.709C331.444 28.709 330.974 28.889 330.604 29.249C330.244 29.599 330.019 30.114 329.929 30.794ZM340.556 35.699C339.796 35.699 339.131 35.529 338.561 35.189C337.991 34.849 337.551 34.364 337.241 33.734C336.931 33.104 336.776 32.369 336.776 31.529C336.776 30.689 336.931 29.959 337.241 29.339C337.551 28.709 337.991 28.224 338.561 27.884C339.131 27.534 339.796 27.359 340.556 27.359C341.206 27.359 341.781 27.474 342.281 27.704C342.791 27.924 343.201 28.249 343.511 28.679C343.831 29.109 344.036 29.634 344.126 30.254L342.461 30.344C342.381 29.824 342.171 29.429 341.831 29.159C341.491 28.879 341.066 28.739 340.556 28.739C339.886 28.739 339.361 28.989 338.981 29.489C338.611 29.979 338.426 30.659 338.426 31.529C338.426 32.399 338.611 33.084 338.981 33.584C339.361 34.074 339.886 34.319 340.556 34.319C341.066 34.319 341.491 34.179 341.831 33.899C342.171 33.609 342.381 33.174 342.461 32.594L344.126 32.684C344.036 33.294 343.831 33.824 343.511 34.274C343.201 34.724 342.791 35.074 342.281 35.324C341.781 35.574 341.206 35.699 340.556 35.699ZM348.861 35.699C348.081 35.699 347.406 35.529 346.836 35.189C346.276 34.849 345.841 34.364 345.531 33.734C345.231 33.104 345.081 32.369 345.081 31.529C345.081 30.689 345.231 29.959 345.531 29.339C345.841 28.709 346.276 28.224 346.836 27.884C347.396 27.534 348.056 27.359 348.816 27.359C349.536 27.359 350.171 27.529 350.721 27.869C351.271 28.199 351.696 28.679 351.996 29.309C352.306 29.939 352.461 30.699 352.461 31.589V31.994H346.731C346.771 32.774 346.976 33.359 347.346 33.749C347.726 34.139 348.236 34.334 348.876 34.334C349.346 34.334 349.736 34.224 350.046 34.004C350.356 33.784 350.571 33.489 350.691 33.119L352.341 33.224C352.131 33.964 351.716 34.564 351.096 35.024C350.486 35.474 349.741 35.699 348.861 35.699ZM346.731 30.794H350.781C350.731 30.084 350.526 29.559 350.166 29.219C349.816 28.879 349.366 28.709 348.816 28.709C348.246 28.709 347.776 28.889 347.406 29.249C347.046 29.599 346.821 30.114 346.731 30.794ZM354.072 35.519V27.539H355.662V35.519H354.072ZM354.042 26.384V24.794H355.692V26.384H354.042ZM359.879 35.519L356.969 27.539H358.664L360.839 33.899L363.014 27.539H364.724L361.799 35.519H359.879ZM369.032 35.699C368.252 35.699 367.577 35.529 367.007 35.189C366.447 34.849 366.012 34.364 365.702 33.734C365.402 33.104 365.252 32.369 365.252 31.529C365.252 30.689 365.402 29.959 365.702 29.339C366.012 28.709 366.447 28.224 367.007 27.884C367.567 27.534 368.227 27.359 368.987 27.359C369.707 27.359 370.342 27.529 370.892 27.869C371.442 28.199 371.867 28.679 372.167 29.309C372.477 29.939 372.632 30.699 372.632 31.589V31.994H366.902C366.942 32.774 367.147 33.359 367.517 33.749C367.897 34.139 368.407 34.334 369.047 34.334C369.517 34.334 369.907 34.224 370.217 34.004C370.527 33.784 370.742 33.489 370.862 33.119L372.512 33.224C372.302 33.964 371.887 34.564 371.267 35.024C370.657 35.474 369.912 35.699 369.032 35.699ZM366.902 30.794H370.952C370.902 30.084 370.697 29.559 370.337 29.219C369.987 28.879 369.537 28.709 368.987 28.709C368.417 28.709 367.947 28.889 367.577 29.249C367.217 29.599 366.992 30.114 366.902 30.794ZM381.322 35.699C380.562 35.699 379.897 35.529 379.327 35.189C378.757 34.849 378.317 34.364 378.007 33.734C377.697 33.104 377.542 32.369 377.542 31.529C377.542 30.689 377.697 29.959 378.007 29.339C378.317 28.709 378.757 28.224 379.327 27.884C379.897 27.534 380.562 27.359 381.322 27.359C381.972 27.359 382.547 27.474 383.047 27.704C383.557 27.924 383.967 28.249 384.277 28.679C384.597 29.109 384.802 29.634 384.892 30.254L383.227 30.344C383.147 29.824 382.937 29.429 382.597 29.159C382.257 28.879 381.832 28.739 381.322 28.739C380.652 28.739 380.127 28.989 379.747 29.489C379.377 29.979 379.192 30.659 379.192 31.529C379.192 32.399 379.377 33.084 379.747 33.584C380.127 34.074 380.652 34.319 381.322 34.319C381.832 34.319 382.257 34.179 382.597 33.899C382.937 33.609 383.147 33.174 383.227 32.594L384.892 32.684C384.802 33.294 384.597 33.824 384.277 34.274C383.967 34.724 383.557 35.074 383.047 35.324C382.547 35.574 381.972 35.699 381.322 35.699ZM389.628 35.699C388.868 35.699 388.203 35.529 387.633 35.189C387.063 34.849 386.623 34.364 386.313 33.734C386.003 33.104 385.848 32.369 385.848 31.529C385.848 30.679 386.003 29.944 386.313 29.324C386.623 28.704 387.063 28.224 387.633 27.884C388.203 27.534 388.868 27.359 389.628 27.359C390.388 27.359 391.053 27.534 391.623 27.884C392.193 28.224 392.633 28.704 392.943 29.324C393.253 29.944 393.408 30.679 393.408 31.529C393.408 32.369 393.253 33.104 392.943 33.734C392.633 34.364 392.193 34.849 391.623 35.189C391.053 35.529 390.388 35.699 389.628 35.699ZM389.628 34.319C390.308 34.319 390.833 34.074 391.203 33.584C391.573 33.084 391.758 32.399 391.758 31.529C391.758 30.659 391.573 29.979 391.203 29.489C390.833 28.989 390.308 28.739 389.628 28.739C388.958 28.739 388.433 28.989 388.053 29.489C387.683 29.979 387.498 30.659 387.498 31.529C387.498 32.399 387.683 33.084 388.053 33.584C388.433 34.074 388.958 34.319 389.628 34.319ZM395.015 35.519V27.539H396.47L396.53 29.669L396.335 29.564C396.425 29.044 396.595 28.624 396.845 28.304C397.095 27.984 397.4 27.749 397.76 27.599C398.12 27.439 398.51 27.359 398.93 27.359C399.53 27.359 400.025 27.494 400.415 27.764C400.815 28.024 401.115 28.384 401.315 28.844C401.525 29.294 401.63 29.809 401.63 30.389V35.519H400.04V30.869C400.04 30.399 399.99 30.004 399.89 29.684C399.79 29.364 399.625 29.119 399.395 28.949C399.165 28.779 398.865 28.694 398.495 28.694C397.935 28.694 397.48 28.879 397.13 29.249C396.78 29.619 396.605 30.159 396.605 30.869V35.519H395.015ZM404.218 35.519V27.029C404.218 26.369 404.403 25.844 404.773 25.454C405.143 25.064 405.723 24.869 406.513 24.869H407.923V26.174H406.723C406.413 26.174 406.183 26.259 406.033 26.429C405.883 26.589 405.808 26.819 405.808 27.119V35.519H404.218ZM403.108 28.934V27.644H407.803V28.934H403.108ZM409.363 35.519V27.539H410.953V35.519H409.363ZM409.348 26.384V24.794H410.998V26.384H409.348ZM413.354 35.519V27.539H414.809L414.869 29.654L414.734 29.609C414.844 28.889 415.064 28.364 415.394 28.034C415.734 27.704 416.189 27.539 416.759 27.539H417.524V28.964H416.759C416.359 28.964 416.024 29.029 415.754 29.159C415.484 29.289 415.279 29.489 415.139 29.759C415.009 30.029 414.944 30.379 414.944 30.809V35.519H413.354ZM418.716 35.519V27.539H420.171L420.216 29.519L420.036 29.459C420.126 29.019 420.281 28.644 420.501 28.334C420.731 28.024 421.011 27.784 421.341 27.614C421.671 27.444 422.031 27.359 422.421 27.359C423.101 27.359 423.656 27.554 424.086 27.944C424.516 28.324 424.786 28.849 424.896 29.519H424.641C424.731 29.049 424.881 28.659 425.091 28.349C425.311 28.029 425.591 27.784 425.931 27.614C426.271 27.444 426.656 27.359 427.086 27.359C427.646 27.359 428.121 27.479 428.511 27.719C428.911 27.949 429.211 28.289 429.411 28.739C429.621 29.189 429.726 29.739 429.726 30.389V35.519H428.136V30.779C428.136 30.089 428.011 29.569 427.761 29.219C427.511 28.869 427.131 28.694 426.621 28.694C426.291 28.694 426.001 28.779 425.751 28.949C425.501 29.119 425.306 29.364 425.166 29.684C425.036 30.004 424.971 30.389 424.971 30.839V35.519H423.456V30.839C423.456 30.159 423.341 29.634 423.111 29.264C422.891 28.884 422.511 28.694 421.971 28.694C421.631 28.694 421.336 28.779 421.086 28.949C420.846 29.119 420.656 29.369 420.516 29.699C420.376 30.019 420.306 30.399 420.306 30.839V35.519H418.716ZM434.061 35.699C433.231 35.699 432.566 35.509 432.066 35.129C431.576 34.749 431.331 34.214 431.331 33.524C431.331 32.834 431.536 32.299 431.946 31.919C432.366 31.529 433.011 31.249 433.881 31.079L436.626 30.554C436.626 29.934 436.481 29.474 436.191 29.174C435.901 28.864 435.471 28.709 434.901 28.709C434.391 28.709 433.991 28.824 433.701 29.054C433.411 29.274 433.211 29.604 433.101 30.044L431.466 29.939C431.616 29.139 431.986 28.509 432.576 28.049C433.176 27.589 433.951 27.359 434.901 27.359C435.981 27.359 436.801 27.649 437.361 28.229C437.931 28.799 438.216 29.604 438.216 30.644V33.749C438.216 33.939 438.246 34.074 438.306 34.154C438.376 34.224 438.486 34.259 438.636 34.259H438.921V35.519C438.871 35.529 438.791 35.539 438.681 35.549C438.571 35.559 438.456 35.564 438.336 35.564C437.996 35.564 437.701 35.509 437.451 35.399C437.211 35.289 437.031 35.109 436.911 34.859C436.791 34.599 436.731 34.254 436.731 33.824L436.896 33.899C436.816 34.249 436.641 34.559 436.371 34.829C436.111 35.099 435.776 35.314 435.366 35.474C434.966 35.624 434.531 35.699 434.061 35.699ZM434.316 34.439C434.796 34.439 435.206 34.349 435.546 34.169C435.886 33.979 436.151 33.719 436.341 33.389C436.531 33.059 436.626 32.684 436.626 32.264V31.754L434.286 32.204C433.806 32.294 433.466 32.439 433.266 32.639C433.076 32.829 432.981 33.074 432.981 33.374C432.981 33.714 433.096 33.979 433.326 34.169C433.566 34.349 433.896 34.439 434.316 34.439ZM442.914 35.519C442.154 35.519 441.594 35.344 441.234 34.994C440.874 34.644 440.694 34.099 440.694 33.359V25.664H442.284V33.239C442.284 33.609 442.364 33.864 442.524 34.004C442.684 34.144 442.929 34.214 443.259 34.214H444.399V35.519H442.914ZM439.479 28.844V27.539H444.399V28.844H439.479ZM445.918 35.519V27.539H447.508V35.519H445.918ZM445.888 26.384V24.794H447.538V26.384H445.888ZM452.894 35.699C452.134 35.699 451.469 35.529 450.899 35.189C450.329 34.849 449.889 34.364 449.579 33.734C449.269 33.104 449.114 32.369 449.114 31.529C449.114 30.679 449.269 29.944 449.579 29.324C449.889 28.704 450.329 28.224 450.899 27.884C451.469 27.534 452.134 27.359 452.894 27.359C453.654 27.359 454.319 27.534 454.889 27.884C455.459 28.224 455.899 28.704 456.209 29.324C456.519 29.944 456.674 30.679 456.674 31.529C456.674 32.369 456.519 33.104 456.209 33.734C455.899 34.364 455.459 34.849 454.889 35.189C454.319 35.529 453.654 35.699 452.894 35.699ZM452.894 34.319C453.574 34.319 454.099 34.074 454.469 33.584C454.839 33.084 455.024 32.399 455.024 31.529C455.024 30.659 454.839 29.979 454.469 29.489C454.099 28.989 453.574 28.739 452.894 28.739C452.224 28.739 451.699 28.989 451.319 29.489C450.949 29.979 450.764 30.659 450.764 31.529C450.764 32.399 450.949 33.084 451.319 33.584C451.699 34.074 452.224 34.319 452.894 34.319ZM458.281 35.519V27.539H459.736L459.796 29.669L459.601 29.564C459.691 29.044 459.861 28.624 460.111 28.304C460.361 27.984 460.666 27.749 461.026 27.599C461.386 27.439 461.776 27.359 462.196 27.359C462.796 27.359 463.291 27.494 463.681 27.764C464.081 28.024 464.381 28.384 464.581 28.844C464.791 29.294 464.896 29.809 464.896 30.389V35.519H463.306V30.869C463.306 30.399 463.256 30.004 463.156 29.684C463.056 29.364 462.891 29.119 462.661 28.949C462.431 28.779 462.131 28.694 461.761 28.694C461.201 28.694 460.746 28.879 460.396 29.249C460.046 29.619 459.871 30.159 459.871 30.869V35.519H458.281Z" fill="#0F172A"/>
<rect x="20.519" y="52.7791" width="58.9924" height="15.3893" rx="3.41985" fill="#E2E8F0" fill-opacity="0.5"/>
<rect x="89.771" y="52.7791" width="58.9924" height="15.3893" rx="3.41985" fill="#E2E8F0" fill-opacity="0.5"/>
<rect x="159.023" y="52.7791" width="47.0229" height="15.3893" rx="3.41985" fill="#E2E8F0" fill-opacity="0.5"/>
<rect x="216.306" y="52.7791" width="113.71" height="15.3893" rx="3.41985" fill="#E2E8F0" fill-opacity="0.5"/>
<rect x="340.275" y="52.7791" width="112" height="15.3893" rx="3.41985" fill="#E2E8F0" fill-opacity="0.5"/>
<rect x="20.519" y="79.5115" width="287.42" height="32.9401" rx="5.49001" fill="#F1F5F9"/>
<path d="M24.1792 85.0016C24.1792 83.4856 25.4082 82.2566 26.9242 82.2566H118.524C120.04 82.2566 121.269 83.4856 121.269 85.0016V106.962C121.269 108.478 120.04 109.707 118.524 109.707H26.9242C25.4082 109.707 24.1792 108.478 24.1792 106.962V85.0016Z" fill="white"/>
<g opacity="0.6">
<path d="M40.7634 94.247V93.1795C40.7634 92.3022 40.7634 91.8635 40.5211 91.5683C40.4767 91.5142 40.4272 91.4647 40.3731 91.4203C40.0778 91.178 39.6392 91.178 38.7618 91.178C37.8845 91.178 37.4458 91.178 37.1505 91.4203C37.0965 91.4647 37.0469 91.5142 37.0026 91.5683C36.7603 91.8635 36.7603 92.3022 36.7603 93.1795V94.247C36.7603 95.1244 36.7603 95.5631 37.0026 95.8583C37.0469 95.9124 37.0965 95.9619 37.1505 96.0063C37.4458 96.2486 37.8845 96.2486 38.7618 96.2486C39.6392 96.2486 40.0778 96.2486 40.3731 96.0063C40.4272 95.9619 40.4767 95.9124 40.5211 95.8583C40.7634 95.5631 40.7634 95.1244 40.7634 94.247Z" stroke="#475569" stroke-width="0.610001" stroke-linejoin="round"/>
<path d="M39.2956 97.8499H38.2281C37.8556 97.8499 37.6694 97.8499 37.5179 97.8958C37.1767 97.9993 36.9097 98.2663 36.8062 98.6075C36.7603 98.759 36.7603 98.9452 36.7603 99.3177C36.7603 99.6901 36.7603 99.8763 36.8062 100.028C36.9097 100.369 37.1767 100.636 37.5179 100.74C37.6694 100.785 37.8556 100.785 38.2281 100.785H39.2956C39.668 100.785 39.8542 100.785 40.0058 100.74C40.3469 100.636 40.6139 100.369 40.7174 100.028C40.7634 99.8763 40.7634 99.6901 40.7634 99.3177C40.7634 98.9452 40.7634 98.759 40.7174 98.6075C40.6139 98.2663 40.3469 97.9993 40.0058 97.8958C39.8542 97.8499 39.668 97.8499 39.2956 97.8499Z" stroke="#475569" stroke-width="0.610001" stroke-linejoin="round"/>
<path d="M46.3679 98.7839V97.7164C46.3679 96.8391 46.3679 96.4004 46.1256 96.1051C46.0812 96.0511 46.0317 96.0015 45.9776 95.9572C45.6823 95.7148 45.2436 95.7148 44.3663 95.7148C43.489 95.7148 43.0503 95.7148 42.755 95.9572C42.701 96.0015 42.6514 96.0511 42.6071 96.1051C42.3647 96.4004 42.3647 96.8391 42.3647 97.7164V98.7839C42.3647 99.6612 42.3647 100.1 42.6071 100.395C42.6514 100.449 42.701 100.499 42.755 100.543C43.0503 100.785 43.489 100.785 44.3663 100.785C45.2436 100.785 45.6823 100.785 45.9776 100.543C46.0317 100.499 46.0812 100.449 46.1256 100.395C46.3679 100.1 46.3679 99.6612 46.3679 98.7839Z" stroke="#475569" stroke-width="0.610001" stroke-linejoin="round"/>
<path d="M44.9001 91.178H43.8326C43.4601 91.178 43.2739 91.178 43.1224 91.2239C42.7812 91.3274 42.5142 91.5944 42.4107 91.9356C42.3647 92.0871 42.3647 92.2734 42.3647 92.6458C42.3647 93.0182 42.3647 93.2045 42.4107 93.356C42.5142 93.6972 42.7812 93.9641 43.1224 94.0676C43.2739 94.1136 43.4601 94.1136 43.8326 94.1136H44.9001C45.2725 94.1136 45.4587 94.1136 45.6103 94.0676C45.9514 93.9641 46.2184 93.6972 46.3219 93.356C46.3679 93.2045 46.3679 93.0182 46.3679 92.6458C46.3679 92.2734 46.3679 92.0871 46.3219 91.9356C46.2184 91.5944 45.9514 91.3274 45.6103 91.2239C45.4587 91.178 45.2725 91.178 44.9001 91.178Z" stroke="#475569" stroke-width="0.610001" stroke-linejoin="round"/>
</g>
<path opacity="0.6" d="M60.016 100.687C59.1534 100.687 58.4104 100.499 57.787 100.123C57.1721 99.7387 56.6982 99.1921 56.3651 98.4833C56.032 97.7745 55.8655 96.929 55.8655 95.9469C55.8655 94.9648 56.032 94.1194 56.3651 93.4106C56.6982 92.6932 57.1721 92.1424 57.787 91.7581C58.4104 91.3738 59.1534 91.1816 60.016 91.1816C60.887 91.1816 61.63 91.3738 62.2449 91.7581C62.8683 92.1424 63.3466 92.6932 63.6796 93.4106C64.0127 94.1194 64.1792 94.9648 64.1792 95.9469C64.1792 96.929 64.0127 97.7745 63.6796 98.4833C63.3466 99.1921 62.8683 99.7387 62.2449 100.123C61.63 100.499 60.887 100.687 60.016 100.687ZM60.016 99.6106C60.6479 99.6106 61.1859 99.4654 61.63 99.1751C62.0826 98.8847 62.4285 98.4662 62.6676 97.9197C62.9068 97.3731 63.0263 96.7155 63.0263 95.9469C63.0263 95.1783 62.9068 94.5208 62.6676 93.9742C62.4285 93.4191 62.0826 92.9964 61.63 92.706C61.1859 92.4071 60.6479 92.2577 60.016 92.2577C59.3925 92.2577 58.8545 92.4071 58.4019 92.706C57.9578 92.9964 57.6162 93.4191 57.3771 93.9742C57.138 94.5208 57.0184 95.1783 57.0184 95.9469C57.0184 96.7155 57.138 97.3731 57.3771 97.9197C57.6162 98.4662 57.9578 98.8847 58.4019 99.1751C58.8545 99.4654 59.3925 99.6106 60.016 99.6106ZM67.3255 100.482L64.8531 93.6924H66.0317L68.0044 99.38L69.9772 93.6924H71.1557L68.6833 100.482H67.3255ZM74.7779 100.635C74.1374 100.635 73.5823 100.49 73.1126 100.2C72.6515 99.9095 72.2928 99.4996 72.0366 98.9701C71.7889 98.4321 71.6651 97.8044 71.6651 97.087C71.6651 96.3697 71.7889 95.7462 72.0366 95.2168C72.2928 94.6873 72.6472 94.2774 73.0998 93.987C73.561 93.6881 74.1033 93.5387 74.7267 93.5387C75.3159 93.5387 75.8369 93.6796 76.2895 93.9614C76.7421 94.2347 77.0923 94.636 77.3399 95.1655C77.5961 95.695 77.7242 96.3398 77.7242 97.0998V97.4201H72.7924C72.8351 98.146 73.0272 98.6926 73.3688 99.0598C73.719 99.427 74.1887 99.6106 74.7779 99.6106C75.222 99.6106 75.5849 99.5081 75.8668 99.3032C76.1571 99.0897 76.3578 98.8121 76.4688 98.4705L77.6217 98.5602C77.4424 99.1665 77.1008 99.6661 76.5969 100.059C76.1016 100.443 75.4953 100.635 74.7779 100.635ZM72.7924 96.4722H76.5457C76.4945 95.8146 76.3023 95.3321 75.9692 95.0246C75.6447 94.7172 75.2305 94.5635 74.7267 94.5635C74.2057 94.5635 73.7745 94.7257 73.4329 95.0502C73.0998 95.3662 72.8863 95.8402 72.7924 96.4722ZM79.1818 100.482V93.6924H80.1297L80.1809 95.4089L80.0785 95.3705C80.1639 94.7898 80.3475 94.367 80.6293 94.1023C80.9197 93.829 81.304 93.6924 81.7822 93.6924H82.4483V94.7172H81.795C81.4534 94.7172 81.1673 94.7812 80.9367 94.9093C80.7147 95.0289 80.5439 95.2125 80.4243 95.4602C80.3133 95.6993 80.2578 96.0067 80.2578 96.3825V100.482H79.1818ZM85.4397 100.482L82.9673 93.6924H84.1458L86.1186 99.38L88.0913 93.6924H89.2699L86.7975 100.482H85.4397ZM90.4531 100.482V93.6924H91.5291V100.482H90.4531ZM90.4275 92.6291V91.3738H91.5547V92.6291H90.4275ZM96.1071 100.635C95.4666 100.635 94.9115 100.49 94.4418 100.2C93.9806 99.9095 93.622 99.4996 93.3658 98.9701C93.1181 98.4321 92.9943 97.8044 92.9943 97.087C92.9943 96.3697 93.1181 95.7462 93.3658 95.2168C93.622 94.6873 93.9764 94.2774 94.429 93.987C94.8902 93.6881 95.4324 93.5387 96.0559 93.5387C96.6451 93.5387 97.1661 93.6796 97.6187 93.9614C98.0713 94.2347 98.4215 94.636 98.6691 95.1655C98.9253 95.695 99.0534 96.3398 99.0534 97.0998V97.4201H94.1216C94.1643 98.146 94.3564 98.6926 94.698 99.0598C95.0481 99.427 95.5178 99.6106 96.1071 99.6106C96.5512 99.6106 96.9141 99.5081 97.196 99.3032C97.4863 99.0897 97.687 98.8121 97.798 98.4705L98.9509 98.5602C98.7716 99.1665 98.43 99.6661 97.9261 100.059C97.4308 100.443 96.8245 100.635 96.1071 100.635ZM94.1216 96.4722H97.8749C97.8237 95.8146 97.6315 95.3321 97.2984 95.0246C96.9739 94.7172 96.5597 94.5635 96.0559 94.5635C95.5349 94.5635 95.1037 94.7257 94.7621 95.0502C94.429 95.3662 94.2155 95.8402 94.1216 96.4722ZM101.669 100.482L99.5678 93.6924H100.746L102.335 99.3544L103.949 93.6924H105.102L106.716 99.3544L108.317 93.6924H109.496L107.395 100.482H106.037L104.525 95.3192L103.014 100.482H101.669Z" fill="#475569"/>
<g opacity="0.6">
<path d="M138.654 101.319C141.602 101.319 143.991 98.9291 143.991 95.9813C143.991 93.0335 141.602 90.6438 138.654 90.6438C135.706 90.6438 133.316 93.0335 133.316 95.9813C133.316 98.9291 135.706 101.319 138.654 101.319Z" stroke="#0F172A" stroke-width="0.610001"/>
<path d="M138.654 93.8464V95.9814L139.721 97.0489" stroke="black" stroke-width="0.610001" stroke-linecap="round" stroke-linejoin="round"/>
</g>
<path opacity="0.6" d="M153.557 100.481V91.3863H154.659V95.8058L154.095 95.3702H159.796L159.232 95.8058V91.3863H160.334V100.481H159.232V96.0107L159.796 96.4463H154.095L154.659 96.0107V100.481H153.557ZM162.286 100.481V93.6921H163.362V100.481H162.286ZM162.26 92.6289V91.3735H163.387V92.6289H162.26ZM167.76 100.635C167.154 100.635 166.637 100.537 166.21 100.341C165.792 100.144 165.463 99.8751 165.224 99.5335C164.993 99.1834 164.861 98.7863 164.827 98.3422L165.954 98.2653C166.022 98.6752 166.198 99.004 166.479 99.2517C166.761 99.4908 167.188 99.6104 167.76 99.6104C168.222 99.6104 168.589 99.5378 168.862 99.3926C169.144 99.2389 169.285 98.9955 169.285 98.6624C169.285 98.4831 169.242 98.3336 169.157 98.2141C169.071 98.0945 168.905 97.992 168.657 97.9066C168.409 97.8127 168.042 97.723 167.555 97.6376C166.906 97.5181 166.394 97.3729 166.018 97.2021C165.651 97.0227 165.386 96.805 165.224 96.5488C165.07 96.284 164.993 95.9723 164.993 95.6136C164.993 95.0073 165.215 94.512 165.66 94.1277C166.104 93.7348 166.736 93.5384 167.555 93.5384C168.11 93.5384 168.576 93.6409 168.952 93.8459C169.336 94.0423 169.635 94.307 169.848 94.6401C170.07 94.9646 170.216 95.3233 170.284 95.7161L169.157 95.793C169.105 95.5539 169.011 95.3446 168.875 95.1653C168.738 94.9774 168.559 94.8322 168.337 94.7297C168.115 94.6187 167.85 94.5632 167.543 94.5632C167.056 94.5632 166.697 94.6572 166.467 94.845C166.236 95.0329 166.121 95.272 166.121 95.5624C166.121 95.7844 166.172 95.968 166.274 96.1132C166.385 96.2499 166.56 96.3652 166.8 96.4591C167.039 96.5445 167.359 96.6214 167.76 96.6897C168.452 96.8092 168.99 96.9544 169.374 97.1252C169.759 97.296 170.028 97.5052 170.181 97.7529C170.335 98.0006 170.412 98.3037 170.412 98.6624C170.412 99.0809 170.292 99.4396 170.053 99.7385C169.823 100.029 169.507 100.251 169.105 100.405C168.713 100.558 168.264 100.635 167.76 100.635ZM174.103 100.481C173.488 100.481 173.031 100.341 172.732 100.059C172.442 99.7769 172.297 99.3371 172.297 98.7393V92.1037H173.373V98.7137C173.373 99.0211 173.441 99.2346 173.578 99.3542C173.715 99.4737 173.924 99.5335 174.206 99.5335H175.179V100.481H174.103ZM171.298 94.6401V93.6921H175.179V94.6401H171.298ZM179.086 100.635C178.462 100.635 177.916 100.49 177.446 100.2C176.977 99.9093 176.614 99.4993 176.357 98.9699C176.101 98.4318 175.973 97.8041 175.973 97.0868C175.973 96.3609 176.101 95.7332 176.357 95.2037C176.614 94.6742 176.977 94.2643 177.446 93.974C177.916 93.6836 178.462 93.5384 179.086 93.5384C179.709 93.5384 180.252 93.6836 180.713 93.974C181.182 94.2643 181.545 94.6742 181.802 95.2037C182.058 95.7332 182.186 96.3609 182.186 97.0868C182.186 97.8041 182.058 98.4318 181.802 98.9699C181.545 99.4993 181.182 99.9093 180.713 100.2C180.252 100.49 179.709 100.635 179.086 100.635ZM179.086 99.6104C179.709 99.6104 180.192 99.3883 180.533 98.9442C180.884 98.4916 181.059 97.8725 181.059 97.0868C181.059 96.3011 180.884 95.6862 180.533 95.2421C180.192 94.7895 179.709 94.5632 179.086 94.5632C178.462 94.5632 177.976 94.7895 177.626 95.2421C177.275 95.6862 177.1 96.3011 177.1 97.0868C177.1 97.8725 177.275 98.4916 177.626 98.9442C177.976 99.3883 178.462 99.6104 179.086 99.6104ZM183.652 100.481V93.6921H184.6L184.652 95.4087L184.549 95.3702C184.634 94.7895 184.818 94.3668 185.1 94.1021C185.39 93.8288 185.775 93.6921 186.253 93.6921H186.919V94.7169H186.266C185.924 94.7169 185.638 94.781 185.407 94.9091C185.185 95.0286 185.015 95.2123 184.895 95.4599C184.784 95.699 184.728 96.0065 184.728 96.3822V100.481H183.652ZM188.476 102.403V101.455H189.257C189.496 101.455 189.671 101.417 189.782 101.34C189.902 101.271 189.991 101.156 190.051 100.994L190.295 100.353H189.923L187.438 93.6921H188.616L190.64 99.3542L192.575 93.6921H193.753L190.999 101.34C190.871 101.707 190.679 101.976 190.423 102.147C190.166 102.318 189.812 102.403 189.359 102.403H188.476Z" fill="#475569"/>
<g opacity="0.6">
<path d="M222.439 92.9314L222.125 93.7818C221.712 94.8968 221.506 95.4544 221.099 95.8611C220.692 96.2678 220.135 96.4741 219.02 96.8868L218.169 97.2014L219.02 97.516C220.135 97.9287 220.692 98.135 221.099 98.5417C221.506 98.9485 221.712 99.506 222.125 100.621L222.439 101.471L222.754 100.621C223.167 99.506 223.373 98.9485 223.78 98.5417C224.186 98.135 224.744 97.9287 225.859 97.516L226.709 97.2014L225.859 96.8868C224.744 96.4741 224.186 96.2678 223.78 95.8611C223.373 95.4544 223.167 94.8968 222.754 93.7818L222.439 92.9314Z" stroke="#235EE7" stroke-width="1.05225" stroke-linejoin="round"/>
<path d="M227.319 90.4915L227.184 90.8559C227.008 91.3338 226.919 91.5727 226.745 91.747C226.571 91.9213 226.332 92.0098 225.854 92.1866L225.489 92.3215L225.854 92.4563C226.332 92.6332 226.571 92.7216 226.745 92.8959C226.919 93.0702 227.008 93.3091 227.184 93.787L227.319 94.1515L227.454 93.787C227.631 93.3091 227.719 93.0702 227.894 92.8959C228.068 92.7216 228.307 92.6332 228.785 92.4563L229.149 92.3215L228.785 92.1866C228.307 92.0098 228.068 91.9213 227.894 91.747C227.719 91.5727 227.631 91.3338 227.454 90.8559L227.319 90.4915Z" stroke="#235EE7" stroke-width="0.732002" stroke-linejoin="round"/>
</g>
<path opacity="0.6" d="M238.556 100.481L241.835 91.3863H243.321L246.6 100.481H245.396L244.487 97.8938H240.669L239.76 100.481H238.556ZM241.041 96.8178H244.115L242.578 92.3471L241.041 96.8178ZM247.784 100.481V91.3863H248.886V100.481H247.784ZM254.286 100.481V93.6921H255.362V100.481H254.286ZM254.26 92.6289V91.3735H255.387V92.6289H254.26ZM257.538 100.481V93.6921H258.525L258.563 95.4215L258.435 95.3062C258.52 94.9048 258.67 94.576 258.883 94.3198C259.097 94.0551 259.353 93.8587 259.652 93.7306C259.959 93.6025 260.288 93.5384 260.638 93.5384C261.159 93.5384 261.586 93.6537 261.919 93.8843C262.261 94.1149 262.513 94.4266 262.675 94.8194C262.846 95.2037 262.931 95.635 262.931 96.1132V100.481H261.855V96.4207C261.855 96.0022 261.804 95.6521 261.702 95.3702C261.608 95.0799 261.454 94.8621 261.24 94.7169C261.027 94.5632 260.749 94.4864 260.408 94.4864C259.887 94.4864 259.456 94.6529 259.114 94.9859C258.781 95.3105 258.614 95.7887 258.614 96.4207V100.481H257.538ZM267.304 100.635C266.698 100.635 266.181 100.537 265.754 100.341C265.335 100.144 265.007 99.8751 264.768 99.5335C264.537 99.1834 264.405 98.7863 264.37 98.3422L265.498 98.2653C265.566 98.6752 265.741 99.004 266.023 99.2517C266.305 99.4908 266.732 99.6104 267.304 99.6104C267.765 99.6104 268.132 99.5378 268.406 99.3926C268.687 99.2389 268.828 98.9955 268.828 98.6624C268.828 98.4831 268.786 98.3336 268.7 98.2141C268.615 98.0945 268.448 97.992 268.201 97.9066C267.953 97.8127 267.586 97.723 267.099 97.6376C266.45 97.5181 265.938 97.3729 265.562 97.2021C265.195 97.0227 264.93 96.805 264.768 96.5488C264.614 96.284 264.537 95.9723 264.537 95.6136C264.537 95.0073 264.759 94.512 265.203 94.1277C265.647 93.7348 266.279 93.5384 267.099 93.5384C267.654 93.5384 268.119 93.6409 268.495 93.8459C268.88 94.0423 269.178 94.307 269.392 94.6401C269.614 94.9646 269.759 95.3233 269.827 95.7161L268.7 95.793C268.649 95.5539 268.555 95.3446 268.418 95.1653C268.282 94.9774 268.102 94.8322 267.88 94.7297C267.658 94.6187 267.394 94.5632 267.086 94.5632C266.599 94.5632 266.241 94.6572 266.01 94.845C265.78 95.0329 265.664 95.272 265.664 95.5624C265.664 95.7844 265.715 95.968 265.818 96.1132C265.929 96.2499 266.104 96.3652 266.343 96.4591C266.582 96.5445 266.903 96.6214 267.304 96.6897C267.996 96.8092 268.534 96.9544 268.918 97.1252C269.302 97.296 269.571 97.5052 269.725 97.7529C269.879 98.0006 269.956 98.3037 269.956 98.6624C269.956 99.0809 269.836 99.4396 269.597 99.7385C269.366 100.029 269.05 100.251 268.649 100.405C268.256 100.558 267.808 100.635 267.304 100.635ZM271.424 100.481V93.6921H272.5V100.481H271.424ZM271.399 92.6289V91.3735H272.526V92.6289H271.399ZM277.001 102.557C276.515 102.557 276.075 102.476 275.682 102.313C275.289 102.151 274.96 101.92 274.696 101.622C274.431 101.323 274.252 100.977 274.158 100.584L275.285 100.507C275.387 100.823 275.567 101.071 275.823 101.25C276.088 101.438 276.48 101.532 277.001 101.532C277.616 101.532 278.086 101.408 278.411 101.16C278.744 100.913 278.91 100.541 278.91 100.046V98.9442C278.748 99.3029 278.487 99.589 278.129 99.8025C277.77 100.016 277.369 100.123 276.925 100.123C276.352 100.123 275.84 99.9819 275.387 99.7C274.943 99.4182 274.593 99.0296 274.337 98.5343C274.089 98.039 273.965 97.4711 273.965 96.8306C273.965 96.1815 274.089 95.6136 274.337 95.1269C274.585 94.6315 274.926 94.243 275.362 93.9611C275.806 93.6793 276.31 93.5384 276.873 93.5384C277.352 93.5384 277.779 93.6494 278.154 93.8715C278.539 94.0935 278.808 94.3924 278.961 94.7682V93.6921H279.986V100.02C279.986 100.55 279.867 101.002 279.627 101.378C279.388 101.762 279.047 102.053 278.603 102.249C278.159 102.454 277.625 102.557 277.001 102.557ZM276.976 99.098C277.557 99.098 278.022 98.8973 278.372 98.4959C278.722 98.086 278.902 97.5309 278.91 96.8306C278.919 96.3609 278.842 95.9595 278.68 95.6264C278.526 95.2848 278.299 95.0244 278.001 94.845C277.71 94.6572 277.369 94.5632 276.976 94.5632C276.378 94.5632 275.913 94.7682 275.579 95.1781C275.255 95.5795 275.093 96.1303 275.093 96.8306C275.093 97.5309 275.259 98.086 275.592 98.4959C275.934 98.8973 276.395 99.098 276.976 99.098ZM281.845 100.481V91.3863H282.921V95.1909L282.793 95.1653C282.878 94.7895 283.023 94.4821 283.228 94.243C283.433 94.0038 283.685 93.8288 283.984 93.7178C284.283 93.5982 284.612 93.5384 284.971 93.5384C285.457 93.5384 285.867 93.6494 286.2 93.8715C286.542 94.085 286.798 94.3881 286.969 94.781C287.148 95.1653 287.238 95.6094 287.238 96.1132V100.481H286.162V96.4207C286.162 95.7631 286.042 95.2763 285.803 94.9603C285.573 94.6443 285.218 94.4864 284.74 94.4864C284.193 94.4864 283.754 94.6529 283.421 94.9859C283.087 95.319 282.921 95.8015 282.921 96.4335V100.481H281.845ZM291.26 100.481C290.646 100.481 290.189 100.341 289.89 100.059C289.599 99.7769 289.454 99.3371 289.454 98.7393V92.1037H290.53V98.7137C290.53 99.0211 290.599 99.2346 290.735 99.3542C290.872 99.4737 291.081 99.5335 291.363 99.5335H292.337V100.481H291.26ZM288.455 94.6401V93.6921H292.337V94.6401H288.455Z" fill="url(#paint0_linear_603_14913)"/>
<rect x="273" y="222.969" width="125" height="26" rx="3.70483" fill="#E2E8F0" fill-opacity="0.5"/>
<rect x="410" y="222.969" width="125" height="26" rx="3.70483" fill="#E2E8F0" fill-opacity="0.5"/>
<rect x="21.4452" y="128.445" width="241.11" height="81.1096" rx="4.89737" fill="white"/>
<rect x="21.4452" y="128.445" width="241.11" height="81.1096" rx="4.89737" stroke="#E2E8F0" stroke-width="0.89043"/>
<path d="M46.6335 149.481C45.9271 149.481 45.3121 149.352 44.7885 149.095C44.2733 148.837 43.866 148.48 43.5669 148.022C43.2677 147.565 43.0931 147.033 43.0433 146.427L44.427 146.34C44.4852 146.755 44.6057 147.108 44.7885 147.399C44.9714 147.682 45.2165 147.898 45.524 148.047C45.8398 148.189 46.218 148.259 46.6584 148.259C47.0407 148.259 47.3648 148.214 47.6308 148.122C47.905 148.022 48.1128 147.877 48.2541 147.686C48.3954 147.495 48.466 147.262 48.466 146.988C48.466 146.738 48.4037 146.518 48.279 146.327C48.1627 146.128 47.9341 145.949 47.5934 145.791C47.261 145.625 46.7706 145.463 46.1224 145.305C45.416 145.13 44.8509 144.939 44.427 144.731C44.0032 144.524 43.6957 144.266 43.5045 143.959C43.3217 143.643 43.2303 143.256 43.2303 142.799C43.2303 142.292 43.3508 141.848 43.5918 141.465C43.8411 141.075 44.1943 140.771 44.6514 140.555C45.1085 140.339 45.657 140.231 46.2969 140.231C46.9701 140.231 47.5435 140.356 48.0172 140.605C48.4992 140.854 48.8774 141.195 49.1516 141.627C49.4342 142.06 49.6087 142.554 49.6752 143.111L48.2915 143.186C48.2499 142.845 48.146 142.546 47.9798 142.288C47.8136 142.022 47.5892 141.819 47.3067 141.677C47.0241 141.528 46.6792 141.453 46.272 141.453C45.7567 141.453 45.3495 141.573 45.0503 141.814C44.7594 142.047 44.614 142.359 44.614 142.749C44.614 142.999 44.6722 143.211 44.7885 143.385C44.9132 143.551 45.1293 143.697 45.4368 143.821C45.7526 143.946 46.1972 144.079 46.7706 144.22C47.5352 144.395 48.1419 144.611 48.5907 144.869C49.0477 145.118 49.3719 145.413 49.563 145.754C49.7542 146.094 49.8497 146.481 49.8497 146.913C49.8497 147.437 49.7126 147.894 49.4384 148.284C49.1724 148.667 48.7984 148.962 48.3164 149.169C47.8344 149.377 47.2734 149.481 46.6335 149.481ZM53.7124 149.281C53.0808 149.281 52.6154 149.136 52.3162 148.845C52.0171 148.554 51.8675 148.101 51.8675 147.486V141.091H53.1889V147.387C53.1889 147.694 53.2554 147.906 53.3883 148.022C53.5213 148.139 53.7249 148.197 53.9992 148.197H54.9466V149.281H53.7124ZM50.8577 143.734V142.65H54.9466V143.734H50.8577ZM58.0303 149.431C57.3405 149.431 56.7878 149.273 56.3723 148.957C55.9651 148.642 55.7614 148.197 55.7614 147.624C55.7614 147.05 55.9318 146.605 56.2726 146.29C56.6216 145.966 57.1576 145.733 57.8807 145.592L60.162 145.155C60.162 144.64 60.0414 144.258 59.8004 144.008C59.5594 143.751 59.2021 143.622 58.7284 143.622C58.3045 143.622 57.9721 143.717 57.7311 143.909C57.4901 144.091 57.3239 144.366 57.2324 144.731L55.8736 144.644C55.9983 143.979 56.3058 143.456 56.7961 143.073C57.2948 142.691 57.9388 142.5 58.7284 142.5C59.6259 142.5 60.3074 142.741 60.7728 143.223C61.2465 143.697 61.4834 144.366 61.4834 145.23V147.811C61.4834 147.968 61.5083 148.081 61.5581 148.147C61.6163 148.205 61.7077 148.234 61.8324 148.234H62.0693V149.281C62.0277 149.29 61.9612 149.298 61.8698 149.306C61.7784 149.315 61.6828 149.319 61.5831 149.319C61.3005 149.319 61.0554 149.273 60.8476 149.182C60.6481 149.09 60.4985 148.941 60.3988 148.733C60.2991 148.517 60.2492 148.23 60.2492 147.873L60.3863 147.935C60.3199 148.226 60.1744 148.484 59.95 148.708C59.734 148.932 59.4555 149.111 59.1148 149.244C58.7824 149.369 58.4209 149.431 58.0303 149.431ZM58.2422 148.384C58.6411 148.384 58.9818 148.309 59.2644 148.16C59.547 148.002 59.7672 147.786 59.9251 147.511C60.083 147.237 60.162 146.925 60.162 146.576V146.153L58.2173 146.527C57.8183 146.601 57.5358 146.722 57.3696 146.888C57.2117 147.046 57.1327 147.25 57.1327 147.499C57.1327 147.781 57.2283 148.002 57.4194 148.16C57.6189 148.309 57.8931 148.384 58.2422 148.384ZM65.3872 149.281C64.7555 149.281 64.2902 149.136 63.991 148.845C63.6918 148.554 63.5422 148.101 63.5422 147.486V141.091H64.8636V147.387C64.8636 147.694 64.9301 147.906 65.063 148.022C65.196 148.139 65.3996 148.197 65.6739 148.197H66.6213V149.281H65.3872ZM62.5324 143.734V142.65H66.6213V143.734H62.5324ZM70.09 149.431C69.4251 149.431 68.8932 149.211 68.4943 148.77C68.1037 148.322 67.9084 147.702 67.9084 146.913V142.65H69.2298V146.576C69.2298 147.175 69.3337 147.615 69.5415 147.898C69.7492 148.18 70.065 148.322 70.4889 148.322C70.9709 148.322 71.3449 148.168 71.6108 147.86C71.8851 147.545 72.0222 147.104 72.0222 146.539V142.65H73.3436V149.281H72.1095L72.0845 147.549L72.2715 147.624C72.1552 148.205 71.91 148.654 71.536 148.97C71.162 149.277 70.68 149.431 70.09 149.431ZM77.6465 149.431C77.0232 149.431 76.4955 149.336 76.0633 149.144C75.6395 148.953 75.3112 148.691 75.0785 148.359C74.8458 148.018 74.7128 147.628 74.6796 147.187L76.0384 147.125C76.1049 147.491 76.2628 147.781 76.5121 147.997C76.7614 148.214 77.1396 148.322 77.6465 148.322C78.0621 148.322 78.3903 148.255 78.6313 148.122C78.8723 147.989 78.9928 147.777 78.9928 147.486C78.9928 147.328 78.9513 147.196 78.8682 147.087C78.7934 146.971 78.6438 146.876 78.4194 146.801C78.195 146.718 77.8626 146.639 77.4221 146.564C76.7656 146.439 76.2503 146.294 75.8763 146.128C75.5024 145.961 75.2364 145.749 75.0785 145.492C74.9206 145.234 74.8417 144.923 74.8417 144.557C74.8417 143.95 75.0661 143.456 75.5148 143.073C75.9719 142.691 76.6285 142.5 77.4845 142.5C78.0579 142.5 78.5399 142.6 78.9305 142.799C79.3211 142.99 79.6245 143.252 79.8405 143.585C80.0649 143.909 80.2062 144.274 80.2644 144.682L78.9056 144.756C78.864 144.524 78.7809 144.324 78.6563 144.158C78.5399 143.983 78.382 143.85 78.1826 143.759C77.9831 143.659 77.7462 143.609 77.472 143.609C77.0481 143.609 76.7323 143.693 76.5246 143.859C76.3168 144.025 76.2129 144.241 76.2129 144.507C76.2129 144.706 76.2586 144.869 76.3501 144.993C76.4498 145.118 76.6077 145.222 76.8238 145.305C77.0398 145.38 77.3266 145.446 77.6839 145.504C78.3737 145.621 78.9139 145.766 79.3045 145.941C79.6951 146.107 79.9694 146.315 80.1273 146.564C80.2852 146.813 80.3641 147.117 80.3641 147.474C80.3641 147.889 80.2478 148.243 80.0151 148.534C79.7824 148.824 79.4624 149.049 79.0552 149.207C78.648 149.356 78.1784 149.431 77.6465 149.431Z" fill="#1E293B"/>
<rect x="221.914" y="135.424" width="19.716" height="19.716" rx="5.34258" fill="#FEE4E2"/>
<path d="M234.92 148.43L228.623 142.133M234.92 142.133L228.623 148.43" stroke="#E46C63" stroke-width="1.33565" stroke-linecap="round" stroke-linejoin="round"/>
<path d="M43.7948 179.796V167.152H52.2539V169.164H44.8455L46.1099 167.864V173.669L44.8455 172.619H51.9333V174.613H44.8455L46.1099 173.563V179.796H43.7948ZM56.6379 180.009C55.6406 180.009 54.8392 179.784 54.2337 179.333C53.6282 178.87 53.3255 178.228 53.3255 177.409C53.3255 176.59 53.5807 175.949 54.0912 175.486C54.6018 175.023 55.3794 174.691 56.4242 174.489L59.5763 173.865C59.5763 173.189 59.4219 172.684 59.1133 172.352C58.8046 172.007 58.3475 171.835 57.742 171.835C57.1959 171.835 56.7625 171.966 56.442 172.227C56.1333 172.476 55.9196 172.838 55.8009 173.313L53.4857 173.206C53.6757 172.197 54.1387 171.426 54.8748 170.891C55.6109 170.345 56.5666 170.072 57.742 170.072C59.0955 170.072 60.1165 170.416 60.8051 171.105C61.5056 171.782 61.8558 172.755 61.8558 174.026V177.481C61.8558 177.73 61.8973 177.902 61.9804 177.997C62.0754 178.092 62.212 178.139 62.39 178.139H62.6928V179.796C62.6216 179.819 62.5028 179.837 62.3366 179.849C62.1823 179.861 62.022 179.867 61.8558 179.867C61.464 179.867 61.1138 179.808 60.8051 179.689C60.4964 179.558 60.259 179.339 60.0927 179.03C59.9265 178.709 59.8434 178.276 59.8434 177.73L60.0393 177.872C59.9443 178.288 59.7366 178.662 59.416 178.994C59.1073 179.315 58.7155 179.564 58.2406 179.742C57.7657 179.92 57.2315 180.009 56.6379 180.009ZM57.1009 178.353C57.6114 178.353 58.0507 178.252 58.4187 178.05C58.7868 177.849 59.0717 177.57 59.2735 177.213C59.4754 176.857 59.5763 176.436 59.5763 175.949V175.415L57.1187 175.913C56.6082 176.02 56.2401 176.181 56.0146 176.394C55.8009 176.596 55.694 176.863 55.694 177.196C55.694 177.564 55.8127 177.849 56.0502 178.05C56.2995 178.252 56.6497 178.353 57.1009 178.353ZM64.0688 179.796V170.286H66.3483V179.796H64.0688ZM64.0332 169.021V166.991H66.4017V169.021H64.0332ZM71.0091 179.796C70.3205 179.796 69.7685 179.618 69.3529 179.261C68.9374 178.905 68.7296 178.335 68.7296 177.552V167.152H71.0091V177.32C71.0091 177.558 71.0685 177.736 71.1872 177.855C71.3178 177.973 71.4959 178.033 71.7215 178.033H72.416V179.796H71.0091ZM77.9912 180.009C77.0414 180.009 76.2163 179.808 75.5158 179.404C74.8153 178.988 74.2752 178.407 73.8952 177.659C73.5153 176.911 73.3254 176.038 73.3254 175.041C73.3254 174.043 73.5153 173.177 73.8952 172.441C74.2752 171.693 74.8094 171.111 75.498 170.695C76.1985 170.28 77.0117 170.072 77.9378 170.072C78.8401 170.072 79.6296 170.274 80.3063 170.678C80.9949 171.081 81.5233 171.663 81.8913 172.423C82.2593 173.183 82.4434 174.097 82.4434 175.165V175.682H75.6939C75.7414 176.513 75.967 177.142 76.3706 177.57C76.7862 177.985 77.3323 178.193 78.009 178.193C78.5195 178.193 78.941 178.08 79.2734 177.855C79.6177 177.617 79.8552 177.291 79.9858 176.875L82.3187 177.018C82.0575 177.944 81.5411 178.674 80.7694 179.208C80.0095 179.742 79.0835 180.009 77.9912 180.009ZM75.6939 174.15H80.0926C80.0451 173.379 79.8255 172.809 79.4337 172.441C79.0419 172.061 78.5433 171.871 77.9378 171.871C77.3323 171.871 76.8277 172.067 76.4241 172.459C76.0323 172.85 75.7889 173.414 75.6939 174.15ZM87.6088 180.009C86.8015 180.009 86.101 179.808 85.5074 179.404C84.9257 179 84.4745 178.424 84.154 177.676C83.8334 176.928 83.6731 176.05 83.6731 175.041C83.6731 174.032 83.8334 173.153 84.154 172.405C84.4745 171.657 84.9316 171.081 85.5252 170.678C86.1188 170.274 86.8134 170.072 87.6088 170.072C88.2737 170.072 88.8554 170.209 89.3541 170.482C89.8646 170.755 90.2504 171.141 90.5116 171.639V167.152H92.7911V179.796H90.6185L90.5651 178.389C90.3039 178.899 89.9121 179.297 89.3897 179.582C88.8673 179.867 88.2737 180.009 87.6088 180.009ZM88.3034 178.157C88.7783 178.157 89.176 178.039 89.4965 177.801C89.829 177.564 90.0783 177.213 90.2445 176.75C90.4226 176.275 90.5116 175.706 90.5116 175.041C90.5116 174.364 90.4226 173.794 90.2445 173.331C90.0783 172.868 89.829 172.518 89.4965 172.28C89.176 172.043 88.7783 171.924 88.3034 171.924C87.6148 171.924 87.0627 172.203 86.6472 172.761C86.2435 173.307 86.0417 174.067 86.0417 175.041C86.0417 175.991 86.2435 176.75 86.6472 177.32C87.0627 177.878 87.6148 178.157 88.3034 178.157Z" fill="#EE301B" fill-opacity="0.8"/>
<path d="M42.6194 198.576L45.8107 189.726H47.2568L50.4481 198.576H49.2763L48.3912 196.058H44.6763L43.7912 198.576H42.6194ZM45.0378 195.011H48.0297L46.5338 190.66L45.0378 195.011ZM53.8811 198.726C53.2911 198.726 52.7883 198.63 52.3727 198.439C51.9655 198.248 51.6456 197.986 51.4129 197.654C51.1885 197.313 51.0596 196.927 51.0264 196.495L52.1234 196.42C52.1899 196.819 52.3603 197.139 52.6345 197.38C52.9088 197.612 53.3243 197.729 53.8811 197.729C54.3299 197.729 54.6873 197.658 54.9532 197.517C55.2275 197.367 55.3646 197.13 55.3646 196.806C55.3646 196.632 55.323 196.486 55.2399 196.37C55.1568 196.254 54.9948 196.154 54.7537 196.071C54.5127 195.979 54.1554 195.892 53.6817 195.809C53.0501 195.693 52.5514 195.551 52.1857 195.385C51.8284 195.211 51.5708 194.999 51.4129 194.749C51.2633 194.492 51.1885 194.188 51.1885 193.839C51.1885 193.249 51.4045 192.767 51.8367 192.393C52.2689 192.011 52.8838 191.82 53.6817 191.82C54.2219 191.82 54.6748 191.92 55.0405 192.119C55.4144 192.31 55.7053 192.568 55.9131 192.892C56.1292 193.208 56.2704 193.557 56.3369 193.939L55.2399 194.014C55.1901 193.781 55.0986 193.578 54.9657 193.403C54.8327 193.22 54.6582 193.079 54.4421 192.979C54.226 192.871 53.9684 192.817 53.6692 192.817C53.1955 192.817 52.8464 192.909 52.6221 193.091C52.3977 193.274 52.2855 193.507 52.2855 193.789C52.2855 194.006 52.3353 194.184 52.4351 194.326C52.5431 194.458 52.7135 194.571 52.9462 194.662C53.1789 194.745 53.4905 194.82 53.8811 194.886C54.5543 195.003 55.0779 195.144 55.4518 195.31C55.8258 195.477 56.0876 195.68 56.2372 195.921C56.3868 196.162 56.4616 196.457 56.4616 196.806C56.4616 197.213 56.3452 197.563 56.1125 197.853C55.8882 198.136 55.5807 198.352 55.1901 198.502C54.8078 198.651 54.3715 198.726 53.8811 198.726ZM60.2967 198.726C59.7067 198.726 59.2039 198.63 58.7884 198.439C58.3811 198.248 58.0612 197.986 57.8285 197.654C57.6041 197.313 57.4753 196.927 57.442 196.495L58.539 196.42C58.6055 196.819 58.7759 197.139 59.0501 197.38C59.3244 197.612 59.7399 197.729 60.2967 197.729C60.7455 197.729 61.1029 197.658 61.3688 197.517C61.6431 197.367 61.7802 197.13 61.7802 196.806C61.7802 196.632 61.7386 196.486 61.6555 196.37C61.5724 196.254 61.4104 196.154 61.1694 196.071C60.9284 195.979 60.571 195.892 60.0973 195.809C59.4657 195.693 58.967 195.551 58.6014 195.385C58.244 195.211 57.9864 194.999 57.8285 194.749C57.6789 194.492 57.6041 194.188 57.6041 193.839C57.6041 193.249 57.8202 192.767 58.2523 192.393C58.6845 192.011 59.2995 191.82 60.0973 191.82C60.6375 191.82 61.0904 191.92 61.4561 192.119C61.8301 192.31 62.1209 192.568 62.3287 192.892C62.5448 193.208 62.6861 193.557 62.7525 193.939L61.6555 194.014C61.6057 193.781 61.5143 193.578 61.3813 193.403C61.2483 193.22 61.0738 193.079 60.8577 192.979C60.6416 192.871 60.384 192.817 60.0848 192.817C59.6111 192.817 59.2621 192.909 59.0377 193.091C58.8133 193.274 58.7011 193.507 58.7011 193.789C58.7011 194.006 58.751 194.184 58.8507 194.326C58.9587 194.458 59.1291 194.571 59.3618 194.662C59.5945 194.745 59.9061 194.82 60.2967 194.886C60.9699 195.003 61.4935 195.144 61.8675 195.31C62.2414 195.477 62.5032 195.68 62.6528 195.921C62.8024 196.162 62.8772 196.457 62.8772 196.806C62.8772 197.213 62.7609 197.563 62.5282 197.853C62.3038 198.136 61.9963 198.352 61.6057 198.502C61.2234 198.651 60.7871 198.726 60.2967 198.726ZM66.8869 198.726C66.2636 198.726 65.7234 198.585 65.2663 198.302C64.8175 198.02 64.4685 197.621 64.2192 197.105C63.9781 196.582 63.8576 195.971 63.8576 195.273C63.8576 194.575 63.9781 193.968 64.2192 193.453C64.4685 192.938 64.8134 192.539 65.2538 192.256C65.7026 191.965 66.2303 191.82 66.837 191.82C67.4105 191.82 67.9174 191.957 68.3579 192.231C68.7983 192.497 69.1391 192.888 69.3801 193.403C69.6294 193.918 69.7541 194.546 69.7541 195.285V195.597H64.9547C64.9962 196.303 65.1832 196.835 65.5156 197.193C65.8564 197.55 66.3134 197.729 66.8869 197.729C67.319 197.729 67.6722 197.629 67.9465 197.43C68.2291 197.222 68.4244 196.952 68.5324 196.619L69.6543 196.707C69.4798 197.297 69.1474 197.783 68.6571 198.165C68.175 198.539 67.585 198.726 66.8869 198.726ZM64.9547 194.675H68.6072C68.5573 194.035 68.3703 193.565 68.0462 193.266C67.7304 192.967 67.3273 192.817 66.837 192.817C66.3301 192.817 65.9104 192.975 65.578 193.291C65.2538 193.598 65.0461 194.06 64.9547 194.675ZM71.1725 198.576V191.969H72.095L72.1448 193.64L72.0451 193.602C72.1282 193.037 72.3069 192.626 72.5811 192.368C72.8637 192.102 73.2377 191.969 73.7031 191.969H74.3513V192.967H73.7155C73.3831 192.967 73.1047 193.029 72.8803 193.154C72.6642 193.27 72.498 193.449 72.3817 193.69C72.2736 193.922 72.2196 194.222 72.2196 194.587V198.576H71.1725ZM77.6935 198.576C77.0951 198.576 76.6505 198.439 76.3596 198.165C76.077 197.891 75.9358 197.463 75.9358 196.881V190.424H76.9829V196.856C76.9829 197.155 77.0494 197.363 77.1824 197.479C77.3153 197.596 77.5189 197.654 77.7932 197.654H78.7406V198.576H77.6935ZM74.9634 192.892V191.969H78.7406V192.892H74.9634ZM80.0837 198.576V191.969H81.1309V198.576H80.0837ZM80.0588 190.935V189.713H81.1558V190.935H80.0588ZM85.5859 198.726C84.9792 198.726 84.4473 198.585 83.9903 198.302C83.5332 198.02 83.18 197.621 82.9306 197.105C82.6813 196.582 82.5567 195.971 82.5567 195.273C82.5567 194.567 82.6813 193.956 82.9306 193.44C83.18 192.925 83.5332 192.526 83.9903 192.244C84.4473 191.961 84.9792 191.82 85.5859 191.82C86.1926 191.82 86.7203 191.961 87.1691 192.244C87.6262 192.526 87.9794 192.925 88.2287 193.44C88.478 193.956 88.6027 194.567 88.6027 195.273C88.6027 195.971 88.478 196.582 88.2287 197.105C87.9794 197.621 87.6262 198.02 87.1691 198.302C86.7203 198.585 86.1926 198.726 85.5859 198.726ZM85.5859 197.729C86.1926 197.729 86.6621 197.513 86.9946 197.08C87.3353 196.64 87.5057 196.038 87.5057 195.273C87.5057 194.508 87.3353 193.91 86.9946 193.478C86.6621 193.037 86.1926 192.817 85.5859 192.817C84.9792 192.817 84.5055 193.037 84.1648 193.478C83.824 193.91 83.6537 194.508 83.6537 195.273C83.6537 196.038 83.824 196.64 84.1648 197.08C84.5055 197.513 84.9792 197.729 85.5859 197.729ZM90.0298 198.576V191.969H90.9896L91.027 193.652L90.9024 193.54C90.9855 193.15 91.1309 192.83 91.3387 192.58C91.5465 192.323 91.7958 192.131 92.0866 192.007C92.3858 191.882 92.7058 191.82 93.0465 191.82C93.5535 191.82 93.969 191.932 94.2931 192.156C94.6256 192.381 94.8707 192.684 95.0286 193.066C95.1948 193.44 95.278 193.86 95.278 194.326V198.576H94.2308V194.625C94.2308 194.217 94.1809 193.877 94.0812 193.602C93.9898 193.32 93.8402 193.108 93.6324 192.967C93.4247 192.817 93.1546 192.742 92.8221 192.742C92.3152 192.742 91.8955 192.904 91.5631 193.228C91.239 193.544 91.0769 194.01 91.0769 194.625V198.576H90.0298ZM102.97 198.726C102.347 198.726 101.807 198.585 101.35 198.302C100.901 198.02 100.552 197.621 100.302 197.105C100.061 196.582 99.9409 195.971 99.9409 195.273C99.9409 194.575 100.061 193.968 100.302 193.453C100.552 192.938 100.897 192.539 101.337 192.256C101.786 191.965 102.314 191.82 102.92 191.82C103.494 191.82 104.001 191.957 104.441 192.231C104.882 192.497 105.222 192.888 105.463 193.403C105.713 193.918 105.837 194.546 105.837 195.285V195.597H101.038C101.079 196.303 101.266 196.835 101.599 197.193C101.94 197.55 102.397 197.729 102.97 197.729C103.402 197.729 103.756 197.629 104.03 197.43C104.312 197.222 104.508 196.952 104.616 196.619L105.738 196.707C105.563 197.297 105.231 197.783 104.74 198.165C104.258 198.539 103.668 198.726 102.97 198.726ZM101.038 194.675H104.69C104.641 194.035 104.454 193.565 104.13 193.266C103.814 192.967 103.411 192.817 102.92 192.817C102.413 192.817 101.994 192.975 101.661 193.291C101.337 193.598 101.129 194.06 101.038 194.675ZM107.256 198.576V191.969H108.178L108.228 193.64L108.128 193.602C108.211 193.037 108.39 192.626 108.664 192.368C108.947 192.102 109.321 191.969 109.786 191.969H110.435V192.967H109.799C109.466 192.967 109.188 193.029 108.964 193.154C108.748 193.27 108.581 193.449 108.465 193.69C108.357 193.922 108.303 194.222 108.303 194.587V198.576H107.256ZM111.48 198.576V191.969H112.403L112.452 193.64L112.353 193.602C112.436 193.037 112.614 192.626 112.889 192.368C113.171 192.102 113.545 191.969 114.011 191.969H114.659V192.967H114.023C113.691 192.967 113.412 193.029 113.188 193.154C112.972 193.27 112.806 193.449 112.689 193.69C112.581 193.922 112.527 194.222 112.527 194.587V198.576H111.48ZM118.285 198.726C117.678 198.726 117.146 198.585 116.689 198.302C116.232 198.02 115.879 197.621 115.63 197.105C115.38 196.582 115.256 195.971 115.256 195.273C115.256 194.567 115.38 193.956 115.63 193.44C115.879 192.925 116.232 192.526 116.689 192.244C117.146 191.961 117.678 191.82 118.285 191.82C118.892 191.82 119.419 191.961 119.868 192.244C120.325 192.526 120.678 192.925 120.928 193.44C121.177 193.956 121.302 194.567 121.302 195.273C121.302 195.971 121.177 196.582 120.928 197.105C120.678 197.621 120.325 198.02 119.868 198.302C119.419 198.585 118.892 198.726 118.285 198.726ZM118.285 197.729C118.892 197.729 119.361 197.513 119.694 197.08C120.034 196.64 120.205 196.038 120.205 195.273C120.205 194.508 120.034 193.91 119.694 193.478C119.361 193.037 118.892 192.817 118.285 192.817C117.678 192.817 117.204 193.037 116.864 193.478C116.523 193.91 116.353 194.508 116.353 195.273C116.353 196.038 116.523 196.64 116.864 197.08C117.204 197.513 117.678 197.729 118.285 197.729ZM122.729 198.576V191.969H123.651L123.701 193.64L123.601 193.602C123.684 193.037 123.863 192.626 124.137 192.368C124.42 192.102 124.794 191.969 125.259 191.969H125.908V192.967H125.272C124.939 192.967 124.661 193.029 124.437 193.154C124.22 193.27 124.054 193.449 123.938 193.69C123.83 193.922 123.776 194.222 123.776 194.587V198.576H122.729Z" fill="#EE301B" fill-opacity="0.6"/>
<g filter="url(#filter0_d_603_14913)">
<rect x="21.3916" y="223.103" width="236.751" height="26.5268" rx="3.43809" fill="#F1F4F8" shape-rendering="crispEdges"/>
<rect x="21.7645" y="223.475" width="236.005" height="25.7811" rx="3.06524" stroke="#DFE6EE" stroke-width="0.745716" shape-rendering="crispEdges"/>
<path d="M26.0596 229.49C26.0596 228.54 26.8292 227.771 27.7786 227.771H69.6534C70.6028 227.771 71.3724 228.54 71.3724 229.49V243.242C71.3724 244.192 70.6028 244.961 69.6534 244.961H27.7786C26.8292 244.961 26.0596 244.192 26.0596 243.242V229.49Z" fill="white"/>
<path d="M76.041 229.49C76.041 228.54 76.8107 227.771 77.7601 227.771H136.635C137.584 227.771 138.354 228.54 138.354 229.49V243.242C138.354 244.192 137.584 244.961 136.635 244.961H77.7601C76.8107 244.961 76.041 244.192 76.041 243.242V229.49Z" fill="white"/>
<path d="M143.022 229.49C143.022 228.54 143.792 227.771 144.741 227.771H205.616C206.565 227.771 207.335 228.54 207.335 229.49V243.242C207.335 244.192 206.565 244.961 205.616 244.961H144.741C143.792 244.961 143.022 244.192 143.022 243.242V229.49Z" fill="white"/>
</g>
<g filter="url(#filter1_d_603_14913)">
<path d="M277 134.283C277 130.813 279.813 128 283.283 128H536.717C540.187 128 543 130.813 543 134.283V203.901C543 207.371 540.187 210.184 536.717 210.184H283.283C279.813 210.184 277 207.371 277 203.901V134.283Z" fill="white" shape-rendering="crispEdges"/>
<path d="M283.283 128.523H536.717C539.898 128.524 542.476 131.102 542.477 134.283V203.9C542.477 207.081 539.898 209.66 536.717 209.66H283.283C280.102 209.66 277.523 207.081 277.523 203.9V134.283C277.524 131.102 280.102 128.524 283.283 128.523Z" stroke="#DFE6EE" stroke-width="1.04723" shape-rendering="crispEdges"/>
<path d="M297.115 158.178L294.924 149.903H296.265L297.873 156.441L299.481 149.903H300.763L302.371 156.441L303.968 149.903H305.332L303.129 158.178H301.661L300.122 152.141L298.584 158.178H297.115ZM306.35 158.178V149.903H307.585V153.376L307.434 153.353C307.504 153.003 307.632 152.72 307.818 152.502C308.005 152.277 308.234 152.11 308.506 152.001C308.778 151.892 309.077 151.838 309.403 151.838C309.854 151.838 310.235 151.939 310.545 152.141C310.856 152.335 311.089 152.611 311.245 152.968C311.408 153.326 311.489 153.734 311.489 154.192V158.178H310.254V154.518C310.254 153.959 310.157 153.547 309.963 153.283C309.776 153.011 309.481 152.875 309.077 152.875C308.626 152.875 308.265 153.019 307.993 153.306C307.721 153.586 307.585 153.998 307.585 154.542V158.178H306.35ZM313.198 159.926V158.912H313.956C314.165 158.912 314.321 158.881 314.422 158.819C314.523 158.757 314.601 158.652 314.655 158.504L314.853 157.991H314.468L312.231 151.978H313.536L315.238 156.849L316.858 151.978H318.175L315.704 158.9C315.579 159.258 315.393 159.518 315.144 159.681C314.904 159.844 314.566 159.926 314.13 159.926H313.198ZM322.252 158.178V149.903H327.625V151.057H322.847L323.511 150.369V154.169L322.847 153.574H327.415V154.693H322.847L323.511 154.099V158.178H322.252ZM330.541 158.318C329.897 158.318 329.38 158.17 328.991 157.875C328.611 157.579 328.42 157.164 328.42 156.628C328.42 156.092 328.58 155.676 328.898 155.381C329.224 155.078 329.726 154.86 330.402 154.728L332.534 154.32C332.534 153.838 332.422 153.481 332.196 153.248C331.971 153.007 331.637 152.887 331.194 152.887C330.798 152.887 330.487 152.976 330.262 153.155C330.036 153.326 329.881 153.582 329.796 153.924L328.525 153.842C328.642 153.221 328.929 152.731 329.388 152.374C329.854 152.016 330.456 151.838 331.194 151.838C332.033 151.838 332.67 152.063 333.105 152.514C333.548 152.957 333.77 153.582 333.77 154.39V156.803C333.77 156.95 333.793 157.055 333.84 157.117C333.894 157.172 333.979 157.199 334.096 157.199H334.317V158.178C334.279 158.186 334.216 158.193 334.131 158.201C334.046 158.209 333.956 158.213 333.863 158.213C333.599 158.213 333.37 158.17 333.175 158.084C332.989 157.999 332.849 157.859 332.756 157.665C332.663 157.463 332.616 157.195 332.616 156.861L332.744 156.919C332.682 157.191 332.546 157.432 332.336 157.642C332.134 157.851 331.874 158.018 331.555 158.143C331.245 158.259 330.907 158.318 330.541 158.318ZM330.74 157.339C331.112 157.339 331.431 157.269 331.695 157.129C331.959 156.981 332.165 156.779 332.313 156.523C332.461 156.266 332.534 155.975 332.534 155.649V155.252L330.716 155.602C330.343 155.672 330.079 155.785 329.924 155.94C329.776 156.088 329.702 156.278 329.702 156.511C329.702 156.775 329.792 156.981 329.97 157.129C330.157 157.269 330.413 157.339 330.74 157.339ZM335.304 158.178V151.978H336.539V158.178H335.304ZM335.28 151.08V149.845H336.562V151.08H335.28ZM339.546 158.178C339.142 158.178 338.816 158.073 338.567 157.863C338.319 157.653 338.194 157.319 338.194 156.861V149.903H339.43V156.744C339.43 156.884 339.465 156.989 339.535 157.059C339.612 157.129 339.721 157.164 339.861 157.164H340.351V158.178H339.546ZM341.393 158.178V151.978H342.628V158.178H341.393ZM341.369 151.08V149.845H342.651V151.08H341.369ZM344.477 158.178V151.978H345.607L345.654 153.633L345.502 153.551C345.572 153.147 345.704 152.821 345.899 152.572C346.093 152.323 346.33 152.141 346.61 152.024C346.889 151.9 347.192 151.838 347.519 151.838C347.985 151.838 348.369 151.943 348.672 152.152C348.983 152.354 349.216 152.634 349.372 152.992C349.535 153.341 349.616 153.741 349.616 154.192V158.178H348.381V154.565C348.381 154.2 348.342 153.893 348.265 153.644C348.187 153.396 348.059 153.205 347.88 153.073C347.701 152.941 347.468 152.875 347.181 152.875C346.746 152.875 346.392 153.019 346.12 153.306C345.848 153.594 345.712 154.013 345.712 154.565V158.178H344.477ZM353.72 160.066C353.23 160.066 352.799 159.992 352.426 159.844C352.053 159.697 351.747 159.487 351.506 159.215C351.265 158.951 351.102 158.64 351.016 158.283L352.298 158.201C352.384 158.457 352.531 158.659 352.741 158.807C352.959 158.962 353.285 159.04 353.72 159.04C354.233 159.04 354.625 158.931 354.897 158.714C355.177 158.496 355.317 158.166 355.317 157.723V156.826C355.169 157.144 354.932 157.397 354.606 157.583C354.279 157.77 353.914 157.863 353.51 157.863C352.99 157.863 352.527 157.735 352.123 157.478C351.719 157.222 351.405 156.869 351.179 156.418C350.954 155.967 350.841 155.447 350.841 154.856C350.841 154.258 350.95 153.734 351.168 153.283C351.393 152.832 351.704 152.479 352.1 152.222C352.504 151.966 352.959 151.838 353.464 151.838C353.906 151.838 354.295 151.939 354.629 152.141C354.971 152.343 355.216 152.615 355.363 152.957V151.978H356.552V157.688C356.552 158.201 356.435 158.632 356.202 158.982C355.977 159.339 355.651 159.607 355.223 159.786C354.804 159.973 354.303 160.066 353.72 160.066ZM353.708 156.814C354.19 156.814 354.575 156.639 354.862 156.29C355.157 155.94 355.309 155.458 355.317 154.845C355.324 154.441 355.262 154.095 355.13 153.807C354.998 153.512 354.808 153.287 354.559 153.131C354.318 152.968 354.035 152.887 353.708 152.887C353.203 152.887 352.811 153.065 352.531 153.423C352.259 153.772 352.123 154.246 352.123 154.845C352.123 155.451 352.263 155.932 352.543 156.29C352.83 156.639 353.219 156.814 353.708 156.814Z" fill="#1E293B"/>
<rect x="500.385" y="141.111" width="25.1335" height="25.1335" rx="6.28337" fill="#93C5FD" fill-opacity="0.2"/>
<g clip-path="url(#clip0_603_14913)">
<path d="M514.133 155.646V154.859H514.526V152.103H514.133V151.315H515.707V152.103H515.314V154.859H515.707V155.646H514.133ZM512.755 155.646H513.542L512.164 151.315H510.983L509.606 155.646H510.394L510.63 154.859H512.511L512.755 155.646ZM510.867 154.071L511.508 151.941L511.609 151.94L512.268 154.071H510.867Z" fill="#0078FF"/>
<path d="M519.251 159.978H506.653V147.38H519.251V159.978ZM507.441 159.19H518.464V148.167H507.441V159.19Z" fill="#0078FF"/>
</g>
<path d="M300.583 192.352C299.58 192.352 298.7 192.16 297.943 191.776C297.197 191.391 296.62 190.849 296.212 190.15C295.816 189.439 295.618 188.6 295.618 187.632V179.643H297.89V187.632C297.89 188.507 298.123 189.182 298.59 189.66C299.056 190.138 299.72 190.377 300.583 190.377C301.445 190.377 302.109 190.138 302.575 189.66C303.053 189.182 303.292 188.507 303.292 187.632V179.643H305.565V187.632C305.565 188.6 305.361 189.439 304.953 190.15C304.545 190.849 303.968 191.391 303.222 191.776C302.488 192.16 301.608 192.352 300.583 192.352ZM308.359 192.073V179.661H310.632V192.073H308.359ZM322.666 192.352C321.535 192.352 320.539 192.096 319.676 191.583C318.814 191.059 318.138 190.319 317.649 189.363C317.159 188.396 316.914 187.236 316.914 185.884C316.914 184.556 317.153 183.408 317.631 182.44C318.109 181.461 318.779 180.71 319.642 180.185C320.504 179.649 321.518 179.381 322.683 179.381C324.268 179.381 325.498 179.777 326.372 180.57C327.246 181.351 327.817 182.446 328.085 183.856L325.708 183.979C325.556 183.163 325.23 182.522 324.729 182.056C324.227 181.59 323.546 181.357 322.683 181.357C321.984 181.357 321.378 181.543 320.865 181.916C320.352 182.289 319.956 182.813 319.676 183.489C319.397 184.165 319.257 184.964 319.257 185.884C319.257 186.817 319.397 187.621 319.676 188.297C319.968 188.961 320.37 189.474 320.883 189.835C321.395 190.196 321.99 190.377 322.666 190.377C323.587 190.377 324.297 190.126 324.799 189.625C325.311 189.113 325.638 188.413 325.778 187.528L328.155 187.65C327.992 188.617 327.677 189.456 327.211 190.167C326.745 190.867 326.127 191.408 325.358 191.793C324.6 192.166 323.703 192.352 322.666 192.352ZM329.917 192.073V179.661H332.155V184.87H331.875C331.968 184.334 332.155 183.897 332.434 183.559C332.714 183.21 333.058 182.953 333.466 182.79C333.874 182.615 334.322 182.528 334.812 182.528C335.5 182.528 336.076 182.679 336.543 182.982C337.02 183.274 337.376 183.687 337.609 184.224C337.854 184.76 337.976 185.377 337.976 186.077V192.073H335.738V186.619C335.738 185.861 335.61 185.296 335.354 184.923C335.097 184.538 334.695 184.346 334.148 184.346C333.542 184.346 333.058 184.544 332.697 184.94C332.335 185.337 332.155 185.913 332.155 186.671V192.073H329.917ZM342.921 192.283C341.942 192.283 341.155 192.061 340.561 191.618C339.967 191.164 339.669 190.534 339.669 189.73C339.669 188.926 339.92 188.297 340.421 187.842C340.922 187.388 341.686 187.061 342.711 186.863L345.806 186.251C345.806 185.587 345.654 185.092 345.351 184.765C345.048 184.427 344.599 184.258 344.005 184.258C343.469 184.258 343.043 184.387 342.729 184.643C342.426 184.888 342.216 185.243 342.099 185.709L339.827 185.605C340.013 184.614 340.468 183.856 341.19 183.332C341.913 182.796 342.851 182.528 344.005 182.528C345.334 182.528 346.336 182.866 347.012 183.542C347.699 184.206 348.043 185.162 348.043 186.409V189.8C348.043 190.045 348.084 190.214 348.166 190.307C348.259 190.4 348.393 190.447 348.568 190.447H348.865V192.073C348.795 192.096 348.678 192.114 348.515 192.125C348.364 192.137 348.206 192.143 348.043 192.143C347.659 192.143 347.315 192.084 347.012 191.968C346.709 191.84 346.476 191.624 346.312 191.321C346.149 191.006 346.068 190.581 346.068 190.045L346.26 190.185C346.167 190.593 345.963 190.96 345.648 191.286C345.345 191.601 344.961 191.845 344.494 192.02C344.028 192.195 343.504 192.283 342.921 192.283ZM343.376 190.657C343.877 190.657 344.308 190.558 344.669 190.36C345.031 190.161 345.31 189.888 345.508 189.538C345.706 189.188 345.806 188.775 345.806 188.297V187.772L343.393 188.262C342.892 188.367 342.531 188.524 342.309 188.734C342.099 188.932 341.995 189.194 341.995 189.52C341.995 189.882 342.111 190.161 342.344 190.36C342.589 190.558 342.933 190.657 343.376 190.657ZM350.318 192.073V182.738H352.346L352.433 185.36L352.171 185.255C352.264 184.602 352.457 184.078 352.748 183.682C353.039 183.285 353.395 182.994 353.814 182.808C354.234 182.621 354.694 182.528 355.195 182.528C355.883 182.528 356.46 182.679 356.926 182.982C357.404 183.285 357.765 183.705 358.01 184.241C358.255 184.765 358.377 185.377 358.377 186.077V192.073H356.139V186.793C356.139 186.269 356.087 185.826 355.982 185.465C355.877 185.103 355.702 184.83 355.458 184.643C355.224 184.445 354.91 184.346 354.514 184.346C353.919 184.346 353.441 184.556 353.08 184.975C352.73 185.395 352.556 186.001 352.556 186.793V192.073H350.318ZM364.581 194.905C363.765 194.905 363.066 194.794 362.483 194.573C361.9 194.351 361.428 194.037 361.067 193.629C360.718 193.232 360.473 192.772 360.333 192.248L362.641 192.09C362.757 192.44 362.955 192.714 363.235 192.912C363.526 193.11 363.975 193.209 364.581 193.209C365.269 193.209 365.799 193.052 366.172 192.737C366.545 192.434 366.731 191.956 366.731 191.304V190.115C366.51 190.569 366.154 190.936 365.665 191.216C365.175 191.484 364.628 191.618 364.022 191.618C363.252 191.618 362.565 191.432 361.959 191.059C361.364 190.674 360.898 190.144 360.56 189.468C360.222 188.78 360.053 187.988 360.053 187.091C360.053 186.193 360.216 185.406 360.543 184.73C360.881 184.043 361.347 183.507 361.941 183.122C362.536 182.726 363.217 182.528 363.987 182.528C364.663 182.528 365.245 182.679 365.735 182.982C366.224 183.285 366.58 183.687 366.801 184.189V182.738H368.986V191.251C368.986 192.044 368.8 192.714 368.427 193.261C368.066 193.809 367.553 194.217 366.889 194.485C366.236 194.765 365.467 194.905 364.581 194.905ZM364.546 189.87C365.21 189.87 365.741 189.625 366.137 189.136C366.533 188.635 366.737 187.947 366.749 187.073C366.76 186.49 366.673 185.995 366.486 185.587C366.312 185.168 366.055 184.847 365.717 184.626C365.391 184.393 365.001 184.276 364.546 184.276C363.858 184.276 363.322 184.532 362.938 185.045C362.565 185.546 362.378 186.222 362.378 187.073C362.378 187.924 362.571 188.606 362.955 189.118C363.351 189.62 363.882 189.87 364.546 189.87ZM375.303 192.283C374.371 192.283 373.561 192.084 372.873 191.688C372.186 191.28 371.656 190.709 371.283 189.975C370.91 189.241 370.723 188.384 370.723 187.405C370.723 186.426 370.91 185.575 371.283 184.853C371.656 184.119 372.18 183.548 372.856 183.14C373.544 182.732 374.342 182.528 375.251 182.528C376.137 182.528 376.912 182.726 377.576 183.122C378.252 183.518 378.771 184.09 379.132 184.835C379.493 185.581 379.674 186.479 379.674 187.528V188.035H373.048C373.095 188.85 373.316 189.468 373.713 189.888C374.12 190.295 374.657 190.499 375.321 190.499C375.822 190.499 376.236 190.389 376.562 190.167C376.9 189.934 377.133 189.614 377.261 189.206L379.551 189.346C379.295 190.255 378.788 190.971 378.03 191.496C377.285 192.02 376.376 192.283 375.303 192.283ZM373.048 186.531H377.366C377.32 185.774 377.104 185.214 376.719 184.853C376.335 184.48 375.845 184.293 375.251 184.293C374.657 184.293 374.161 184.486 373.765 184.87C373.38 185.255 373.141 185.809 373.048 186.531Z" fill="#212529"/>
</g>
<defs>
<filter id="filter0_d_603_14913" x="2.74871" y="204.46" width="274.036" height="63.8126" filterUnits="userSpaceOnUse" color-interpolation-filters="sRGB">
<feFlood flood-opacity="0" result="BackgroundImageFix"/>
<feColorMatrix in="SourceAlpha" type="matrix" values="0 0 0 0 0 0 0 0 0 0 0 0 0 0 0 0 0 0 127 0" result="hardAlpha"/>
<feOffset/>
<feGaussianBlur stdDeviation="9.32145"/>
<feComposite in2="hardAlpha" operator="out"/>
<feColorMatrix type="matrix" values="0 0 0 0 0 0 0 0 0 0 0 0 0 0 0 0 0 0 0.06 0"/>
<feBlend mode="normal" in2="BackgroundImageFix" result="effect1_dropShadow_603_14913"/>
<feBlend mode="normal" in="SourceGraphic" in2="effect1_dropShadow_603_14913" result="shape"/>
</filter>
<filter id="filter1_d_603_14913" x="258.338" y="109.338" width="303.324" height="119.507" filterUnits="userSpaceOnUse" color-interpolation-filters="sRGB">
<feFlood flood-opacity="0" result="BackgroundImageFix"/>
<feColorMatrix in="SourceAlpha" type="matrix" values="0 0 0 0 0 0 0 0 0 0 0 0 0 0 0 0 0 0 127 0" result="hardAlpha"/>
<feOffset/>
<feGaussianBlur stdDeviation="9.33088"/>
<feComposite in2="hardAlpha" operator="out"/>
<feColorMatrix type="matrix" values="0 0 0 0 0 0 0 0 0 0 0 0 0 0 0 0 0 0 0.06 0"/>
<feBlend mode="normal" in2="BackgroundImageFix" result="effect1_dropShadow_603_14913"/>
<feBlend mode="normal" in="SourceGraphic" in2="effect1_dropShadow_603_14913" result="shape"/>
</filter>
<linearGradient id="paint0_linear_603_14913" x1="238.299" y1="95.9814" x2="293.299" y2="95.9814" gradientUnits="userSpaceOnUse">
<stop stop-color="#235EE7"/>
<stop offset="1" stop-color="#8B2BB3"/>
</linearGradient>
<clipPath id="clip0_603_14913">
<rect width="12.5982" height="12.5982" fill="white" transform="translate(506.652 147.379)"/>
</clipPath>
</defs>
</svg>
